<?xml version="1.0" encoding="UTF-8"?>
<svg id="Layer_1" data-name="Layer 1" xmlns="http://www.w3.org/2000/svg" version="1.1" viewBox="0 0 19.84 19.84">
  <defs>
    <style>
      .cls-1 {
        fill: none;
      }

      .cls-1, .cls-2 {
        stroke-width: 0px;
      }

      .cls-2 {
        fill: #793919;
      }
    </style>
  </defs>
  <path class="cls-1" d="M17.4,1.56c-.65-.09-1.34.41-1.97.93l-4.88,4c-.13.1-.29.14-.45.09-.16-.04-.28-.16-.34-.31-.35-1,.18-1.98.6-2.76l.09-.17c.34-.63.57-1.5.15-1.9-.14-.13-.31-.17-.45-.17-.04,0-.08,0-.12,0-.38.05-.77.3-.97.62-.36.57-.43,1.3-.5,2.07l-.03.33c-.39,4-2.31,7.87-5.26,10.6l-.33.3c-.66.59-1.27,1.15-1.55,1.88-.14.38-.14,1.07.09,1.36.06.08.13.13.28.11.38-.04.83-.6,1.2-1.06.23-.28.44-.55.65-.73,1.52-1.35,3.51-2.04,5.45-1.88.35.03.69.08,1.03.13.38.06.75.12,1.13.13.52.03,1.24-.03,1.74-.44.36-.3.59-.91.33-1.31-.19-.31-.61-.44-.93-.45-.44-.01-.89.1-1.37.23l-3.16.85c-.18.05-.37,0-.5-.14s-.17-.33-.11-.5c.96-2.79,3.14-5.16,5.85-6.35.5-.22,1.02-.4,1.54-.58.76-.27,1.49-.52,2.15-.89.97-.55,1.62-1.32,1.77-2.11.09-.45-.03-.98-.31-1.37-.15-.21-.42-.47-.81-.52Z"/>
  <path class="cls-2" d="M19.02,1.5c-.38-.52-.91-.85-1.5-.93-1.04-.13-1.96.52-2.73,1.15l-4.05,3.33c.11-.35.31-.71.5-1.06l.09-.17c.68-1.27.66-2.43-.05-3.1-.36-.34-.85-.49-1.38-.42-.67.09-1.32.5-1.69,1.07-.5.77-.57,1.66-.65,2.52l-.03.32c-.37,3.76-2.17,7.39-4.94,9.96l-.32.29c-.71.64-1.45,1.31-1.81,2.26-.25.66-.24,1.71.22,2.32.25.33.61.51,1.03.51.05,0,.09,0,.14,0,.8-.08,1.37-.79,1.88-1.42.19-.24.36-.46.54-.61,1.3-1.15,3.06-1.76,4.71-1.63.32.02.64.07.96.12.41.06.82.12,1.24.14.98.04,1.83-.18,2.42-.67.71-.59,1.1-1.72.54-2.61-.34-.53-.98-.88-1.72-.92-.6-.04-1.15.12-1.68.26l-2.2.59c.99-2.13,2.79-3.91,4.94-4.85.48-.21.97-.38,1.46-.55.77-.27,1.57-.55,2.31-.96.72-.41,1.98-1.31,2.26-2.79.14-.73-.04-1.53-.49-2.14ZM18.53,3.45c-.15.79-.8,1.56-1.77,2.11-.67.37-1.39.62-2.15.89-.52.18-1.04.36-1.54.58-2.7,1.18-4.89,3.56-5.85,6.35-.06.18-.02.37.11.5s.32.19.5.14l3.16-.85c.48-.13.93-.24,1.37-.23.32.02.74.15.93.45.25.4.03,1.01-.33,1.31-.5.41-1.22.47-1.74.44-.38-.02-.76-.08-1.13-.13-.34-.05-.69-.1-1.03-.13-1.94-.16-3.93.53-5.45,1.88-.21.18-.42.45-.65.73-.37.45-.82,1.02-1.2,1.06-.15.01-.22-.04-.28-.11-.22-.3-.23-.99-.09-1.36.28-.73.9-1.28,1.55-1.88l.33-.3c2.95-2.73,4.87-6.59,5.26-10.6l.03-.33c.07-.77.13-1.5.5-2.07.21-.32.6-.57.97-.62.04,0,.08,0,.12,0,.15,0,.32.04.45.17.43.4.19,1.27-.15,1.9l-.09.17c-.42.79-.95,1.77-.6,2.76.05.15.18.27.34.31.16.04.32,0,.45-.09l4.88-4c.63-.52,1.32-1.02,1.97-.93.4.05.66.31.81.52.28.39.4.91.31,1.37Z"/>
</svg>