<?xml version="1.0" encoding="UTF-8"?>
<svg id="Layer_1" data-name="Layer 1" xmlns="http://www.w3.org/2000/svg" version="1.1" viewBox="0 0 19.84 19.84">
  <defs>
    <style>
      .cls-1, .cls-2 {
        stroke-width: 0px;
      }

      .cls-1, .cls-3 {
        fill: none;
      }

      .cls-2 {
        fill: #ec1e24;
      }

      .cls-3 {
        stroke: #000;
        stroke-width: .3px;
      }
    </style>
  </defs>
  <g>
    <line class="cls-3" x1="3.98" y1="-51.13" x2="3.98" y2="-15.13"/>
    <line class="cls-3" x1="-50.02" y1="2.87" x2="-14.02" y2="2.87"/>
    <line class="cls-3" x1="-50.02" y1="16.97" x2="-14.02" y2="16.97"/>
    <line class="cls-3" x1="3.98" y1="70.97" x2="3.98" y2="34.97"/>
    <line class="cls-3" x1="20.37" y1="-51.13" x2="20.37" y2="-15.13"/>
    <line class="cls-3" x1="74.37" y1="2.87" x2="38.37" y2="2.87"/>
    <line class="cls-3" x1="74.37" y1="16.97" x2="38.37" y2="16.97"/>
    <line class="cls-3" x1="20.37" y1="70.97" x2="20.37" y2="34.97"/>
  </g>
  <g>
    <path class="cls-1" d="M13.36,3.72c.74-.25,1.57-1.2,2.12-1.94-.45-.08-1.03-.15-1.59-.15-.48,0-.88.05-1.19.16-.73.25-1.35,1.09-1.71,1.71.42.16,1.04.33,1.64.33.27,0,.51-.04.73-.11Z"/>
    <path class="cls-1" d="M15.46,3.65c-.51.52-1.1.99-1.72,1.2-.33.11-.71.17-1.11.17-.81,0-1.59-.23-2.11-.43v2.12c.75-.13,1.48-.56,2.18-1.35.19-.21.51-.23.72-.04.21.19.23.51.04.72-1.03,1.16-2.16,1.75-3.37,1.75h-.04c-2.01-.02-3.44-1.69-3.5-1.76-.18-.21-.16-.54.06-.72.21-.18.54-.15.72.06.01.02.92,1.06,2.17,1.33v-2.06c-.61-.38-1.33-.79-1.5-.85-.69-.24-1.17-.38-2.43-.32-2.12.11-3.82,1.66-4.04,3.7-.33,3.05.59,7.63,4.23,10.52.78.62,2.22.49,3.28.4.32-.03.62-.05.87-.06.34,0,.74.04,1.16.08,1.07.12,2.4.26,3.08-.38,4.19-4.02,4.38-7.96,4.16-10.57-.14-1.63-1.28-3.02-2.85-3.5Z"/>
    <path class="cls-2" d="M19.5,7.05c-.16-1.95-1.43-3.63-3.21-4.37.37-.49.63-.89.69-1,.1-.16.11-.36.04-.53-.07-.17-.22-.3-.4-.35-.06-.01-1.39-.36-2.73-.36-.62,0-1.14.07-1.57.22-.75.26-1.35.84-1.79,1.41v-.75c0-.28-.23-.51-.51-.51s-.51.23-.51.51v1.92c-.42-.25-.89-.51-1.12-.59-.8-.28-1.44-.45-2.88-.38C2.8,2.42.63,4.42.35,7.04,0,10.38,1,15.42,5.02,18.61c1.15.91,2.87.76,4.12.65.3-.03.58-.05.79-.06.26,0,.63.03,1.01.08.46.05.98.11,1.51.11.91,0,1.84-.17,2.51-.82,3.42-3.28,4.9-7.05,4.53-11.53ZM12.7,1.79c.3-.1.7-.16,1.19-.16.56,0,1.14.07,1.59.15-.55.74-1.38,1.69-2.12,1.94-.21.07-.46.11-.73.11-.6,0-1.22-.18-1.64-.33.36-.62.97-1.46,1.71-1.71ZM14.15,17.72c-.67.64-2,.5-3.08.38-.42-.05-.82-.09-1.16-.08-.26,0-.56.03-.87.06-1.05.09-2.5.22-3.28-.4C2.12,14.79,1.21,10.21,1.53,7.16c.22-2.03,1.92-3.59,4.04-3.7,1.26-.06,1.74.08,2.43.32.18.06.9.48,1.5.85v2.06c-1.25-.27-2.16-1.31-2.17-1.33-.18-.21-.5-.24-.72-.06-.21.18-.24.5-.06.72.06.07,1.49,1.73,3.5,1.76h.04c1.21,0,2.34-.59,3.37-1.75.19-.21.17-.53-.04-.72-.21-.19-.53-.17-.72.04-.69.78-1.43,1.22-2.18,1.35v-2.12c.52.2,1.3.43,2.11.43.4,0,.78-.06,1.11-.17.62-.21,1.21-.68,1.72-1.2,1.57.48,2.72,1.87,2.85,3.5.22,2.61.02,6.55-4.16,10.57Z"/>
  </g>
</svg>