<?xml version="1.0" encoding="UTF-8"?>
<svg id="Layer_1" data-name="Layer 1" xmlns="http://www.w3.org/2000/svg" version="1.1" viewBox="0 0 19.84 19.84">
  <defs>
    <style>
      .cls-1 {
        fill: #178943;
      }

      .cls-1, .cls-2 {
        stroke-width: 0px;
      }

      .cls-2 {
        fill: #fff;
      }
    </style>
  </defs>
  <path class="cls-2" d="M9.02,1.86l.92,1.95.92-1.96c-.41-.34-.74-.58-.92-.67-.18.09-.51.34-.92.68Z"/>
  <path class="cls-2" d="M6.21,4.1l1.72,1.56c.37-.32.85-.66,1.44-.99l-1.34-2.85c-.54.38-1.47,1.17-1.82,2.28Z"/>
  <path class="cls-2" d="M10.5,4.65c.36.2.91.55,1.47,1.02l.71-.65.98-.93c-.35-1.11-1.29-1.9-1.82-2.28l-1.33,2.84Z"/>
  <path class="cls-2" d="M12.61,6.28c.22.24.4.5.56.77.47-.34.85-.58.97-.65.19-.11.42-.07.56.09.29.35.52.71.71,1.07l.51-.55c0-.34-.1-1.36-1.25-2.6l-2.05,1.87Z"/>
  <path class="cls-2" d="M4,7.01l.55.6c.21-.38.45-.76.79-1.13.14-.16.37-.19.55-.08.11.07.47.29.92.61.11-.21.28-.46.5-.72l-2.06-1.88c-1.15,1.24-1.25,2.26-1.25,2.6Z"/>
  <path class="cls-2" d="M10.23,9.46c.14.13.26.25.39.37.34-.83,1.11-1.63,1.86-2.24-.58-1.1-2.02-1.96-2.54-2.25-1.69.9-2.24,1.81-2.41,2.22.72.59,1.47,1.35,1.84,2.15.1-.09.19-.18.29-.26.17-.14.42-.14.58.01Z"/>
  <path class="cls-2" d="M17.5,10.46l-1.32.69c-.04.08-.09.15-.17.19l-2.69,1.48c.92,1.26,1.53,2.47,1.83,3.64,2.36-2.02,2.44-4.8,2.35-6.01Z"/>
  <path class="cls-2" d="M11.33,10.52c.54.55,1.01,1.09,1.45,1.62l2.54-1.4c.05-.8-.19-1.61-.33-2-.03-.07-.06-.15-.09-.23h0c-.16-.38-.36-.77-.64-1.15-1.22.79-2.81,2.16-2.93,3.16Z"/>
  <path class="cls-2" d="M15.81,8.42c.13.35.34,1.01.39,1.74l.93-.49c.12-.36.36-1.39-.05-2.62l-1.26,1.37Z"/>
  <path class="cls-2" d="M4.79,16.52c.45-1.34,1.07-2.59,1.84-3.74l-2.6-1.43-1.69-.89c-.07,1.23.09,4.03,2.44,6.05Z"/>
  <path class="cls-2" d="M5.12,8.4c0,.06,0,.13-.02.18,0,.01-.46,1.06-.42,2.12l2.47,1.37c.46-.6.97-1.18,1.52-1.72-.26-.99-1.75-2.25-2.9-3.01-.28.36-.49.71-.64,1.06Z"/>
  <path class="cls-2" d="M2.87,9.75l.93.49c.05-.73.26-1.39.39-1.74l-1.26-1.37c-.42,1.24-.17,2.26-.05,2.62Z"/>
  <path class="cls-2" d="M14.4,17.09c-.39-2.06-1.86-4.26-4.48-6.72-2.1,1.85-3.59,4.11-4.42,6.73,4.44,3.25,8.07.68,8.89,0Z"/>
  <path class="cls-1" d="M12.09,19.24c1.2-.33,2.27-.92,3.16-1.73,3.96-2.91,3.03-7.77,3.02-7.82-.02-.11-.1-.21-.19-.27.14-.75.2-2-.48-3.37-.06-.13-.19-.22-.33-.24-.13-.02-.28.03-.38.14l-.22.24c-.18-.7-.61-1.67-1.69-2.71-.17-.16-.43-.16-.6,0l-.02.02c-.71-1.71-2.42-2.66-2.5-2.7-.11-.06-.23-.07-.35-.03-.11.04-.21.12-.26.23l-.03.05c-.62-.48-1.1-.76-1.3-.76s-.67.29-1.29.78l-.03-.07c-.05-.11-.14-.19-.26-.23-.11-.04-.24-.03-.35.03-.08.04-1.78.99-2.49,2.68-.17-.14-.42-.14-.58.01-1.08,1.04-1.51,2.01-1.69,2.7l-.14-.16c-.1-.1-.24-.16-.38-.14-.14.02-.27.11-.33.24-.64,1.29-.63,2.47-.5,3.23-.04,0-.07,0-.11.02-.13.06-.21.18-.24.32-.04.2-.79,4.88,3.06,7.79,1.05.96,2.36,1.63,3.85,1.9.52.11,1.02.16,1.5.16.51,0,.99-.07,1.45-.16.2-.04.39-.08.58-.13.04-.01.08-.02.11-.03ZM5.51,17.09c.83-2.62,2.31-4.88,4.42-6.73,2.62,2.46,4.09,4.67,4.48,6.72-.83.68-4.46,3.25-8.89,0ZM7.52,7.56c.17-.41.72-1.32,2.41-2.22.52.28,1.96,1.14,2.54,2.25-.74.62-1.52,1.42-1.86,2.24-.13-.12-.25-.25-.39-.37-.16-.15-.41-.15-.58-.01-.1.08-.19.18-.29.26-.37-.8-1.12-1.56-1.84-2.15ZM14.9,8.5h0s0,0,0,0c.03.08.06.15.09.23.14.38.39,1.2.33,2l-2.54,1.4c-.43-.53-.9-1.07-1.45-1.62.12-1,1.71-2.37,2.93-3.16.28.38.48.77.64,1.15ZM8.66,10.35c-.55.54-1.06,1.12-1.52,1.72l-2.47-1.37c-.04-1.05.42-2.1.42-2.12.03-.06.02-.12.02-.18.16-.34.37-.7.64-1.06,1.15.75,2.64,2.02,2.9,3.01ZM15.15,16.48c-.3-1.18-.91-2.39-1.83-3.64l2.69-1.48c.08-.04.13-.12.17-.19l1.32-.69c.1,1.21,0,4-2.35,6.01ZM2.34,10.47l1.69.89,2.6,1.43c-.78,1.15-1.39,2.4-1.84,3.74-2.36-2.02-2.51-4.82-2.44-6.05ZM17.12,9.67l-.93.49c-.05-.73-.26-1.38-.39-1.74l1.26-1.37c.41,1.24.17,2.26.05,2.62ZM15.92,7.01l-.51.55c-.19-.36-.42-.72-.71-1.07-.14-.17-.37-.2-.56-.09-.12.07-.5.31-.97.65-.16-.27-.35-.53-.56-.77l2.05-1.87c1.15,1.24,1.25,2.26,1.25,2.6ZM13.66,4.1l-.98.93-.71.65c-.56-.47-1.11-.82-1.47-1.02l1.33-2.84c.54.38,1.48,1.18,1.82,2.28ZM9.93,3.81l-.92-1.95c.41-.34.74-.58.92-.68.18.09.51.33.92.67l-.92,1.96ZM9.37,4.67c-.59.33-1.08.67-1.44.99l-1.72-1.56c.35-1.11,1.28-1.9,1.82-2.28l1.34,2.85ZM7.32,6.29c-.22.27-.39.52-.5.72-.45-.32-.81-.55-.92-.61-.18-.11-.41-.07-.55.08-.34.38-.58.76-.79,1.13l-.55-.6c0-.34.1-1.36,1.25-2.6l2.06,1.88ZM4.18,8.5c-.13.35-.34,1.01-.39,1.74l-.93-.49c-.12-.36-.36-1.39.05-2.62l1.26,1.37Z"/>
</svg>