<?xml version="1.0" encoding="UTF-8"?>
<svg id="Layer_1" data-name="Layer 1" xmlns="http://www.w3.org/2000/svg" version="1.1" viewBox="0 0 19.84 19.84">
  <defs>
    <style>
      .cls-1 {
        fill: none;
      }

      .cls-1, .cls-2, .cls-3 {
        stroke-width: 0px;
      }

      .cls-2 {
        fill: #cebb8d;
      }

      .cls-3 {
        fill: #fff;
      }
    </style>
  </defs>
  <path class="cls-1" d="M18.97,7.41s-.14-.06-.25.04c-1.55,1.52-3.22,2.92-4.98,4.15-.1.07-.23.04-.31-.06-.45.59-.94,1.18-1.46,1.73-1.67,1.81-3.61,3.31-5.54,4.36,1.96-.28,4.16-1.11,6.18-2.35,4.31-2.63,6.41-6.12,6.48-7.65,0-.14-.08-.2-.12-.22ZM17.04,10.71c-1.89,2.46-5.69,4.63-5.85,4.72-.03.02-.07.03-.11.03-.08,0-.16-.05-.2-.13-.06-.13-.02-.27.09-.34.04-.03,3.88-2.22,5.72-4.6.08-.1.23-.12.33-.03.09.08.11.25.03.35Z"/>
  <path class="cls-1" d="M12.77,10.96c2.8-3.67,3.94-7.4,3.59-9.04-.01-.05-.04-.11-.07-.15l-.26-.1c-.07,0-.15.04-.21.14-.63,1.06-1.3,2.09-2,3.1.06.02.13.03.18.05.18.06.34.14.49.24.28.18.42.5.38.85-.05.35-.29.62-.61.71-.8.21-1.58.47-2.36.75-3.05,3.86-6.62,7.24-10.56,9.95-.12.08-.18.23-.15.39.01.08.07.24.24.28.9.2,2.18-.1,3.64-.76,2.16-.98,4.39-2.65,6.27-4.69.51-.55,1-1.12,1.44-1.71Z"/>
  <path class="cls-2" d="M19.17,6.95c-.25-.13-.54-.07-.75.13-1.4,1.36-2.91,2.62-4.48,3.75,2.35-3.31,3.72-7.04,3.28-9.11-.06-.25-.2-.49-.38-.66l-.58-.26-.15-.03c-.44,0-.84.2-1.07.58-.68,1.16-1.42,2.28-2.19,3.37-.4-.03-.84-.03-1.3,0-1.7.14-3.6.72-5.33,1.65-.48.25-.93.53-1.35.81C2.42,8.83.53,11.15.37,12.72c-.01.18.03.36.11.51l.32.3.08.05c.1.04.21.06.31.06.18,0,.36-.07.51-.19,2.56-2.22,5.46-4.02,8.52-5.31-2.77,3.3-5.95,6.2-9.41,8.58-.4.28-.6.76-.52,1.26.09.5.44.89.91,1,.25.06.51.08.78.08.95,0,2.13-.31,3.42-.9.04.03.08.06.14.06h0c2.24-.13,4.89-1.05,7.28-2.51,4.1-2.5,6.63-6.06,6.72-8.06.02-.3-.14-.56-.39-.69ZM1.15,13.05l-.16-.14s-.03-.09-.02-.14c.11-1.17,1.63-3.35,4.24-5.09.4-.27.84-.53,1.3-.78,1.66-.89,3.47-1.45,5.1-1.58.88-.07,1.66,0,2.19.19.14.05.26.11.37.18.09.06.13.16.12.27-.02.11-.08.19-.18.22-4.63,1.23-9.05,3.59-12.77,6.82-.06.05-.13.05-.17.04ZM1.41,18.12c-.17-.04-.23-.2-.24-.28-.02-.16.03-.3.15-.39,3.95-2.71,7.51-6.1,10.56-9.95.78-.28,1.57-.53,2.36-.75.32-.09.56-.35.61-.71.04-.35-.1-.67-.38-.85-.15-.1-.31-.17-.49-.24-.06-.02-.12-.03-.18-.05.7-1.01,1.38-2.04,2-3.1.06-.1.15-.13.21-.14l.26.1s.06.1.07.15c.35,1.65-.79,5.37-3.59,9.04-.44.58-.93,1.16-1.44,1.71-1.89,2.04-4.11,3.71-6.27,4.69-1.46.67-2.74.97-3.64.76ZM12.61,15.28c-2.02,1.24-4.22,2.07-6.18,2.35,1.93-1.05,3.87-2.55,5.54-4.36.52-.56,1.01-1.14,1.46-1.73.08.1.21.13.31.06,1.76-1.24,3.43-2.63,4.98-4.15.1-.1.21-.05.25-.04s.13.08.12.22c-.07,1.53-2.17,5.02-6.48,7.65Z"/>
  <path class="cls-3" d="M14.1,6.18c.1-.03.16-.1.18-.22.01-.11-.03-.22-.12-.27-.11-.07-.23-.13-.37-.18-.54-.2-1.31-.26-2.19-.19-1.62.13-3.43.69-5.1,1.58-.46.24-.9.51-1.3.78-2.6,1.74-4.12,3.92-4.24,5.09,0,.04,0,.09.02.14l.16.14s.11.01.17-.04c3.72-3.24,8.14-5.6,12.77-6.82Z"/>
  <path class="cls-2" d="M16.68,10.39c-1.84,2.38-5.68,4.57-5.72,4.6-.11.06-.15.21-.09.34.04.08.12.13.2.13.04,0,.08,0,.11-.03.16-.09,3.96-2.26,5.85-4.72.08-.1.07-.26-.03-.35-.1-.09-.25-.07-.33.03Z"/>
</svg>