<?xml version="1.0" encoding="UTF-8"?>
<svg id="Layer_1" data-name="Layer 1" xmlns="http://www.w3.org/2000/svg" version="1.1" viewBox="0 0 19.84 19.84">
  <defs>
    <style>
      .cls-1 {
        fill: none;
      }

      .cls-1, .cls-2 {
        stroke-width: 0px;
      }

      .cls-2 {
        fill: #793919;
      }
    </style>
  </defs>
  <polygon class="cls-1" points="6.92 9.89 6.92 9.89 6.92 9.89 6.92 9.89"/>
  <path class="cls-1" d="M14.02,7.25l.04-.03c.26-.19.5-.44.7-.73,0-.28-.03-1.36-.4-2.36-.03-.08-.06-.14-.08-.19l-.03-.06c-.22.14-.45.19-.65.21.01.14-.06.28-.19.34l-.06.02c-.15.04-.31-.04-.38-.18l-.16-.35c-.06-.05-.14-.1-.21-.15-.13-.08-.24-.14-.35-.19-.04-.02-.06-.03-.09-.03-.07-.02-.11-.03-.15-.03l-.06-.19h0v.19c-.48.2-2.01-.34-2.88-.68,0,0-.01,0-.03-.01.16.09.34.19.52.31.33.2.63.4.83.53l.26.18c1.16.79,2.53,1.87,2.99,2.6.15.23.25.52.31.86.02-.01.03-.02.05-.03Z"/>
  <polygon class="cls-1" points="11.91 3.03 11.91 3.03 11.91 3.03 11.91 3.03"/>
  <path class="cls-1" d="M13.36,7.72c-.02-.4-.11-.71-.25-.94-.36-.56-1.42-1.47-2.84-2.43l-.11-.07h0c-.93-.63-1.56-.97-1.86-1.12-.31-.15-.45-.2-.5-.21-.03.02-.06.05-.08.07-.09.09-.19.22-.31.38-.12.16-.25.35-.37.55-.08.13-.16.26-.24.4-.19.33-.37.66-.5.95l.7.6s.21.34.49.63l.08.08c.05.05.11.1.17.15.06.05.11.09.17.13l.72.46c.06.04.1.08.12.14,0,0,.19.32.93.62l.96.38c.06.02.11.06.15.11.11.15.57.77.83.96l-.06.19.11-.16s.1.05.16.09c.14.11.31.3.52.55l.14.17c.09.12.22.26.33.39.2-.61.55-1.78.56-2.79v-.28Z"/>
  <path class="cls-1" d="M14.55,2.02c0,.06.05.38.07.53.07.38.1.59.09.74.35.67.53,1.41.62,2.01.41-1.42-.11-3.19-.42-4.04-.12.19-.26.44-.37.76Z"/>
  <path class="cls-1" d="M12.54,11.46c-.15-.14-.33-.35-.57-.65-.14-.17-.33-.4-.46-.53-.61.26-1.31.42-2.06.48h-.11s0,0,0,0c-.14,0-.29.01-.43.02-.19,0-.38,0-.58-.01.07.07.14.14.21.22l.05.06c.57.65,1.08,1.44,1.49,2.29.02,0,.04-.01.06-.02v-.07s.16-.03.16-.03h0s.02.05.02.05c0,0,0,0,0,0v-.05s.01.04.01.04c.23-.08.47-.18.7-.32l.09-.05c.62-.38,1.14-.89,1.42-1.42Z"/>
  <path class="cls-1" d="M9.61,13.96l-.14-.3c-.39-.82-.88-1.58-1.41-2.19l-.08-.1c-.25-.28-.52-.53-.79-.74-.08-.06-.16-.12-.25-.18-.11-.08-.22-.14-.34-.21-.04-.02-.09-.05-.13-.07-.1-.05-.18-.08-.26-.12-.54-.21-.88-.23-1.03-.22-.47.82-.73,1.48-.8,2.06l-.02.08c-.05.12,0,.27.13.38.21.17.39.35.43.39l.81.63c.11.09.16.25.1.38-.04.11.37.44.85.63l.05.03c.13.06.2.24.14.4-.2.5.32.74.42.78.08.03.14.09.18.17s.04.17,0,.25c-.37.95-.05,1.66-.05,1.66.04.08.04.18.01.27-.17.43-.06.75.04.91.54-.03,2.24-.22,2.72-1.44.27-.69.04-2.05-.59-3.48Z"/>
  <polygon class="cls-1" points="5.38 13.92 5.38 13.92 5.38 13.92 5.38 13.92"/>
  <polygon class="cls-1" points="6 14.59 6 14.59 6 14.59 6 14.59"/>
  <polygon class="cls-1" points="6.28 14.74 6.27 14.76 6.28 14.76 6.28 14.74 6.28 14.74"/>
  <path class="cls-1" d="M5.42,14.02h0Z"/>
  <polygon class="cls-1" points="5.7 14.37 5.7 14.37 5.7 14.37 5.7 14.37"/>
  <path class="cls-2" d="M15.32.48c-.04-.1-.13-.17-.23-.19-.1-.02-.21,0-.29.07-.05.05-.58.52-.88,1.45-.06.17-.03.42.06.92.02.11.06.36.07.47,0,0,0,0,0,0-.33.29-.69.22-.8.19-.03-.02-.06-.04-.11-.08-.04-.03-.07-.05-.12-.09l-.04-.03c-.12-.07-.23-.14-.37-.21-.03-.01-.06-.02-.09-.04-.05-.02-.11-.04-.18-.06-.04-.01-.07-.02-.14-.03-.03,0-.07-.01-.13-.02-.03,0-.06,0-.09,0h-.13s-.09.04-.13.05c-.18.06-1.24-.24-2.38-.69-.11-.05-1.13-.42-1.77.13-.62.3-1.67,2.22-1.97,2.94l-.02.09c-.01.07,0,.15.03.21.03.06.08.11.17.15l.7.57c.14.22.56.82,1.09,1.16l.66.42c.12.18.45.55,1.26.87l.85.33c.13.17.37.48.6.73-.54.18-1.14.29-1.83.31-.26.01-.54,0-.85-.01v.19s-.06-.19-.06-.19c-.25-.02-.49-.04-.69-.07-.02-.02-.04-.03-.06-.04l-.11.16.06-.2-.09-.07c-.06-.04-.12-.08-.21-.13l-.05-.03c-.07-.04-.14-.07-.23-.12l-.04-.02c-.09-.05-.19-.09-.28-.12-1-.39-1.51-.25-1.6-.22-.07.03-.13.08-.17.14-.57.96-.87,1.74-.95,2.39-.14.39,0,.83.33,1.11.18.15.34.31.38.34l.72.57s0,.04,0,.07c0,.03,0,.06.02.1v.05s.03.05.05.08l.02.05s.03.05.04.08l.03.04s.04.05.09.11c.03.03.06.07.11.11l.18.15s.03.03.07.05l.39.22c-.08.53.23.94.59,1.18-.25.85-.08,1.51.01,1.78-.31.97.28,1.57.3,1.59.06.06.14.1.24.1.28,0,2.78-.05,3.5-1.87.32-.8.13-2.22-.49-3.73.39-.12.77-.29,1.16-.52.84-.52,1.5-1.24,1.79-1.99.08-.2.74-1.93.75-3.43.11-.06.22-.12.33-.19h.03l.04-.05c.34-.25.65-.57.91-.95.1-.09.25-.3.52-.99.88-2.22-.48-5.23-.53-5.35ZM15.33,5.3c-.09-.6-.27-1.34-.62-2.01.01-.15-.02-.36-.09-.74-.03-.15-.08-.47-.07-.53.11-.32.24-.58.37-.76.31.86.82,2.62.42,4.04ZM7.48,18.89c-.1-.16-.21-.48-.04-.91.03-.09.03-.18-.01-.27,0,0-.33-.71.05-1.66.03-.08.03-.17,0-.25s-.1-.14-.18-.17c-.11-.04-.62-.29-.42-.78.06-.16,0-.34-.14-.4l-.05-.03c-.48-.19-.89-.52-.85-.63.05-.14.01-.29-.1-.38l-.81-.63s-.22-.22-.43-.39c-.13-.11-.18-.26-.13-.38l.02-.08c.07-.58.32-1.24.8-2.06.15-.01.49,0,1.03.22.08.03.16.07.26.12.04.02.09.04.13.07.11.06.23.13.34.21.08.06.16.11.25.18.27.21.54.46.79.74l.08.1c.53.61,1.02,1.36,1.41,2.19l.14.3c.63,1.43.86,2.79.59,3.48-.48,1.22-2.17,1.41-2.72,1.44ZM11.03,12.94c-.23.13-.47.24-.7.32l-.02-.04v.05s0,0,0,0l-.02-.04h0s-.16.03-.16.03v.07s-.04.01-.06.02c-.41-.85-.92-1.64-1.49-2.29l-.05-.06c-.07-.08-.14-.15-.21-.22.2.01.4.01.58.01.15,0,.29,0,.43-.02h0s.11,0,.11,0c.75-.06,1.45-.22,2.06-.48.13.13.32.36.46.53.24.3.42.51.57.65-.29.54-.8,1.05-1.42,1.42l-.09.05ZM12.81,10.79c-.11-.13-.23-.28-.33-.39l-.14-.17c-.21-.25-.37-.44-.52-.55-.06-.04-.11-.07-.16-.09l-.11.16.06-.19c-.26-.2-.72-.81-.83-.96-.04-.05-.09-.09-.15-.11l-.96-.38c-.74-.3-.93-.62-.93-.62-.03-.06-.07-.11-.12-.14l-.72-.46c-.06-.04-.12-.08-.17-.13-.06-.05-.12-.1-.17-.15l-.08-.08c-.28-.29-.47-.6-.49-.63l-.7-.6c.13-.28.3-.61.5-.95.08-.14.16-.27.24-.4.13-.2.26-.39.37-.55.12-.16.22-.29.31-.38.02-.02.05-.04.08-.07.05.01.19.06.5.21.29.15.92.48,1.86,1.11h0s.11.08.11.08c1.42.96,2.49,1.87,2.84,2.43.14.23.23.54.25.94v.28c0,1-.35,2.18-.55,2.79ZM13.66,6.42c-.47-.73-1.84-1.81-2.99-2.6l-.26-.18c-.2-.13-.5-.33-.83-.53-.19-.11-.36-.22-.52-.31.02,0,.03,0,.03.01.87.34,2.39.88,2.89.68v-.19s0,0,0,0l.06.19s.08.01.15.03c.03,0,.05.02.09.03.1.04.22.11.35.19.08.05.15.1.21.15l.16.35c.07.15.23.23.38.18l.06-.02c.13-.06.21-.2.19-.34.2-.02.42-.07.65-.21l.03.06c.03.06.05.11.08.19.38,1,.4,2.08.4,2.36-.2.29-.44.54-.7.73l-.04.03s-.03.02-.05.03c-.06-.34-.16-.62-.31-.86ZM11.91,3.03h0s0,0,0,0ZM6.92,9.89h0s0,0,0,0ZM5.38,13.92h0s0,0,0,0h0ZM5.42,14.02h0ZM5.7,14.37s0,0,0,0h0s0,0,0,0ZM6,14.59h0s0,0,0,0ZM6.27,14.76v-.02h0v.02s0,0,0,0Z"/>
</svg>