<?xml version="1.0" encoding="UTF-8"?>
<svg id="Layer_1" data-name="Layer 1" xmlns="http://www.w3.org/2000/svg" version="1.1" viewBox="0 0 19.84 19.84">
  <defs>
    <style>
      .cls-1 {
        fill: none;
      }

      .cls-1, .cls-2 {
        stroke-width: 0px;
      }

      .cls-2 {
        fill: #cebb8d;
      }
    </style>
  </defs>
  <path class="cls-1" d="M10.58,12.8c-.21.15-.51.09-.65-.12-.15-.21-.09-.51.12-.65l1.7-1.17c.08-.06.17-.07.26-.07-.06-.28-.1-.56-.18-.86-.45-1.78-1.82-3.34-3.76-4.26-1.69-.8-3.51-.98-4.65-.45,0,0,0,0,0,0,.04-.02.04-.02.08-.05-.09.08-.17.11-.25.13-2.61.81-2.14,5.03-1.65,6.99l1.51-1.1c.21-.15.5-.1.66.1.15.21.1.5-.1.66l-1.54,1.12c-.07.05-.16.07-.25.08.25.62.53.93.88,1.31.41.44.92.98,1.51,2.13.7,1.37,3.59,1.98,4.94,1.35,0,0,.07-.03.07-.03,0,0,.05-.02.05-.02,2.29-1.07,3.21-3.1,2.83-6.16l-1.59,1.09ZM9.1,9.39l-1.44,1.06c-.21.15-.5.11-.66-.1-.15-.21-.11-.5.1-.66l1.44-1.06c.21-.15.5-.11.66.1.15.21.11.5-.1.66Z"/>
  <path class="cls-1" d="M14.79,1.85s0,0,0,0c.04,0,.05,0,.1,0-.12.01-.2-.02-.27-.04-2.56-.89-4.42,2.38-4.86,3.6-.02.04-.04.08-.07.11.14.09.28.19.41.29.02,0,.04-.01.06-.01h1.68s0,.01,0,.01c.26,0,.47.21.47.47,0,.26-.21.47-.47.47h-.72c.79.86,1.36,1.86,1.64,2.95.4,1.58.52,2.97.39,4.19,1.78.1,3.23-.85,4.38-2.87l-1.6-.05c-.26,0-.46-.22-.45-.48,0-.26.22-.46.48-.45l1.82.06c.07,0,.14.03.2.06.1-.21.2-.41.29-.64.61-1.49.45-3.29-.44-4.94-.77-1.44-1.96-2.5-3.02-2.72ZM16.65,7.77h-1.58c-.26,0-.47-.2-.47-.46,0-.26.21-.47.47-.47h1.58c.26,0,.47.2.47.46,0,.26-.21.47-.47.47Z"/>
  <path class="cls-2" d="M8.54,8.63l-1.44,1.06c-.21.15-.25.45-.1.66.15.21.45.25.66.1l1.44-1.06c.21-.15.25-.45.1-.66-.15-.21-.45-.25-.66-.1Z"/>
  <path class="cls-2" d="M18.64,4.12c-.91-1.7-2.32-2.92-3.66-3.19-.02,0-.03,0-.04,0,0,0,0,0-.01,0-2.9-1.01-5.22,1.97-6.03,4.12-.14-.07-.27-.15-.41-.22-1.93-.92-4.07-1.1-5.44-.45-.02.01-.04.02-.06.03C-.39,5.45.08,10.41.8,12.88c.36,1.23.81,1.71,1.29,2.21.39.41.83.88,1.36,1.91.96,1.86,4.4,2.6,6.17,1.77,0,0,.06-.03.06-.03,0,0,.06-.03.05-.03,1.75-.81,2.81-2.13,3.24-3.91,2.66.2,4.73-1.46,6.16-4.96.71-1.75.54-3.84-.48-5.74ZM9.34,17.87s-.05.02-.05.02c0,0-.07.03-.07.03-1.35.63-4.24.02-4.94-1.35-.59-1.15-1.1-1.69-1.51-2.13-.36-.38-.64-.69-.88-1.31.09,0,.17-.03.25-.08l1.54-1.12c.21-.15.26-.45.1-.66-.15-.21-.45-.26-.66-.1l-1.51,1.1c-.49-1.95-.96-6.18,1.65-6.99.08-.02.16-.05.25-.13-.03.03-.04.03-.08.05,0,0,0,0,0,0,1.14-.53,2.96-.35,4.65.45,1.94.92,3.31,2.47,3.76,4.26.08.3.12.58.18.86-.09,0-.18.02-.26.07l-1.7,1.17c-.21.15-.27.44-.12.65.15.21.44.27.65.12l1.59-1.09c.38,3.06-.54,5.09-2.83,6.16ZM18.26,9.51c-.09.23-.19.43-.29.64-.06-.03-.13-.06-.2-.06l-1.82-.06c-.26,0-.48.19-.48.45,0,.26.19.48.45.48l1.6.05c-1.15,2.02-2.6,2.96-4.38,2.87.13-1.22,0-2.6-.39-4.19-.27-1.09-.84-2.09-1.64-2.95h.72c.26,0,.47-.2.47-.46,0-.26-.21-.47-.47-.47h-1.68s-.04,0-.06,0c-.13-.1-.27-.19-.41-.29.03-.03.05-.07.07-.11.45-1.22,2.3-4.49,4.86-3.6.07.02.15.05.27.04-.05,0-.05,0-.1,0,0,0,0,0,0,0,1.07.21,2.25,1.28,3.02,2.72.89,1.65,1.05,3.45.44,4.94Z"/>
  <path class="cls-2" d="M16.65,6.83h-1.58c-.26,0-.47.22-.47.48,0,.26.21.47.47.47h1.58c.26,0,.47-.22.47-.48,0-.26-.21-.47-.47-.47Z"/>
</svg>