<?xml version="1.0" encoding="UTF-8"?>
<svg id="Layer_1" data-name="Layer 1" xmlns="http://www.w3.org/2000/svg" version="1.1" viewBox="0 0 19.84 19.84">
  <defs>
    <style>
      .cls-1 {
        fill: #fcb514;
      }

      .cls-1, .cls-2 {
        stroke-width: 0px;
      }

      .cls-2 {
        fill: #fff;
      }
    </style>
  </defs>
  <path class="cls-2" d="M17.37,10.81c-2.67,1.1-4.18,1.63-6.56,1.72-2.87.12-6.17-.98-7.6-3.59-.07-.11-.13-.22-.19-.34-.02-.04-.04-.09-.04-.14-.04-.1-.08-.21-.12-.31-.02-.06-.06-.13-.1-.2-.07-.13-.15-.27-.2-.43-.16-.56-.18-1.1-.19-1.57,0-.57.14-.89.23-1.11.02-.05.04-.08.05-.12h0s-.15-.16-.72-.61c-.23-.18-.35-.2-.38-.19,0,0-.15.06-.3.58-.08.27-.05.35-.05.35.01.01.08.06.13.09.25.15.66.4.69,1.14.02.47.02.82-.07,1.39,0,.04-.02.08-.03.12-.69,1.6-.7,3.08-.02,4.37,1.1,2.09,3.67,3.28,5.71,3.7,3.99.81,9.13-.27,10.8-3.88.27-.58.23-.93.11-1.05-.13-.13-.51-.19-1.17.09Z"/>
  <path class="cls-2" d="M9.95,8.28c-1.81,1.13-3.6,1.54-5.13,1.21,1.33,1.28,3.18,1.7,4.13,1.83,1.99-.72,3.73-2.25,4.67-4.1.4-.79.48-1.2.38-2.09-.04-.41-.17-.54-.2-.54-.02,0-.21.03-.5.4-1.22,1.58-1.95,2.42-3.36,3.3Z"/>
  <path class="cls-1" d="M19.21,10.08c-.27-.28-.9-.66-2.19-.13-2.78,1.15-4.14,1.57-6.24,1.65-.07,0-.14,0-.21,0,1.65-.91,3.05-2.32,3.88-3.97.48-.95.59-1.54.48-2.61-.07-.72-.39-1.21-.87-1.34-.28-.08-.86-.1-1.49.72-1.25,1.62-1.91,2.33-3.11,3.08-2.12,1.32-4.16,1.54-5.63.61-.04-.08-.07-.17-.1-.26-.04-.1-.1-.22-.16-.33-.05-.09-.1-.18-.12-.24-.12-.4-.14-.8-.15-1.32,0-.36.08-.55.15-.72.31-.71.07-1.04-.94-1.84-.17-.13-.68-.53-1.24-.35-.42.13-.71.53-.9,1.21-.26.93.12,1.25.49,1.48.18.11.24.14.25.38h0c.02.4.02.69-.05,1.15-.78,1.85-.77,3.57.04,5.12,1.25,2.38,4.1,3.72,6.35,4.18.92.19,1.88.28,2.84.28,3.72,0,7.49-1.44,8.99-4.68.4-.87.38-1.63-.06-2.08ZM18.43,11.78c-1.67,3.61-6.81,4.69-10.8,3.88-2.04-.42-4.62-1.61-5.71-3.7-.68-1.3-.67-2.77.02-4.37.02-.04.03-.08.03-.12.08-.57.09-.92.07-1.39-.03-.73-.44-.99-.69-1.14-.05-.03-.12-.07-.13-.09,0,0-.03-.08.05-.35.15-.52.29-.58.3-.58.03,0,.15.01.38.19.57.45.7.61.72.61h0s-.03.08-.05.12c-.1.22-.24.54-.23,1.11,0,.46.03,1.01.19,1.57.05.16.13.3.2.43.04.07.08.14.1.2.04.11.08.21.12.31,0,.05.02.09.04.14.06.12.12.23.19.34,1.43,2.61,4.73,3.7,7.6,3.59,2.38-.09,3.89-.62,6.56-1.72.66-.27,1.04-.22,1.17-.09.12.12.16.47-.11,1.05ZM13.81,4.59s.15.13.2.54c.09.89.02,1.3-.38,2.09-.94,1.86-2.68,3.38-4.67,4.1-.95-.13-2.8-.55-4.13-1.83,1.53.33,3.32-.08,5.13-1.21,1.41-.88,2.14-1.72,3.36-3.3.29-.37.48-.41.5-.4Z"/>
</svg>