<?xml version="1.0" encoding="UTF-8"?>
<svg id="Layer_1" data-name="Layer 1" xmlns="http://www.w3.org/2000/svg" version="1.1" viewBox="0 0 19.84 19.84">
  <defs>
    <style>
      .cls-1 {
        fill: #00a74b;
        stroke-width: 0px;
      }
    </style>
  </defs>
  <path class="cls-1" d="M15.59,10.2c0,2.99-2.54,5.42-5.67,5.42s-5.67-2.43-5.67-5.42,2.54-5.42,5.67-5.42,5.67,2.43,5.67,5.42ZM9.92,4.16c-3.47,0-6.3,2.71-6.3,6.04s2.82,6.04,6.3,6.04,6.3-2.71,6.3-6.04-2.82-6.04-6.3-6.04Z"/>
  <path class="cls-1" d="M19.06,9.29l-1.46-1.07.76-1.64c.17-.36.15-.77-.04-1.12-.19-.34-.54-.57-.93-.62,0,0-1.17-.13-1.8-.19l-.16-1.81c-.04-.39-.26-.75-.6-.95-.34-.2-.76-.22-1.12-.07l-1.66.73-1.04-1.48c-.23-.32-.6-.52-.99-.52-.39,0-.77.18-1,.5,0,0-.7.95-1.07,1.46l-1.64-.76c-.36-.17-.78-.15-1.12.04-.34.19-.57.54-.62.94,0,0-.13,1.17-.19,1.8l-1.81.16c-.39.03-.75.26-.95.6-.2.34-.22.76-.07,1.12,0,0,.48,1.08.73,1.66l-1.48,1.04c-.32.23-.52.6-.52.99,0,.39.18.77.5,1,0,0,.95.7,1.46,1.07l-.76,1.64c-.17.36-.15.78.05,1.12.19.34.54.57.94.61,0,0,1.17.13,1.8.19l.16,1.81c.03.39.26.75.6.95.34.2.76.22,1.12.07,0,0,1.08-.48,1.66-.73l1.04,1.48c.23.32.6.52.99.52.39,0,.77-.18,1-.5,0,0,.7-.95,1.07-1.46l1.64.76c.36.17.77.15,1.12-.04.34-.19.57-.54.61-.93l.19-1.8,1.81-.16c.39-.04.75-.26.95-.6.2-.34.22-.75.07-1.11,0,0-.48-1.08-.73-1.66l1.48-1.04c.32-.23.52-.6.52-.99,0-.39-.18-.77-.5-1ZM18.49,10.5s-1.8,1.27-1.8,1.27c-.19.13-.25.37-.16.58l.89,2.02c.03.08.03.17-.01.25-.04.08-.12.12-.21.13l-2.2.19c-.23.02-.41.2-.43.42l-.24,2.19c0,.09-.06.16-.14.21-.07.04-.17.05-.25,0l-2-.93c-.21-.1-.45-.03-.59.15l-1.3,1.78c-.05.07-.13.11-.22.11-.09,0-.17-.04-.22-.11,0,0-1.27-1.8-1.27-1.8-.13-.19-.38-.25-.58-.16l-2.02.89c-.08.03-.17.03-.25-.01-.08-.04-.12-.12-.13-.21l-.19-2.2c-.02-.23-.2-.41-.42-.43l-2.19-.24c-.09,0-.16-.06-.21-.13-.04-.08-.05-.17-.01-.25l.93-2c.1-.21.03-.45-.15-.59l-1.78-1.3c-.07-.05-.11-.13-.11-.22,0-.09.04-.17.11-.22,0,0,1.8-1.27,1.8-1.27.19-.13.25-.37.16-.58l-.89-2.02c-.04-.08-.03-.17.01-.25.04-.07.12-.12.21-.13l2.2-.19c.23-.02.41-.2.43-.42l.24-2.19c0-.09.06-.16.13-.21.08-.04.17-.05.25,0,0,0,2,.93,2,.93.21.1.45.03.59-.15l1.3-1.78c.05-.07.13-.11.22-.11.09,0,.17.04.22.11,0,0,1.27,1.81,1.27,1.81.13.19.38.25.58.16l2.02-.89c.08-.04.17-.03.24.01.08.04.12.12.13.21,0,0,.19,2.2.19,2.2.02.23.2.41.42.43l2.19.24c.09,0,.16.06.21.14.04.08.05.17.01.25l-.93,2c-.1.21-.03.45.15.59l1.78,1.3c.07.05.11.13.11.22,0,.09-.04.17-.11.22Z"/>
</svg>