<?xml version="1.0" encoding="UTF-8"?>
<svg id="Layer_1" data-name="Layer 1" xmlns="http://www.w3.org/2000/svg" version="1.1" viewBox="0 0 19.84 19.84">
  <defs>
    <style>
      .cls-1 {
        fill: #ec1e24;
      }

      .cls-1, .cls-2 {
        stroke-width: 0px;
      }

      .cls-2 {
        fill: #fff;
      }
    </style>
  </defs>
  <path class="cls-2" d="M17.39,3.84l-.25.76.49-.23c-.08-.19-.16-.37-.24-.53Z"/>
  <path class="cls-2" d="M14.85,11.66c.89-.38,2.09-1.05,2.82-2.1l-2.39.78s-.43,1.32-.43,1.32Z"/>
  <path class="cls-2" d="M16.63,6.17l-.54,1.67s-.01.04-.02.06l-.33,1.02,2.53-.83c.14-.85.02-1.75-.23-2.57l-1.42.65h.01Z"/>
  <path class="cls-2" d="M13.68,5.15c-.3.36-.55.76-.7,1.22-.53,1.6.17,3.53.76,4.74l1.11-3.42-1.18-2.54h.01Z"/>
  <path class="cls-2" d="M16.27,3.34c-.5.22-1.09.53-1.66.95l.79,1.71.86-2.66h.01Z"/>
  <path class="cls-1" d="M17.75,2s-.05-.03-.06-.05c-.05-.05-.1-.1-.16-.13-.03-.02-.05-.04-.09-.05h-.01c-.1-.03-.2-.03-.3,0h-.02c-.17.04-4.24,1.11-5.26,4.24-.14.43-.21.87-.23,1.31-.17-.24-.36-.48-.57-.7C7.63,2.93,1.23,4.06.95,4.11c0,0-.02.01-.03.01-.1.02-.2.06-.27.14,0,0,0,.01,0,.02,0,.01-.02.02-.03.04-.07.08-.11.17-.13.26,0,.01-.02.02-.02.04-.02.15-.3,1.98-.13,4.23H.33c.15,1.99.67,4.3,2.02,6.05.05.12.12.21.23.28.06.07.11.15.18.22,2.09,2.25,5.29,2.7,7.52,2.7,1.42,0,2.46-.18,2.56-.2.01,0,.02-.01.03-.02.09-.02.18-.06.26-.13h0s.05-.06.07-.1c.04-.05.06-.11.08-.16,0-.03.04-.05.04-.08.02-.15.31-2.07.11-4.39.05.05.08.12.15.16.01,0,.03.02.04.02.02.01.04.03.06.04.06.02.13.03.19.03h0c.05,0,.1,0,.15-.02.17-.04,4.25-1.11,5.26-4.24,1.01-3.09-1.46-6.83-1.56-6.99l.03-.02ZM6.47,5.45v4.2L2.32,5.17c1.02-.07,2.58-.09,4.15.28ZM1.54,6.11l1.97,2.12h-1.98c-.04-.81-.02-1.54.02-2.12h0ZM1.62,9.44h3.01l2.01,2.18s0,.01.02.02l1.66,1.8-5.1.6c-.96-1.32-1.41-3.01-1.59-4.59h-.01ZM4.26,15.13l5.07-.6,2.13,2.31c-1.72.13-5,.08-7.21-1.7h.01ZM12.26,15.91l-4.58-4.95v-5.14c.91.35,1.77.86,2.46,1.61,2.17,2.34,2.24,6.4,2.12,8.48ZM17.39,3.84c.08.16.16.34.24.53l-.49.23.25-.76ZM16.27,3.34l-.86,2.66-.79-1.71c.56-.42,1.15-.73,1.66-.95h-.01ZM13.75,11.12c-.59-1.22-1.29-3.14-.76-4.74.15-.46.4-.86.7-1.22l1.18,2.54-1.11,3.42h-.01ZM14.85,11.66l.43-1.32,2.39-.78c-.74,1.05-1.94,1.73-2.82,2.1ZM18.27,8.09l-2.53.83.33-1.02s.01-.04.02-.06l.54-1.67,1.42-.65c.24.82.37,1.72.23,2.57h-.01Z"/>
  <path class="cls-2" d="M6.66,11.64s0-.01-.02-.02l-2.01-2.18H1.62c.19,1.58.63,3.28,1.59,4.59l5.1-.6-1.66-1.8h.01Z"/>
  <path class="cls-2" d="M7.68,5.82v5.14l4.58,4.95c.13-2.07.05-6.13-2.12-8.48-.69-.75-1.55-1.26-2.46-1.61Z"/>
  <path class="cls-2" d="M1.54,6.11c-.03.58-.05,1.31-.02,2.12h1.98l-1.97-2.12h0Z"/>
  <path class="cls-2" d="M4.26,15.13c2.21,1.78,5.48,1.83,7.21,1.7l-2.13-2.31-5.07.6h0Z"/>
  <path class="cls-2" d="M6.47,5.45c-1.57-.37-3.13-.36-4.15-.28l4.15,4.48v-4.2Z"/>
</svg>