<?xml version="1.0" encoding="UTF-8"?>
<svg id="Layer_1" data-name="Layer 1" xmlns="http://www.w3.org/2000/svg" version="1.1" viewBox="0 0 19.84 19.84">
  <defs>
    <style>
      .cls-1 {
        fill: none;
      }

      .cls-1, .cls-2 {
        stroke-width: 0px;
      }

      .cls-2 {
        fill: #5f3e17;
      }
    </style>
  </defs>
  <path class="cls-1" d="M18.06,7.18c-.2-.04-.54-.1-.9.88,0,0-3.21,9.09-3.2,9.07-.06.2-.04.37.06.53.07.11.18.21.29.29.12-.03.25,0,.36.07.07.04.12.1.15.17,0,0,.02,0,.02,0,.38.07,1.01-.08,1.27-.67-.15-.13-.21-.35-.13-.54.07-.17.21-.27.38-.3.19-.77.52-2.06.86-3.42l-.14.03c-.26.06-.53-.11-.58-.38-.06-.26.11-.53.38-.58l.61-.13c.53-2.09,1.02-4.03,1.02-4.04.06-.21.11-.51-.02-.72-.11-.18-.32-.25-.44-.27Z"/>
  <path class="cls-1" d="M9.86,9.65c.08-.26.35-.41.61-.33l1.03.3c2.83-3.04,5.48-5.9,5.49-5.9,1.05-1.05.76-1.33.18-1.91-.34-.34-.56-.52-.8-.52-.27,0-.66.24-1.13.71,0,0-5.03,4.67-8.85,8.23l.26.44c.14.23.06.53-.17.67-.23.14-.53.06-.67-.17l-.16-.26c-2,1.86-3.52,3.27-3.52,3.27-.59.59-.64,1.07-.36,1.58.2-.04.4.04.52.22.09.15.09.32.02.47.04.04.07.08.11.11.58.58,1.05.89,1.57.78-.04-.2.04-.4.22-.51.18-.11.4-.08.56.04,0,0,.02-.01.03-.02,0,0,1.16-1.25,2.76-2.97l-.04-.65c-.02-.27.19-.5.46-.52.19-.01.36.09.45.25.74-.79,1.53-1.65,2.33-2.51l-.56-.16c-.26-.08-.41-.35-.33-.61Z"/>
  <path class="cls-2" d="M17.68,4.4c.72-.72,1.04-1.34.98-1.94-.05-.57-.42-.98-.8-1.36-.32-.32-.81-.81-1.49-.81-.56,0-1.13.31-1.81.99,0,0-2.89,2.69-5.97,5.54l-.04-.52c-.02-.27-.25-.47-.52-.46-.27.02-.47.25-.46.52l.07,1.04c0,.08.04.15.07.22-.63.59-1.26,1.17-1.86,1.73l-.26-.43c-.14-.23-.44-.31-.67-.17-.23.14-.31.44-.17.67l.36.6c-1.29,1.2-2.39,2.22-3.04,2.83-.03,0-.05-.03-.07-.03l-1.02-.21c-.26-.05-.52.12-.58.38-.05.26.12.52.38.58l.46.09c-.84.98-.69,1.88-.32,2.55l-.42.26c-.23.14-.3.45-.16.67.14.23.45.3.67.16l.49-.31c.08.08.15.16.21.21.4.4,1.45,1.45,2.75.97l.1.17c.14.23.44.31.67.17.23-.14.31-.44.17-.67l-.11-.19c.06-.05.12-.1.18-.16,0,0,.88-.95,2.16-2.32v.06c.02.27.26.47.53.46.27-.02.47-.25.46-.52l-.07-.98c.99-1.07,2.12-2.28,3.24-3.49l.21.06c.26.08.53-.07.61-.33.05-.17,0-.35-.12-.47,2.72-2.92,5.19-5.58,5.18-5.58ZM8.43,12.93c-.09-.16-.26-.26-.45-.25-.27.02-.47.25-.46.52l.04.65c-1.6,1.73-2.77,2.98-2.76,2.97,0,0-.02.01-.03.02-.16-.12-.38-.15-.56-.04-.18.11-.26.32-.22.51-.51.11-.99-.2-1.57-.78-.04-.04-.07-.08-.11-.11.07-.15.07-.32-.02-.47-.11-.18-.32-.26-.52-.22-.28-.51-.23-.99.36-1.58,0,0,1.51-1.41,3.52-3.27l.16.26c.14.23.44.31.67.17.23-.14.31-.44.17-.67l-.26-.44C10.22,6.66,15.25,1.99,15.25,1.99c.47-.47.86-.71,1.13-.71.23,0,.46.18.8.52.58.58.87.87-.18,1.91,0,0-2.66,2.86-5.49,5.9l-1.03-.3c-.26-.08-.53.07-.61.33-.08.26.07.53.33.61l.56.16c-.8.86-1.59,1.71-2.33,2.51Z"/>
  <path class="cls-2" d="M19.33,6.93c-.23-.38-.62-.63-1.1-.72-1.36-.24-1.84,1.08-1.99,1.52,0,0-.66,1.87-1.38,3.91l-.07-.07c-.19-.2-.5-.21-.69-.02-.2.19-.21.5-.02.69l.42.44c-.75,2.13-1.46,4.15-1.46,4.15-.15.49-.09.95.16,1.35.13.21.3.37.48.51l-.06.1c-.15.23-.08.53.15.68.23.15.53.08.68-.15h0l.12-.19s.09.03.13.04c.87.15,1.94-.25,2.36-1.27.21.02.41-.1.49-.3.09-.24-.02-.49-.23-.61.22-.87.61-2.4,1-3.95h.05c.26-.07.43-.33.38-.59-.03-.12-.1-.22-.2-.29.5-1.97.93-3.71.93-3.7.22-.73.06-1.23-.12-1.52ZM18.51,8.16s-.49,1.94-1.02,4.04l-.61.13c-.26.06-.43.32-.38.58.06.26.32.43.58.38l.14-.03c-.34,1.36-.67,2.65-.86,3.42-.16.03-.31.13-.38.3-.08.2-.02.41.13.54-.26.6-.89.74-1.27.67,0,0-.02,0-.02,0-.04-.07-.09-.12-.15-.17-.11-.07-.24-.09-.36-.07-.12-.08-.22-.18-.29-.29-.1-.16-.12-.33-.06-.53,0,.02,3.2-9.07,3.2-9.07.36-.98.7-.92.9-.88.11.02.32.08.44.27.13.21.08.51.02.72Z"/>
</svg>