<?xml version="1.0" encoding="UTF-8"?>
<svg id="Layer_1" data-name="Layer 1" xmlns="http://www.w3.org/2000/svg" version="1.1" viewBox="0 0 19.84 19.84">
  <defs>
    <style>
      .cls-1, .cls-2 {
        fill: none;
      }

      .cls-1, .cls-3 {
        stroke-width: 0px;
      }

      .cls-2 {
        stroke: #000;
        stroke-width: .3px;
      }

      .cls-3 {
        fill: #f26e21;
      }
    </style>
  </defs>
  <g>
    <line class="cls-2" x1="3.98" y1="-51.13" x2="3.98" y2="-15.13"/>
    <line class="cls-2" x1="-50.02" y1="2.87" x2="-14.02" y2="2.87"/>
    <line class="cls-2" x1="-50.02" y1="16.97" x2="-14.02" y2="16.97"/>
    <line class="cls-2" x1="3.98" y1="70.97" x2="3.98" y2="34.97"/>
    <line class="cls-2" x1="20.37" y1="-51.13" x2="20.37" y2="-15.13"/>
    <line class="cls-2" x1="74.37" y1="2.87" x2="38.37" y2="2.87"/>
    <line class="cls-2" x1="74.37" y1="16.97" x2="38.37" y2="16.97"/>
    <line class="cls-2" x1="20.37" y1="70.97" x2="20.37" y2="34.97"/>
  </g>
  <g>
    <path class="cls-1" d="M9.82,3.67c-2.4,0-4.36,1.31-4.36,2.93.03.26.07.52.11.79h4.66c.25,0,.46.21.46.46s-.21.46-.46.46h-4.52c.1.6.21,1.22.33,1.84h4.19c.25,0,.46.21.46.46s-.21.46-.46.46h-4c.14.62.28,1.24.44,1.84h3.56c.25,0,.46.21.46.46s-.21.46-.46.46h-3.3c.78,2.67,1.78,4.79,2.89,4.79h.4c1.89,0,3.46-7.06,3.97-12.08,0-1.57-1.96-2.88-4.36-2.88Z"/>
    <path class="cls-1" d="M11.91,2.32l-.26-.86-1.97,1.23c-.16.1-.36.09-.52-.02l-1.13-.83-.03.68c-.01.23-.19.42-.42.44l-.85.08.32.2s.06.05.08.08c.79-.35,1.7-.56,2.69-.56,1.27,0,2.41.34,3.32.88,0-.1.02-.2.09-.29l.62-.82-1.46.12c-.23.02-.42-.12-.48-.32Z"/>
    <path class="cls-3" d="M15.21,2.25c.11-.15.12-.34.04-.5-.09-.16-.25-.25-.44-.24l-2.11.17-.33-1.08c-.04-.14-.14-.25-.28-.3s-.28-.04-.41.04l-2.22,1.38-1.57-1.15c-.14-.1-.32-.12-.47-.04-.15.07-.25.22-.26.39l-.05,1.14-1.79.17c-.2.02-.36.16-.41.35-.05.19.04.39.2.5l1.13.72c-1.03.71-1.69,1.72-1.69,2.86.27,2.15,1.78,12.9,5.28,12.9h.4c3.4,0,4.67-10.75,4.89-12.95,0-.98-.52-1.87-1.36-2.56.08-.03.16-.07.22-.15l1.24-1.64ZM10.22,18.64h-.4c-1.11,0-2.11-2.12-2.89-4.79h3.3c.25,0,.46-.21.46-.46s-.21-.46-.46-.46h-3.56c-.16-.6-.31-1.22-.44-1.84h4c.25,0,.46-.21.46-.46s-.21-.46-.46-.46h-4.19c-.12-.63-.24-1.24-.33-1.84h4.52c.25,0,.46-.21.46-.46s-.21-.46-.46-.46h-4.66c-.04-.27-.08-.54-.11-.79,0-1.62,1.96-2.93,4.36-2.93s4.36,1.31,4.36,2.88c-.51,5.02-2.08,12.08-3.97,12.08ZM13.23,3.34c-.07.09-.09.19-.09.29-.91-.54-2.06-.88-3.32-.88-.98,0-1.9.21-2.69.56-.03-.03-.05-.06-.08-.08l-.32-.2.85-.08c.23-.02.41-.21.42-.44l.03-.68,1.13.83c.15.11.35.12.52.02l1.97-1.23.26.86c.06.21.24.35.48.32l1.46-.12-.62.82Z"/>
  </g>
</svg>