<?xml version="1.0" encoding="UTF-8"?>
<svg id="Layer_1" data-name="Layer 1" xmlns="http://www.w3.org/2000/svg" version="1.1" viewBox="0 0 19.84 19.84">
  <defs>
    <style>
      .cls-1 {
        fill: none;
      }

      .cls-1, .cls-2 {
        stroke-width: 0px;
      }

      .cls-2 {
        fill: #7c3418;
      }
    </style>
  </defs>
  <path class="cls-1" d="M13.45,4.82c-.75-.39-1.45-.77-2.12-1.13-1.06-.58-1.96-1.07-2.76-1.42-.77-.32-1.4-.49-1.82-.49-.2,0-.34.04-.39.11-.19.27-.23,1.36.78,2.22.6.51,1.6.88,2.66,1.27.84.31,1.71.62,2.55,1.06,1.1.57,1.87,1.38,2.55,2.09.57.6,1.07,1.11,1.61,1.35.74.31,1.45.59,1.83.59.15,0,.17-.04.19-.06.16-.23.01-1.18-.84-2.29-.87-1.16-2.38-2.33-4.25-3.3Z"/>
  <path class="cls-1" d="M3.5,5.78c-.81,1.24-.95,2.77-.45,4.81.03.11,0,.23-.05.33-.06.1-.15.17-.27.2-.03,0-.06.01-.1.01-.2,0-.37-.14-.42-.33-.56-2.28-.38-4.03.57-5.48.5-.77,1.41-1.6,2.66-2.47-.06-.31-.06-.6-.01-.86-1.32.43-2.71,1.51-3.59,2.9-1.61,2.51-.03,6.05,1.23,8.89.71,1.61,1.34,3,1.34,4.05.53-.03,1.28.02,2.22.09,3.21.22,8.56.59,10.64-2.22.92-1.24,1.43-2.9,1.44-4.44-.11.03-.22.07-.35.07-.06,0-.12-.02-.18-.02-.37,1.25-1.01,2.8-1.63,3.64-.93,1.27-2.38,2.1-4.44,2.54-.03,0-.06,0-.09,0-.21,0-.38-.14-.42-.34-.05-.23.1-.46.33-.51,1.84-.4,3.13-1.12,3.93-2.21.54-.74,1.13-2.18,1.48-3.32-.34-.12-.72-.27-1.14-.45-.71-.31-1.29-.91-1.9-1.55-.64-.67-1.36-1.42-2.33-1.92-.57-.29-1.16-.53-1.75-.75-.63.78-2.74,3.64-3.32,7.23-.03.21-.21.36-.43.36-.02,0-.05,0-.07,0-.11-.02-.21-.08-.28-.17-.07-.09-.09-.21-.08-.32.58-3.58,2.5-6.36,3.32-7.42-1.09-.4-2.09-.78-2.78-1.36-.39-.33-.65-.7-.84-1.07-1.06.75-1.82,1.45-2.23,2.09ZM13.57,12.66c.45-.62.84-1.34,1.14-2.08.09-.22.34-.32.56-.24.11.04.19.13.24.23.05.11.05.22,0,.33-.32.81-.75,1.59-1.24,2.27-1.2,1.65-2.96,2.81-5.24,3.44-.04.01-.08.02-.12.02-.19,0-.36-.13-.42-.32-.06-.23.07-.47.3-.53,2.08-.58,3.69-1.63,4.77-3.11ZM7.19,14.31c2.87-1.48,4.43-4.26,4.45-4.29.11-.21.38-.28.59-.17.21.12.28.38.17.59-.07.12-1.69,3.03-4.8,4.64-.07.03-.13.05-.2.05-.16,0-.31-.09-.38-.23-.05-.1-.06-.22-.03-.33.04-.11.11-.2.21-.25ZM7.1,16.12c.25-.03.5-.08.75-.13.11-.02.23,0,.33.07.1.07.16.16.18.28.05.23-.11.46-.34.51-.26.05-.52.1-.79.14,0,0-.06,0-.06,0-.21,0-.4-.16-.43-.37-.03-.24.13-.46.37-.49ZM6.47,5.46c.08-.08.19-.13.3-.14.11-.02.23.04.31.12.08.08.13.18.14.3,0,.12-.04.23-.11.31-.39.41-.74.87-1.05,1.34-1.55,2.34-1.35,4.6-.9,6.69.05.23-.1.46-.33.51-.03,0-.06,0-.09,0-.2,0-.38-.14-.42-.34-.49-2.27-.7-4.74,1.02-7.35.34-.51.72-1,1.14-1.45Z"/>
  <path class="cls-2" d="M19.44,9.9s0-.04,0-.06c-.01-.05-.01-.11-.03-.16,0,0,0,0,0,0-.12-.63-.47-1.36-1.01-2.07-.94-1.26-2.55-2.51-4.54-3.54-.73-.37-1.38-.73-2.11-1.13-1.07-.58-1.99-1.08-2.82-1.45-.98-.41-1.73-.57-2.3-.53-.02,0-.03-.02-.06-.02-1.89,0-4.13,1.44-5.45,3.5-1.86,2.91-.18,6.68,1.17,9.71.71,1.58,1.31,2.95,1.26,3.8-.01.21.07.42.22.56.16.15.37.22.58.2.46-.04,1.32.02,2.24.08.97.07,2.18.15,3.43.15,3.99,0,6.59-.89,7.95-2.72,1.29-1.75,1.87-4.25,1.49-6.31ZM18.54,10.4s-.04.06-.19.06c-.38,0-1.09-.28-1.83-.59-.55-.24-1.04-.75-1.61-1.35-.68-.71-1.46-1.52-2.55-2.09-.85-.44-1.71-.76-2.55-1.06-1.06-.39-2.06-.75-2.66-1.27-1.01-.86-.97-1.95-.78-2.22.05-.07.19-.11.39-.11.42,0,1.05.17,1.82.49.8.35,1.7.84,2.76,1.42.67.37,1.36.74,2.12,1.13,1.87.97,3.38,2.14,4.25,3.3.85,1.1,1,2.06.84,2.29ZM6.58,4.75c.69.58,1.69.97,2.78,1.36-.82,1.06-2.74,3.84-3.32,7.42-.02.11,0,.23.08.32.07.09.17.15.28.17.02,0,.05,0,.07,0,.21,0,.39-.15.43-.36.58-3.59,2.69-6.45,3.32-7.23.59.22,1.18.46,1.75.75.96.5,1.68,1.25,2.33,1.92.61.64,1.19,1.24,1.9,1.55.42.18.8.33,1.14.45-.35,1.15-.94,2.58-1.48,3.32-.8,1.09-2.09,1.81-3.93,2.21-.23.05-.38.28-.33.51.04.2.22.34.42.34.03,0,.06,0,.09,0,2.06-.44,3.51-1.28,4.44-2.54.62-.84,1.25-2.39,1.63-3.64.06,0,.13.02.18.02.13,0,.24-.04.35-.07,0,1.55-.52,3.2-1.44,4.44-2.08,2.81-7.43,2.44-10.64,2.22-.94-.06-1.69-.12-2.22-.09,0-1.05-.62-2.44-1.34-4.05C1.8,10.93.23,7.4,1.83,4.88c.89-1.39,2.28-2.48,3.59-2.9-.04.26-.04.55.01.86-1.26.87-2.16,1.7-2.66,2.47-.94,1.46-1.12,3.2-.57,5.48.05.19.22.33.42.33.04,0,.07,0,.1-.01.11-.03.21-.1.27-.2.06-.1.08-.21.05-.33-.5-2.04-.35-3.56.45-4.81.41-.64,1.18-1.34,2.23-2.09.19.37.46.74.84,1.07Z"/>
  <path class="cls-2" d="M4.3,14.26c.04.2.22.34.42.34.03,0,.06,0,.09,0,.23-.05.38-.28.33-.51-.45-2.09-.65-4.35.9-6.69.31-.47.67-.93,1.05-1.34.08-.08.12-.19.11-.31,0-.12-.05-.22-.14-.3-.08-.08-.2-.13-.31-.12-.12,0-.22.05-.3.14-.42.45-.8.94-1.14,1.45-1.72,2.61-1.51,5.07-1.02,7.35Z"/>
  <path class="cls-2" d="M7.17,16.98s.05,0,.06,0c.27-.04.53-.08.79-.14.23-.05.38-.27.34-.51-.02-.11-.09-.21-.18-.28-.1-.06-.21-.09-.33-.07-.24.05-.49.09-.75.13-.24.03-.4.25-.37.49.03.21.21.37.43.37Z"/>
  <path class="cls-2" d="M8.5,16.3c.05.19.22.32.42.32.04,0,.08,0,.12-.02,2.28-.63,4.04-1.79,5.24-3.44.49-.68.92-1.46,1.24-2.27.04-.11.04-.22,0-.33-.05-.11-.13-.19-.24-.23-.22-.08-.47.02-.56.24-.3.74-.69,1.46-1.14,2.08-1.08,1.49-2.68,2.53-4.77,3.11-.23.06-.36.3-.3.53Z"/>
  <path class="cls-2" d="M7.39,15.12c.07,0,.13-.02.2-.05,3.11-1.61,4.74-4.52,4.8-4.64.11-.21.04-.47-.17-.59-.21-.11-.47-.04-.59.17-.02.03-1.58,2.81-4.45,4.29-.1.05-.18.14-.21.25-.03.11-.02.23.03.33.07.14.22.23.38.23Z"/>
</svg>