<?xml version="1.0" encoding="UTF-8"?>
<svg id="Layer_1" data-name="Layer 1" xmlns="http://www.w3.org/2000/svg" version="1.1" viewBox="0 0 19.84 19.84">
  <defs>
    <style>
      .cls-1 {
        fill: none;
      }

      .cls-1, .cls-2 {
        stroke-width: 0px;
      }

      .cls-2 {
        fill: #793919;
      }
    </style>
  </defs>
  <path class="cls-1" d="M16.8,9.02l-6.22,6.22c-.07.07-.16.1-.24.1s-.18-.03-.24-.1c-.14-.14-.14-.35,0-.49l6.31-6.31c.15-.15.39-.19.59-.1.61.28,1.23.23,1.58-.12.24-.24.35-.61.29-1.03-.06-.45-.3-.91-.67-1.28-.37-.37-.83-.61-1.28-.67-.42-.06-.78.05-1.03.29-.48.48-.38,1.43.25,2.16.12.15.11.36-.04.49-.15.12-.36.11-.49-.04-.43-.5-.67-1.08-.71-1.62l-6.78,6.78c-.53.53-.36,1.56.39,2.31.74.74,1.78.92,2.31.39l6.79-6.79c-.26-.02-.52-.07-.79-.18ZM16.16,5.81c.22-.22.56-.3.93-.23.19.04.31.23.27.41-.04.19-.23.3-.41.26-.13-.03-.24-.01-.29.04-.11.11-.06.5.29.84.17.17.37.29.56.33.13.03.24.01.29-.04.05-.05.07-.16.04-.29-.04-.19-.16-.39-.33-.56-.14-.14-.14-.35,0-.49.14-.14.35-.14.49,0,.26.26.45.58.52.9.08.37,0,.7-.22.93-.17.17-.4.25-.66.25-.09,0-.18,0-.27-.03-.32-.07-.64-.25-.9-.52-.59-.59-.72-1.39-.29-1.82Z"/>
  <path class="cls-1" d="M9.97,7.35l-6.22,6.22c-.07.07-.16.1-.24.1s-.18-.03-.24-.1c-.14-.14-.14-.35,0-.49l6.31-6.31c.15-.15.39-.19.59-.1.61.28,1.23.23,1.58-.12.24-.24.35-.61.29-1.03-.06-.45-.3-.91-.67-1.28-.74-.74-1.78-.92-2.31-.39-.48.48-.37,1.43.25,2.16.12.15.11.36-.04.49-.14.12-.36.11-.49-.04-.43-.5-.67-1.08-.71-1.62L1.27,11.62c-.53.53-.36,1.56.39,2.31.37.37.83.61,1.28.67.42.06.78-.04,1.03-.29l6.79-6.79c-.26-.02-.52-.07-.79-.18ZM9.11,5.07c-.08-.37,0-.7.23-.93.22-.22.56-.3.93-.22.19.04.31.23.26.41-.04.19-.23.3-.41.27-.13-.03-.24-.01-.29.04-.11.11-.06.5.29.84.35.35.73.4.84.29.11-.11.06-.5-.29-.84-.14-.14-.14-.35,0-.49.14-.14.35-.14.49,0,.59.59.72,1.39.29,1.82-.17.17-.4.25-.66.25-.38,0-.81-.19-1.17-.54-.26-.26-.45-.58-.52-.9Z"/>
  <path class="cls-2" d="M10.79,6.51c.25,0,.48-.08.66-.25.43-.43.3-1.23-.29-1.82-.14-.14-.35-.14-.49,0-.14.14-.14.35,0,.49.35.35.4.73.29.84-.11.11-.5.06-.84-.29-.35-.35-.4-.73-.29-.84.05-.05.16-.07.29-.04.19.04.37-.08.41-.27.04-.19-.08-.37-.26-.41-.37-.08-.7,0-.93.22-.22.22-.3.56-.23.93.07.32.25.64.52.9.36.36.79.54,1.17.54Z"/>
  <path class="cls-2" d="M12.71,5.43c-.08-.6-.39-1.2-.87-1.68-1.01-1.01-2.49-1.19-3.29-.39L.78,11.13c-.8.8-.63,2.27.39,3.29.48.48,1.07.79,1.68.87.11.02.22.02.32.02.51,0,.96-.17,1.29-.51l7.77-7.77c.4-.4.57-.97.48-1.61ZM3.97,14.32c-.24.24-.61.35-1.03.29-.45-.06-.91-.3-1.28-.67-.74-.74-.92-1.78-.39-2.31l6.78-6.78c.04.55.28,1.12.71,1.62.12.15.34.16.49.04.15-.12.16-.34.04-.49-.62-.73-.73-1.67-.25-2.16.53-.53,1.56-.36,2.31.39.37.37.61.83.67,1.28.06.42-.04.78-.29,1.03-.35.35-.97.4-1.58.12-.2-.09-.43-.05-.59.1l-6.31,6.31c-.14.14-.14.35,0,.49.07.07.16.1.24.1s.18-.03.24-.1l6.22-6.22c.27.11.53.16.79.18l-6.79,6.79Z"/>
  <path class="cls-2" d="M17.35,8.15c.09.02.18.03.27.03.26,0,.49-.09.66-.25.22-.22.3-.56.22-.93-.07-.32-.25-.64-.52-.9-.14-.14-.35-.14-.49,0-.14.14-.14.35,0,.49.17.17.29.37.33.56.03.13.01.24-.04.29-.05.05-.16.07-.29.04-.19-.04-.39-.16-.56-.33-.35-.35-.4-.73-.29-.84.05-.05.16-.07.29-.04.19.04.37-.08.41-.26.04-.19-.08-.37-.27-.41-.37-.08-.7,0-.93.23-.43.43-.3,1.23.29,1.82.26.26.58.45.9.52Z"/>
  <path class="cls-2" d="M19.54,7.1c-.08-.6-.39-1.2-.87-1.68-.48-.48-1.07-.79-1.68-.87-.64-.09-1.21.08-1.61.48l-7.77,7.77c-.8.8-.63,2.27.39,3.29.58.58,1.32.89,1.99.89.49,0,.95-.16,1.29-.5l7.77-7.77c.4-.4.57-.97.48-1.61ZM10.79,15.99c-.53.53-1.56.36-2.31-.39-.74-.74-.92-1.78-.39-2.31l6.78-6.78c.04.55.28,1.12.71,1.62.12.15.34.16.49.04.15-.12.16-.34.04-.49-.62-.73-.73-1.67-.25-2.16.24-.24.61-.35,1.03-.29.45.06.91.3,1.28.67.37.37.61.83.67,1.28.06.42-.04.78-.29,1.03-.35.35-.97.4-1.58.12-.2-.09-.43-.05-.59.1l-6.31,6.31c-.14.14-.14.35,0,.49.07.07.16.1.24.1s.18-.03.24-.1l6.22-6.22c.27.11.53.16.79.18l-6.79,6.79Z"/>
</svg>