<?xml version="1.0" encoding="UTF-8"?>
<svg id="Layer_1" data-name="Layer 1" xmlns="http://www.w3.org/2000/svg" version="1.1" viewBox="0 0 19.84 19.84">
  <defs>
    <style>
      .cls-1 {
        fill: none;
      }

      .cls-1, .cls-2 {
        stroke-width: 0px;
      }

      .cls-2 {
        fill: #f7ce0e;
      }
    </style>
  </defs>
  <path class="cls-1" d="M10.48,7.7h2.83c-.07-.73-.18-1.41-.33-2.04,0,0,0,0-.01,0h-2.49v2.04Z"/>
  <path class="cls-1" d="M10.48,4.53h2.19c-.56-1.67-1.38-2.8-2.22-3.14,0,.04.02.07.02.11v3.04Z"/>
  <path class="cls-1" d="M9.36,1.5s.02-.07.02-.11c-.82.34-1.64,1.45-2.21,3.15h2.19V1.5Z"/>
  <path class="cls-1" d="M10.48,12.27l.42.48,2.44-3.94s-.01,0-.02,0h-2.85v3.46Z"/>
  <path class="cls-1" d="M9.36,5.66h-2.51c-.14.62-.25,1.31-.31,2.04h2.82v-2.04Z"/>
  <path class="cls-1" d="M11.02,14.25c-.18.01-.35-.06-.47-.19l-4.57-5.22s-.06.01-.1.01c-.04,0-.07-.02-.11-.02v4.63c0,2.28,1.86,4.14,4.14,4.14s4.14-1.86,4.14-4.14v-3.67l-2.61,4.2c-.09.15-.25.25-.43.26Z"/>
  <path class="cls-1" d="M9.77,18.71s.1.03.15.03.11-.01.15-.03c-.05,0-.1,0-.15,0s-.1,0-.15,0Z"/>
  <polygon class="cls-1" points="9.36 8.82 7.46 8.82 9.36 10.99 9.36 8.82"/>
  <path class="cls-2" d="M14.78,7.28c-.13-.04-.26-.02-.38.03C13.95,3.24,12.15.28,9.92.28c-2.11,0-3.84,2.6-4.4,6.38-.15-.1-.33-.15-.5-.08-.22.08-.36.29-.36.52v6.35c0,2.65,1.98,4.85,4.53,5.2v.17c0,.4.33.73.73.73s.73-.33.73-.73v-.17c2.56-.36,4.53-2.55,4.53-5.2v-5.64c0-.25-.17-.47-.41-.54ZM13.34,8.81l-2.44,3.94-.42-.48v-3.46h2.85s.01,0,.02,0ZM12.99,5.65c.15.63.26,1.31.33,2.04h-2.83v-2.04h2.49s0,0,.01,0ZM12.67,4.53h-2.19V1.5s-.02-.07-.02-.11c.83.35,1.65,1.47,2.22,3.14ZM9.39,1.39s-.02.07-.02.11v3.04h-2.19c.57-1.69,1.39-2.8,2.21-3.15ZM6.86,5.66h2.51v2.04h-2.82c.07-.73.17-1.42.31-2.04ZM9.36,8.82v2.17l-1.9-2.17h1.9ZM9.92,18.74c-.05,0-.11-.01-.15-.03.05,0,.1,0,.15,0s.1,0,.15,0c-.05.02-.1.03-.15.03ZM14.06,13.46c0,2.28-1.86,4.14-4.14,4.14s-4.14-1.86-4.14-4.14v-4.63s.07.02.11.02c.03,0,.07,0,.1-.01l4.57,5.22c.12.13.29.2.47.19.18-.01.34-.11.43-.26l2.61-4.2v3.67Z"/>
</svg>