<?xml version="1.0" encoding="UTF-8"?>
<svg id="Layer_1" data-name="Layer 1" xmlns="http://www.w3.org/2000/svg" version="1.1" viewBox="0 0 19.84 19.84">
  <defs>
    <style>
      .cls-1 {
        fill: #a7d9c5;
      }

      .cls-1, .cls-2, .cls-3 {
        stroke-width: 0px;
      }

      .cls-2 {
        fill: #a8d9c5;
      }

      .cls-3 {
        fill: #fff;
      }
    </style>
  </defs>
  <path class="cls-3" d="M1.2,18.62s.02-.06.02-.09l-.43.19.42-.11Z"/>
  <path class="cls-3" d="M7.72,10.74c.04.17-.06.33-.23.37-.02,0-.05,0-.07,0-.14,0-.27-.1-.3-.24-.24-1.02-1.33-1.33-1.76-1.41-.01.02-.03.04-.04.06-3.29,4.8-3.29,4.89-3.32,5.98,0,.3-.02.66-.07,1.16-.15,1.29-.42,1.71-.68,1.96,0,0,0,0,.01.01.26-.27.67-.54,1.95-.69.51-.06.87-.07,1.16-.07,1.09-.03,1.18-.03,5.98-3.32,2.01-1.38,3.1-2.84,3.26-4.35.12-1.16-.36-2.08-.69-2.57l-.53.5c-.09.09-.2.13-.32.13-.12,0-.24-.05-.33-.14-.18-.18-.17-.48.02-.65l.51-.49c-.48-.33-1.42-.83-2.6-.71-.87.09-1.72.5-2.55,1.2.64.22,1.46.7,1.7,1.73.04.17-.06.33-.23.37-.02,0-.05,0-.07,0-.14,0-.27-.1-.3-.24-.21-.93-1.13-1.27-1.63-1.38-.28.29-.57.61-.85.97.65.17,1.69.63,1.97,1.81Z"/>
  <path class="cls-3" d="M18.24,4.35s-.07-.07-.11-.1c-.11-.08-.17-.21-.18-.34,0-.13.05-.26.14-.36.53-.53.53-1.35.03-1.86-.5-.51-1.33-.51-1.83,0-.09.09-.24.17-.37.15-.13,0-.27-.05-.35-.16-.03-.04-.06-.07-.09-.11-.25-.25-.59-.38-.92-.38s-.66.13-.92.38c-.38.38-.49.97-.26,1.46.09.19.04.41-.12.54-.59.58-.59,1.4-.08,1.91.13.13.28.22.44.29.02,0,.04.03.06.04.11,0,.23.05.31.14.07.08.09.17.1.27.02.03.05.06.06.09.06.17.16.32.29.44.51.51,1.33.51,1.83,0,.04-.04.07-.08.1-.12.12-.16.33-.22.52-.15.47.16.99.05,1.34-.31.51-.51.51-1.33,0-1.83Z"/>
  <path class="cls-1" d="M19.04,3.87c.59-.86.5-2.05-.26-2.82-.76-.76-1.93-.85-2.81-.26-.87-.72-2.17-.67-2.98.14-.57.57-.78,1.42-.56,2.18-.71.81-.72,2-.06,2.84-.65-.36-1.61-.73-2.78-.61-1.8.18-3.49,1.41-5.03,3.66-3.36,4.91-3.45,5.12-3.48,6.48,0,.27-.02.61-.07,1.08-.13,1.15-.35,1.34-.44,1.43-.22.19-.34.41-.22.86.09.35.36.61.7.68.1.02.2.03.28.03.27,0,.43-.11.58-.28.08-.09.26-.29,1.4-.42.47-.05.81-.06,1.08-.07,1.35-.03,1.57-.12,6.48-3.48,2.25-1.54,3.48-3.23,3.66-5.03.12-1.16-.23-2.1-.59-2.75.41.35.92.54,1.43.54.56,0,1.11-.21,1.54-.62.72.14,1.46-.08,1.99-.61.81-.81.86-2.1.15-2.97ZM16.89,6.49c-.19-.06-.39,0-.52.15-.03.04-.06.08-.1.12-.51.51-1.33.51-1.83,0-.13-.13-.22-.27-.29-.44-.01-.03-.04-.06-.06-.09-.01-.1-.03-.19-.1-.27-.09-.09-.2-.13-.31-.14-.02-.01-.04-.03-.06-.04-.17-.07-.32-.16-.44-.29-.51-.51-.51-1.33.08-1.91.16-.13.21-.36.12-.54-.23-.49-.12-1.08.26-1.46.25-.25.58-.38.92-.38s.66.13.92.38c.03.03.07.07.09.11.08.1.22.15.35.16.13.02.28-.06.37-.15.5-.51,1.33-.51,1.83,0,.51.51.51,1.33-.03,1.86-.1.09-.15.22-.14.36,0,.13.07.26.18.34.04.03.07.06.11.1.51.51.51,1.33,0,1.83-.35.35-.87.47-1.34.31ZM5.23,8.82s.24.03.52.11c.28-.36.56-.68.85-.97-.19-.04-.32-.06-.32-.06-.17-.02-.29-.17-.28-.33.02-.17.17-.29.33-.28.03,0,.37.04.79.19.83-.7,1.68-1.11,2.55-1.2,1.18-.12,2.12.38,2.6.71l-.51.49c-.18.18-.19.47-.02.65.09.09.21.14.33.14.11,0,.23-.04.32-.13l.53-.5c.33.49.81,1.42.69,2.57-.16,1.51-1.25,2.97-3.26,4.35-4.8,3.29-4.89,3.29-5.98,3.32-.3,0-.66.02-1.16.07-1.28.15-1.69.41-1.95.69,0,0,0,0-.01-.01.26-.25.53-.66.68-1.96.06-.51.07-.87.07-1.16.03-1.09.03-1.18,3.32-5.98.01-.02.03-.04.04-.06-.1-.02-.18-.03-.19-.03-.17-.02-.29-.17-.28-.34.02-.17.16-.28.33-.28ZM1.2,18.62l-.42.11.43-.19s0,.06-.02.09Z"/>
  <path class="cls-2" d="M8.22,9.34c.03.14.16.24.3.24.02,0,.05,0,.07,0,.16-.04.27-.2.23-.37-.24-1.03-1.06-1.51-1.7-1.73-.42-.15-.75-.18-.79-.19-.16,0-.32.11-.33.28-.02.17.11.32.28.33,0,0,.14.02.32.06.49.12,1.41.46,1.63,1.38Z"/>
  <path class="cls-2" d="M5.17,9.44s.08.01.19.03c.43.08,1.53.39,1.76,1.41.03.14.16.24.3.24.02,0,.05,0,.07,0,.16-.04.27-.2.23-.37-.27-1.19-1.32-1.64-1.97-1.81-.28-.08-.49-.1-.52-.11-.18,0-.32.11-.33.28-.02.17.11.32.28.34Z"/>
</svg>