<?xml version="1.0" encoding="UTF-8"?>
<svg id="Layer_1" data-name="Layer 1" xmlns="http://www.w3.org/2000/svg" version="1.1" viewBox="0 0 19.84 19.84">
  <defs>
    <style>
      .cls-1 {
        fill: none;
      }

      .cls-1, .cls-2 {
        stroke-width: 0px;
      }

      .cls-2 {
        fill: #4aba85;
      }
    </style>
  </defs>
  <path class="cls-1" d="M16.85,3.26c-.07-1.48-.92-1.9-1.08-1.96-.17-.03-.32-.03-.41-.03.04.11.12.26.21.39.85.48,1.17,1.11,1.27,1.6Z"/>
  <path class="cls-1" d="M17.93,6.28v-.07s.14-.97-1.19-1.67c-.15-.07-.3-.12-.36-.12h-.52c-.49.15-.96.65-1.39,1.5-.16.44-1.68,4.63-3.83,5.93-.34.33-2.31,2.09-6.13,2.63-.54.11-2.1.59-2.54,1.51-.2.4-.16.86.1,1.4.19.19,1.32,1.18,3.9,1.18h0c1.59,0,3.44-.37,5.48-1.1.53-.26,7.25-3.76,6.49-11.11v-.07Z"/>
  <path class="cls-2" d="M18.93,6.31c.03-.31.04-1.39-1.14-2.27.29-2.97-1.66-3.66-1.75-3.69l-.07-.02c-.99-.17-1.4.16-1.54.46-.29.6.24,1.35.41,1.57l.06.08.09.05c.55.29.76.64.85.91-.67.11-1.52.59-2.29,2.12l-.03.06c-.42,1.2-1.85,4.53-3.46,5.46l-.11.09s-1.81,1.85-5.63,2.39c-.1.02-2.51.5-3.27,2.05-.34.71-.3,1.5.14,2.35l.06.09c.05.06,1.34,1.56,4.69,1.56h0c1.72,0,3.68-.39,5.84-1.17l.05-.02c.08-.04,7.88-3.91,7.08-12.06ZM15.37,1.27c.09,0,.24,0,.41.03.16.06,1.01.48,1.08,1.96-.11-.49-.42-1.11-1.27-1.6-.09-.13-.17-.29-.21-.39ZM11.45,17.47c-2.04.73-3.89,1.1-5.48,1.1h0c-2.58,0-3.7-.99-3.9-1.18-.26-.54-.3-1-.1-1.4.44-.92,2-1.4,2.54-1.51,3.81-.54,5.78-2.3,6.13-2.63,2.16-1.3,3.68-5.49,3.83-5.93.43-.85.91-1.35,1.39-1.5h.52c.06,0,.2.05.36.12,1.33.7,1.2,1.64,1.2,1.67v.07s0,.07,0,.07c.76,7.35-5.97,10.85-6.49,11.11Z"/>
</svg>