<?xml version="1.0" encoding="UTF-8"?>
<svg id="Layer_1" data-name="Layer 1" xmlns="http://www.w3.org/2000/svg" version="1.1" viewBox="0 0 19.84 19.84">
  <defs>
    <style>
      .cls-1 {
        fill: #cca38f;
        stroke-width: 0px;
      }
    </style>
  </defs>
  <path class="cls-1" d="M17.97,9.48c-.56-.96-1.77-2.12-3.12-2.96,0,0-.02-.01-.03-.02-.04-.02-3.96-2.4-3.66-5.53.02-.19-.07-.37-.23-.46-.16-.1-.36-.09-.52.01l-.07.05-.03-.06c-.08-.14-.23-.23-.4-.24-.16,0-.32.07-.41.2l-.1.14-.05-.04c-.15-.1-.35-.11-.51-.02-.16.09-.25.26-.25.44l.02.43s0,.05,0,.08c.28,1.51-.84,3.12-1.93,4.06-.61.52-1.36.82-2.01,1.29-.75.53-1.44,1.17-2.03,1.87-.36.42-.69.88-.93,1.38-1.04,2.16-.13,4.77,2.02,5.81,1.14.55,2.38.68,3.46.39.23.19.47.35.73.48-.55.71-.94,1.63-.23,2.38.21.22.64.03.55-.28-.19-.64,0-1.26.37-1.8.28.09.58.16.89.19.03.22.08.44.12.66.09.48.12.98.32,1.44.12.27.54.22.63-.05.18-.6.02-1.37-.22-2.04.34-.03.67-.1.99-.2.27.62.41,1.26.61,1.93.09.29.6.41.67.03.11-.58.04-1.11-.16-1.67-.09-.25-.2-.46-.34-.65.31-.18.61-.4.86-.65,1.1.21,2.33-.02,3.42-.66,2.07-1.21,2.78-3.88,1.57-5.95ZM15.91,14.6c-.71.42-1.49.62-2.22.6.42-.7.65-1.53.62-2.41-.04-1.03-.51-2.76-1.27-4.27-.3.15-.61.27-.91.37.69,1.33,1.17,2.93,1.21,3.94.03.81-.23,1.56-.68,2.16-.21.28-.47.53-.75.73-.2.14-.42.25-.64.35-.07,0-.14.03-.2.08-.31.11-.64.17-.98.19-.68.03-1.32-.15-1.86-.48-.3-.18-.58-.41-.81-.67-.5-.56-.81-1.29-.84-2.1-.04-1.03.33-2.68.93-4.08-.34-.08-.65-.18-.94-.28-.66,1.58-.99,3.36-.95,4.4.03.88.33,1.68.8,2.35-.73.07-1.52-.07-2.26-.43-1.68-.81-2.39-2.84-1.57-4.52.4-.82,1.27-1.8,2.26-2.58.04-.03.09-.06.13-.1.15-.11.3-.22.45-.32.12-.08.24-.16.36-.23.3-.19.61-.35.9-.47.51-.42.94-.84,1.29-1.24,1.44-1.67,1.64-3.11,1.63-3.81.1-.02.19-.07.26-.15.06.06.13.1.21.12.04,0,.08,0,.12,0,.13,1.49.96,2.76,1.84,3.71.62.67,1.26,1.18,1.71,1.5-.02.01.56.37.85.57,1.07.71,2.05,1.64,2.52,2.45.94,1.61.39,3.69-1.22,4.63Z"/>
</svg>