<?xml version="1.0" encoding="UTF-8"?>
<svg id="Layer_1" data-name="Layer 1" xmlns="http://www.w3.org/2000/svg" version="1.1" viewBox="0 0 19.84 19.84">
  <defs>
    <style>
      .cls-1 {
        fill: #fff;
      }

      .cls-1, .cls-2 {
        stroke-width: 0px;
      }

      .cls-2 {
        fill: #6d1d28;
      }
    </style>
  </defs>
  <path class="cls-1" d="M2.83,12.01c.44,2.53,3.02,4.04,3.05,4.06,5.2,2.55,9.04-2.02,9.08-2.06,4.12-5.72-.23-9.48-.41-9.64-2.14-1.9-4.16-1.87-5.18-1.68-.93.17-1.63.43-2.19.71,1.26-.52,3.14-.76,5.13.85.03.02,3.8,2.99.7,7.89-.03.05-1.95,2.72-4.88,2.72-.72,0-1.49-.16-2.31-.55,0,0-2.94-1.04-2.83-4.51-.23.81-.26,1.63-.16,2.22Z"/>
  <path class="cls-1" d="M18.16,7.66c-.62-2.44-2.18-4.4-4.4-5.51-2.58-1.29-5.62-.99-7.34-.17,0,0,0,0-.01,0-.84.37-2.11,1.45-2.22,2.32-.02.16-.01.39.19.64-.02-.09-.02-.19.02-.28.04-.09.94-2.26,4.78-2.96,1.19-.22,3.56-.26,6.01,1.91.04.03,5.25,4.49.55,11-.05.06-2.7,3.23-6.68,3.23-1.12,0-2.35-.25-3.65-.89-.15-.08-3.04-1.76-3.56-4.76-.21-1.18-.06-2.92.94-4.31-.17.06-.32.16-.46.29-.93.87-1.07,2.95-.81,4.11.45,2.01,1.39,3.52,2.96,4.75,1.61,1.26,3.93,1.79,6.37,1.42,2.54-.37,4.72-1.63,5.99-3.45,1.49-2.13,1.98-4.8,1.33-7.35Z"/>
  <path class="cls-1" d="M7.08,10.81c-.27,0-.55-.04-.84-.14-.36-.07-1.02-.39-1.43-1.05.19,1.49,1.37,1.92,1.54,1.97,2.42,1.04,3.84-1.32,3.9-1.42,1.67-2.9-.26-4.39-.34-4.46-.95-.7-1.8-.7-2.46-.51.43.02.97.19,1.58.66.6.5,1.41,1.89.35,3.73-.35.5-1.19,1.23-2.3,1.23Z"/>
  <path class="cls-1" d="M6.18,13.38c3.49,1.67,5.89-1.66,5.99-1.8,2.6-4.11-.36-6.45-.49-6.55-1.29-1.04-2.5-1.14-3.45-.94.7.01,1.47.23,2.26.81.03.02,2.75,2.06.62,5.76-.51.88-1.79,2.2-3.55,2.2-.48,0-1-.1-1.55-.33-.61-.17-1.56-.79-2-1.95.28,2.13,2.07,2.78,2.17,2.81Z"/>
  <path class="cls-1" d="M3.7,7.84c.03.05.04.11.05.17,0,0,.02,0,.03,0,.06.01.11.04.15.07.03-.05.07-.1.11-.14-.04-.02-.08-.05-.12-.06-.08-.02-.15-.02-.22-.03Z"/>
  <path class="cls-1" d="M5.63,9.06c.28.5.79.64.86.65,1.27.41,2.04-.65,2.05-.67.85-1.48-.04-2.33-.14-2.42-.45-.35-.8-.44-1.05-.44.02.02.03.02.05.04.54.61.75,1.32.56,1.9-.16.5-.59.85-1.21.99-.44.1-.81.05-1.11-.07Z"/>
  <path class="cls-1" d="M4.88,5.34c.16.08.33.11.52.13.02-.1.03-.2.11-.27.03-.03.08-.07.12-.11-.02-.02-.05-.01-.07-.03-.07-.07-.08-.17-.1-.26-.08.13-.13.22-.14.24-.08.18-.25.29-.44.3Z"/>
  <path class="cls-2" d="M19.13,7.41c-.69-2.73-2.44-4.91-4.92-6.15C11.75.03,8.37-.05,6,1.08c-1.04.46-2.64,1.76-2.8,3.11-.06.49.04,1.19.85,1.8.54.41,1.09.46,1.54.5.46.04.76.07,1.06.4.29.33.43.7.36.93-.06.2-.29.29-.48.33-.5.11-.76-.1-1.21-.51-.3-.28-.64-.59-1.12-.73-1.27-.36-2.09.08-2.56.52-1.27,1.19-1.4,3.67-1.1,5.05.49,2.22,1.58,3.96,3.31,5.32,1.45,1.14,3.39,1.75,5.49,1.75.54,0,1.09-.04,1.64-.12,2.81-.41,5.23-1.82,6.66-3.86,1.66-2.36,2.2-5.34,1.48-8.16ZM10.84,18.45c-2.44.36-4.76-.16-6.37-1.42-1.57-1.23-2.51-2.74-2.96-4.75-.26-1.16-.12-3.24.81-4.11.14-.13.29-.23.46-.29-1,1.39-1.15,3.13-.94,4.31.53,3,3.41,4.68,3.56,4.76,1.3.64,2.53.89,3.65.89,3.98,0,6.64-3.17,6.68-3.23,4.7-6.51-.51-10.97-.55-11-2.44-2.17-4.82-2.13-6.01-1.91-3.84.71-4.75,2.87-4.78,2.96-.04.09-.04.19-.02.28-.2-.25-.21-.48-.19-.64.1-.87,1.38-1.95,2.22-2.32,0,0,0,0,.01,0,1.73-.82,4.76-1.12,7.34.17,2.22,1.11,3.78,3.07,4.4,5.51.64,2.54.16,5.22-1.33,7.35-1.27,1.81-3.46,3.07-5.99,3.45ZM5.81,14.3c.82.39,1.6.55,2.31.55,2.93,0,4.85-2.67,4.88-2.72,3.1-4.89-.67-7.87-.7-7.89-1.99-1.61-3.87-1.37-5.13-.85.56-.28,1.27-.54,2.19-.71,1.02-.19,3.04-.21,5.18,1.68.19.16,4.54,3.92.41,9.64-.04.05-3.87,4.62-9.08,2.06-.03-.02-2.61-1.52-3.05-4.06-.1-.6-.07-1.41.16-2.22-.12,3.46,2.82,4.51,2.83,4.51ZM9.03,5.85c-.61-.47-1.15-.63-1.58-.66.65-.19,1.51-.19,2.46.51.08.06,2.02,1.56.34,4.46-.06.1-1.48,2.46-3.9,1.42-.17-.05-1.35-.48-1.54-1.97.41.66,1.07.98,1.43,1.05.29.1.57.14.84.14,1.11,0,1.95-.73,2.3-1.23,1.06-1.83.24-3.23-.35-3.73ZM6.01,12.52c.55.23,1.07.33,1.55.33,1.76,0,3.04-1.32,3.55-2.2,2.13-3.69-.59-5.74-.62-5.76-.78-.58-1.55-.8-2.26-.81.95-.21,2.16-.1,3.45.94.13.1,3.09,2.44.49,6.55-.1.14-2.51,3.47-5.99,1.8-.1-.03-1.88-.68-2.17-2.81.44,1.17,1.38,1.78,2,1.95ZM5.46,4.8c.02.09.03.19.1.26.02.02.05.02.07.03-.04.04-.09.07-.12.11-.07.08-.09.17-.11.27-.18-.02-.35-.06-.52-.13.19,0,.36-.12.44-.3,0-.01.05-.11.14-.24ZM7.95,8.13c.19-.58-.02-1.29-.56-1.9-.02-.02-.03-.03-.05-.04.25,0,.6.09,1.05.44.11.09,1,.93.14,2.42,0,.01-.78,1.08-2.05.67-.07-.02-.58-.16-.86-.65.31.12.67.17,1.11.07.62-.14,1.05-.49,1.21-.99ZM3.93,8.08s-.1-.06-.15-.07c0,0-.02,0-.03,0,0-.06-.02-.11-.05-.17.08.01.14.01.22.03.04.01.08.04.12.06-.05.04-.08.09-.11.14Z"/>
</svg>