<?xml version="1.0" encoding="UTF-8"?>
<svg id="Layer_1" data-name="Layer 1" xmlns="http://www.w3.org/2000/svg" version="1.1" viewBox="0 0 19.84 19.84">
  <defs>
    <style>
      .cls-1 {
        fill: #d2a976;
      }

      .cls-1, .cls-2, .cls-3 {
        stroke-width: 0px;
      }

      .cls-2 {
        fill: none;
      }

      .cls-3 {
        fill: #d0a875;
      }
    </style>
  </defs>
  <path class="cls-2" d="M5.68,11.41s.04-.06.05-.09c.02-.03.03-.06.05-.09.03-.06.06-.13.1-.2.02-.03.03-.07.05-.1.02-.04.03-.07.04-.11.03-.07.06-.15.09-.23.03-.08.05-.16.08-.24.02-.08.05-.16.07-.25.03-.17.08-.34.09-.52.03-.17.03-.35.04-.52,0-.17,0-.34-.03-.51-.01-.17-.05-.32-.07-.47-.04-.15-.06-.29-.11-.42-.04-.13-.08-.24-.11-.35-.01-.03-.02-.05-.03-.07-.25.13-.53.21-.81.23-.2,0-.39.07-.55.19l-1.28.91s.05.06.09.11c.05.07.11.15.16.24.06.09.11.18.16.28.03.05.05.1.08.16.02.05.05.11.07.16.02.06.04.11.06.17l.05.17c.02.06.03.12.04.18.01.06.03.12.04.18,0,.06.02.12.03.18,0,.06,0,.12.01.17.01.11,0,.22,0,.33,0,.1-.02.2-.03.29,0,.06-.02.11-.03.16.49.05.95.2,1.35.45.02-.03.03-.05.05-.07.06-.09.12-.2.19-.31Z"/>
  <path class="cls-2" d="M10.21,13.45c-.11.04-.22.08-.34.14-.06.03-.12.05-.18.08-.06.03-.12.06-.18.08-.12.05-.24.12-.36.18-.12.06-.24.13-.35.2-.06.03-.11.07-.17.1-.06.03-.11.07-.16.1-.22.14-.41.27-.58.38-.08.05-.12.09-.18.13l1.11,1.86c.24.14.61.22,1.02.22l2.29-1.48-1.4-2.16c-.06.02-.12.04-.19.06-.1.03-.2.07-.31.11Z"/>
  <path class="cls-2" d="M9.66,11.69c-.06-.01-.11-.02-.18-.03-.06-.01-.12-.02-.19-.03-.13-.02-.27-.02-.41-.02-.14,0-.29.01-.44.02-.15.02-.3.04-.45.07-.3.05-.6.14-.87.23-.28.09-.53.19-.74.28-.1.04-.2.08-.28.12.17.18.33.36.46.58l1.11,1.87c.05-.05.09-.09.15-.15.08-.07.16-.14.26-.22.09-.07.19-.15.3-.22.11-.07.22-.15.33-.22.12-.07.24-.14.36-.21.12-.06.25-.13.37-.18.12-.06.25-.1.37-.15.12-.05.24-.08.36-.11.11-.03.23-.05.33-.08.06-.01.12-.02.17-.03l-.65-1.01c-.09-.14-.14-.3-.17-.46,0,0-.01,0-.02,0-.05-.01-.1-.03-.16-.04Z"/>
  <path class="cls-2" d="M10.09,9.83c-.01-.15-.04-.29-.08-.43-.04-.14-.09-.28-.15-.41-.06-.13-.14-.26-.22-.38-.16-.25-.36-.47-.56-.7-.1-.11-.2-.23-.3-.35-.1-.12-.19-.25-.27-.39-.08-.14-.13-.3-.15-.46-.01-.08-.01-.16,0-.25,0-.08.03-.17.05-.24l.03-.11s.02-.07.03-.1c0-.03.01-.07.02-.11,0-.04,0-.07,0-.11,0-.14-.03-.29-.08-.42-.05-.12-.12-.24-.19-.35-.59.38-1.1.87-1.46,1.48-.16.28-.4.51-.68.68-.01,0-.03.01-.05.02.01.03.02.04.04.07.05.1.1.21.15.34.05.13.09.27.14.42.04.15.08.31.1.48.03.17.04.35.05.53,0,.18,0,.37-.03.55-.02.18-.06.36-.1.54-.02.09-.05.17-.08.26-.03.08-.05.17-.09.25-.07.16-.13.31-.22.45-.08.13-.15.27-.23.37-.08.11-.16.21-.22.3-.02.03-.04.04-.06.07.2.13.39.26.55.43.08-.05.18-.1.28-.16.1-.06.22-.11.34-.17.12-.06.25-.11.39-.17.14-.05.28-.1.43-.15.15-.04.3-.08.46-.11.16-.03.32-.05.47-.06.16-.01.31-.01.46,0,.15,0,.29.02.43.05.14.02.26.06.37.1.05.01.09.03.13.05,0-.04-.02-.07-.02-.1,0-.11.01-.22.04-.33v-.12l.07-.07c.07-.15.16-.27.28-.38-.02-.12-.05-.23-.06-.35-.02-.15-.03-.31-.04-.45Z"/>
  <path class="cls-2" d="M4,10.9c0-.1-.01-.21-.03-.31,0-.05-.01-.11-.02-.16-.01-.05-.02-.11-.03-.17,0-.06-.02-.11-.04-.17-.01-.06-.03-.11-.04-.17l-.05-.17c-.02-.05-.04-.11-.06-.16-.04-.11-.08-.21-.12-.31-.05-.1-.09-.2-.13-.29-.04-.09-.09-.17-.13-.25-.02-.04-.04-.08-.07-.12l-1.17.83s0,0,.01.01c.05.06.09.12.14.18.05.07.1.14.14.22.05.08.09.16.14.24.04.08.08.17.12.26.04.09.07.18.1.27.03.09.05.18.08.27.02.09.04.17.05.26.01.08.02.16.03.23,0,0,0,0,0,.01l.25-.05c.12-.02.24-.04.36-.04.16-.01.31.02.47.03,0-.05,0-.1,0-.16,0-.09,0-.18,0-.28Z"/>
  <path class="cls-2" d="M12.64,3.12s.05.07.07.11l.07.11c.04.08.08.16.11.24.03.08.06.16.08.24,0,.01,0,.03.01.04.03-.18.01-.37-.08-.53-.08-.14-.21-.24-.35-.32,0,0,0,0,.01.01.03.03.06.06.08.1Z"/>
  <path class="cls-2" d="M10.75,3.71s.06.05.09.08.06.06.09.1c.03.03.06.07.08.11.03.04.05.08.07.12.04.08.09.17.12.26.03.09.05.18.07.27,0,.05.01.09.01.14,0,.04,0,.09,0,.13,0,.09,0,.17-.02.25,0,0,0,0,0,.01l1.31-.73c.14-.08.23-.19.31-.33,0-.01,0-.02-.01-.04-.02-.07-.05-.14-.07-.21-.02-.07-.06-.14-.09-.22-.03-.07-.07-.15-.11-.21l-.06-.1s-.04-.07-.07-.1c-.04-.06-.09-.13-.14-.18-.04-.05-.08-.09-.12-.13-.11,0-.22,0-.33.04l-.12.05-1.13.63s0,0,0,0c.03.02.06.05.09.07Z"/>
  <path class="cls-2" d="M2.74,11.19c-.02-.08-.05-.16-.08-.24-.06-.17-.12-.34-.19-.51-.04-.09-.07-.17-.11-.25-.04-.08-.08-.16-.12-.24-.04-.08-.08-.15-.12-.22-.04-.07-.08-.14-.11-.2,0,0,0,0,0-.01l-.41.29c-.3.21-.45.58-.38.94.09.51.59.86,1.1.76l.49-.09s0,0,0-.01c-.02-.07-.04-.14-.06-.22Z"/>
  <path class="cls-2" d="M13.17,11.3s.07-.05.1-.08c.03-.03.07-.06.1-.09.03-.03.07-.06.11-.09.04-.03.07-.07.1-.1.03-.03.07-.07.11-.11.03-.04.07-.08.1-.12.07-.08.13-.16.2-.25.07-.08.12-.18.19-.27.03-.05.06-.1.08-.14.03-.05.06-.1.08-.15.11-.2.19-.41.27-.63.07-.22.13-.44.17-.66.04-.22.07-.44.09-.66.01-.22.02-.42.02-.62,0-.2-.01-.39-.03-.56-.02-.27-.05-.48-.08-.67-.56.05-1.11.17-1.58.41-.38.2-.76.34-1.15.46.03.07.06.15.1.23.03.1.08.21.1.33.03.12.06.25.08.38,0,.07.01.14.02.2,0,.07.01.14.01.21,0,.14,0,.29-.01.43,0,.07-.02.14-.03.21-.01.07-.02.14-.03.21-.03.14-.06.28-.1.4-.02.06-.04.13-.06.19-.02.06-.05.12-.07.18-.05.11-.09.22-.14.32-.04.09-.08.16-.12.23.18.12.32.29.41.48.11.24.26.47.42.69.06-.04.11-.07.18-.11.12-.08.25-.17.38-.28Z"/>
  <path class="cls-2" d="M17.97,7.23c.02.09.05.19.07.29.04.21.06.43.06.68,0,.24-.05.5-.14.76-.09.25-.24.5-.43.71-.05.05-.1.1-.15.15-.05.05-.1.09-.15.14-.05.05-.09.1-.14.14-.04.05-.09.1-.12.16-.16.21-.28.45-.36.7-.08.25-.13.51-.19.77-.06.26-.15.51-.28.71-.14.21-.31.37-.48.49-.13.09-.25.15-.37.21.43-.02.82-.17,1.11-.46.24-.24.39-.56.44-.93.08-.58.39-1.11.85-1.47.61-.47.95-1.08.95-1.71,0-.55-.27-1.06-.71-1.49.02.05.03.1.05.15Z"/>
  <path class="cls-2" d="M11.9,9.92c.02-.06.04-.11.05-.18.02-.06.03-.12.05-.19.04-.12.05-.26.08-.39.02-.07.02-.13.03-.2,0-.07.02-.14.02-.21.01-.14.02-.28.02-.41,0-.14,0-.27-.01-.4-.02-.13-.03-.25-.05-.37,0-.06-.02-.12-.03-.17-.01-.05-.02-.11-.03-.16-.02-.09-.04-.17-.07-.24-.5.15-1,.24-1.5.26-.3.01-.5-.09-.64-.26-.15-.18-.21-.42-.16-.65.04-.2.18-.38.36-.49l1.1-.61s0-.07,0-.1c0-.07,0-.15,0-.23,0-.08-.02-.16-.03-.24-.02-.08-.04-.16-.07-.24-.02-.08-.06-.16-.1-.23-.02-.04-.04-.07-.06-.11-.02-.03-.05-.07-.07-.1-.02-.03-.05-.06-.07-.09-.02-.03-.05-.06-.07-.09-.04-.04-.08-.08-.11-.12l-2.04,1.14c-.08.05-.14.12-.22.17.09.1.18.21.24.34.07.14.11.3.12.46,0,.04,0,.08,0,.12,0,.04,0,.08-.01.12,0,.04-.01.08-.02.12l-.03.11c-.02.08-.03.14-.04.21,0,.07,0,.14,0,.21.02.14.07.27.14.39.14.25.35.47.55.7.1.11.2.23.29.35.09.12.19.24.27.38.16.26.3.55.36.86.03.15.06.31.06.46,0,.16,0,.3.01.45,0,.1.02.2.03.31.21-.18.46-.29.75-.3h0c.26,0,.5.07.7.19.03-.07.05-.14.09-.23.04-.1.07-.21.11-.32Z"/>
  <path class="cls-2" d="M16.01,12.36c.12-.2.19-.43.24-.68.05-.25.09-.52.18-.79.08-.27.22-.53.39-.76.04-.06.09-.11.14-.17.05-.05.1-.11.15-.16l.15-.14s.09-.09.14-.14c.17-.19.32-.41.41-.64.09-.23.13-.47.15-.7.01-.23,0-.45-.03-.65-.01-.1-.03-.2-.05-.29-.02-.09-.04-.18-.06-.26,0,0,0-.01,0-.02-.23-.2-.49-.38-.81-.53-.66-.3-1.43-.4-2.19-.34.02.06.03.12.05.19.03.14.07.3.09.47.06.35.09.76.07,1.21-.01.22-.03.45-.07.68-.04.23-.1.46-.17.69-.08.22-.17.45-.28.65-.05.11-.12.2-.18.3-.07.09-.13.19-.2.27-.07.09-.14.17-.22.25-.04.04-.07.08-.11.12-.04.04-.08.07-.11.1-.07.07-.15.13-.23.19-.04.03-.07.06-.11.09-.04.03-.08.05-.11.08-.14.1-.29.18-.41.25-.07.04-.13.06-.19.09.1.13.2.26.31.37.66.66,1.47,1.01,2.2,1.02.14-.08.29-.18.44-.3.16-.13.31-.29.42-.48Z"/>
  <path class="cls-3" d="M17.39,5.6c-1.41-.64-3.26-.6-4.62.1-.5.26-1.02.44-1.54.55l1.8-1c.41-.23.7-.6.83-1.04.13-.45.07-.92-.15-1.32-.41-.73-1.37-1.07-2.12-.79-.09.03-.17.07-.25.11l-3.28,1.83c-.86.48-1.57,1.17-2.07,2.01-.09.15-.21.27-.36.36-.14.09-.31.14-.48.14-.38.02-.74.14-1.05.36l-3.02,2.15c-.59.42-.88,1.15-.76,1.85.18,1,1.16,1.69,2.17,1.51l.84-.15c.09-.01.18-.03.26-.03.88-.06,1.72.38,2.17,1.14l2.31,3.89.13.14c.41.28,1,.44,1.69.44h.2s3.29-2.13,3.29-2.13l-2.61-4.02c-.03-.05-.05-.11-.04-.28h0c.04-.1.13-.22.31-.22.13,0,.24.07.29.18.22.51.55.97.96,1.38.7.69,1.56,1.14,2.43,1.26.93.12,1.75-.12,2.32-.7.38-.38.62-.89.7-1.46.04-.34.22-.65.5-.86.84-.65,1.31-1.51,1.31-2.44,0-1.22-.83-2.35-2.17-2.96ZM17.69,10.28c-.46.35-.77.89-.85,1.47-.05.37-.2.7-.44.93-.29.29-.68.44-1.11.46-.04.02-.09.06-.13.07-.15.07-.29.12-.41.16-.11.04-.21.07-.27.09-.06.02-.1.03-.1.03,0,0,.03-.01.09-.04.06-.03.15-.06.26-.11.11-.05.24-.11.39-.19,0,0,.01,0,.02-.01-.72-.01-1.54-.36-2.2-1.02-.12-.12-.21-.25-.31-.37-.05.02-.11.05-.15.07-.19.08-.3.12-.3.12,0,0,.1-.06.28-.15.04-.02.09-.05.13-.08-.17-.22-.31-.45-.42-.69-.09-.2-.23-.36-.41-.48,0,0,0,.02-.01.03-.05.07-.09.14-.12.19-.07.1-.11.16-.11.16,0,0,.03-.07.07-.18.02-.06.05-.13.09-.2,0-.01.01-.03.02-.04-.2-.12-.44-.19-.7-.19h0c-.29.01-.54.13-.75.3,0,.05,0,.1.01.14.02.15.05.3.09.44h0s0,0,0,0c-.07-.17-.12-.35-.16-.53-.11.11-.21.23-.28.38l-.07.07v.12c-.03.11-.04.21-.04.33,0,.04.01.07.02.1,0,0,.02,0,.03.01.05.02.1.04.14.06.09.04.16.08.22.12.06.03.1.07.13.09.03.02.05.03.05.03,0,0-.02,0-.05-.02-.03-.01-.08-.04-.15-.06-.06-.02-.14-.06-.23-.08-.04-.01-.08-.03-.13-.04.03.16.08.32.17.46l.65,1.01s.08-.01.11-.02c.08-.02.16-.02.22-.02.12,0,.19-.01.19-.01,0,0-.07.02-.18.05-.06.02-.13.03-.21.06-.02,0-.05.02-.07.02l1.4,2.16-2.29,1.48c-.41,0-.78-.09-1.02-.22l-1.11-1.86c-.08.05-.17.12-.22.16-.1.07-.15.11-.15.11,0,0,.04-.05.13-.14.05-.05.13-.13.21-.2l-1.11-1.87c-.13-.22-.29-.4-.46-.58-.09.04-.17.08-.24.1-.12.06-.2.09-.2.09,0,0,.06-.05.18-.12.06-.04.13-.08.21-.13-.17-.17-.36-.3-.55-.43-.05.05-.1.11-.13.15-.11.12-.17.18-.17.18,0,0,.05-.07.14-.21.03-.04.07-.1.11-.16-.41-.25-.87-.4-1.35-.45,0,.03-.01.06-.02.08-.01.07-.04.13-.05.18-.03.1-.05.16-.05.16,0,0,0-.06.02-.16,0-.05.02-.11.02-.19,0-.02,0-.05,0-.08-.16-.01-.31-.04-.47-.03-.12,0-.24.02-.36.04l-.25.05c0,.07,0,.13,0,.18,0,.06,0,.11,0,.15,0,.08,0,.13,0,.13,0,0-.01-.05-.03-.13-.01-.04-.02-.09-.03-.15-.01-.05-.03-.11-.04-.17l-.49.09c-.51.1-1.01-.26-1.1-.76-.07-.36.09-.73.38-.94l.41-.29c-.07-.12-.12-.22-.16-.29-.04-.07-.07-.11-.07-.11,0,0,.04.03.1.09.06.06.14.14.22.25l1.17-.83s-.04-.07-.05-.09c-.04-.06-.07-.12-.1-.16-.05-.09-.08-.14-.08-.14,0,0,.04.04.12.12.05.05.12.14.19.23l1.28-.91c.16-.12.36-.18.55-.19.29-.01.56-.09.81-.23-.03-.07-.05-.14-.07-.19-.06-.15-.1-.23-.1-.23,0,0,.01.02.03.05.02.04.06.09.1.16.03.05.06.12.1.18.02,0,.03-.01.05-.02.28-.17.51-.4.68-.68.36-.61.87-1.1,1.46-1.48,0-.01-.01-.03-.02-.04-.09-.12-.19-.23-.3-.33.12.09.24.19.34.3.01.01.02.03.03.04.08-.05.14-.12.22-.17l2.04-1.14s-.02-.02-.03-.03c-.05-.05-.09-.08-.13-.12-.04-.03-.08-.06-.11-.09-.06-.05-.1-.08-.1-.08,0,0,.04.01.12.04.07.03.18.08.29.15.03.02.05.04.08.06l1.13-.63.12-.05c.11-.04.22-.05.33-.04,0,0-.02-.02-.02-.02-.05-.05-.1-.09-.15-.13-.1-.08-.18-.13-.25-.17-.06-.04-.1-.06-.1-.06,0,0,.04,0,.12.02.04.01.08.02.13.04.05.02.11.04.16.07.06.03.12.07.18.11.03.02.06.05.09.07.03.02.06.05.09.08.03.02.05.05.07.08.14.07.27.17.35.32.09.16.11.35.08.53,0,.03.01.05.02.08,0,.04.01.08.02.11.01.07.02.14.03.21.01.13.01.23,0,.31,0,.07,0,.12,0,.12,0,0-.01-.04-.03-.11,0-.04-.02-.08-.03-.13-.01-.05-.03-.1-.05-.16-.01-.05-.03-.1-.05-.15-.07.13-.17.25-.31.33l-1.31.73c-.01.07-.02.14-.04.21-.02.07-.03.13-.05.18-.02.05-.04.1-.05.13-.03.07-.05.11-.05.11,0,0,0-.05.01-.12,0-.04,0-.09.02-.14,0-.05,0-.11.01-.18,0-.03,0-.07,0-.11l-1.1.61c-.19.11-.32.28-.36.49-.05.23,0,.47.16.65.15.18.34.27.64.26.5-.02,1.01-.11,1.5-.26,0-.01,0-.03,0-.04-.02-.08-.05-.15-.07-.21-.04-.12-.07-.18-.07-.18,0,0,0,.01.03.04.02.03.05.07.07.12.03.06.07.12.1.2,0,.01.01.03.02.04.39-.12.77-.27,1.15-.46.47-.24,1.02-.36,1.58-.41,0-.06-.02-.12-.03-.17-.04-.2-.06-.32-.06-.32,0,0,0,.03.03.08.02.05.04.13.07.23.01.05.03.11.04.17.76-.06,1.53.04,2.19.34.32.14.58.33.81.53-.04-.15-.08-.29-.12-.39-.04-.11-.07-.2-.09-.26-.02-.06-.03-.09-.03-.09,0,0,.02.03.04.09.03.06.07.14.12.25.05.11.1.25.16.41.01.03.02.07.03.11.44.43.71.94.71,1.49,0,.64-.34,1.25-.95,1.71Z"/>
  <path class="cls-1" d="M10.16,13.31c-.11.04-.24.07-.36.11-.12.05-.25.09-.37.15-.13.05-.25.12-.37.18-.12.07-.24.13-.36.21-.12.07-.23.15-.33.22-.11.07-.21.15-.3.22-.09.07-.18.15-.26.22-.07.06-.1.1-.15.15-.07.07-.16.15-.21.2-.08.09-.13.14-.13.14,0,0,.06-.04.15-.11.05-.04.15-.1.22-.16.06-.04.11-.08.18-.13.17-.12.37-.25.58-.38.05-.03.11-.07.16-.1.06-.03.11-.07.17-.1.11-.07.23-.13.35-.2.12-.06.24-.13.36-.18.06-.03.12-.06.18-.08.06-.03.12-.05.18-.08.12-.05.23-.09.34-.14.11-.04.21-.07.31-.11.07-.02.13-.04.19-.06.02,0,.05-.02.07-.02.08-.03.15-.04.21-.06.12-.03.18-.05.18-.05,0,0-.07,0-.19.01-.06,0-.13,0-.22.02-.03,0-.07.01-.11.02-.06,0-.11.02-.17.03-.1.02-.21.05-.33.08Z"/>
  <path class="cls-1" d="M9.32,11.49c-.14-.03-.28-.04-.43-.05-.15,0-.31,0-.46,0-.16.01-.32.03-.47.06-.16.03-.31.07-.46.11-.15.04-.29.09-.43.15-.14.05-.27.11-.39.17-.12.06-.24.11-.34.17-.11.06-.2.11-.28.16-.08.05-.15.09-.21.13-.11.08-.18.12-.18.12,0,0,.07-.03.2-.09.06-.03.15-.07.24-.1.08-.04.18-.08.28-.12.22-.09.47-.19.74-.28.28-.09.57-.17.87-.23.15-.03.3-.05.45-.07.15-.01.3-.02.44-.02.14,0,.28,0,.41.02.07,0,.13.01.19.03.06,0,.12.02.18.03.06.01.11.03.16.04,0,0,.01,0,.02,0,.04.01.09.02.13.04.09.03.17.06.23.08.06.03.11.05.15.06.03.02.05.02.05.02,0,0-.02-.01-.05-.03-.03-.02-.07-.05-.13-.09-.06-.03-.13-.08-.22-.12-.04-.02-.09-.04-.14-.06,0,0-.02,0-.03-.01-.04-.02-.08-.03-.13-.05-.11-.04-.24-.07-.37-.1Z"/>
  <path class="cls-1" d="M16.14,12.43c.14-.21.22-.46.28-.71.06-.26.11-.52.19-.77.08-.25.2-.49.36-.7.04-.05.08-.1.12-.16.05-.05.09-.1.14-.14.05-.05.1-.09.15-.14.05-.05.1-.1.15-.15.19-.21.34-.45.43-.71.09-.25.13-.51.14-.76,0-.24-.02-.47-.06-.68-.02-.1-.04-.2-.07-.29-.02-.05-.03-.1-.05-.15-.01-.03-.02-.07-.03-.11-.05-.16-.11-.3-.16-.41-.05-.11-.09-.2-.12-.25-.03-.06-.04-.09-.04-.09,0,0,.01.03.03.09.02.06.05.15.09.26.04.11.08.24.12.39,0,0,0,.01,0,.02.02.08.04.17.06.26.02.09.04.19.05.29.03.2.04.42.03.65-.02.23-.07.47-.15.7-.09.23-.23.45-.41.64-.05.05-.09.09-.14.14l-.15.14c-.05.05-.1.1-.15.16-.04.06-.09.11-.14.17-.17.23-.3.49-.39.76-.09.27-.13.54-.18.79-.05.25-.12.48-.24.68-.12.19-.27.35-.42.48-.15.12-.3.22-.44.3,0,0-.01,0-.02.01-.15.08-.28.14-.39.19-.11.05-.2.09-.26.11-.06.02-.09.04-.09.04,0,0,.03,0,.1-.03.06-.02.15-.04.27-.09.11-.04.25-.09.41-.16.04-.02.09-.05.13-.07.12-.06.24-.12.37-.21.17-.12.34-.29.48-.49Z"/>
  <path class="cls-1" d="M13.23,11.39s.07-.05.11-.08c.04-.03.07-.06.11-.09.08-.06.15-.12.23-.19.04-.03.08-.07.11-.1.04-.04.07-.08.11-.12.08-.08.14-.16.22-.25.07-.09.13-.18.2-.27.06-.1.13-.19.18-.3.12-.21.2-.43.28-.65.08-.23.13-.46.17-.69.04-.23.06-.46.07-.68.02-.44-.02-.86-.07-1.21-.03-.17-.06-.33-.09-.47-.02-.07-.03-.13-.05-.19-.01-.06-.03-.12-.04-.17-.03-.1-.05-.18-.07-.23-.02-.05-.03-.08-.03-.08,0,0,.02.11.06.32,0,.05.02.11.03.17.03.18.06.4.08.67.02.17.02.36.03.56,0,.2,0,.41-.02.62-.02.22-.05.44-.09.66-.04.22-.1.44-.17.66-.08.22-.16.43-.27.63-.02.05-.05.1-.08.15-.03.05-.06.1-.08.14-.06.09-.12.18-.19.27-.06.09-.13.17-.2.25-.03.04-.07.08-.1.12-.04.04-.07.07-.11.11-.04.03-.07.07-.1.1-.04.03-.07.06-.11.09-.03.03-.07.06-.1.09-.04.03-.07.06-.1.08-.13.11-.27.2-.38.28-.07.04-.12.08-.18.11-.04.03-.09.06-.13.08-.18.1-.28.15-.28.15,0,0,.11-.04.3-.12.04-.02.1-.05.15-.07.06-.03.11-.06.19-.09.12-.07.27-.15.41-.25Z"/>
  <path class="cls-1" d="M12.04,9.97c.02-.06.05-.12.07-.18.02-.06.04-.12.06-.19.04-.13.07-.26.1-.4.02-.07.02-.14.03-.21,0-.07.02-.14.03-.21,0-.14.02-.29.01-.43,0-.07,0-.14-.01-.21,0-.07-.01-.14-.02-.2-.02-.13-.04-.26-.08-.38-.03-.12-.07-.23-.1-.33-.03-.09-.06-.16-.1-.23,0-.01-.01-.03-.02-.04-.03-.08-.07-.15-.1-.2-.03-.06-.06-.09-.07-.12-.02-.03-.03-.04-.03-.04,0,0,.03.07.07.18.02.06.04.13.07.21,0,.01,0,.03,0,.04.02.07.04.15.07.24.01.05.02.1.03.16.01.05.02.11.03.17.02.12.03.24.05.37,0,.13.02.26.01.4,0,.14,0,.27-.02.41,0,.07-.02.14-.02.21-.01.07-.01.14-.03.2-.03.13-.05.27-.08.39-.02.06-.03.13-.05.19-.02.06-.04.12-.05.18-.04.11-.07.22-.11.32-.03.08-.06.16-.09.23,0,.01-.01.03-.02.04-.03.08-.06.15-.09.2-.05.11-.07.18-.07.18,0,0,.04-.06.11-.16.03-.05.07-.12.12-.19,0,0,0-.02.01-.03.04-.07.08-.15.12-.23.05-.09.1-.2.14-.32Z"/>
  <path class="cls-1" d="M12.49,3.23s.04.07.07.1l.06.1c.04.07.07.14.11.21.03.07.06.14.09.22.03.07.05.14.07.21,0,.01,0,.02.01.04.02.05.03.11.05.15.02.06.03.12.05.16.01.05.02.09.03.13.02.07.03.11.03.11,0,0,0-.04,0-.12,0-.07,0-.18,0-.31,0-.06-.01-.13-.03-.21,0-.04-.01-.07-.02-.11,0-.02-.01-.05-.02-.08,0-.01,0-.03-.01-.04-.02-.08-.05-.16-.08-.24-.03-.08-.07-.16-.11-.24l-.07-.11s-.05-.07-.07-.11c-.02-.04-.05-.07-.08-.1,0,0,0,0-.01-.01-.02-.03-.05-.06-.07-.08-.03-.03-.06-.06-.09-.08-.03-.02-.06-.05-.09-.07-.06-.04-.12-.08-.18-.11-.06-.03-.11-.05-.16-.07-.05-.02-.09-.03-.13-.04-.07-.02-.12-.02-.12-.02,0,0,.04.02.1.06.06.04.15.09.25.17.05.04.1.08.15.13,0,0,.02.02.02.02.04.04.08.09.12.13.05.06.09.12.14.18Z"/>
  <path class="cls-1" d="M10.72,3.9s.05.06.07.09c.02.03.05.07.07.1.02.04.04.07.06.11.04.07.07.15.1.23.03.08.05.16.07.24,0,.08.03.16.03.24,0,.08.01.16,0,.23,0,.04,0,.07,0,.1,0,.04,0,.07,0,.11,0,.07,0,.13-.01.18,0,.05-.01.1-.02.14,0,.08-.01.12-.01.12,0,0,.02-.04.05-.11.02-.04.03-.08.05-.13.02-.05.03-.11.05-.18.02-.06.03-.13.04-.21,0,0,0,0,0-.01.01-.08.02-.16.02-.25,0-.04,0-.09,0-.13,0-.05,0-.09-.01-.14-.02-.09-.04-.18-.07-.27-.03-.09-.07-.17-.12-.26-.02-.04-.05-.08-.07-.12-.03-.04-.06-.07-.08-.11-.03-.04-.06-.07-.09-.1s-.06-.06-.09-.08c-.03-.03-.06-.05-.09-.07,0,0,0,0,0,0-.03-.02-.06-.04-.08-.06-.12-.08-.22-.12-.29-.15-.07-.03-.12-.04-.12-.04,0,0,.04.03.1.08.03.02.07.05.11.09.04.04.09.07.13.12.01.01.02.02.03.03.04.04.08.07.11.12.03.03.05.06.07.09Z"/>
  <path class="cls-1" d="M10.21,9.82c0-.16-.03-.31-.06-.46-.07-.31-.2-.6-.36-.86-.08-.13-.18-.26-.27-.38-.1-.12-.2-.24-.29-.35-.2-.23-.4-.45-.55-.7-.07-.12-.12-.26-.14-.39-.01-.07-.01-.14,0-.21,0-.07.01-.13.04-.21l.03-.11s.02-.08.02-.12c0-.04.01-.08.01-.12,0-.04,0-.08,0-.12,0-.16-.05-.32-.12-.46-.06-.13-.15-.24-.24-.34-.01-.01-.02-.03-.03-.04-.1-.11-.22-.21-.34-.3.11.1.21.22.3.33,0,.01.01.03.02.04.08.11.15.22.19.35.05.14.08.28.08.42,0,.04,0,.07,0,.11,0,.04,0,.07-.02.11,0,.04-.02.07-.03.1l-.03.11c-.02.07-.04.15-.05.24,0,.08,0,.16,0,.25.02.16.08.32.15.46.08.14.17.27.27.39.1.12.2.23.3.35.2.23.39.45.56.7.08.12.16.25.22.38.06.13.11.27.15.41.04.14.07.29.08.43.02.15.02.3.04.45.02.12.04.23.06.35.04.18.08.36.16.53h0s0,0,0,0c-.04-.15-.07-.29-.09-.44,0-.05,0-.1-.01-.14-.01-.1-.02-.2-.03-.31,0-.15,0-.3-.01-.45Z"/>
  <path class="cls-1" d="M4.14,10.9c0-.1.01-.22,0-.33,0-.06,0-.12-.01-.17,0-.06-.02-.12-.03-.18,0-.06-.02-.12-.04-.18-.01-.06-.02-.12-.04-.18l-.05-.17c-.02-.06-.04-.11-.06-.17-.02-.06-.05-.11-.07-.16-.03-.05-.05-.11-.08-.16-.05-.1-.11-.2-.16-.28-.05-.09-.11-.17-.16-.24-.03-.05-.06-.07-.09-.11-.07-.08-.14-.18-.19-.23-.07-.08-.12-.12-.12-.12,0,0,.03.05.08.14.03.05.06.1.1.16.02.03.04.06.05.09.02.04.04.07.07.12.04.08.09.16.13.25.05.09.09.19.13.29.04.1.09.21.12.31.02.05.04.11.06.16l.05.17c.02.06.03.11.04.17.01.06.03.11.04.17,0,.06.02.11.03.17,0,.06.01.11.02.16.02.11.02.21.03.31,0,.1,0,.2,0,.28,0,.06,0,.11,0,.16,0,.02,0,.05,0,.08,0,.07-.01.13-.02.19-.01.1-.02.16-.02.16,0,0,.02-.06.05-.16.02-.05.04-.11.05-.18,0-.02.01-.06.02-.08.01-.05.02-.1.03-.16,0-.09.03-.19.03-.29Z"/>
  <path class="cls-1" d="M5.77,11.47c.09-.11.15-.24.23-.37.09-.13.14-.29.22-.45.04-.08.06-.16.09-.25.03-.08.06-.17.08-.26.04-.18.09-.36.1-.54.03-.18.03-.37.03-.55,0-.18-.02-.36-.05-.53-.02-.17-.07-.33-.1-.48-.05-.15-.09-.29-.14-.42-.05-.13-.1-.24-.15-.34-.01-.03-.02-.05-.04-.07-.03-.07-.07-.13-.1-.18-.04-.07-.07-.12-.1-.16-.02-.04-.03-.05-.03-.05,0,0,.03.08.1.23.02.05.05.12.07.19.01.03.02.05.03.07.03.1.08.22.11.35.04.13.07.27.11.42.03.15.06.31.07.47.02.16.02.34.03.51,0,.17,0,.35-.04.52-.01.18-.06.35-.09.52-.02.08-.05.17-.07.25-.03.08-.04.16-.08.24-.03.08-.06.15-.09.23-.01.04-.03.07-.04.11-.02.03-.03.07-.05.1-.03.07-.07.13-.1.2-.02.03-.03.06-.05.09-.02.03-.04.06-.05.09-.07.11-.13.22-.19.31-.02.03-.03.05-.05.07-.04.06-.08.11-.11.16-.09.13-.14.21-.14.21,0,0,.06-.07.17-.18.04-.04.09-.09.13-.15.02-.02.04-.04.06-.07.07-.09.14-.19.22-.3Z"/>
  <path class="cls-1" d="M2.88,11.16c-.02-.08-.03-.17-.05-.26-.02-.09-.04-.18-.08-.27-.03-.09-.06-.18-.1-.27-.04-.09-.08-.18-.12-.26-.04-.09-.09-.17-.14-.24-.05-.08-.1-.15-.14-.22-.05-.07-.1-.13-.14-.18,0,0,0,0-.01-.01-.09-.11-.17-.19-.22-.25-.06-.06-.1-.09-.1-.09,0,0,.02.04.07.11.04.07.1.17.16.29,0,0,0,0,0,.01.03.06.07.13.11.2.04.07.08.15.12.22.04.08.08.16.12.24.04.08.08.17.11.25.07.17.14.35.19.51.03.08.05.16.08.24.02.08.04.15.06.22,0,0,0,0,0,.01.01.06.03.12.04.17.02.06.02.11.03.15.02.08.03.13.03.13,0,0,0-.05,0-.13,0-.04,0-.09,0-.15,0-.05,0-.12,0-.18,0,0,0,0,0-.01,0-.07-.02-.15-.03-.23Z"/>
</svg>