<?xml version="1.0" encoding="UTF-8"?>
<svg id="Layer_1" data-name="Layer 1" xmlns="http://www.w3.org/2000/svg" version="1.1" viewBox="0 0 19.84 19.84">
  <defs>
    <style>
      .cls-1 {
        fill: none;
      }

      .cls-1, .cls-2 {
        stroke-width: 0px;
      }

      .cls-2 {
        fill: #9e744f;
      }
    </style>
  </defs>
  <polygon class="cls-1" points="2.91 1.25 3.16 1.61 3.08 1.2 2.91 1.25"/>
  <path class="cls-1" d="M3.84,4.63s-.05.02-.08.03c-.05.02-.1.05-.16.08.06-.02.11-.04.16-.06.05-.02.1-.04.14-.05-.02,0-.04,0-.07,0Z"/>
  <path class="cls-1" d="M14.83,12.03c.21.03.67.12,1.14.27-1.15-.96-3.11-1.83-4.27-2.22-.43-.14-.88-.45-1.33-.91l-.43-.5c-.06.03-.1.05-.15.07l-.13.06c-.08.03-.14.06-.2.1-.04.02-.07.05-.09.07-.08.1-.19.15-.31.15h0c-.09,0-.18-.03-.25-.09-.17-.14-.2-.38-.06-.56.08-.1.18-.18.31-.26.1-.06.2-.1.29-.14l.1-.04-.26-.36c-.75-1.16-1.36-2.47-1.74-3.36l-.06-.16s-.08.03-.12.05c-.19.1-.37.21-.42.25-.18.12-.43.06-.55-.11-.12-.18-.07-.43.11-.55.08-.05.28-.18.51-.3l.13-.05-.26-.38c-1.05-1.29-2.4-1.1-3.23-.55-1.11.74-1.84,2.4-.83,4.32.06.12.14.24.22.36.2.31.42.66.59,1.18.12.37.26.72.4,1.04l.31.59.23-.15c.09-.06.17-.11.24-.17.06-.05.11-.08.14-.11.15-.16.41-.16.56,0,.16.15.16.4,0,.56-.06.06-.14.13-.24.2-.09.06-.18.13-.27.19l-.26.17.29.41c.92,1.17,2.1,2.02,3.6,3.09l.15.11c.83.59,2.26,1.86,2.78,2.69.08.13.33.39.64.68-.02-.07-.03-.15-.05-.22-.29-1.44-1.2-2.45-2.17-3.52-.34-.37-.68-.75-1.01-1.16-.05-.07-.25-.31-.44-.63l-.02-.03c-.06.04-.12.06-.16.08l-.06.03c-.07.03-.11.06-.16.1-.06.05-.11.11-.16.18-.12.18-.38.23-.55.11-.09-.06-.15-.15-.17-.25-.02-.1,0-.21.06-.3.1-.14.2-.26.32-.36s.23-.15.31-.2l.09-.04s.09-.04.12-.06l.03-.02c-.15-.48-.1-.84.14-1.09.09-.09.22-.13.35-.11.13.02.23.1.29.21.25.49,1.06.88,2.43,1.16l.46.08c.14-.16.28-.26.39-.35.07-.06.14-.11.19-.16.08-.07.17-.12.28-.12h0c.11,0,.2.04.28.12.07.07.12.17.12.28s-.04.21-.12.28c-.04.04-.08.07-.12.11l.94.11c.4.04.77.09,1.09.13ZM4.22,5.36s-.1.04-.14.05c-.21.08-.31.12-.38.19-.08.08-.17.12-.28.12s-.21-.04-.28-.12c-.15-.15-.15-.4,0-.56,0,0,.02-.02.03-.03-.05.03-.1.06-.14.09-.06.04-.12.06-.2.05-.14,0-.27-.08-.34-.2-.05-.09-.07-.2-.04-.3s.09-.19.19-.24c.04-.03.1-.06.2-.12.09-.06.19-.12.29-.18.11-.06.22-.12.33-.17.15-.06.28-.1.39-.1.22,0,.4.18.4.4,0,.12-.06.23-.15.31.03-.01.05-.03.06-.04.07-.07.17-.12.28-.12h0c.11,0,.21.04.28.12.07.07.12.17.12.28s-.04.21-.12.28c-.09.09-.2.16-.34.23-.05.03-.11.05-.16.07ZM5.75,8.68c-.08.08-.16.14-.27.2l-.1.05c-.07.03-.11.05-.15.07-.15.07-.23.11-.3.18-.07.07-.17.12-.28.12s-.21-.04-.28-.12c-.15-.15-.15-.41,0-.56.19-.19.39-.28.56-.35.11-.05.21-.09.26-.15.07-.08.17-.12.28-.12h0c.11,0,.21.04.28.12.15.15.15.4,0,.56ZM5.59,3.07s-.08.05-.14.09c-.03.02-.06.05-.1.08-.04.03-.08.06-.13.09-.12.07-.23.12-.36.15-.02,0-.05,0-.07,0h0c-.19,0-.35-.14-.38-.32-.04-.21.1-.42.31-.46.03,0,.06-.02.09-.04.02-.01.04-.03.06-.04l.07-.05c.07-.05.15-.12.25-.18.12-.07.26-.1.39-.1.22,0,.4.18.4.4s-.18.4-.4.4Z"/>
  <path class="cls-2" d="M4.71,5.06c.07-.07.12-.17.12-.28s-.04-.21-.12-.28c-.08-.08-.17-.12-.28-.12h0c-.11,0-.21.04-.28.12-.01.01-.03.03-.06.04.09-.07.15-.18.15-.31,0-.22-.18-.4-.4-.4-.12,0-.24.03-.39.1-.11.05-.22.11-.33.17-.1.06-.21.12-.29.18-.1.06-.16.1-.2.12-.09.05-.16.14-.19.24s-.01.21.04.3c.07.13.2.2.34.2.08,0,.14-.02.2-.05.04-.02.09-.05.14-.09-.01,0-.02.02-.03.03-.15.16-.15.41,0,.56.07.07.18.12.28.12s.21-.04.28-.12c.07-.07.17-.12.38-.19.05-.02.09-.03.14-.05.05-.02.11-.04.16-.07.14-.07.25-.14.34-.23ZM3.61,4.74c.06-.03.11-.06.16-.08.03-.01.06-.02.08-.03.02,0,.04,0,.07,0-.04.01-.08.03-.14.05-.05.02-.11.04-.16.06Z"/>
  <path class="cls-2" d="M5.59,2.28c-.14,0-.27.03-.39.1-.1.05-.19.12-.25.18l-.07.05s-.04.03-.06.04c-.04.02-.06.03-.09.04-.21.04-.35.25-.31.46.03.19.2.32.38.32h0s.05,0,.07,0c.13-.02.24-.07.36-.15.05-.03.09-.06.13-.09.04-.03.07-.05.1-.08.06-.04.09-.07.14-.09.22,0,.4-.18.4-.4s-.18-.4-.4-.4Z"/>
  <path class="cls-2" d="M5.47,8.01h0c-.11,0-.21.04-.28.12-.05.05-.15.1-.26.15-.17.07-.37.17-.56.35-.15.15-.15.41,0,.56.07.07.18.12.28.12s.21-.04.28-.12c.07-.07.16-.12.3-.18.04-.02.08-.03.15-.07l.1-.05c.11-.06.2-.13.27-.2.15-.15.15-.41,0-.56-.07-.08-.17-.12-.28-.12Z"/>
  <path class="cls-2" d="M18.25,13.74c-.13-.13-.26-.21-.38-.28-.09-.05-.16-.1-.21-.15,0,0-.02-.01-.03-.02-.39-1.46-2.66-2.69-4.08-3.32.06-.02.12-.05.17-.07.1-.05.17-.13.2-.23.03-.1.03-.21-.02-.3-.05-.09-.13-.17-.23-.2-.1-.04-.21-.03-.3.02-.12.06-.26.1-.46.13-.12.02-.24.03-.37.04-.08,0-.17.01-.25.02-.02,0-.04,0-.06.02l-.05.03c-.09-.03-.17-.06-.24-.08-.7-.23-1.52-1.11-2.37-2.54l-.17-.31h.42c.22-.01.4-.19.4-.41s-.18-.4-.4-.4l-.84.02-.38-.77c-.25-.53-.49-1.1-.69-1.6,0,0-.02-.04-.02-.04-1.08-1.94-2.72-2.22-3.91-1.83h-.04s-.16-.84-.16-.84c-.02-.11-.09-.21-.19-.27-.1-.06-.22-.07-.33-.04l-1.11.36c-.12.04-.21.13-.25.25s-.02.25.05.35l.7.99-.04.04c-.96.95-1.69,2.8-.58,4.9.1.19.19.34.29.48.17.26.33.51.47.95l.16.46-.15.38c-.09.19-.15.27-.19.31-.16.15-.16.4,0,.56.07.08.2.12.29.12.1,0,.2-.04.28-.11.07-.07.14-.16.21-.27h0s.09.18.09.18c.83,1.58,1.94,2.56,3.02,3.39l.25.19-.02.43c-.02.17-.04.39-.04.62s.18.4.4.4.4-.18.4-.39l.03-.5c.16.12.33.24.5.36l.24.17c.77.55,2.12,1.76,2.57,2.47.26.42,1.44,1.52,1.81,1.68,0,0,.03.01.07.02l.04.04c.07.06.14.1.22.14.14.06.29.09.4.1h.1c.06.02.12.03.17.04.05.01.07.02.07.02.07.07.17.11.27.11h0c.11,0,.21-.04.28-.12.15-.16.15-.41,0-.56-.11-.11-.25-.18-.43-.22-.09-.02-.18-.04-.27-.05h-.08c-.1-.03-.16-.04-.2-.06-.03-.01-.04-.02-.05-.04,0-.02-.02-.03-.04-.04l-.18-.56-.04-.18.26.02c.22,0,.4-.18.4-.4s-.18-.4-.4-.4c-.1,0-.21-.01-.32-.02h-.15s-.12-.44-.12-.44c-.47-1.27-1.35-2.24-2.2-3.18-.33-.36-.63-.7-.91-1.05-.13-.16-.28-.39-.42-.63.5.28,1.17.5,2.06.68.31.06.64.12.97.17l.57.08v.03c.03.09.07.19.1.29.03.11.07.21.11.34l.04.09s.03.09.05.12c0,.02.02.04.04.07.01.01.02.03.04.05.03.03.07.06.11.07.06.03.12.05.2.04.14,0,.27-.09.34-.22.06-.13.05-.28-.04-.42-.01-.03-.02-.06-.04-.1-.03-.07-.06-.16-.09-.25l.41.05c.28.03.53.06.75.09.69.1,1.86.46,2.15.81l.05.12s0,.02,0,.02c.03.17.02.34,0,.54l-.03.32c-.01.11-.02.24-.02.36,0,.22.18.4.4.4s.4-.18.4-.4c0-.15.02-.29.03-.44l.02-.17s0-.05,0-.08c.15.14.4.14.56-.01.15-.16.15-.41,0-.56ZM2.91,1.25l.17-.06.08.41-.25-.36ZM12.91,11.67c.08-.07.12-.17.12-.28s-.04-.21-.12-.28c-.07-.07-.17-.12-.28-.12h0c-.11,0-.2.04-.28.12-.06.06-.12.11-.19.16-.11.09-.25.2-.39.35l-.46-.08c-1.37-.28-2.18-.67-2.43-1.16-.06-.11-.16-.19-.29-.21-.13-.02-.25.02-.35.11-.25.25-.3.61-.14,1.09l-.03.02s-.08.04-.12.06l-.09.04c-.08.04-.19.1-.31.2s-.22.21-.32.36c-.06.09-.08.19-.06.3.02.1.08.19.17.25.17.12.43.07.55-.11.05-.08.1-.14.16-.18.05-.04.1-.07.16-.1l.06-.03s.1-.05.16-.08l.02.03c.19.32.38.56.44.63.33.41.67.79,1.01,1.16.97,1.07,1.89,2.08,2.17,3.52.01.07.03.14.05.22-.31-.29-.56-.56-.64-.68-.52-.84-1.95-2.1-2.78-2.69l-.15-.11c-1.5-1.07-2.68-1.92-3.6-3.09l-.29-.41.26-.17c.09-.06.19-.13.27-.19.1-.07.18-.14.24-.2.15-.16.15-.41,0-.56-.16-.15-.41-.15-.56,0-.03.03-.07.07-.14.11-.07.05-.15.11-.24.17l-.23.15-.31-.59c-.15-.32-.28-.67-.4-1.04-.17-.52-.4-.87-.59-1.18-.08-.13-.16-.25-.22-.36-1.01-1.91-.28-3.58.83-4.32.83-.55,2.17-.73,3.23.55l.26.38-.13.05c-.23.11-.43.24-.51.3-.18.12-.23.37-.11.55.12.17.37.23.55.11.05-.03.23-.15.42-.25.04-.02.08-.04.12-.05l.06.16c.38.89.98,2.19,1.74,3.36l.26.36-.1.04c-.09.04-.19.08-.29.14-.13.07-.23.16-.31.26-.13.17-.11.42.06.56.07.06.16.09.25.09h0c.12,0,.23-.06.31-.15.02-.02.05-.04.09-.07.06-.03.12-.06.2-.1l.13-.06s.09-.04.15-.07l.43.5c.45.46.9.76,1.33.91,1.16.39,3.12,1.26,4.27,2.22-.47-.15-.93-.24-1.14-.27-.32-.05-.69-.09-1.09-.13l-.94-.11s.08-.07.12-.11Z"/>
</svg>