<?xml version="1.0" encoding="UTF-8"?>
<svg id="Layer_1" data-name="Layer 1" xmlns="http://www.w3.org/2000/svg" version="1.1" viewBox="0 0 19.84 19.84">
  <defs>
    <style>
      .cls-1 {
        fill: none;
      }

      .cls-1, .cls-2 {
        stroke-width: 0px;
      }

      .cls-2 {
        fill: #ec1e24;
      }
    </style>
  </defs>
  <path class="cls-1" d="M6.43,8.58l.6.39c.21.14.27.41.13.62-.14.21-.41.27-.62.13h0l-1.2-.78-1.2.78c-.21.14-.48.08-.62-.13-.14-.21-.08-.48.13-.62l.34-.22c-.37.14-.73.32-1.05.56-1.12.83-1.77,2.1-1.77,3.48,0,2.39,1.94,4.33,4.33,4.33s4.33-1.94,4.33-4.33c0-.35-.05-.71-.14-1.07-.41-1.6-1.69-2.79-3.26-3.14Z"/>
  <path class="cls-1" d="M11.54,8.65c.06-.28.09-.58.09-.88,0-.98-.32-1.9-.93-2.68-.52-.66-1.21-1.12-1.97-1.38l.1.07c.21.14.27.41.13.62-.14.21-.41.27-.62.13h0l-1.2-.78-1.2.78c-.21.14-.48.08-.62-.13-.09-.14-.09-.3-.02-.44-1.38.72-2.33,2.15-2.33,3.81,0,.15.01.3.03.45.24-.13.48-.23.73-.33l-.08-.05c-.21-.14-.27-.41-.13-.62.14-.21.41-.27.62-.13l.79.52c.19-.02.37-.04.56-.04.09,0,.18.02.27.02l.77-.5h0c.21-.14.48-.08.62.13.13.19.08.45-.1.59,1.47.46,2.69,1.57,3.28,3.03.3-.3.55-.62.75-.98.1-.18.18-.37.25-.56.08-.21.15-.43.2-.66Z"/>
  <path class="cls-1" d="M16.27,4.42c0,.09,0,.19-.06.28-.14.21-.41.27-.62.13h0l-1.2-.78-1.2.78c-.21.14-.48.08-.62-.13-.07-.1-.08-.22-.06-.33-.3.14-.59.31-.86.52.57.86.87,1.84.87,2.88,0,.36-.04.71-.11,1.06-.06.27-.14.54-.24.8-.09.23-.19.46-.31.67-.06.1-.12.2-.19.3-.03.05-.06.1-.09.15-.12.17-.26.34-.4.5.82.87,1.94,1.36,3.14,1.36,2.39,0,4.33-1.94,4.33-4.33,0-1.69-.98-3.14-2.39-3.85Z"/>
  <path class="cls-2" d="M15.63,3.23l.44-.29c.21-.14.27-.41.13-.62-.14-.21-.41-.27-.62-.13h0l-1.2.78-1.2-.78c-.21-.14-.48-.08-.62.13-.14.21-.08.48.13.62l.41.27c-.73.18-1.42.5-2.02.97-.67-.71-1.51-1.19-2.43-1.44l.16-.11c.21-.14.27-.41.13-.62-.14-.21-.41-.27-.62-.13h0l-1,.65s-.02,0-.03,0c-.11,0-.21.03-.31.03l-1.05-.68c-.21-.14-.48-.08-.62.13-.14.21-.08.48.13.62l.27.17c-2.1.68-3.64,2.63-3.64,4.95,0,.33.04.67.11,1.01-1.19.99-1.9,2.46-1.9,4.01,0,2.88,2.34,5.22,5.22,5.22s5.22-2.34,5.22-5.22c0-.27-.03-.55-.07-.83.98.98,2.29,1.52,3.68,1.52,2.88,0,5.22-2.34,5.22-5.22,0-2.43-1.67-4.46-3.92-5.04ZM5.5,17.12c-2.39,0-4.33-1.94-4.33-4.33,0-1.39.64-2.65,1.77-3.48.33-.24.68-.42,1.05-.56l-.34.22c-.21.14-.27.41-.13.62.14.21.41.27.62.13l1.2-.78,1.2.78h0c.21.14.48.08.62-.13.14-.21.08-.48-.13-.62l-.6-.39c1.57.35,2.85,1.53,3.26,3.14.09.36.14.73.14,1.07,0,2.39-1.94,4.33-4.33,4.33ZM10.34,10.84c-.59-1.46-1.8-2.57-3.28-3.03.18-.14.23-.4.1-.59-.14-.21-.41-.27-.62-.13h0l-.77.5c-.09,0-.18-.02-.27-.02-.19,0-.38.02-.56.04l-.79-.52c-.21-.14-.48-.08-.62.13-.14.21-.08.48.13.62l.08.05c-.25.09-.5.2-.73.33-.02-.15-.03-.3-.03-.45,0-1.66.95-3.09,2.33-3.81-.07.14-.07.3.02.44.14.21.41.27.62.13l1.2-.78,1.2.78h0c.21.14.48.08.62-.13.14-.21.08-.48-.13-.62l-.1-.07c.76.27,1.45.72,1.97,1.38.61.77.93,1.7.93,2.68,0,.3-.03.59-.09.88-.05.23-.12.45-.2.66-.07.19-.15.38-.25.56-.2.36-.45.68-.75.98ZM14.34,12.6c-1.2,0-2.32-.49-3.14-1.36.14-.16.28-.32.4-.5.03-.05.06-.1.09-.15.06-.1.13-.2.19-.3.12-.22.22-.44.31-.67.1-.26.18-.52.24-.8.07-.34.11-.7.11-1.06,0-1.04-.3-2.03-.87-2.88.27-.21.56-.38.86-.52-.02.11,0,.23.06.33.14.21.41.27.62.13l1.2-.78,1.2.78h0c.21.14.48.08.62-.13.06-.09.07-.18.06-.28,1.41.71,2.39,2.16,2.39,3.85,0,2.39-1.94,4.33-4.33,4.33Z"/>
</svg>