<?xml version="1.0" encoding="UTF-8"?>
<svg id="Layer_1" data-name="Layer 1" xmlns="http://www.w3.org/2000/svg" version="1.1" viewBox="0 0 19.84 19.84">
  <defs>
    <style>
      .cls-1 {
        fill: #59441a;
        stroke-width: 0px;
      }
    </style>
  </defs>
  <path class="cls-1" d="M12.62,4.17c-.29.17-7.08,4.18-10.03,14.78h0c-.07.26.08.52.34.59.26.07.52-.08.59-.34h0C6.36,9.01,13.04,5.04,13.1,5c.02-.01.04-.03.06-.04l-.06.04c.23-.13.31-.43.18-.66-.13-.23-.43-.31-.66-.18h0Z"/>
  <path class="cls-1" d="M11.66,2.98c-.11.19-.29.33-.5.39-.21.06-.44.03-.63-.08-.19-.11-.33-.29-.39-.5-.06-.21-.03-.44.08-.63.11-.19.29-.33.5-.39.21-.06.44-.03.63.08.19.11.33.29.39.5.06.21.03.44-.08.63ZM11.84,1.02c-.41-.24-.9-.3-1.36-.18-.46.12-.85.42-1.09.84-.24.41-.3.9-.18,1.36.12.46.42.85.84,1.09.41.24.9.3,1.36.18.46-.12.85-.42,1.09-.83s.3-.9.18-1.36c-.12-.46-.42-.85-.84-1.09Z"/>
  <path class="cls-1" d="M14.76,2.05c.45-.77,1.43-1.03,2.2-.59.37.22.64.56.75.98.11.42.05.85-.16,1.22-.22.37-.56.64-.98.75-.42.11-.85.05-1.22-.16-.77-.44-1.04-1.43-.59-2.2ZM14.87,5.09c.6.34,1.29.44,1.96.26.66-.18,1.22-.61,1.56-1.2.34-.6.44-1.29.26-1.96-.18-.66-.6-1.22-1.2-1.56-1.23-.71-2.81-.29-3.52.94-.71,1.23-.29,2.81.94,3.52Z"/>
  <path class="cls-1" d="M11.07,9.24c-.04.07-.13.09-.2.05-.05-.03-.06-.07-.07-.09,0-.03-.01-.07.01-.11.03-.04.06-.06.09-.07.02,0,.07-.01.11.01.04.03.06.06.07.09,0,.03.01.07-.02.11ZM11.5,8.2c-.26-.15-.56-.19-.84-.11-.29.08-.53.26-.67.52-.15.26-.19.55-.11.84.08.29.26.53.52.68.53.31,1.21.12,1.52-.41.15-.26.19-.56.11-.84-.08-.29-.26-.53-.52-.67Z"/>
  <path class="cls-1" d="M9.33,12.89c-.2.35-.64.46-.99.26-.34-.2-.46-.64-.26-.99.1-.17.25-.29.44-.34.19-.05.38-.02.55.07.34.2.46.64.26.99ZM9.54,11.07c-.39-.23-.85-.29-1.28-.17-.43.12-.8.4-1.02.79-.46.81-.19,1.84.62,2.3.81.46,1.84.19,2.3-.62.47-.81.19-1.84-.62-2.3Z"/>
  <path class="cls-1" d="M6.74,7.52c-.17.29-.55.4-.84.23-.29-.17-.4-.55-.23-.84s.55-.4.84-.23c.29.17.4.55.23.84ZM6.99,5.84c-.76-.44-1.72-.18-2.16.58-.44.76-.18,1.73.58,2.16.76.44,1.73.18,2.16-.58.44-.76.18-1.73-.58-2.16Z"/>
  <path class="cls-1" d="M3.12,11.06c-.08.13-.2.22-.34.26-.15.04-.3.02-.43-.06-.27-.16-.36-.5-.21-.77.08-.13.2-.22.34-.26.15-.04.3-.02.43.06.13.08.22.2.26.34.04.15.02.3-.06.43ZM3.4,9.45c-.35-.2-.77-.26-1.16-.15-.39.11-.72.36-.93.71-.42.73-.17,1.67.56,2.09.35.2.77.26,1.16.15.39-.11.72-.36.93-.71.2-.35.26-.77.15-1.16s-.36-.72-.71-.93Z"/>
  <path class="cls-1" d="M7.48,3.72c-.07.12-.22.16-.34.09-.12-.07-.16-.22-.09-.34.07-.12.22-.16.34-.09.12.07.16.22.09.34ZM7.87,2.54c-.58-.33-1.32-.13-1.66.45-.34.58-.14,1.33.44,1.66.58.34,1.33.14,1.66-.44.16-.28.21-.61.12-.92-.08-.31-.29-.58-.57-.74Z"/>
  <path class="cls-1" d="M6.51,16.1c-.04.06-.09.08-.12.09-.03,0-.09.02-.15-.02-.06-.04-.09-.09-.09-.12,0-.03-.02-.09.02-.15.04-.06.09-.09.12-.09.03,0,.09-.02.15.02.06.04.08.09.09.12,0,.03.02.09-.02.15ZM6.92,14.99c-.27-.16-.58-.2-.88-.12-.3.08-.55.27-.71.54-.16.27-.2.58-.12.88.08.3.27.55.54.71.27.16.58.2.88.12.3-.08.55-.27.71-.54.16-.27.2-.58.12-.88-.08-.3-.27-.55-.54-.71Z"/>
  <path class="cls-1" d="M12.87,12.82c-.08.15-.27.2-.42.11-.07-.04-.12-.11-.14-.18-.02-.08-.01-.16.03-.23.08-.14.27-.19.41-.11.07.04.12.11.14.18.02.08.01.16-.03.23ZM13.25,11.57c-.61-.35-1.38-.14-1.73.46-.17.29-.21.63-.13.96.09.33.3.6.59.77.61.35,1.38.14,1.73-.46.17-.29.21-.63.13-.96-.09-.33-.3-.6-.59-.77Z"/>
</svg>