<?xml version="1.0" encoding="UTF-8"?>
<svg id="Layer_1" data-name="Layer 1" xmlns="http://www.w3.org/2000/svg" version="1.1" viewBox="0 0 19.84 19.84">
  <defs>
    <style>
      .cls-1 {
        fill: #ec1c24;
      }

      .cls-1, .cls-2 {
        stroke-width: 0px;
      }

      .cls-2 {
        fill: #fff;
      }
    </style>
  </defs>
  <path class="cls-2" d="M8.77,5.96c.18.3.29.61.38.93.03,0,.07-.02.1-.03.21-.05.43-.07.66-.07s.45.03.66.07c.04,0,.07.02.1.03.09-.32.21-.63.38-.93.32-.54.8-1.05,1.36-1.48.04-1.02-.23-1.96-.76-2.53-.43-.47-1.02-.7-1.75-.7s-1.32.24-1.75.7c-.53.57-.8,1.51-.76,2.53.56.43,1.05.94,1.37,1.48h.01Z"/>
  <path class="cls-2" d="M3.97,9.39c.65-.27,1.33-.45,1.95-.45.35,0,.68.06.99.13.02-.07.04-.14.07-.21.04-.12.1-.24.16-.35.04-.08.08-.16.13-.23.07-.11.15-.21.23-.31.05-.07.1-.14.17-.2.1-.11.22-.2.34-.3.04-.03.08-.08.12-.11.01,0,.03-.02.04-.03,0,0,.01,0,.02-.01.03-.02.06-.04.09-.06-.07-.27-.18-.54-.33-.8-.29-.49-.75-.96-1.29-1.33-.72-.49-1.51-.76-2.21-.76-.19,0-.36.02-.53.06-.62.14-1.12.53-1.49,1.17s-.46,1.26-.27,1.87c.23.75.91,1.45,1.82,1.93h-.01Z"/>
  <path class="cls-2" d="M7.67,12.1s-.01-.01-.02-.02c-.06-.07-.12-.14-.18-.21-.08-.1-.15-.19-.22-.29-.05-.08-.09-.16-.13-.25-.06-.11-.11-.22-.15-.34-.03-.08-.06-.17-.08-.26-.03-.13-.06-.25-.08-.39,0-.05-.03-.1-.03-.15,0-.06,0-.12-.01-.17-.26-.08-.53-.12-.82-.12h-.04c-.57,0-1.2.17-1.8.45-1,.48-1.74,1.23-1.98,2.02-.19.61-.1,1.24.27,1.87s.87,1.03,1.49,1.17c.76.17,1.72-.06,2.59-.61.09-.7.28-1.37.58-1.91.17-.3.38-.56.61-.79Z"/>
  <path class="cls-2" d="M12.43,15.36c-.57-.43-1.05-.94-1.37-1.48-.18-.29-.29-.61-.38-.93h-.01s-.06.02-.09.03c-.22.05-.44.07-.67.07s-.45-.03-.67-.07c-.02,0-.04-.01-.06-.02-.19-.05-.37-.11-.55-.18-.01,0-.03,0-.04-.02-.05-.02-.1-.05-.16-.08-.2.19-.38.42-.53.68-.28.49-.46,1.13-.51,1.78-.09,1.1.2,2.12.76,2.73.43.47,1.02.7,1.75.7s1.32-.24,1.75-.7c.53-.57.8-1.51.76-2.53l.02.02Z"/>
  <path class="cls-2" d="M15.87,10.45c-.65.27-1.33.45-1.95.45h-.05c-.33,0-.64-.05-.95-.13-.02.07-.05.15-.07.22-.04.12-.09.23-.15.33-.04.08-.09.17-.14.25-.07.1-.14.2-.22.3-.06.07-.11.14-.17.21-.11.11-.23.21-.35.31-.04.03-.07.07-.11.1-.01,0-.02.02-.04.02,0,0-.02.01-.03.02-.03.02-.05.04-.08.05.07.28.18.54.33.8.29.49.74.96,1.29,1.33.91.62,1.94.88,2.75.7.62-.14,1.12-.53,1.49-1.17.37-.63.46-1.26.27-1.87-.23-.75-.91-1.45-1.82-1.93h0Z"/>
  <path class="cls-1" d="M16.88,9.92c.86-.58,1.49-1.34,1.75-2.18.27-.86.15-1.78-.35-2.64-.5-.87-1.23-1.43-2.11-1.63-.85-.19-1.82-.03-2.76.42-.07-1.04-.42-1.96-1.01-2.6-.61-.66-1.47-1.01-2.47-1.01s-1.85.35-2.46,1.01c-.59.64-.94,1.56-1.01,2.6-.93-.46-1.91-.62-2.76-.42-.88.2-1.61.76-2.11,1.63s-.62,1.78-.35,2.64c.26.83.88,1.59,1.75,2.18-.86.58-1.49,1.34-1.75,2.18-.27.86-.15,1.78.35,2.64.5.86,1.23,1.43,2.11,1.63.24.05.5.08.76.08.65,0,1.33-.17,2-.5.07,1.03.42,1.95,1.01,2.59.61.66,1.47,1.01,2.47,1.01s1.85-.35,2.47-1.02c.59-.64.94-1.56,1.01-2.59.67.32,1.35.5,2,.5.26,0,.51-.03.76-.08.88-.2,1.61-.76,2.11-1.63h0c.5-.87.62-1.78.35-2.64-.26-.84-.88-1.6-1.75-2.18h-.01ZM17.43,14.25c-.37.63-.87,1.03-1.49,1.17-.81.18-1.84-.08-2.75-.7-.54-.38-1-.85-1.29-1.33-.15-.26-.26-.52-.33-.8.03-.02.05-.04.08-.05,0,0,.02-.01.03-.02.01,0,.02-.02.04-.02.04-.03.07-.07.11-.1.12-.1.24-.2.35-.31.06-.07.12-.14.17-.21.08-.1.15-.19.22-.3.05-.08.09-.16.14-.25.06-.11.1-.22.15-.33.03-.07.05-.14.07-.22.31.08.62.13.95.13h.05c.62,0,1.3-.18,1.95-.45.91.48,1.59,1.19,1.82,1.93.19.61.1,1.23-.27,1.87h0ZM8.17,17.88c-.56-.61-.85-1.63-.76-2.73.05-.66.23-1.29.51-1.78.15-.26.32-.49.53-.68.05.03.1.05.16.08.01,0,.03,0,.04.02.17.08.36.14.55.18.02,0,.04.01.06.02.22.05.44.07.67.07s.45-.03.67-.07c.03,0,.06-.02.09-.03h.01c.09.32.21.63.38.93.32.54.8,1.05,1.37,1.48.04,1.02-.23,1.96-.76,2.53-.43.47-1.02.7-1.75.7s-1.32-.24-1.75-.7l-.02-.02ZM3.9,15.42c-.62-.14-1.12-.53-1.49-1.17-.37-.63-.46-1.26-.27-1.87.25-.79.99-1.55,1.98-2.02.6-.29,1.23-.44,1.8-.45h.04c.29,0,.56.04.82.12,0,.06,0,.12.01.17,0,.05.02.1.03.15.02.13.04.26.08.39.02.09.05.17.08.26.04.12.09.23.15.34.04.08.08.17.13.25.07.1.14.2.22.29.06.07.11.15.18.21,0,0,.01.01.02.02-.23.24-.44.49-.61.79-.3.54-.49,1.22-.58,1.91-.87.55-1.82.78-2.59.61ZM2.41,5.59c.37-.63.87-1.03,1.49-1.17.17-.04.35-.06.53-.06.7,0,1.49.27,2.21.76.54.37,1,.85,1.29,1.33.15.26.26.53.33.8-.03.02-.06.04-.09.06,0,0-.01,0-.02.01-.01,0-.03.02-.04.03-.05.03-.08.08-.12.11-.12.09-.23.19-.34.3-.06.06-.11.13-.17.2-.08.1-.16.2-.23.31-.05.08-.09.15-.13.23-.06.11-.11.23-.16.35-.03.07-.05.14-.07.21-.32-.08-.64-.13-.99-.13-.62,0-1.3.18-1.95.45-.91-.48-1.59-1.19-1.82-1.93-.19-.61-.1-1.24.27-1.87h.01ZM9.92,1.25c.73,0,1.32.24,1.75.7.53.57.8,1.51.76,2.53-.57.43-1.05.94-1.36,1.48-.18.3-.29.61-.38.93-.04,0-.07-.02-.1-.03-.21-.05-.43-.07-.66-.07s-.45.03-.66.07c-.04,0-.07.02-.1.03-.09-.32-.21-.63-.38-.93-.32-.54-.8-1.05-1.37-1.48-.04-1.02.23-1.96.76-2.53.43-.47,1.02-.7,1.75-.7h-.01ZM15.94,4.42c.62.14,1.12.53,1.48,1.17.37.63.46,1.26.27,1.87-.25.79-.99,1.55-1.98,2.03-.6.29-1.23.44-1.8.45-.3,0-.59-.04-.86-.12,0-.06,0-.12-.01-.17,0-.05-.02-.1-.03-.15-.02-.13-.04-.26-.08-.38-.02-.09-.05-.17-.08-.26-.04-.12-.1-.23-.15-.35-.04-.08-.08-.16-.13-.24-.07-.11-.14-.21-.22-.31-.06-.07-.11-.14-.17-.2-.1-.11-.22-.21-.34-.3-.04-.03-.08-.08-.12-.11-.01,0-.03-.02-.04-.03,0,0-.01,0-.02-.01-.03-.02-.06-.04-.09-.06.07-.28.18-.54.33-.8.29-.48.74-.96,1.29-1.33.91-.63,1.94-.89,2.75-.7ZM9.92,12.08c-1.19,0-2.17-.97-2.17-2.16s.97-2.17,2.17-2.17,2.17.97,2.17,2.17-.97,2.16-2.17,2.16Z"/>
  <path class="cls-2" d="M11.91,6.46c-.15.26-.26.53-.33.8.03.02.06.04.09.06,0,0,.01,0,.02.01.01,0,.03.02.04.03.04.03.08.07.12.11.12.09.24.19.34.3.06.06.11.13.17.2.08.1.16.2.22.31.05.08.09.16.13.24.06.11.11.23.15.35.03.08.06.17.08.26.03.12.06.25.08.38,0,.05.03.1.03.15s0,.11.01.17c.27.08.56.12.86.12.56,0,1.2-.17,1.8-.45,1-.48,1.74-1.23,1.98-2.03.19-.61.1-1.24-.27-1.87s-.86-1.03-1.48-1.17c-.81-.18-1.84.08-2.75.7-.54.37-1,.85-1.29,1.33Z"/>
  <path class="cls-2" d="M12.08,9.92c0-1.19-.97-2.17-2.17-2.17s-2.17.97-2.17,2.17.97,2.16,2.17,2.16,2.17-.97,2.17-2.16Z"/>
</svg>