<?xml version="1.0" encoding="UTF-8"?>
<svg id="Layer_1" data-name="Layer 1" xmlns="http://www.w3.org/2000/svg" version="1.1" viewBox="0 0 19.84 19.84">
  <defs>
    <style>
      .cls-1 {
        fill: none;
        stroke: #000;
        stroke-width: .3px;
      }

      .cls-2 {
        fill: #ffc10d;
        stroke-width: 0px;
      }
    </style>
  </defs>
  <g>
    <line class="cls-1" x1="3.98" y1="-51.13" x2="3.98" y2="-15.13"/>
    <line class="cls-1" x1="-50.02" y1="2.87" x2="-14.02" y2="2.87"/>
    <line class="cls-1" x1="-50.02" y1="16.97" x2="-14.02" y2="16.97"/>
    <line class="cls-1" x1="3.98" y1="70.97" x2="3.98" y2="34.97"/>
    <line class="cls-1" x1="20.37" y1="-51.13" x2="20.37" y2="-15.13"/>
    <line class="cls-1" x1="74.37" y1="2.87" x2="38.37" y2="2.87"/>
    <line class="cls-1" x1="74.37" y1="16.97" x2="38.37" y2="16.97"/>
    <line class="cls-1" x1="20.37" y1="70.97" x2="20.37" y2="34.97"/>
  </g>
  <path class="cls-2" d="M6.21,19.02c-.08,0-.15-.02-.22-.06l-4.29-2.48c-.14-.08-.22-.23-.22-.39v-4.95c0-.16.09-.31.23-.39l4.1-2.37V3.77h-.04s-.04.01-.07.01c-.07,0-.13-.02-.19-.06l-2.77-1.56c-.22-.12-.29-.4-.17-.61.12-.22.4-.29.61-.17l2.77,1.55c.11.06.18.16.21.27v.07S10.32.88,10.32.88c.14-.08.31-.08.45,0l4.09,2.36.09-.08,2.77-1.55c.22-.12.49-.04.62.17.12.22.04.49-.17.61l-2.77,1.56-.11.03v4.43l4.05,2.34c.14.08.23.23.23.39v4.95c0,.16-.09.31-.23.39l-4.29,2.48c-.07.04-.15.06-.23.06s-.15-.02-.22-.06l-4.08-2.35-4.08,2.35c-.07.04-.15.06-.22.06ZM6.21,18.05l3.84-2.21v-4.42l-3.85-2.23-3.82,2.21v4.43l3.84,2.21ZM14.82,18.05l3.84-2.21v-4.43l-3.8-2.19-3.88,2.24v4.39l3.84,2.21ZM3.66,13.02s-.04,0-.07,0c-.14-.01-.28-.09-.36-.23-.12-.22-.04-.49.17-.61l2.77-1.56c.22-.12.49-.04.61.17.12.22.05.49-.17.61l-2.77,1.56c-.06.04-.13.05-.19.06ZM12.26,13.02s-.04,0-.07,0c-.14-.01-.28-.09-.36-.23-.12-.22-.04-.49.17-.61l2.77-1.56c.22-.12.49-.04.62.17.12.22.04.49-.17.61l-2.77,1.56c-.06.04-.13.05-.19.06ZM10.51,10.63l3.87-2.23v-4.39l-3.84-2.22-3.84,2.22v4.42s3.81,2.2,3.81,2.2ZM1.9,8.56c-.89,0-1.62-.73-1.62-1.62,0-.78.36-1.96,1.34-2.94h.57c1.02,1.02,1.34,2.16,1.34,2.94,0,.89-.73,1.62-1.62,1.62ZM1.9,7.75c.45,0,.81-.37.81-.82,0-.5-.18-1.28-.81-2.04-.61.74-.82,1.55-.82,2.04,0,.45.37.82.82.82ZM7.99,5.63s-.04,0-.07,0c-.14-.01-.28-.09-.36-.23-.12-.22-.04-.49.17-.61l2.77-1.55c.22-.12.49-.05.61.17.12.22.04.49-.17.61l-2.77,1.55c-.06.04-.13.05-.19.06Z" marker-end="none" marker-start="none"/>
</svg>