<?xml version="1.0" encoding="UTF-8"?>
<svg id="Layer_1" data-name="Layer 1" xmlns="http://www.w3.org/2000/svg" version="1.1" viewBox="0 0 19.8 19.8">
  <defs>
    <style>
      .cls-1 {
        fill: #ec1e24;
        stroke-width: 0px;
      }
    </style>
  </defs>
  <path class="cls-1" d="M14,5c-1,0-1.9.3-2.6.9-.8-.9-1.9-1.3-3.1-1.3-2.4,0-4.3,1.9-4.3,4.3s0,.6,0,.8c-1,.8-1.6,2-1.6,3.3,0,2.4,1.9,4.3,4.3,4.3s4.3-1.9,4.3-4.3,0-.5,0-.7c.8.8,1.9,1.2,3,1.2,2.4,0,4.3-1.9,4.3-4.3s-1.9-4.3-4.3-4.3h0ZM6.8,16.5c-1.9,0-3.5-1.6-3.5-3.5s.5-2.2,1.4-2.9c.6-.4,1.3-.7,2.1-.7,1.6,0,3,1.1,3.4,2.7,0,.3.1.6.1.9,0,2-1.6,3.5-3.5,3.5h0ZM10.7,11.4c-.6-1.6-2.2-2.7-3.9-2.7s-1.4.2-2,.5c0-.1,0-.2,0-.4,0-1.9,1.6-3.5,3.5-3.5s2.1.5,2.8,1.4c.5.6.8,1.4.8,2.2s0,.5,0,.7c0,.2,0,.4-.2.5,0,.2-.1.3-.2.4-.2.3-.4.6-.6.8h0ZM14,12.8c-1,0-1.9-.4-2.6-1.1.1-.1.2-.3.3-.4,0,0,0,0,0-.1,0,0,.1-.2.1-.2.1-.2.2-.4.2-.6,0-.2.1-.4.2-.6,0-.3,0-.6,0-.9,0-.9-.2-1.7-.7-2.4.6-.5,1.4-.8,2.2-.8,2,0,3.5,1.6,3.5,3.5s-1.6,3.5-3.5,3.5h0Z"/>
  <g>
    <path class="cls-1" d="M6.7,4.7l2.4,1.5h0c.2.1.4,0,.5-.1s0-.4-.1-.5h0l-2.4-1.5h0c-.2-.1-.4,0-.5.1-.1.2,0,.4.1.5h0Z"/>
    <path class="cls-1" d="M9.1,4l-2.4,1.5h0c-.2.1-.2.3-.1.5.1.2.3.2.5.1h0l2.4-1.5h0c.2-.1.2-.3.1-.5-.1-.2-.3-.2-.5-.1h0Z"/>
    <path class="cls-1" d="M9.1,4l-2.4,1.5h0c-.2.1-.2.3-.1.5.1.2.3.2.5.1h0l2.4-1.5h0c.2-.1.2-.3.1-.5-.1-.2-.3-.2-.5-.1h0Z"/>
  </g>
  <g>
    <path class="cls-1" d="M5.3,8.9l2.4,1.5h0c.2.1.4,0,.5-.1.1-.2,0-.4-.1-.5h0l-2.4-1.5h0c-.2-.1-.4,0-.5.1-.1.2,0,.4.1.5h0Z"/>
    <path class="cls-1" d="M7.6,8.3l-2.4,1.5h0c-.2.1-.2.3-.1.5.1.2.3.2.5.1h0l2.4-1.5h0c.2-.1.2-.3.1-.5s-.3-.2-.5-.1h0Z"/>
    <path class="cls-1" d="M7.6,8.3l-2.4,1.5h0c-.2.1-.2.3-.1.5.1.2.3.2.5.1h0l2.4-1.5h0c.2-.1.2-.3.1-.5s-.3-.2-.5-.1h0Z"/>
  </g>
  <g>
    <path class="cls-1" d="M12.7,4.9l2.4,1.5h0c.2.1.4,0,.5-.1s0-.4-.1-.5h0l-2.4-1.5h0c-.2-.1-.4,0-.5.1s0,.4.1.5h0Z"/>
    <path class="cls-1" d="M15,4.3l-2.4,1.5h0c-.2.1-.2.3-.1.5.1.2.3.2.5.1h0l2.4-1.5h0c.2-.1.2-.3.1-.5-.1-.2-.3-.2-.5-.1h0Z"/>
    <path class="cls-1" d="M15,4.3l-2.4,1.5h0c-.2.1-.2.3-.1.5.1.2.3.2.5.1h0l2.4-1.5h0c.2-.1.2-.3.1-.5-.1-.2-.3-.2-.5-.1h0Z"/>
  </g>
</svg>