<?xml version="1.0" encoding="UTF-8"?>
<svg id="Layer_1" data-name="Layer 1" xmlns="http://www.w3.org/2000/svg" version="1.1" viewBox="0 0 19.84 19.84">
  <defs>
    <style>
      .cls-1 {
        fill: #a71f23;
      }

      .cls-1, .cls-2 {
        stroke-width: 0px;
      }

      .cls-2 {
        fill: #fff;
      }
    </style>
  </defs>
  <path class="cls-2" d="M8.63,14.51c0,.25.02.63-.38.85-.05.02-.09.04-.14.04-.1,0-.21-.06-.26-.15-.08-.14-.03-.32.12-.4.06-.03.08-.05.07-.31,0-.22-.01-.53.19-.83.04-.07.06-.14.06-.22-.3-1.23.02-2.58.4-3.82.03-.11.05-.19.08-.29,0-.03,0-.05.02-.07.11-.41.2-.78.27-1.13.02-.1.04-.21.07-.31.01-.05.02-.1.03-.15-.2-.13-.46-.32-.66-.89-.06-.18-.13-.28-.21-.35-.05.12-.15.49-.01.89.04.12.1.24.19.36.1.13.08.31-.05.41-.05.04-.12.06-.18.06-.09,0-.17-.04-.23-.11-.31-.39-.39-.79-.39-1.12,0-.29.06-.53.11-.66-.26-.04-.57-.11-.86-.39-.34-.32-.8-.12-.99,0-.06.04-.1.06-.1.07-.13.1-.31.08-.41-.06-.1-.13-.07-.32.06-.41.36-.27,1.21-.63,1.86-.02.2.19.41.22.65.25.39.06.88.13,1.14.9.08.23.17.36.25.45,0-.01,0-.03.01-.04-.16-1.16-.5-2.18-1.29-2.57-.86-.43-1.79-.9-2.69-.9-.53,0-1.04.16-1.52.59l-.18.1c-.09.02-1.92.57-2.37,2.17.13.01.24.09.27.22,0,0,.08.41.34.64-.09-.38-.05-.71.11-.97.24-.37.63-.46.68-.47.16-.03.32.07.35.23.03.16-.07.31-.23.35,0,0-.09.04-.17.09-.05.03-.09.06-.13.12-.07.12-.08.28-.04.48,0,.02,0,.04,0,.06.14.58-.07.93-.23,1.19-.16.25-.25.4-.1.76.06.15,0,.32-.16.39-.04.02-.08.02-.11.02-.12,0-.23-.07-.27-.18-.27-.64-.04-1.01.14-1.3.03-.04.05-.09.07-.13-.29-.13-.49-.36-.61-.59.05,1.57.22,2.33.41,3.13.11.47.22.95.3,1.59.23,1.7.59,3.41,2.12,4.04,1.48.6,3.86.57,5.02-1.16-.15-.18-.29-.36-.39-.55,0,.04,0,.09,0,.14ZM4.16,15.91c-.53,0-.67-.33-.76-.53-.06-.14-.08-.18-.16-.22-.56-.26-.61-.6-.68-1.17v-.1c-.07-.47-.27-.62-.28-.63-.13-.09-.17-.27-.08-.41.09-.13.26-.17.4-.09.02.01.11.08.21.2.06-.16.1-.36.03-.59-.05-.16.04-.32.2-.37.16-.05.32.04.37.2.21.72-.18,1.28-.31,1.44.01.06.03.1.04.16v.1c.02.09.03.14.04.2.05.35.09.4.31.5.02,0,.02.02.04.02.26.14.36.35.42.5.07.16.07.17.21.17.16,0,.3.13.3.3s-.13.3-.3.3ZM4.29,11.71s-.07,0-.11-.02c-.38-.15-.48-.43-.54-.6q-.05-.13-.11-.14c-.54-.09-.76-.6-.8-.88-.02-.16.09-.31.25-.33.16-.02.31.09.33.25,0,.01.06.34.31.39.41.07.51.35.57.53.05.14.07.19.2.24.15.06.23.23.17.38-.05.12-.16.19-.28.19ZM7.29,10.01c-.09.12-.09.22-.08.39.01.18.03.42-.16.64-.06.07-.14.1-.22.1-.07,0-.14-.02-.19-.07-.12-.11-.14-.29-.03-.42.03-.03.03-.08.02-.22-.01-.2-.03-.5.21-.8.18-.23.13-.71.1-.86-.03-.16.07-.32.23-.35.16-.04.32.06.35.22.02.09.18.87-.22,1.36Z"/>
  <path class="cls-1" d="M4.16,15.32c-.14,0-.14,0-.21-.17-.06-.15-.16-.36-.42-.5-.01,0-.02-.02-.04-.02-.21-.1-.26-.15-.31-.5,0-.06-.02-.12-.03-.2v-.1c-.02-.06-.04-.11-.05-.16.13-.16.52-.72.31-1.44-.05-.16-.21-.25-.37-.2-.16.05-.25.21-.2.37.07.23.03.43-.03.59-.1-.12-.19-.19-.21-.2-.13-.08-.31-.04-.4.09-.09.13-.05.31.08.41,0,0,.21.16.27.63v.1c.08.57.13.91.69,1.17.08.04.11.08.16.22.08.2.22.53.76.53.16,0,.3-.13.3-.3s-.13-.3-.3-.3Z"/>
  <path class="cls-1" d="M4.39,11.14c-.13-.05-.15-.11-.2-.24-.06-.17-.16-.46-.57-.53-.25-.04-.31-.37-.31-.39-.02-.16-.17-.27-.33-.25-.16.02-.27.17-.25.33.04.29.25.79.8.88q.07.01.11.14c.06.17.16.45.54.6.03.01.07.02.11.02.12,0,.23-.07.28-.19.06-.15-.02-.32-.17-.38Z"/>
  <path class="cls-1" d="M7.16,8.43c-.16.03-.26.19-.23.35.03.15.08.63-.1.86-.24.3-.22.6-.21.8,0,.14,0,.19-.02.22-.11.12-.09.31.03.42.06.05.12.07.19.07.08,0,.17-.04.22-.1.19-.22.17-.46.16-.64-.01-.18-.01-.28.08-.39.39-.49.24-1.27.22-1.36-.04-.16-.2-.26-.35-.22Z"/>
  <path class="cls-2" d="M17.14,10.77c-.15,0-.28-.11-.29-.27-.02-.16.1-.31.27-.32.18-.02.23-.07.35-.22.11-.14.27-.32.56-.48.57-1.48.99-3.03.26-3.93-.24-.3-.5-.62-.77-.91.05.21.04.47-.07.75.19.2.33.49.28.99-.04.42.05.58.15.74.17.28.28.53.07,1.11-.04.12-.16.19-.28.19-.03,0-.07,0-.1-.02-.15-.06-.23-.23-.18-.38.03-.09.05-.15.06-.21,0-.02,0-.04,0-.06,0,.01-.02.02-.02.04-.12.22-.21.52-.12.9.04.16-.06.32-.22.36-.02,0-.05,0-.07,0-.13,0-.25-.09-.29-.23-.18-.72.11-1.26.34-1.56.05-.06.09-.12.13-.16-.07-.18-.11-.42-.08-.78.05-.46-.1-.55-.4-.75-.24-.16-.54-.35-.71-.77-.18-.44-.67-.44-.9-.42-.07,0-.11.02-.12.02-.16.04-.32-.07-.35-.23-.04-.16.06-.32.22-.35.44-.1,1.36-.07,1.7.75.08.2.22.31.37.41.03-.27-.1-.46-.1-.47-.09-.13-.07-.32.06-.41.01,0,.03,0,.04,0-.66-.55-1.42-.88-2.37-.58l-.1.03-.1-.02s-.23-.03-.54-.03c-.66,0-1.78.16-2.52,1.03.11.07.18.18.14.31,0,0-.1.41.04.73.08-.38.25-.66.51-.83.37-.24.77-.16.81-.15.16.04.26.2.22.36-.04.16-.19.26-.35.22,0,0-.09-.01-.18,0-.06,0-.12.03-.18.07-.12.08-.19.23-.24.42,0,.02-.01.03-.02.06-.11.59-.46.82-.71.99-.25.16-.39.26-.41.65,0,.16-.14.29-.3.29h-.01c-.16,0-.29-.14-.29-.31.02-.69.38-.93.67-1.12.04-.03.08-.06.12-.08-.21-.24-.29-.53-.31-.79-.61,1.45-.77,2.22-.93,3.01-.1.47-.2.95-.39,1.57-.5,1.64-.89,3.35.25,4.56,1.2,1.28,3.71,2.34,5.55.69.7-.63,1.14-1.26,1.44-1.88-.03.02-.06.04-.09.06-.13.09-.25.17-.33.31-.33.6-1.06.65-1.17.65-.07.09-.15.18-.27.26-.15.09-.21.24-.28.41-.1.23-.25.58-.69.61,0,0-.01,0-.02,0-.15,0-.28-.12-.29-.27-.01-.16.11-.3.27-.32.07,0,.09-.02.19-.25.09-.21.21-.49.51-.68.14-.09.19-.24.26-.48.08-.27.17-.61.51-.8.27-.15.36-.63.37-.8.01-.16.12-.28.31-.28.16.01.29.15.28.31,0,.09-.07.94-.67,1.28-.11.06-.15.18-.21.36.14-.05.29-.13.37-.28.15-.27.35-.41.52-.52.19-.13.26-.18.27-.38,0-.16.14-.3.3-.29.09,0,.17.05.22.13.1-.3.17-.61.25-.91.07-.26.14-.52.21-.77-.11.07-.24.12-.44.14,0,0-.02,0-.03,0ZM9.96,11.88c-.01.06-.01.1-.03.17l-.03.1c-.03.08-.04.14-.06.2-.1.34-.08.4.07.58.01.01.02.03.03.04.18.23.18.47.18.63,0,.18,0,.18.13.24.15.07.21.24.15.39-.05.11-.16.17-.27.17-.04,0-.08,0-.12-.03-.48-.22-.47-.58-.47-.79,0-.14,0-.2-.06-.27-.41-.47-.3-.8-.13-1.34l.03-.1c.14-.45.02-.68.02-.68-.08-.14-.04-.32.1-.4.13-.08.31-.05.4.08.01.02.07.12.1.27.12-.12.24-.29.27-.52.02-.16.16-.27.33-.25.16.02.27.17.25.34-.11.74-.7,1.09-.88,1.18ZM12.19,10.55c-.06.06-.13.08-.21.08s-.15-.03-.21-.09c-.29-.29-.26-.59-.25-.77q.01-.14-.04-.17c-.46-.31-.44-.86-.36-1.14.05-.16.21-.25.37-.2.16.05.24.21.2.37,0,.01-.09.34.12.48.35.23.32.54.3.72-.01.14-.02.2.08.3.11.12.11.3,0,.42ZM15.29,10.31c-.14.07-.18.16-.24.32-.06.17-.15.4-.41.52-.04.02-.08.03-.12.03-.11,0-.22-.06-.27-.17-.07-.15,0-.32.14-.39.04-.02.06-.06.11-.19.07-.19.18-.47.53-.64.26-.13.42-.59.45-.74.03-.16.2-.26.35-.23.16.03.26.19.23.35-.02.09-.2.86-.76,1.14Z"/>
  <path class="cls-1" d="M18.98,5c-1.01-1.25-2.39-2.96-4.56-2.35-1.18-.15-3.45.13-4.34,2.24-.08.19-.16.37-.22.55-.27-.76-.71-1.42-1.42-1.78-1.44-.72-3.4-1.7-5.13-.24-1.13.35-3.09,1.55-3.02,3.84.05,1.74.25,2.58.43,3.4.1.45.2.9.29,1.51.26,1.87.69,3.93,2.67,4.74.64.26,1.42.42,2.23.42,1.39,0,2.85-.49,3.78-1.76.91.74,2.18,1.32,3.48,1.32.95,0,1.91-.3,2.76-1.07,1.62-1.44,2-2.9,2.33-4.19.12-.45.23-.88.39-1.27.58-1.44,1.55-3.85.34-5.35ZM4.01,16.08c-1.54-.63-1.89-2.34-2.12-4.04-.09-.64-.2-1.12-.3-1.59-.18-.8-.35-1.56-.41-3.13.13.23.32.46.61.59-.02.04-.05.08-.07.13-.18.29-.41.66-.14,1.3.05.11.16.18.27.18.04,0,.08,0,.11-.02.15-.06.22-.24.16-.39-.15-.36-.06-.51.1-.76.16-.26.38-.61.23-1.19,0-.02,0-.04,0-.06-.04-.2-.03-.37.04-.48.04-.06.08-.09.13-.12.08-.06.16-.09.17-.09.16-.03.26-.19.23-.35-.03-.16-.19-.27-.35-.23-.04,0-.44.1-.68.47-.17.26-.2.59-.11.97-.26-.23-.34-.64-.34-.64-.02-.13-.14-.21-.27-.22.45-1.6,2.28-2.15,2.37-2.17l.18-.1c.48-.43,1-.59,1.52-.59.9,0,1.83.47,2.69.9.79.4,1.13,1.41,1.29,2.57,0,.01,0,.03-.01.04-.09-.09-.17-.22-.25-.45-.27-.77-.75-.85-1.14-.9-.24-.04-.45-.07-.65-.25-.65-.61-1.5-.25-1.86.02-.13.1-.16.28-.06.41.1.13.29.15.41.06,0,0,.04-.03.1-.07.2-.12.65-.32.99,0,.29.28.6.35.86.39-.05.13-.11.37-.11.66,0,.34.08.74.39,1.12.06.07.15.11.23.11.06,0,.13-.02.18-.06.13-.1.15-.29.05-.41-.09-.12-.15-.24-.19-.36-.14-.4-.03-.76.01-.89.08.07.15.17.21.35.2.57.46.76.66.89-.01.05-.02.1-.03.15-.02.11-.04.21-.07.31-.07.35-.16.72-.27,1.13-.01.03-.02.05-.02.07-.03.1-.05.18-.08.29-.37,1.24-.69,2.59-.4,3.82,0,.08-.02.16-.06.22-.2.3-.19.61-.19.83,0,.26,0,.28-.07.31-.14.08-.2.26-.12.4.05.1.16.15.26.15.05,0,.1-.01.14-.04.39-.22.38-.59.38-.85,0-.05,0-.09,0-.14.11.19.24.37.39.55-1.16,1.72-3.54,1.76-5.02,1.16ZM17.4,11.4c-.08.3-.16.6-.25.91-.05-.07-.13-.12-.22-.13-.16,0-.3.12-.3.29,0,.2-.08.25-.27.38-.17.11-.37.25-.52.52-.08.15-.23.23-.37.28.05-.18.1-.3.21-.36.6-.34.66-1.18.67-1.28,0-.16-.11-.3-.28-.31-.19,0-.3.11-.31.28-.01.17-.1.64-.37.8-.34.19-.44.53-.51.8-.07.24-.12.4-.26.48-.31.19-.43.47-.51.68-.1.24-.12.25-.19.25-.16.01-.29.15-.27.32.01.16.14.27.29.27,0,0,.01,0,.02,0,.45-.03.6-.38.69-.61.07-.17.13-.32.28-.41.12-.07.2-.16.27-.26.1,0,.84-.05,1.17-.65.08-.14.19-.22.33-.31.03-.02.06-.04.09-.06-.3.62-.73,1.25-1.44,1.88-1.84,1.65-4.35.59-5.55-.69-1.13-1.21-.74-2.91-.25-4.56.19-.62.29-1.1.39-1.57.17-.8.33-1.56.93-3.01.02.26.1.55.31.79-.04.03-.08.06-.12.08-.29.19-.65.43-.67,1.12,0,.16.12.3.29.31h.01c.16,0,.29-.13.3-.29.01-.39.16-.49.41-.65.25-.17.6-.4.71-.99,0-.02.01-.03.02-.06.05-.2.12-.35.24-.42.06-.04.12-.06.18-.07.1-.02.18,0,.18,0,.16.04.32-.06.35-.22.04-.16-.06-.32-.22-.36-.05-.01-.44-.09-.81.15-.26.17-.43.45-.51.83-.14-.32-.04-.72-.04-.73.03-.13-.04-.24-.14-.31.74-.87,1.85-1.03,2.52-1.03.3,0,.51.03.54.03l.1.02.1-.03c.95-.3,1.71.03,2.37.58-.01,0-.03,0-.04,0-.13.1-.16.28-.06.41,0,.01.14.21.1.47-.15-.1-.29-.21-.37-.41-.34-.82-1.26-.85-1.7-.75-.16.04-.26.19-.22.35.03.16.2.26.35.23,0,0,.05-.01.12-.02.23-.02.72-.02.9.42.17.42.47.62.71.77.29.19.44.29.4.75-.03.36.01.6.08.78-.04.04-.08.09-.13.16-.23.3-.51.84-.34,1.56.03.14.15.23.29.23.02,0,.05,0,.07,0,.16-.04.26-.2.22-.36-.09-.38,0-.68.12-.9,0-.01.02-.02.02-.04,0,.02,0,.04,0,.06-.01.06-.03.13-.06.21-.06.15.02.32.18.38.03.01.07.02.1.02.12,0,.23-.07.28-.19.21-.58.1-.84-.07-1.11-.1-.16-.19-.31-.15-.74.05-.5-.09-.78-.28-.99.12-.28.12-.54.07-.75.27.29.52.61.77.91.73.9.3,2.45-.26,3.93-.29.16-.45.34-.56.48-.12.15-.17.2-.35.22-.16.02-.28.16-.27.32.02.15.14.27.29.27,0,0,.02,0,.03,0,.19-.02.33-.07.44-.14-.08.25-.14.5-.21.77Z"/>
  <path class="cls-1" d="M10.59,10.36c-.17-.02-.31.09-.33.25-.03.24-.15.4-.27.52-.04-.15-.09-.25-.1-.27-.09-.13-.26-.17-.4-.08-.14.08-.18.26-.1.4,0,0,.13.23-.02.68l-.03.1c-.17.54-.28.87.13,1.34.06.07.06.12.06.27,0,.21-.02.57.47.79.04.02.08.03.12.03.11,0,.22-.06.27-.17.07-.15,0-.32-.15-.39-.13-.06-.13-.06-.13-.24,0-.16,0-.4-.18-.63,0-.01-.01-.03-.03-.04-.15-.18-.17-.24-.07-.58.02-.06.03-.11.06-.2l.03-.1c.02-.06.02-.11.03-.17.18-.09.77-.44.88-1.18.02-.16-.09-.31-.25-.34Z"/>
  <path class="cls-1" d="M12.11,9.83c.02-.18.04-.48-.3-.72-.21-.14-.12-.47-.12-.48.05-.16-.04-.32-.2-.37-.16-.05-.32.04-.37.2-.08.28-.1.83.36,1.14q.06.04.04.17c-.02.18-.04.48.25.77.06.06.14.09.21.09s.15-.03.21-.08c.12-.11.12-.3,0-.42-.1-.1-.09-.16-.08-.3Z"/>
  <path class="cls-1" d="M15.83,8.82c-.16-.04-.32.07-.35.23-.03.15-.19.61-.45.74-.35.17-.45.45-.53.64-.05.13-.07.18-.11.19-.15.07-.21.24-.14.39.05.11.16.17.27.17.04,0,.08,0,.12-.03.26-.12.35-.35.41-.52.06-.17.1-.26.24-.32.56-.28.74-1.06.76-1.14.03-.16-.07-.32-.23-.35Z"/>
</svg>