<?xml version="1.0" encoding="UTF-8"?>
<svg id="Layer_1" data-name="Layer 1" xmlns="http://www.w3.org/2000/svg" version="1.1" viewBox="0 0 19.84 19.84">
  <defs>
    <style>
      .cls-1 {
        fill: #0c202a;
      }

      .cls-1, .cls-2 {
        stroke-width: 0px;
      }

      .cls-2 {
        fill: #fff;
      }
    </style>
  </defs>
  <path class="cls-2" d="M4.86,15.55c-.02-.06-.02-.12-.05-.17-.09-.19-.22-.37-.37-.53-.01-.01-.02-.03-.03-.04-.54-.54-.81-1.26-.81-1.97,0-.36.07-.71.2-1.05.14-.34.34-.65.61-.92.38-.38.59-.89.59-1.43s-.21-1.05-.59-1.43c-1.08-1.08-1.08-2.85,0-3.94.38-.38.59-.89.59-1.43s-.21-1.05-.59-1.43l-.17-.17h-1.29c.33.46.5,1.02.5,1.59,0,.74-.29,1.44-.82,1.97-.79.79-.79,2.07,0,2.86.53.52.81,1.22.81,1.97,0,.74-.29,1.44-.81,1.97-.38.38-.59.89-.59,1.43s.21,1.05.59,1.43c.78.78,1.02,1.99.61,3.01h1.43c.06-.09.1-.19.14-.29.04-.09.08-.18.11-.27.04-.14.04-.29.04-.44,0-.08.02-.15.01-.23-.02-.17-.07-.33-.12-.49Z"/>
  <path class="cls-2" d="M5.94,15.55c-.02-.06-.03-.12-.05-.17-.09-.19-.22-.37-.37-.53-.01-.01-.02-.03-.03-.04-.54-.54-.81-1.26-.81-1.97,0-.36.07-.71.2-1.05.14-.34.34-.65.61-.92.38-.38.59-.89.59-1.43s-.21-1.05-.59-1.43c-1.08-1.08-1.08-2.85,0-3.94.38-.38.59-.89.59-1.43s-.21-1.05-.59-1.43l-.17-.17h-.06c.33.46.5,1.02.5,1.59,0,.74-.29,1.44-.82,1.97-.79.79-.79,2.07,0,2.86.53.53.82,1.22.82,1.97s-.29,1.44-.82,1.97c-.38.38-.59.89-.59,1.43s.21,1.05.59,1.43c.78.78,1.02,1.99.61,3.01h.21c.06-.09.1-.19.14-.29.04-.09.08-.17.11-.27.04-.15.04-.29.04-.44,0-.08.02-.15.01-.23-.02-.17-.07-.33-.12-.49Z"/>
  <path class="cls-2" d="M8.75,1.21l-.17-.17h-2.24c.33.46.5,1.02.5,1.59,0,.74-.29,1.44-.82,1.97-.79.79-.79,2.07,0,2.86.53.53.82,1.22.82,1.97s-.29,1.44-.82,1.97c-.38.38-.59.89-.59,1.43s.21,1.05.59,1.43c.78.78,1.02,1.99.61,3.01h2.41c.48-.79.36-1.81-.3-2.47-.52-.53-.81-1.22-.81-1.97s.29-1.44.81-1.97c.38-.38.59-.89.59-1.43s-.21-1.05-.59-1.43c-.52-.52-.81-1.22-.81-1.97s.29-1.44.81-1.97c.38-.38.59-.89.59-1.43s-.21-1.05-.59-1.43Z"/>
  <path class="cls-1" d="M10.11,2.64c0-.74-.29-1.44-.81-1.97l-.28-.28c-.07-.07-.17-.11-.27-.11H2.09c-.15,0-.29.09-.35.24-.06.14-.03.31.08.42l.28.28c.38.38.59.89.59,1.43s-.21,1.05-.59,1.43c-1.08,1.09-1.08,2.85,0,3.94.38.38.59.89.59,1.43s-.21,1.05-.59,1.43c-1.08,1.08-1.08,2.85,0,3.94.7.7.78,1.83.2,2.63-.09.11-.1.27-.03.4.07.13.2.21.34.21h6.66c.12,0,.24-.06.31-.16.81-1.1.69-2.65-.27-3.62-.38-.38-.59-.89-.59-1.43s.21-1.05.59-1.43c.52-.53.81-1.22.81-1.97s-.29-1.44-.81-1.97c-.79-.79-.79-2.07,0-2.86.52-.52.81-1.22.81-1.97ZM7.94,6.04c0,.74.29,1.44.81,1.97.38.38.59.89.59,1.43s-.21,1.05-.59,1.43c-.53.53-.81,1.22-.81,1.97s.29,1.44.81,1.97c.66.66.78,1.68.3,2.47h-2.41c.41-1.02.18-2.23-.61-3.01-.38-.38-.59-.89-.59-1.43s.21-1.05.59-1.43c.53-.53.82-1.23.82-1.97s-.29-1.44-.82-1.97c-.79-.79-.79-2.07,0-2.86.53-.53.82-1.23.82-1.97,0-.58-.18-1.13-.5-1.59h2.24l.17.17c.38.38.59.89.59,1.43s-.21,1.05-.59,1.43c-.53.52-.81,1.22-.81,1.97ZM4.93,16.71c-.02.09-.07.18-.11.27-.04.1-.08.2-.14.29h-1.43c.41-1.02.18-2.23-.61-3.01-.38-.38-.59-.89-.59-1.43s.21-1.05.59-1.43c.53-.53.82-1.23.81-1.97,0-.74-.29-1.44-.81-1.97-.79-.79-.79-2.07,0-2.86.53-.53.82-1.23.82-1.97,0-.58-.18-1.13-.5-1.59h1.29l.17.17c.38.38.59.89.59,1.43s-.21,1.05-.59,1.43c-1.08,1.09-1.08,2.85,0,3.94.38.38.59.89.59,1.43s-.21,1.05-.59,1.43c-.27.27-.47.59-.61.92-.14.34-.2.69-.2,1.05,0,.71.27,1.43.81,1.97.01.01.02.03.03.04.15.16.28.34.37.53.03.06.03.12.05.17.06.16.11.32.12.49,0,.08,0,.15-.01.23,0,.15,0,.3-.04.44ZM6.01,16.71c-.02.09-.07.18-.11.27-.04.1-.08.2-.14.29h-.21c.41-1.02.18-2.23-.61-3.01-.38-.38-.59-.89-.59-1.43s.21-1.05.59-1.43c.53-.53.82-1.23.82-1.97s-.29-1.44-.82-1.97c-.79-.79-.79-2.07,0-2.86.53-.53.82-1.23.82-1.97,0-.58-.18-1.13-.5-1.59h.06l.17.17c.38.38.59.89.59,1.43s-.21,1.05-.59,1.43c-1.08,1.09-1.08,2.85,0,3.94.38.38.59.89.59,1.43s-.21,1.05-.59,1.43c-.27.27-.47.59-.61.92-.14.34-.2.69-.2,1.05,0,.71.27,1.43.81,1.97.01.01.02.03.03.04.15.16.28.34.37.53.03.06.03.12.05.17.06.16.11.32.12.49,0,.08,0,.15-.01.23,0,.15,0,.3-.04.44Z"/>
  <path class="cls-2" d="M14.21,17.51s-.02-.1-.04-.14c-.08-.17-.18-.33-.32-.46-.9-.9-.9-2.36,0-3.26.31-.31.47-.71.47-1.15s-.17-.84-.47-1.14c-.9-.9-.9-2.36,0-3.26.31-.31.47-.71.47-1.15s-.17-.84-.47-1.14l-.13-.13h-.98c.25.37.38.82.38,1.27,0,.61-.24,1.19-.68,1.63-.31.31-.47.71-.47,1.15s.17.84.47,1.14c.44.44.68,1.02.68,1.63s-.24,1.19-.68,1.63c-.63.63-.63,1.66,0,2.29.64.64.84,1.61.52,2.45h1.11c.04-.07.08-.15.11-.23.03-.07.06-.14.08-.21.03-.12.03-.23.03-.35,0-.06.01-.12,0-.19-.01-.13-.05-.26-.1-.38Z"/>
  <path class="cls-2" d="M13.86,9.73c0,.43.17.84.47,1.14.03.03.06.06.08.09-.01-.02-.02-.04-.03-.06-.09-.15-.15-.3-.21-.46-.02-.05-.03-.1-.04-.15-.05-.19-.08-.37-.08-.56,0,0,0,0,0,0,0-.19.03-.38.08-.56.01-.05.03-.1.04-.14.05-.16.12-.32.21-.47,0-.02.01-.03.02-.05-.03.03-.06.06-.08.09-.31.31-.47.71-.47,1.15Z"/>
  <path class="cls-2" d="M14.14,14.71s.03-.09.04-.14c.05-.17.12-.33.22-.48,0-.01.01-.03.02-.04-.03.03-.06.06-.08.09-.63.63-.63,1.66,0,2.29.03.03.06.06.08.09,0-.01-.01-.03-.02-.05-.09-.15-.16-.31-.21-.48-.02-.05-.03-.09-.04-.14-.09-.37-.09-.76,0-1.14Z"/>
  <path class="cls-2" d="M14.73,11.36s-.06-.06-.08-.09c.23.36.35.79.35,1.23s-.12.87-.35,1.23c.03-.03.05-.06.08-.09.31-.31.48-.71.48-1.15s-.17-.84-.47-1.14Z"/>
  <path class="cls-2" d="M15.09,17.52s-.02-.1-.04-.15c-.08-.17-.18-.33-.32-.46-.03-.03-.06-.07-.09-.1.39.61.47,1.38.21,2.06h.11c.04-.07.08-.14.11-.22.03-.07.07-.15.09-.22.03-.11.03-.23.03-.34,0-.07.01-.13,0-.2-.01-.13-.05-.26-.1-.38Z"/>
  <path class="cls-2" d="M15.01,6.95c0,.44-.12.87-.36,1.23.03-.03.05-.06.08-.09.31-.31.48-.71.48-1.15s-.17-.84-.47-1.14l-.08-.08c.23.36.35.79.35,1.22Z"/>
  <path class="cls-2" d="M17.4,11.36c-.43-.44-.67-1.01-.67-1.63s.24-1.2.68-1.63c.31-.31.47-.71.47-1.15s-.17-.84-.47-1.14l-.13-.13h-1.76c.25.37.38.82.38,1.27,0,.61-.24,1.19-.67,1.63-.31.31-.47.71-.47,1.15s.17.84.47,1.14c.44.44.68,1.02.68,1.63s-.24,1.19-.67,1.63c-.31.31-.47.71-.47,1.14s.17.84.47,1.14c.64.64.84,1.62.52,2.45h1.91c.37-.63.28-1.44-.25-1.96-.43-.44-.67-1.01-.67-1.63s.24-1.19.67-1.63c.31-.31.47-.71.47-1.14s-.17-.84-.47-1.14Z"/>
  <path class="cls-1" d="M18.56,12.5c0-.61-.24-1.19-.67-1.63-.63-.63-.63-1.66,0-2.29.43-.44.67-1.02.67-1.63s-.24-1.19-.67-1.63l-.23-.23c-.06-.06-.15-.1-.24-.1h-5.44c-.14,0-.26.08-.32.21-.05.13-.02.27.07.37l.23.23c.31.31.47.71.47,1.14s-.17.84-.47,1.15c-.9.9-.9,2.36,0,3.26.31.3.47.71.47,1.14s-.17.84-.47,1.15c-.9.9-.9,2.36,0,3.26.56.56.63,1.47.16,2.1-.08.1-.09.24-.03.36.06.12.18.19.31.19h5.44c.11,0,.21-.05.28-.14.67-.91.58-2.2-.22-3-.31-.31-.47-.71-.47-1.14s.17-.84.47-1.14c.43-.44.67-1.01.67-1.63ZM16.72,15.28c0,.62.24,1.2.67,1.63.52.52.62,1.33.25,1.96h-1.91c.32-.84.12-1.81-.52-2.45-.31-.31-.47-.71-.47-1.14s.17-.84.47-1.14c.43-.44.67-1.01.67-1.63s-.24-1.19-.68-1.63c-.31-.31-.47-.71-.47-1.14s.17-.84.47-1.15c.43-.44.67-1.02.67-1.63,0-.46-.13-.9-.38-1.27h1.76l.13.13c.31.31.47.71.47,1.14s-.17.84-.47,1.15c-.44.43-.68,1.01-.68,1.63s.24,1.2.67,1.63c.31.31.47.71.47,1.14s-.17.84-.47,1.14c-.43.44-.67,1.01-.67,1.63ZM14.26,18.44c-.02.07-.05.14-.08.21-.03.08-.07.15-.11.23h-1.11c.32-.84.12-1.81-.52-2.45-.63-.63-.63-1.66,0-2.29.44-.44.68-1.02.68-1.63s-.24-1.19-.68-1.63c-.31-.31-.47-.71-.47-1.14s.17-.84.47-1.15c.44-.44.68-1.02.68-1.63,0-.46-.13-.9-.38-1.27h.98l.13.13c.31.31.47.71.47,1.14s-.17.84-.47,1.15c-.9.9-.9,2.36,0,3.26.31.3.47.71.47,1.14s-.17.84-.47,1.15c-.9.9-.9,2.36,0,3.26.14.14.24.29.32.46.02.05.03.1.04.14.04.13.08.25.1.38,0,.06,0,.12,0,.19,0,.12,0,.24-.03.35ZM15.15,18.43c-.02.08-.06.15-.09.22-.03.07-.06.15-.11.22h-.11c.26-.68.17-1.46-.21-2.06.03.03.06.07.09.1.14.14.24.29.32.46.02.05.03.1.04.15.04.12.08.25.1.38,0,.07,0,.13,0,.2,0,.11,0,.23-.03.34ZM14.39,16.46s.01.03.02.05c-.03-.03-.06-.06-.08-.09-.63-.63-.63-1.66,0-2.29.03-.03.06-.06.08-.09,0,.01-.01.03-.02.04-.09.15-.16.32-.22.48-.01.05-.03.09-.04.14-.09.37-.1.76,0,1.14.01.05.03.09.04.14.05.17.12.33.21.48ZM14.73,5.81c.31.31.47.71.47,1.14s-.17.84-.48,1.15c-.03.03-.06.06-.08.09.23-.37.36-.79.36-1.23s-.12-.86-.35-1.22l.08.08ZM14.65,13.73c.23-.37.35-.79.35-1.23s-.12-.87-.35-1.23c.03.03.05.06.08.09.31.31.47.71.47,1.14s-.17.84-.48,1.15c-.03.03-.05.06-.08.09ZM14.42,8.49s-.01.03-.02.05c-.09.15-.16.31-.21.47-.02.05-.03.1-.04.14-.05.19-.08.37-.08.56,0,0,0,0,0,0,0,.19.03.38.08.56.01.05.03.1.04.15.05.16.12.31.21.46.01.02.02.04.03.06-.03-.03-.05-.06-.08-.09-.31-.31-.47-.71-.47-1.14s.17-.84.47-1.15c.03-.03.06-.06.08-.09Z"/>
</svg>