<?xml version="1.0" encoding="UTF-8"?>
<svg id="Layer_1" data-name="Layer 1" xmlns="http://www.w3.org/2000/svg" version="1.1" viewBox="0 0 19.84 19.84">
  <defs>
    <style>
      .cls-1 {
        fill: #8052a0;
      }

      .cls-1, .cls-2 {
        stroke-width: 0px;
      }

      .cls-2 {
        fill: none;
      }
    </style>
  </defs>
  <path class="cls-2" d="M17.52,11.37c-.15.36-.33.64-.52.89,0,0,0,.02,0,.02,0,0,0,0-.01,0-.78,1.01-1.74,1.18-1.8,1.19-.11.02-.22-.01-.31-.08-.09-.07-.14-.16-.16-.27-.03-.22.12-.43.35-.47.04,0,.65-.12,1.2-.78-.15-2.6-1.98-4.85-4.58-5.74-.01.12-.06.24-.18.31-.07.04-.14.06-.21.06-.15,0-.28-.07-.35-.2-.59-.96-.82-3.34-.9-4.67-.16,3.49-.87,4.58-.96,4.7-.14.19-.39.23-.58.09-.18-.13-.22-.39-.09-.57,0,0,.02-.03.04-.08-1.13.11-2.2.47-3.12,1.04.15.39.26.77.28,1.07,0,.11-.03.22-.1.3s-.17.13-.28.14c-.23.03-.42-.16-.44-.38-.04-.56-.56-1.67-1.02-2.51.05,2.34-.71,3.65-.74,3.7-.55.94-.84,2.01-.84,3.09,0,3.59,3.16,6.51,7.05,6.51,1.27,0,2.54-.34,3.79-1.02,3.18-1.72,4.19-4.65,4.5-6.34ZM9.68,15.4c-.09,0-2.08-.04-2.69-3.03-.6,3-2.6,3.03-2.69,3.03-.23,0-.41-.19-.41-.41s.18-.41.41-.41c.06,0,1.62-.06,1.97-2.94.04-.37.35-.64.72-.64s.68.27.72.64c.34,2.87,1.91,2.94,1.97,2.94.22,0,.41.19.41.41s-.19.41-.41.41ZM14.03,11.47c-.07,0-1.63-.03-2.21-2.24-.58,2.21-2.14,2.24-2.21,2.24-.23,0-.41-.19-.41-.41s.19-.41.41-.41c.05,0,1.27-.05,1.55-2.35.04-.34.33-.59.66-.59s.62.25.66.59c.28,2.31,1.5,2.35,1.55,2.35.23,0,.41.19.41.42,0,.23-.19.41-.41.41Z"/>
  <path class="cls-2" d="M7.93,4.99c-.5-1.72-1.17-3.22-1.45-3.83l-.07.03c.65,2.05.65,3.3.6,4,.3-.08.6-.16.91-.2Z"/>
  <path class="cls-1" d="M9.69,14.57c-.07,0-1.63-.07-1.97-2.94-.04-.37-.35-.64-.72-.64s-.68.27-.72.64c-.34,2.87-1.91,2.94-1.97,2.94-.23,0-.41.19-.41.41s.18.41.41.41c.09,0,2.08-.04,2.69-3.03.61,3,2.6,3.03,2.69,3.03.23,0,.41-.19.41-.41s-.19-.41-.41-.41Z"/>
  <path class="cls-1" d="M14.04,10.64c-.05,0-1.28-.05-1.55-2.35-.04-.34-.33-.59-.66-.59s-.62.25-.66.59c-.28,2.3-1.5,2.35-1.55,2.35-.23,0-.41.19-.41.41s.19.41.41.41c.07,0,1.63-.03,2.21-2.24.58,2.21,2.14,2.24,2.21,2.24.23,0,.41-.18.41-.41,0-.23-.18-.41-.41-.42Z"/>
  <path class="cls-1" d="M18.28,9.69c-.14-.15-.33-.23-.53-.23-.35,0-.66.25-.72.61-.03.2-.09.36-.14.53-.52-2.13-2.05-3.93-4.14-4.91-.02-.35,0-1.47.57-4.36.07-.33-.15-.66-.48-.73l-.47-.1c-.33-.07-.64.12-.73.44-.2.73-.39,1.5-.57,2.29-.03.11,0,.22.05.31.06.09.15.16.26.18.23.05.44-.09.5-.31.21-.92.4-1.65.51-2.07l.09.02c-.38,1.96-.53,3.24-.55,3.99-.19-.06-.37-.13-.56-.18-.31-1.08-.49-2.85-.55-4.27-.01-.33-.29-.6-.62-.6h-.35c-.34,0-.61.27-.62.61-.04,1.97-.26,3.21-.47,3.96-.57-2.03-1.38-3.76-1.62-4.26-.14-.29-.49-.43-.8-.3l-.42.17c-.3.12-.45.46-.35.77.76,2.33.65,3.56.6,4.15,0,.02,0,.04,0,.06-.41.16-.8.35-1.17.57-.36-.76-.75-1.44-.83-1.57-.22-.37-.8-.42-1.08-.11-.13.14-.19.33-.18.51.19,2.41-.6,3.82-.6,3.84-.63,1.07-.96,2.28-.96,3.5,0,4.04,3.53,7.33,7.88,7.33,1.41,0,2.81-.38,4.18-1.12,4.61-2.5,5.04-7.28,5.07-8.21,0-.2-.06-.39-.2-.54ZM9.23,18.73c-3.89,0-7.05-2.92-7.05-6.51,0-1.08.29-2.14.84-3.09.03-.06.79-1.37.74-3.7.45.83.98,1.95,1.02,2.51.02.22.21.41.44.38.11,0,.21-.06.28-.14s.11-.19.1-.3c-.02-.3-.13-.68-.28-1.07.92-.57,2-.92,3.12-1.04-.02.05-.04.08-.04.08-.13.18-.09.44.09.57.19.13.44.09.58-.09.08-.12.8-1.21.96-4.7.09,1.33.32,3.71.9,4.67.08.12.21.2.35.2.07,0,.15-.02.21-.06.11-.07.16-.18.18-.31,2.6.9,4.43,3.15,4.58,5.74-.55.66-1.16.77-1.2.78-.23.03-.38.24-.35.47.02.11.07.2.16.27.09.07.2.1.31.08.06,0,1.02-.18,1.8-1.19,0,0,0,0,.01,0,0,0,0-.02,0-.02.19-.25.37-.53.52-.89-.32,1.7-1.32,4.62-4.5,6.34-1.25.68-2.52,1.02-3.79,1.02ZM6.42,1.19l.07-.03c.29.61.96,2.1,1.45,3.83-.31.05-.61.12-.91.2.05-.71.05-1.95-.6-4Z"/>
</svg>