<?xml version="1.0" encoding="UTF-8"?>
<svg id="Layer_1" data-name="Layer 1" xmlns="http://www.w3.org/2000/svg" version="1.1" viewBox="0 0 19.84 19.84">
  <defs>
    <style>
      .cls-1 {
        fill: #7659a5;
        stroke-width: 0px;
      }
    </style>
  </defs>
  <path class="cls-1" d="M18.21,7.35c1.02-.58,1.56-1.52,1.27-2.25-.12-.29-.35-.5-.66-.62-.53-.2-1.26-.11-1.96.25-.3.15-.57.34-.79.54-.27-.77-.81-1.28-1.43-1.28-.31,0-.6.14-.84.39-.33.36-.53.94-.55,1.58-.16-.07-.33-.12-.5-.11-.31,0-.6.14-.84.39-.33.36-.53.92-.54,1.56-.14-.06-.29-.09-.45-.09-.31,0-.6.14-.84.39-.39.41-.59,1.11-.54,1.87.06.97.48,1.74,1.06,2.05-.04.04-.08.08-.11.13-.11.1-1.11,1.06-1.83,2.31-.87,1.5-1.51,3.85-1.55,4.01-.07.14-.09.29-.05.44.04.16.15.29.29.37.3.16.68.06.85-.24,0-.01.01-.03.02-.05,0-.02.63-2.4,1.47-3.85.61-1.05,1.43-1.92,1.72-2.21.33.39.9.68,1.56.79,1.23.21,2.32-.24,2.54-1.04.07-.26.03-.53-.09-.78.96,0,1.75-.42,1.92-1.08.07-.26.04-.52-.09-.77.99,0,1.79-.41,1.97-1.09.08-.31.03-.62-.16-.91-.18-.28-.48-.52-.85-.7ZM11.29,11.13c-.06.06-.11.09-.16.09-.23,0-.61-.51-.66-1.3-.04-.59.13-1,.29-1.17.06-.06.11-.09.16-.09.23,0,.61.51.66,1.3.04.6-.13,1-.29,1.17ZM17.28,5.57c.51-.26.97-.29,1.2-.2.06.02.1.05.12.09.08.19-.24.76-.99,1.14-.51.26-.97.29-1.2.2-.06-.02-.1-.06-.12-.09-.08-.19.24-.77.99-1.14ZM14.49,5.03c.06-.06.11-.09.16-.09.23,0,.61.51.66,1.3.04.59-.13,1-.29,1.17-.06.06-.11.09-.16.09-.23,0-.61-.51-.66-1.3-.04-.6.13-1,.29-1.17ZM14.92,8.9c-.22,0-.43.02-.63.06.05-.2.08-.41.08-.63.14.06.28.1.43.11,0,.16.04.31.12.46ZM12.6,6.89c.06-.06.11-.09.16-.09.23,0,.61.51.66,1.3.04.59-.13,1-.29,1.17-.06.06-.11.09-.16.09-.23,0-.61-.51-.66-1.3-.04-.59.13-1,.29-1.17ZM13.03,10.77c-.2,0-.4.02-.58.06.05-.19.07-.4.08-.61.12.05.25.08.38.08,0,.16.05.32.12.47ZM14.58,12.44c-.06.23-.68.49-1.47.35-.55-.09-.92-.34-1.05-.54-.06-.09-.05-.14-.04-.16.06-.23.68-.49,1.47-.35.55.09.92.34,1.05.54.06.09.05.14.04.16ZM16.42,10.57c-.06.23-.68.49-1.47.35-.55-.09-.92-.34-1.05-.54-.06-.09-.05-.14-.04-.16.06-.23.68-.49,1.47-.35.55.09.92.33,1.05.53.06.09.05.14.04.16ZM18.31,8.71c-.06.23-.68.49-1.47.35-.55-.09-.92-.34-1.05-.53-.06-.09-.05-.14-.04-.16.06-.23.68-.49,1.47-.35.55.09.92.34,1.05.54.06.09.05.14.04.16Z"/>
  <path class="cls-1" d="M7.52,6.2c-.13-.23-.33-.4-.6-.5.72-.67,1.02-1.53.69-2.15-.15-.28-.41-.47-.74-.55-.33-.08-.71-.05-1.1.08.34-1.12.09-2.18-.62-2.51-.28-.13-.6-.13-.91,0-.52.22-.99.79-1.25,1.53-.11.32-.18.64-.2.94-.73-.38-1.47-.38-1.92.06-.22.22-.34.52-.34.86,0,.49.26,1.05.69,1.53-.17.05-.32.13-.45.26-.22.22-.34.52-.34.87,0,.51.28,1.09.74,1.57-.21.05-.4.15-.55.29-.23.22-.34.52-.34.87,0,.57.34,1.21.9,1.73.71.66,1.55.93,2.18.75,0,.06,0,.11,0,.17,0,.15-.08,1.53.26,2.94.4,1.68,1.55,3.83,1.63,3.98.05.15.14.27.27.35.14.08.3.11.46.07.33-.08.53-.42.45-.76,0-.02-.01-.03-.02-.05-.01-.02-1.19-2.17-1.58-3.81-.28-1.18-.28-2.38-.27-2.78.51.05,1.12-.13,1.68-.51,1.04-.7,1.52-1.77,1.13-2.5-.13-.24-.34-.41-.61-.51.78-.68,1.11-1.59.76-2.23ZM3.87,2.43c.19-.54.51-.88.73-.97.06-.03.11-.03.15-.02.18.08.35.72.07,1.51-.19.54-.51.88-.73.97-.06.03-.11.03-.15.02-.18-.08-.35-.72-.07-1.51ZM4.04,6.22c.11.11.25.2.41.26-.16.15-.3.31-.42.48-.1-.18-.23-.35-.38-.52.14-.05.28-.12.39-.22ZM3.19,10.88c-.16.16-.79.04-1.37-.49-.44-.41-.59-.82-.6-1.05,0-.08.02-.14.05-.18.16-.16.79-.04,1.37.49.44.41.59.82.6,1.05,0,.08-.02.14-.05.18ZM3.34,8.15c-.16.16-.79.05-1.37-.49-.44-.41-.59-.82-.6-1.05,0-.08.02-.14.05-.18.16-.16.79-.05,1.37.49.44.41.59.82.6,1.05,0,.08-.02.14-.05.18ZM2.07,5.01c-.44-.41-.59-.82-.6-1.05,0-.08.02-.14.05-.18.16-.16.79-.05,1.37.49.44.41.59.82.6,1.05,0,.08-.02.14-.05.18-.16.16-.79.05-1.37-.49ZM3.88,9.69c-.11-.2-.26-.39-.43-.57.19-.04.36-.13.5-.25.12.12.26.21.43.26-.2.17-.36.36-.5.55ZM5.71,10.65c-.46.31-.9.39-1.13.34-.11-.03-.13-.07-.14-.09-.11-.21.16-.82.82-1.27.46-.31.9-.39,1.13-.34.11.03.13.07.14.09.11.21-.16.82-.82,1.27ZM5.86,7.92c-.46.31-.9.39-1.13.34-.11-.03-.13-.07-.14-.09-.11-.21.16-.82.82-1.27.46-.31.9-.39,1.13-.34.11.03.13.07.14.09.11.21-.16.82-.82,1.27ZM5.95,5.27c-.46.31-.9.39-1.13.34-.11-.03-.13-.07-.14-.09-.11-.21.16-.82.82-1.27.46-.31.9-.39,1.13-.34.11.03.13.07.14.09.11.21-.16.82-.82,1.27Z"/>
</svg>