<?xml version="1.0" encoding="UTF-8"?>
<svg id="Layer_1" data-name="Layer 1" xmlns="http://www.w3.org/2000/svg" version="1.1" viewBox="0 0 19.84 19.84">
  <defs>
    <style>
      .cls-1 {
        fill: #e3e317;
        stroke-width: 0px;
      }
    </style>
  </defs>
  <path class="cls-1" d="M8.01,18.51c-1.68,0-3.29-.46-4.65-1.39-1.25.36-2.16-.13-2.62-.75-.62-.84-.6-2.04.03-3.01C-.05,9.71,1.67,5.82,5.2,3.38c3.58-2.48,7.88-2.72,11.07-.65,1.29-.38,2.45.2,2.97,1.04.55.89.4,1.94-.36,2.76.82,3.54-.96,7.39-4.6,9.9-2,1.38-4.19,2.07-6.26,2.07ZM3.56,15.68l.29.21c3.16,2.37,7.2,1.21,9.69-.51,2.52-1.73,5.08-5.09,4-8.87l-.11-.4.32-.27c.53-.44.67-.95.4-1.39-.28-.45-.96-.74-1.71-.42l-.33.14-.29-.21c-2.77-1.96-6.64-1.78-9.88.46-3.18,2.2-4.69,5.69-3.85,8.89l.08.31-.2.25c-.5.62-.47,1.33-.19,1.72.28.38.82.46,1.46.2l.33-.13Z"/>
  <circle class="cls-1" cx="12.25" cy="4.78" r=".54"/>
  <circle class="cls-1" cx="10" cy="5.14" r=".54"/>
  <circle class="cls-1" cx="11.53" cy="6.52" r=".54"/>
</svg>