<?xml version="1.0" encoding="UTF-8"?>
<svg id="Layer_1" data-name="Layer 1" xmlns="http://www.w3.org/2000/svg" version="1.1" viewBox="0 0 19.84 19.84">
  <defs>
    <style>
      .cls-1 {
        fill: #cebb8d;
        stroke-width: 0px;
      }
    </style>
  </defs>
  <path class="cls-1" d="M18.6,9.92c0,4.57-3.9,8.29-8.68,8.29S1.24,14.49,1.24,9.92,5.13,1.63,9.92,1.63s8.68,3.72,8.68,8.29ZM9.92.67C4.61.67.28,4.82.28,9.92s4.32,9.25,9.64,9.25,9.64-4.15,9.64-9.25S15.23.67,9.92.67Z"/>
  <path class="cls-1" d="M13.54,13.4c.31.49.43.97.35,1.33-.06.26-.23.48-.51.65-.84.52-1.48-.1-1.86-.71-.47-.74-.39-1.63.17-1.98.56-.35,1.39-.03,1.86.71ZM11.18,11.88c-1,.63-1.21,2.11-.47,3.3.83,1.32,2.04,1.71,3.17,1.02.5-.31.82-.74.94-1.25.15-.62-.02-1.33-.47-2.06-.75-1.19-2.17-1.64-3.17-1.02Z"/>
  <path class="cls-1" d="M10.93,5.11c.13-.34.38-.79.82-.98.33-.15.73-.13,1.19.05,1.2.46,1.14,1.37.88,2.04-.31.82-1.22,1.24-2.02.93-.8-.31-1.19-1.22-.88-2.04ZM11.46,8.04c1.29.49,2.75-.17,3.25-1.49.56-1.46.01-2.71-1.43-3.27-.69-.27-1.36-.28-1.93-.03-.59.26-1.05.78-1.32,1.51-.5,1.31.14,2.78,1.43,3.27Z"/>
  <path class="cls-1" d="M4.66,10.9c-.55.08-1.01,0-1.27-.19-.15-.12-.24-.28-.27-.5-.1-.78.76-1.02,1.29-1.09.48-.07.95.03,1.25.26.11.09.26.23.28.44.07.48-.52.98-1.29,1.09ZM6.89,9.68c-.06-.41-.29-.79-.65-1.07-.51-.38-1.22-.55-1.96-.44-1.44.2-2.25,1.03-2.1,2.16.06.48.28.87.64,1.14.47.36,1.15.49,1.97.38,1.32-.18,2.24-1.13,2.1-2.17Z"/>
  <path class="cls-1" d="M6.25,5.99c-.22-.26-.34-.53-.32-.73.01-.13.08-.26.22-.37.12-.1.49-.41,1.08.27.32.37.36.88.1,1.1-.26.22-.76.1-1.07-.28ZM7.94,6.99c.67-.57.68-1.67.01-2.45-.72-.86-1.67-1.01-2.42-.39-.33.28-.52.63-.56,1.02-.04.47.15.96.54,1.43.66.78,1.75.96,2.42.39Z"/>
  <path class="cls-1" d="M7.65,15c-.23.4-.69.57-1.02.37-.33-.19-.41-.68-.18-1.08.23-.4.69-.57,1.02-.37.33.19.41.68.18,1.08ZM7.95,13.1c-.79-.46-1.83-.14-2.33.71-.5.85-.27,1.92.52,2.38.79.46,1.83.14,2.33-.72.5-.85.27-1.92-.52-2.38Z"/>
  <path class="cls-1" d="M16.03,9.23c.45.11.74.51.65.88-.05.2-.19.32-.3.38-.19.12-.44.15-.69.09-.24-.06-.45-.21-.57-.4-.06-.11-.13-.28-.08-.48.09-.37.53-.59.98-.47ZM14.12,9.47c-.1.4-.03.83.19,1.2.25.41.67.71,1.15.83.48.12,1,.05,1.41-.2.37-.22.63-.57.73-.97.22-.88-.38-1.8-1.34-2.03-.96-.24-1.92.29-2.14,1.17Z"/>
  <path class="cls-1" d="M9.81,9.74c.17.04.29.18.26.31-.01.06-.06.1-.09.12-.08.05-.18.06-.28.03-.1-.02-.18-.08-.23-.16-.02-.04-.04-.09-.03-.15.03-.12.2-.19.37-.15ZM8.51,9.66c-.07.29-.02.6.14.87.18.29.47.51.82.59.34.09.71.03,1-.14.27-.16.46-.41.53-.71.16-.64-.27-1.29-.95-1.46-.68-.17-1.37.21-1.53.85Z"/>
</svg>