<?xml version="1.0" encoding="UTF-8"?>
<svg id="Layer_1" data-name="Layer 1" xmlns="http://www.w3.org/2000/svg" version="1.1" viewBox="0 0 19.84 19.84">
  <defs>
    <style>
      .cls-1, .cls-2 {
        stroke-width: 0px;
      }

      .cls-1, .cls-3 {
        fill: none;
      }

      .cls-2 {
        fill: #e2e191;
      }

      .cls-3 {
        stroke: #000;
        stroke-width: .3px;
      }
    </style>
  </defs>
  <g>
    <line class="cls-3" x1="3.98" y1="-51.13" x2="3.98" y2="-15.13"/>
    <line class="cls-3" x1="-50.02" y1="2.87" x2="-14.02" y2="2.87"/>
    <line class="cls-3" x1="-50.02" y1="16.97" x2="-14.02" y2="16.97"/>
    <line class="cls-3" x1="3.98" y1="70.97" x2="3.98" y2="34.97"/>
    <line class="cls-3" x1="20.37" y1="-51.13" x2="20.37" y2="-15.13"/>
    <line class="cls-3" x1="74.37" y1="2.87" x2="38.37" y2="2.87"/>
    <line class="cls-3" x1="74.37" y1="16.97" x2="38.37" y2="16.97"/>
    <line class="cls-3" x1="20.37" y1="70.97" x2="20.37" y2="34.97"/>
  </g>
  <g>
    <path class="cls-1" d="M7.34,6.06c-.64-.92-1.38-1.54-1.97-1.65-.5.43-.88,1.29-1.07,2.36.84.39,1.71.95,2.56,1.66.09-.88.26-1.66.48-2.36Z"/>
    <path class="cls-1" d="M9.86,16.05s.04,0,.06.02c.02,0,.05-.01.07-.02.07-.03.14-.04.21-.04.97-.6,2.11-2.79,2.11-6.11s-1.17-5.62-2.33-6.22c-1,.45-2.29,2.74-2.29,6.22,0,3.25,1.09,5.61,2.17,6.16Z"/>
    <path class="cls-1" d="M15.54,6.77c-.19-1.07-.57-1.93-1.07-2.36-.56.11-1.26.69-1.88,1.54.24.7.42,1.49.52,2.36.8-.66,1.63-1.18,2.43-1.55Z"/>
    <path class="cls-1" d="M6.78,9.89c0-.13.02-.25.02-.38-.04-.02-.08-.01-.11-.04-2.35-2.16-4.48-2.65-5.38-2.32-.43,1.27.16,4.06,2.48,6.35,1.7,1.68,3.49,2.47,4.79,2.65-1.08-1.25-1.8-3.6-1.8-6.26Z"/>
    <path class="cls-1" d="M13.19,9.44c0,.15.02.3.02.45,0,2.64-.72,4.99-1.79,6.24,1.28-.23,3-1.03,4.62-2.63,2.32-2.29,2.92-5.08,2.48-6.35-.89-.32-3.01.16-5.34,2.29Z"/>
    <path class="cls-2" d="M19.29,6.63c-.04-.09-.11-.16-.2-.21-.67-.36-1.64-.33-2.7.02-.27-1.32-.8-2.37-1.53-2.87-.08-.06-.18-.08-.28-.08-.76.04-1.61.59-2.38,1.51-.57-1.17-1.3-1.95-2.04-2.24-.09-.04-.19-.04-.29-.02-.78.22-1.57,1.04-2.16,2.34-.79-.97-1.66-1.56-2.45-1.6-.1,0-.2.02-.28.08-.73.5-1.27,1.54-1.53,2.87-1.07-.35-2.03-.38-2.71-.02-.09.05-.16.12-.2.21-.64,1.42-.25,4.69,2.61,7.52,2.04,2.02,4.35,2.97,5.97,2.97.27,0,.51-.03.73-.08,0,0,.01,0,.02,0,.04,0,.07.01.11.01.01,0,.02,0,.04,0,.21.04.43.06.67.06,1.62,0,3.93-.95,5.97-2.97,2.86-2.83,3.25-6.1,2.61-7.52ZM14.47,4.41c.5.43.88,1.29,1.07,2.36-.8.37-1.63.89-2.43,1.55-.1-.88-.28-1.67-.52-2.36.62-.85,1.32-1.43,1.88-1.54ZM9.98,3.67c1.15.6,2.33,2.91,2.33,6.22s-1.14,5.52-2.11,6.11c-.07,0-.14,0-.21.04-.02,0-.05.01-.07.02-.02,0-.04,0-.06-.02-1.09-.55-2.17-2.91-2.17-6.16,0-3.48,1.28-5.77,2.29-6.22ZM5.37,4.41c.59.12,1.33.73,1.97,1.65-.22.7-.39,1.48-.48,2.36-.84-.71-1.72-1.27-2.56-1.66.19-1.07.57-1.93,1.07-2.36ZM1.31,7.15c.9-.32,3.04.16,5.38,2.32.03.03.07.02.11.04,0,.13-.02.25-.02.38,0,2.66.72,5.02,1.8,6.26-1.29-.18-3.09-.98-4.79-2.65C1.48,11.21.88,8.42,1.31,7.15ZM16.04,13.5c-1.63,1.61-3.34,2.41-4.62,2.63,1.07-1.25,1.79-3.6,1.79-6.24,0-.16-.02-.3-.02-.45,2.33-2.13,4.45-2.61,5.34-2.29.43,1.27-.16,4.06-2.48,6.35Z"/>
  </g>
</svg>