<?xml version="1.0" encoding="UTF-8"?>
<svg id="Layer_1" data-name="Layer 1" xmlns="http://www.w3.org/2000/svg" version="1.1" viewBox="0 0 19.84 19.84">
  <defs>
    <style>
      .cls-1 {
        fill: none;
      }

      .cls-1, .cls-2 {
        stroke-width: 0px;
      }

      .cls-2 {
        fill: #9e744f;
      }
    </style>
  </defs>
  <path class="cls-1" d="M10.39,14.14c0,.13,0,.24,0,.35.68-.1,1.87-.3,2.59-.61,1.47-.63,2.06-2.27,2.27-3.09-.18-.01-.41-.02-.67-.02-1.03,0-2.54.16-3.58.98-.39.3-.58,1.39-.62,2.39Z"/>
  <path class="cls-1" d="M10.08,15.49c-.05,0-.1.01-.11.01-.02,0-.03,0-.05,0,0,0,0,0,0,0,0,0,0,0,0,0s0,0,0,0c0,0,0,0,0,0-.02,0-.03,0-.05,0,0,0-.05,0-.11-.01.06.09.11.21.16.31.05-.11.1-.22.16-.31Z"/>
  <path class="cls-1" d="M10.4,10.2c0,.08,0,.15,0,.23.65-.09,1.74-.28,2.44-.58,1.44-.61,2-2.24,2.2-3.05-.19-.01-.43-.03-.69-.03-.97,0-2.34.16-3.33.94-.4.31-.58,1.47-.62,2.49Z"/>
  <path class="cls-1" d="M9.86,7.34c.72-.63,1.65-1.6,1.75-2.2.25-1.55-1.1-3.1-1.74-3.73-.6.64-1.86,2.18-1.67,3.74.07.61.96,1.57,1.66,2.18Z"/>
  <path class="cls-1" d="M10.07,11.42c-.05,0-.09.01-.1.01-.01,0-.03,0-.04,0,0,0,0,0,0,0,0,0,0,0,0,0s0,0,0,0c0,0,0,0,0,0-.01,0-.03,0-.04,0,0,0-.05,0-.1-.01.06.09.1.2.15.3.05-.1.09-.21.15-.3Z"/>
  <path class="cls-1" d="M7,9.85h0c.7.3,1.79.49,2.44.58,0-.07,0-.14,0-.22-.04-1.02-.22-2.18-.62-2.5-1.26-.99-3.14-.98-4.02-.91.2.81.76,2.44,2.2,3.05Z"/>
  <path class="cls-1" d="M9.44,18.33c-.04-1.02-.22-2.18-.62-2.5-1.29-1.02-3.51-.98-4.49-.9.2.81.76,2.43,2.19,3.05h0c.74.31,2.15.5,2.91.59,0-.08,0-.15,0-.23Z"/>
  <path class="cls-1" d="M11.02,15.83c-.4.31-.58,1.48-.62,2.5,0,.09,0,.16,0,.23.76-.09,2.18-.28,2.91-.59,1.44-.61,2-2.23,2.19-3.04-.23-.02-.53-.03-.88-.03-1.1,0-2.63.16-3.61.94Z"/>
  <path class="cls-1" d="M6.85,13.88c.72.31,1.91.51,2.59.61,0-.11,0-.22,0-.35-.04-.99-.23-2.08-.62-2.39-1.31-1.02-3.32-1.02-4.25-.96.21.82.8,2.46,2.27,3.09Z"/>
  <path class="cls-2" d="M16.14,14.04c-.06,0-.71-.1-1.58-.09,1.43-1.35,1.73-3.4,1.75-3.5.03-.26-.14-.49-.4-.53-.06,0-.63-.09-1.43-.08,1.31-1.33,1.58-3.28,1.59-3.39,0,0,0-.02,0-.03,0,0,0-.02,0-.03v-2.91c0-.26-.21-.47-.47-.47s-.47.21-.47.47v2.38c-.65-.05-1.78-.07-2.92.25.16-.27.29-.55.33-.81.41-2.53-2.27-4.8-2.38-4.9-.18-.15-.44-.15-.62,0-.1.09-2.59,2.34-2.28,4.87.03.27.15.54.29.81-1.11-.29-2.2-.28-2.84-.23v-2.38c0-.26-.21-.47-.47-.47s-.47.21-.47.47v2.91s0,.02,0,.03c0,.01,0,.02,0,.03.01.1.28,2.05,1.59,3.39-.8,0-1.37.07-1.43.08-.25.04-.43.27-.4.53.01.11.32,2.16,1.74,3.5-.87,0-1.52.09-1.58.09-.25.04-.43.27-.4.52.02.13.41,3.24,2.86,4.28,1.17.5,3.62.71,3.73.72.01,0,.02,0,.04,0,0,0,0,0,0,0,0,0,0,0,0,0s0,0,0,0c0,0,0,0,0,0,.01,0,.02,0,.04,0,.1,0,2.55-.22,3.73-.72,2.45-1.04,2.84-4.15,2.86-4.28.03-.25-.15-.49-.4-.52ZM9.87,11.44s.03,0,.04,0c0,0,0,0,0,0,0,0,0,0,0,0s0,0,0,0c0,0,0,0,0,0,.01,0,.03,0,.04,0,0,0,.05,0,.1-.01-.06.09-.1.2-.15.3-.05-.1-.09-.21-.15-.3.05,0,.09.01.1.01ZM9.87,15.5s.03,0,.05,0c0,0,0,0,0,0,0,0,0,0,0,0s0,0,0,0c0,0,0,0,0,0,.01,0,.03,0,.05,0,0,0,.05,0,.11-.01-.06.09-.11.21-.16.31-.05-.11-.1-.22-.16-.31.06,0,.1.01.11.01ZM15.27,10.8c-.21.82-.8,2.46-2.27,3.09-.72.31-1.91.51-2.59.61,0-.11,0-.22,0-.35.04-.99.23-2.08.62-2.39,1.04-.81,2.55-.98,3.58-.98.26,0,.48,0,.67.02ZM15.04,6.8c-.2.81-.76,2.44-2.2,3.05-.7.3-1.79.49-2.44.58,0-.07,0-.14,0-.23.04-1.02.22-2.18.62-2.49.99-.77,2.36-.94,3.33-.94.27,0,.5.01.69.03ZM9.87,1.41c.64.63,1.99,2.18,1.74,3.73-.1.6-1.03,1.58-1.75,2.2-.7-.61-1.58-1.57-1.66-2.18-.19-1.57,1.07-3.11,1.67-3.74ZM4.8,6.8c.88-.07,2.76-.08,4.02.91.4.31.58,1.47.62,2.5,0,.08,0,.15,0,.22-.65-.09-1.74-.28-2.44-.58h0c-1.44-.61-2-2.24-2.2-3.05ZM4.58,10.8c.93-.06,2.94-.06,4.25.96.39.31.58,1.39.62,2.39,0,.13,0,.24,0,.35-.69-.1-1.87-.3-2.59-.61-1.47-.63-2.06-2.27-2.27-3.09ZM6.53,17.97c-1.44-.61-2-2.23-2.19-3.05.98-.07,3.2-.11,4.49.9.4.31.58,1.48.62,2.5,0,.09,0,.16,0,.23-.76-.09-2.18-.28-2.91-.59h0ZM13.31,17.97c-.74.31-2.15.5-2.91.59,0-.08,0-.15,0-.23.04-1.02.22-2.19.62-2.5.98-.77,2.51-.94,3.61-.94.34,0,.65.01.88.03-.2.81-.76,2.43-2.19,3.04Z"/>
</svg>