<?xml version="1.0" encoding="UTF-8"?>
<svg id="Layer_1" data-name="Layer 1" xmlns="http://www.w3.org/2000/svg" version="1.1" viewBox="0 0 19.84 19.84">
  <defs>
    <style>
      .cls-1 {
        fill: #54b848;
        stroke-width: 0px;
      }
    </style>
  </defs>
  <path class="cls-1" d="M9.61,5.69c0,.24-.08.46-.24.64-.16.17-.38.27-.62.28-.24,0-.46-.08-.64-.25-.17-.16-.27-.38-.28-.62,0-.24.08-.46.25-.64.16-.17.38-.27.62-.28.24,0,.46.08.64.24.17.16.27.39.28.62ZM8.68,3.79c-.51.01-.99.23-1.35.6-.35.37-.54.86-.53,1.38.01.51.23.99.6,1.35.37.36.86.54,1.38.53.51-.01.99-.23,1.35-.6.35-.37.54-.86.53-1.38s-.23-.99-.6-1.35c-.37-.35-.86-.54-1.38-.53Z"/>
  <path class="cls-1" d="M17.88,9.44c0,.24-.08.46-.24.64-.16.17-.38.27-.62.28-.24,0-.46-.08-.64-.25-.17-.16-.27-.38-.28-.62,0-.24.08-.46.25-.64.16-.17.38-.27.62-.28.24,0,.46.08.64.24.17.16.27.39.28.62ZM16.94,7.53c-.51.01-.99.23-1.35.6-.35.37-.54.86-.53,1.38.01.51.23.99.6,1.35.37.36.86.54,1.38.53.51-.01.99-.23,1.35-.6.35-.37.54-.86.53-1.38s-.23-.99-.6-1.35c-.37-.35-.86-.54-1.38-.53Z"/>
  <path class="cls-1" d="M11.94,3.1c-.02-.96.74-1.75,1.69-1.78.46-.01.9.16,1.24.48.34.32.53.75.54,1.21.01.46-.16.9-.48,1.24-.32.34-.75.53-1.21.54-.96.02-1.75-.74-1.78-1.69ZM13.74,5.83c.74-.02,1.43-.32,1.94-.86.51-.54.78-1.24.76-1.98-.02-.74-.32-1.43-.86-1.94-.54-.51-1.24-.78-1.98-.76-1.53.04-2.74,1.31-2.7,2.84.04,1.53,1.31,2.74,2.84,2.7Z"/>
  <path class="cls-1" d="M12.58,11.76c0,.09-.07.16-.15.16-.06,0-.09-.03-.11-.04-.02-.02-.05-.06-.05-.11,0-.05.02-.09.04-.11.02-.02.05-.05.11-.05.05,0,.09.02.11.04.02.02.05.06.05.11ZM12.4,10.57c-.32,0-.62.14-.84.37-.22.23-.34.53-.33.85,0,.32.14.61.37.83.23.22.53.34.85.33.66-.02,1.18-.57,1.17-1.22,0-.32-.14-.62-.37-.84-.23-.22-.53-.34-.85-.33Z"/>
  <path class="cls-1" d="M13.03,16.09c.01.43-.33.79-.76.8-.43.01-.79-.33-.8-.76,0-.21.07-.4.21-.55.14-.15.34-.24.54-.24.43-.01.79.33.8.76ZM12.21,14.3c-.49.01-.94.21-1.27.56-.33.35-.51.81-.5,1.3.03,1,.86,1.79,1.86,1.77,1-.03,1.79-.86,1.77-1.86-.03-1-.86-1.79-1.86-1.77Z"/>
  <path class="cls-1" d="M7.65,12.62c0,.37-.28.67-.65.68-.37,0-.67-.28-.68-.65s.28-.67.65-.68c.37,0,.67.28.68.65ZM6.94,10.94c-.94.02-1.68.81-1.66,1.74.02.94.81,1.68,1.74,1.66.94-.02,1.68-.81,1.66-1.75-.02-.94-.81-1.68-1.75-1.66Z"/>
  <path class="cls-1" d="M6.31,17.9c0,.16-.06.32-.17.43-.11.12-.26.18-.43.19-.34,0-.62-.26-.62-.59,0-.16.06-.32.17-.43.11-.12.26-.18.43-.19.16,0,.32.06.43.17.12.11.19.26.19.43ZM5.66,16.27c-.44.01-.85.19-1.15.51-.3.32-.46.74-.45,1.18.02.91.78,1.63,1.69,1.6.44-.01.85-.19,1.15-.51.3-.32.46-.74.45-1.18-.01-.44-.19-.85-.51-1.15s-.74-.46-1.18-.45Z"/>
  <path class="cls-1" d="M6.2,8.71c0,.15-.11.27-.26.28-.15,0-.27-.11-.28-.26,0-.15.11-.27.26-.28.15,0,.27.11.28.26ZM5.89,7.41c-.72.02-1.29.62-1.27,1.34.02.72.62,1.29,1.34,1.27.72-.02,1.29-.62,1.27-1.34,0-.35-.15-.67-.41-.91-.25-.24-.59-.37-.94-.36Z"/>
  <path class="cls-1" d="M2.38,11.68c0,.08-.04.13-.06.15-.02.02-.07.06-.15.07-.08,0-.13-.04-.15-.06-.02-.02-.06-.07-.07-.15,0-.08.04-.13.06-.15.02-.02.07-.06.15-.07.08,0,.13.04.15.06.02.02.06.07.07.15ZM2.14,10.43c-.33,0-.65.15-.88.39-.23.24-.35.56-.34.89,0,.33.15.64.39.87.24.23.56.35.89.34.33,0,.64-.15.88-.39.23-.24.35-.56.34-.89,0-.33-.15-.65-.39-.88-.24-.23-.56-.35-.89-.34Z"/>
  <path class="cls-1" d="M16.25,14.04c0,.18-.14.33-.32.34-.09,0-.17-.03-.23-.09-.06-.06-.1-.14-.1-.23,0-.18.14-.33.32-.33.09,0,.17.03.23.09.06.06.1.14.1.23ZM15.89,12.68c-.75.02-1.35.65-1.33,1.4,0,.36.16.7.42.95.26.25.61.38.97.38.75-.02,1.35-.65,1.33-1.4,0-.36-.16-.7-.42-.95-.26-.25-.61-.38-.97-.38Z"/>
</svg>