<?xml version="1.0" encoding="UTF-8"?>
<svg id="Layer_1" data-name="Layer 1" xmlns="http://www.w3.org/2000/svg" version="1.1" viewBox="0 0 19.84 19.84">
  <defs>
    <style>
      .cls-1 {
        fill: none;
      }

      .cls-1, .cls-2 {
        stroke-width: 0px;
      }

      .cls-2 {
        fill: #9e744f;
      }
    </style>
  </defs>
  <path class="cls-1" d="M7.85,11.97c-.03.28-.06.55-.07.83,0,1.23.26,3.03.47,3.64.49,1.37,1.63,2.09,2.71,1.71.91-.32,1.37-1.39,1.09-2.54-.03-.14-.13-.38-.23-.64-.35-.88-.8-2-.61-3h-3.37Z"/>
  <path class="cls-1" d="M9.92,1.58c-2.13,0-4,1.36-4.92,2.16-1.29,1.13-2,2.62-2,4.19,0,.71.32,1.39.91,1.9.61.54,1.43.83,2.31.83h7.41c.87,0,1.69-.3,2.31-.83.59-.51.91-1.19.91-1.9,0-3.39-3.23-6.36-6.92-6.36Z"/>
  <path class="cls-2" d="M9.92.28c-1.9,0-3.95.88-5.78,2.48-1.57,1.38-2.44,3.21-2.44,5.17,0,1.09.48,2.11,1.35,2.88.85.74,1.97,1.15,3.16,1.15h.34c-.03.28-.06.55-.06.83,0,1.3.26,3.28.55,4.08.6,1.67,1.91,2.68,3.32,2.68.34,0,.69-.06,1.04-.18,1.54-.55,2.35-2.26,1.92-4.06-.06-.24-.17-.52-.31-.86-.27-.66-.71-1.77-.5-2.39.01-.03,0-.06.01-.1h1.09c1.19,0,2.31-.41,3.16-1.15.87-.76,1.35-1.79,1.35-2.88C18.14,3.79,14.37.28,9.92.28ZM11.84,14.97c.1.26.2.5.23.64.27,1.15-.19,2.22-1.09,2.54-1.08.38-2.22-.34-2.71-1.71-.22-.61-.48-2.41-.47-3.64,0-.28.03-.56.07-.83h3.37c-.18,1,.26,2.12.61,3ZM13.62,10.67h-7.41c-.87,0-1.69-.3-2.31-.83-.59-.51-.91-1.19-.91-1.9,0-1.58.71-3.07,2-4.19.92-.81,2.79-2.16,4.92-2.16,3.69,0,6.92,2.97,6.92,6.36,0,.71-.32,1.39-.91,1.9-.61.54-1.43.83-2.31.83Z"/>
</svg>