<?xml version="1.0" encoding="UTF-8"?>
<svg id="Layer_1" data-name="Layer 1" xmlns="http://www.w3.org/2000/svg" version="1.1" viewBox="0 0 19.84 19.84">
  <defs>
    <style>
      .cls-1 {
        fill: #71aa43;
      }

      .cls-1, .cls-2 {
        stroke-width: 0px;
      }

      .cls-2 {
        fill: #fff;
      }
    </style>
  </defs>
  <path class="cls-1" d="M17.06,12.46c.44-.54.61-1.31.56-1.96-.03-.48-.18-.95-.45-1.35-.02-.03-.04-.06-.07-.09.75-1.32.14-3.54-1.26-4.19.11-.56.04-1.15-.21-1.67-.39-.81-1.14-1.29-2-1.51-.39-1.04-1.71-1.45-2.81-1.4-.3.01-.6.06-.89.14-1.18-.32-2.83-.12-3.52.92-.07.11-.13.22-.18.34-.86.22-1.61.7-2,1.51-.26.52-.32,1.12-.21,1.67-1.4.65-2.02,2.87-1.26,4.19-.33.41-.5.92-.53,1.44-.04.65.12,1.42.56,1.96-.64,1.16-.43,2.32.47,3.33-.03.17-.03.34,0,.5.08.66.53,1.23,1.1,1.58.45.28.96.42,1.48.41.42.83,1.45,1.27,2.41,1.28.56.01,1.12-.12,1.59-.41.03-.02.07-.04.09-.06.48.33,1.09.48,1.69.47.91-.01,1.91-.41,2.37-1.21.01-.02.03-.05.04-.08.53.01,1.04-.13,1.49-.41.57-.35,1.02-.92,1.1-1.58.02-.17.02-.34,0-.5.91-1.01,1.12-2.17.47-3.33ZM16.22,12.23c.79,1.07.58,2.02-.36,2.93l-.15.14.07.18c.07.14.09.3.07.45-.05.4-.36.75-.71.96-.4.24-.91.34-1.37.22l-.34-.09-.04.33c-.11.74-1.05,1.09-1.75,1.1-.39,0-.79-.08-1.12-.28-.14-.08-.26-.18-.36-.3l-.24-.29-.24.29c-.35.41-.93.58-1.48.57-.59-.01-1.33-.25-1.64-.76-.06-.1-.1-.22-.12-.34l-.04-.33-.34.09c-.47.12-.97.02-1.37-.22-.35-.21-.66-.56-.71-.96-.02-.16,0-.31.07-.45l.07-.18-.15-.14c-.94-.9-1.15-1.86-.36-2.93l.19-.25-.27-.17c-.48-.3-.64-1.08-.61-1.58.02-.32.12-.65.31-.92.08-.12.18-.21.3-.3l.28-.21-.26-.23c-.91-.84-.26-3.31,1.07-3.39l.45-.03-.19-.39c-.25-.49-.25-1.09,0-1.58.34-.67,1.04-1,1.78-1.12l.23-.03.03-.22c.1-.85,1.29-1.09,2.03-1.05.28.01.58.06.85.15l.1.03.1-.03c.28-.09.57-.14.85-.15.63-.03,1.52.13,1.88.66.08.12.13.25.15.39l.03.22.23.03c.75.12,1.45.45,1.78,1.12.24.5.23,1.1,0,1.58l-.19.39.45.03c1.34.08,1.99,2.55,1.07,3.39l-.26.23.28.21c.4.29.58.76.61,1.23.04.5-.12,1.29-.61,1.58l-.27.17.19.25Z"/>
  <path class="cls-2" d="M16.91,10.23c-.03-.46-.2-.94-.61-1.23l-.28-.21.26-.23c.91-.84.26-3.31-1.07-3.39l-.45-.03.19-.39c.24-.49.25-1.09,0-1.58-.34-.67-1.04-1-1.78-1.12l-.23-.03-.03-.22c-.01-.14-.07-.27-.15-.39-.37-.53-1.26-.69-1.88-.66-.28.01-.58.06-.85.15l-.1.03-.1-.03c-.28-.09-.57-.14-.85-.15-.75-.03-1.93.21-2.03,1.05l-.03.22-.23.03c-.75.12-1.45.45-1.78,1.12-.24.5-.24,1.1,0,1.58l.19.39-.45.03c-1.34.08-1.99,2.55-1.07,3.39l.26.23-.28.21c-.12.09-.22.19-.3.3-.19.27-.28.6-.31.92-.04.5.12,1.29.61,1.58l.27.17-.19.25c-.79,1.07-.58,2.02.36,2.93l.15.14-.07.18c-.07.14-.09.3-.07.45.05.4.36.75.71.96.4.24.91.34,1.37.22l.34-.09.04.33c.01.12.06.23.12.34.31.52,1.04.75,1.64.76.55,0,1.13-.16,1.48-.57l.24-.29.24.29c.1.12.22.21.36.3.33.2.73.28,1.12.28.7-.01,1.64-.36,1.75-1.1l.04-.33.34.09c.47.12.97.02,1.37-.22.35-.21.66-.56.71-.96.02-.16,0-.31-.07-.45l-.07-.18.15-.14c.94-.9,1.15-1.86.36-2.93l-.19-.25.27-.17c.48-.3.64-1.08.61-1.58ZM14.57,6.89c-.21.12-.48.25-.85.35-.64.18-1.3.14-1.86-.07.35-.46.88-.83,1.53-1.01.33-.09.59-.13.83-.14.94-.05,1.12.43.36.87ZM12.23,3.34c.06-.04.12-.07.18-.1.96-.58,1.4-.19.76.45-.11.11-.24.22-.41.34-.41.28-.88.4-1.33.39.12-.41.4-.79.81-1.07ZM10.79,2.15s.02-.09.04-.13c.33-.62.7-.44.37.17,0,0-.01.01-.02.02-.1.19-.26.33-.44.41-.03-.15-.01-.31.05-.47ZM9.01,2.01s.03.09.04.14c.05.16.08.32.04.47-.18-.08-.33-.22-.44-.4,0-.01-.02-.02-.02-.03-.33-.61.04-.79.37-.17ZM7.44,3.24c.06.04.11.06.18.1.41.28.69.66.81,1.07-.45.01-.92-.11-1.33-.39-.17-.12-.31-.23-.41-.34-.65-.64-.21-1.02.76-.45ZM5.62,6.03c.24.01.5.05.83.14.64.18,1.18.54,1.53,1.01-.56.21-1.22.25-1.86.07-.37-.1-.63-.22-.85-.35-.76-.44-.58-.92.36-.87ZM5.09,9.43c.23-.11.58-.2,1.06-.23.6-.03,1.16.13,1.61.42-.41.34-.95.56-1.55.59-.51.03-.87-.03-1.11-.13-.41-.17-.42-.45,0-.65ZM5.74,13.39c-.56.03-.74-.25-.39-.62.17-.18.46-.37.9-.55.55-.23,1.13-.27,1.66-.14-.25.45-.67.83-1.22,1.07-.39.16-.7.23-.95.25ZM7.47,15.13c-.85.36-1.24.13-.98-.21.11-.14.32-.3.67-.45.39-.16.8-.19,1.18-.1-.18.32-.47.57-.84.74-.01,0-.02.01-.03.02ZM8.95,16.04c-.1.19-.25.38-.46.51-.81.49-1.1.06-.3-.43.08-.05.16-.07.24-.1.19-.07.39-.11.59-.09-.01.04-.05.08-.07.12ZM10.25,15.77c-.11.32-.21.65-.33.95-.12-.29-.22-.62-.33-.94-.62-1.82-1-4-1-6.38,0-2.71.48-5.19,1.27-7.13.02-.06.04-.12.06-.18.02.05.04.12.06.18.79,1.95,1.27,4.43,1.27,7.13,0,2.37-.38,4.55-1,6.37ZM11.36,16.55c-.22-.13-.37-.32-.47-.52-.02-.04-.05-.07-.06-.11.19-.02.39.02.57.09.08.03.17.05.25.1.81.49.51.92-.29.43ZM12.37,15.13s-.02-.01-.03-.02c-.37-.17-.66-.43-.84-.74.37-.08.79-.06,1.18.1.35.15.56.31.67.45.27.34-.12.56-.98.21ZM14.1,13.39c-.25-.02-.56-.08-.95-.25-.55-.23-.97-.62-1.22-1.07.53-.12,1.11-.08,1.66.14.43.18.73.38.9.55.35.36.18.65-.39.62ZM14.74,10.08c-.24.1-.6.15-1.11.13-.6-.03-1.14-.25-1.55-.59.45-.29,1.01-.45,1.61-.42.47.03.82.11,1.05.22.43.2.41.49,0,.66Z"/>
  <path class="cls-1" d="M9.98,2.27c-.02-.06-.04-.12-.06-.18-.02.05-.04.12-.06.18-.79,1.95-1.27,4.43-1.27,7.13,0,2.38.38,4.56,1,6.38.11.32.21.64.33.94.12-.29.23-.63.33-.95.62-1.82,1-4,1-6.37,0-2.71-.48-5.19-1.27-7.13ZM9.92,15.76c-.61-1.6-.97-3.66-.97-5.92s.37-4.32.97-5.92c.61,1.6.97,3.66.97,5.92s-.37,4.33-.97,5.92Z"/>
  <path class="cls-1" d="M7.76,9.62c-.45-.29-1.01-.45-1.61-.42-.48.03-.83.11-1.06.23-.41.2-.4.49,0,.65.24.1.6.15,1.11.13.6-.03,1.14-.25,1.55-.59Z"/>
  <path class="cls-1" d="M7.9,12.08c-.53-.12-1.11-.08-1.66.14-.43.18-.73.38-.9.55-.35.36-.18.65.39.62.25-.02.56-.08.95-.25.55-.23.97-.62,1.22-1.07Z"/>
  <path class="cls-1" d="M8.34,14.37c-.37-.08-.79-.06-1.18.1-.35.15-.56.31-.67.45-.27.34.12.56.98.21.01,0,.02-.01.03-.02.37-.17.66-.43.84-.74Z"/>
  <path class="cls-1" d="M7.09,4.02c.41.28.88.4,1.33.39-.12-.41-.4-.79-.81-1.07-.06-.04-.12-.07-.18-.1-.96-.58-1.4-.19-.76.45.11.11.24.22.41.34Z"/>
  <path class="cls-1" d="M11.86,7.17c.56.21,1.22.25,1.86.07.37-.1.63-.22.85-.35.76-.44.58-.92-.36-.87-.24.01-.5.05-.83.14-.64.18-1.18.54-1.53,1.01Z"/>
  <path class="cls-1" d="M13.16,3.68c.65-.64.21-1.02-.76-.45-.06.04-.11.06-.18.1-.41.28-.69.66-.81,1.07.45.01.92-.11,1.33-.39.17-.12.31-.23.41-.34Z"/>
  <path class="cls-1" d="M5.27,6.89c.21.12.48.25.85.35.64.18,1.3.14,1.86-.07-.35-.46-.88-.83-1.53-1.01-.33-.09-.59-.13-.83-.14-.94-.05-1.12.43-.36.87Z"/>
  <path class="cls-1" d="M12.67,14.47c-.39-.16-.8-.19-1.18-.1.18.32.47.57.84.74.01,0,.02.01.03.02.85.36,1.24.13.98-.21-.11-.14-.32-.3-.67-.45Z"/>
  <path class="cls-1" d="M13.59,12.22c-.55-.23-1.13-.27-1.66-.14.25.45.67.83,1.22,1.07.39.16.7.23.95.25.56.03.74-.25.39-.62-.17-.18-.46-.37-.9-.55Z"/>
  <path class="cls-1" d="M14.74,9.42c-.23-.11-.57-.19-1.05-.22-.6-.03-1.16.13-1.61.42.41.34.95.56,1.55.59.51.03.87-.03,1.11-.13.41-.17.42-.46,0-.66Z"/>
  <path class="cls-1" d="M11.19,2.21s.01-.01.02-.02c.33-.61-.04-.79-.37-.17-.02.04-.03.09-.04.13-.06.16-.08.32-.05.47.18-.08.34-.22.44-.41Z"/>
  <path class="cls-1" d="M8.66,2.22c.1.18.26.33.44.4.03-.15.01-.31-.04-.47-.02-.05-.02-.09-.04-.14-.33-.62-.7-.44-.37.17,0,.01.02.02.02.03Z"/>
  <path class="cls-1" d="M8.18,16.12c-.8.49-.51.92.3.43.22-.13.37-.31.46-.51.02-.04.05-.08.07-.12-.19-.02-.39.02-.59.09-.08.03-.17.05-.24.1Z"/>
  <path class="cls-1" d="M11.65,16.12c-.08-.05-.17-.07-.25-.1-.19-.07-.38-.11-.57-.09.01.04.04.07.06.11.1.2.25.39.47.52.8.49,1.1.06.29-.43Z"/>
  <path class="cls-2" d="M9.92,3.92c-.61,1.6-.97,3.66-.97,5.92s.37,4.33.97,5.92c.61-1.6.97-3.66.97-5.92s-.37-4.32-.97-5.92Z"/>
</svg>