<?xml version="1.0" encoding="UTF-8"?>
<svg id="Layer_1" data-name="Layer 1" xmlns="http://www.w3.org/2000/svg" version="1.1" viewBox="0 0 19.8 19.8">
    <defs>
        <style>
            .cls-1 {
            fill: #000;
            stroke-width: 0px;
            }
        </style>
    </defs>
    <path class="cls-1"
          d="M14.4,9.8c0,.2,0,.4-.2.6-.2.2-.4.3-.6.3s-.4,0-.6-.2c-.2-.2-.3-.4-.3-.6s0-.4.2-.6c.2-.2.4-.3.6-.3s.4,0,.6.2c.2.2.3.4.3.6h0ZM13.5,8c-.5,0-1,.2-1.3.6-.3.4-.5.8-.5,1.3,0,.5.2,1,.6,1.3.4.3.8.5,1.3.5s1-.2,1.3-.6c.3-.4.5-.8.5-1.3s-.2-1-.6-1.3c-.4-.3-.8-.5-1.3-.5h0Z"/>
    <path class="cls-1"
          d="M9.1,10.1c0,.2,0,.4-.2.6-.2.2-.4.3-.6.3s-.4,0-.6-.2c-.2-.2-.3-.4-.3-.6s0-.4.2-.6.4-.3.6-.3.4,0,.6.2c.2.2.3.4.3.6h0ZM8.2,8.3c-.5,0-1,.2-1.3.6-.3.4-.5.8-.5,1.3,0,.5.2,1,.6,1.3.4.3.8.5,1.3.5.5,0,1-.2,1.3-.6.3-.4.5-.8.5-1.3s-.2-1-.6-1.3c-.4-.3-.8-.5-1.3-.5h0Z"/>
    <path class="cls-1"
          d="M18.1,5.8c0,.2,0,.4-.2.6-.2.2-.4.3-.6.3s-.4,0-.6-.2c-.2-.2-.3-.4-.3-.6s0-.4.2-.6c.2-.2.4-.3.6-.3s.4,0,.6.2c.2.2.3.4.3.6h0ZM17.2,4c-.5,0-1,.2-1.3.6-.3.4-.5.8-.5,1.3s.2,1,.6,1.3c.4.3.8.5,1.3.5.5,0,1-.2,1.3-.6.3-.4.5-.8.5-1.3s-.2-1-.6-1.3c-.4-.3-.8-.5-1.3-.5h0Z"/>
    <path class="cls-1"
          d="M11.6,4.8c0,.2,0,.4-.2.6-.2.2-.4.3-.6.3s-.4,0-.6-.2c-.2-.2-.3-.4-.3-.6s0-.4.2-.6c.2-.2.4-.3.6-.3s.4,0,.6.2c.2.2.3.4.3.6h0ZM10.7,3c-.5,0-1,.2-1.3.6-.3.4-.5.8-.5,1.3s.2,1,.6,1.3c.4.3.8.5,1.3.5.5,0,1-.2,1.3-.6.3-.4.5-.8.5-1.3s-.2-1-.6-1.3c-.4-.3-.8-.5-1.3-.5h0Z"/>
    <path class="cls-1"
          d="M4.8,7c0,.2,0,.4-.2.6s-.4.3-.6.3-.4,0-.6-.2-.3-.4-.3-.6,0-.4.2-.6.4-.3.6-.3.4,0,.6.2.3.4.3.6h0ZM3.9,5.2c-.5,0-1,.2-1.3.6-.3.4-.5.8-.5,1.3,0,.5.2,1,.6,1.3.4.3.8.5,1.3.5.5,0,1-.2,1.3-.6.3-.4.5-.8.5-1.3s-.2-1-.6-1.3c-.4-.3-.8-.5-1.3-.5h0Z"/>
    <path class="cls-1"
          d="M9.7,16.2c0,.4-.3.8-.7.8-.4,0-.8-.3-.8-.7,0-.2,0-.4.2-.5.1-.1.3-.2.5-.2.4,0,.8.3.8.7h0ZM8.9,14.5c-.5,0-.9.2-1.2.5-.3.3-.5.8-.5,1.2,0,1,.8,1.7,1.8,1.7s1.7-.8,1.7-1.8c0-1-.8-1.7-1.8-1.7h0Z"/>
    <path class="cls-1"
          d="M4.6,12.9c0,.4-.3.6-.6.6s-.6-.3-.6-.6.3-.6.6-.6.6.3.6.6ZM3.9,11.3c-.9,0-1.6.8-1.6,1.7,0,.9.8,1.6,1.7,1.6.9,0,1.6-.8,1.6-1.7,0-.9-.8-1.6-1.7-1.6Z"/>
</svg>