<?xml version="1.0" encoding="UTF-8"?>
<svg id="Layer_1" data-name="Layer 1" xmlns="http://www.w3.org/2000/svg" version="1.1" viewBox="0 0 19.84 19.84">
  <defs>
    <style>
      .cls-1 {
        fill: #000;
        stroke-width: 0px;
      }
    </style>
  </defs>
  <path class="cls-1" d="M14.24,9.19c0,.26-.09.5-.27.69-.18.19-.42.29-.68.3-.26,0-.5-.09-.69-.27-.19-.18-.29-.42-.3-.68,0-.26.09-.5.27-.69.18-.19.42-.29.68-.3.26,0,.5.09.69.27.19.18.29.42.3.68ZM13.22,7.12c-.56.01-1.08.24-1.47.65-.39.41-.59.94-.58,1.5.01.56.24,1.08.65,1.47.41.39.94.59,1.5.58.56-.01,1.08-.24,1.47-.65.39-.41.59-.94.58-1.5s-.25-1.08-.65-1.47c-.41-.39-.94-.59-1.5-.58Z"/>
  <path class="cls-1" d="M8.24,9.45c0,.26-.09.5-.27.69-.18.19-.42.29-.68.3-.26,0-.5-.09-.69-.27-.19-.18-.29-.42-.3-.68,0-.26.09-.5.27-.69.18-.19.42-.29.68-.3.26,0,.5.09.69.27.19.18.29.42.3.68ZM7.22,7.38c-.56.01-1.08.24-1.47.65-.39.41-.59.94-.58,1.5.01.56.24,1.08.65,1.47.41.39.94.59,1.5.58.56-.01,1.08-.24,1.47-.65.39-.41.59-.94.58-1.5s-.25-1.08-.65-1.47c-.41-.39-.94-.59-1.5-.58Z"/>
  <path class="cls-1" d="M18.43,4.63c0,.26-.09.5-.27.69-.18.19-.42.29-.68.3-.26,0-.5-.09-.69-.27-.19-.18-.29-.42-.3-.68,0-.26.09-.5.27-.69.18-.19.42-.29.68-.3.26,0,.5.09.69.27.19.18.29.42.3.68ZM17.41,2.56c-.56.01-1.08.24-1.47.65-.39.41-.59.94-.58,1.5.01.56.24,1.08.65,1.47.41.39.94.59,1.5.58.56-.01,1.08-.24,1.47-.65.39-.41.59-.94.58-1.5s-.25-1.08-.65-1.47c-.41-.39-.94-.59-1.5-.58Z"/>
  <path class="cls-1" d="M11.06,3.49c0,.26-.09.5-.27.69-.18.19-.42.29-.68.3-.26,0-.5-.09-.69-.27-.19-.18-.29-.42-.3-.68,0-.26.09-.5.27-.69.18-.19.42-.29.68-.3.26,0,.5.09.69.27.19.18.29.42.3.68ZM10.04,1.42c-.56.01-1.08.24-1.47.65-.39.41-.59.94-.58,1.5.01.56.24,1.08.65,1.47.41.39.94.59,1.5.58.56-.01,1.08-.24,1.47-.65.39-.41.59-.94.58-1.5s-.25-1.08-.65-1.47c-.41-.39-.94-.59-1.5-.58Z"/>
  <path class="cls-1" d="M3.35,5.95c0,.26-.09.5-.27.69-.18.19-.42.29-.68.3-.26,0-.5-.09-.69-.27-.19-.18-.29-.42-.3-.68,0-.26.09-.5.27-.69.18-.19.42-.29.68-.3.26,0,.5.09.69.27.19.18.29.42.3.68ZM2.33,3.87c-.56.01-1.08.24-1.47.65-.39.41-.59.94-.58,1.5.01.56.24,1.08.65,1.47.41.39.94.59,1.5.58.56-.01,1.08-.24,1.47-.65.39-.41.59-.94.58-1.5s-.25-1.08-.65-1.47c-.41-.39-.94-.59-1.5-.58Z"/>
  <path class="cls-1" d="M8.96,16.43c.01.47-.36.86-.82.87-.47.01-.85-.36-.87-.82,0-.23.08-.44.23-.6.16-.16.37-.26.59-.26.47-.01.85.36.87.82ZM8.06,14.48c-.53.01-1.02.23-1.38.61-.36.38-.56.88-.54,1.41.03,1.09.93,1.95,2.02,1.92,1.09-.03,1.95-.93,1.92-2.02-.03-1.09-.93-1.95-2.02-1.92Z"/>
  <path class="cls-1" d="M3.1,12.65c0,.4-.31.73-.71.74-.4,0-.73-.31-.74-.7s.31-.73.7-.74c.4,0,.73.31.74.7ZM2.33,10.82c-1.02.03-1.83.88-1.8,1.9.03,1.02.88,1.83,1.9,1.81,1.02-.03,1.83-.88,1.81-1.9-.03-1.02-.88-1.83-1.9-1.8Z"/>
</svg>