<?xml version="1.0" encoding="UTF-8"?>
<svg id="Layer_1" data-name="Layer 1" xmlns="http://www.w3.org/2000/svg" version="1.1" viewBox="0 0 19.84 19.84">
  <defs>
    <style>
      .cls-1 {
        fill: #cca38f;
        stroke-width: 0px;
      }
    </style>
  </defs>
  <path class="cls-1" d="M9.93,17.25h-.02c-7.72-.32-8.07-5.79-8.08-6.37C1.16,4.82,6.81,3.12,6.87,3.1l.1-.02c.65-.07.87-.54.93-.71V.28h3.94v2.17c.04.49.6.63.66.64,5.77,1.72,5.57,7.16,5.57,7.22-.21,6.86-8.06,6.94-8.14,6.94ZM7.14,4.21c-.5.16-4.74,1.65-4.19,6.57v.04s0,.04,0,.04c0,.2.02,4.96,6.98,5.25.41,0,6.81-.15,6.99-5.84,0-.2.14-4.61-4.69-6.06-.51-.11-1.46-.6-1.55-1.71v-1.08h-1.66v1.15c-.03.06-.35,1.45-1.89,1.63Z"/>
  <path class="cls-1" d="M6.85,19.2l-.68-.91c.14-.13.6-.9.91-1.51l1.01.52c-.3.59-.87,1.62-1.24,1.89Z"/>
  <path class="cls-1" d="M12.57,19.09c-.57-.74-.96-1.8-.98-1.85l1.07-.4s.36.95.82,1.55l-.9.69Z"/>
  <path class="cls-1" d="M9.12,19.51l-.99-.57c.31-.53.45-1.41.48-1.7l1.13.11c0,.05-.13,1.3-.63,2.16Z"/>
  <path class="cls-1" d="M10.89,19.56c-.51-.69-.74-2.02-.76-2.17l1.12-.18c.08.46.29,1.33.55,1.68l-.92.67Z"/>
</svg>