<?xml version="1.0" encoding="UTF-8"?>
<svg id="Layer_1" data-name="Layer 1" xmlns="http://www.w3.org/2000/svg" version="1.1" viewBox="0 0 19.84 19.84">
  <defs>
    <style>
      .cls-1 {
        fill: #eb4924;
      }

      .cls-1, .cls-2 {
        stroke-width: 0px;
      }

      .cls-3 {
        fill: none;
        stroke: #000;
        stroke-width: .3px;
      }

      .cls-2 {
        fill: #fff;
      }
    </style>
  </defs>
  <g>
    <line class="cls-3" x1="3.98" y1="-51.13" x2="3.98" y2="-15.13"/>
    <line class="cls-3" x1="-50.02" y1="2.87" x2="-14.02" y2="2.87"/>
    <line class="cls-3" x1="-50.02" y1="16.97" x2="-14.02" y2="16.97"/>
    <line class="cls-3" x1="3.98" y1="70.97" x2="3.98" y2="34.97"/>
    <line class="cls-3" x1="20.37" y1="-51.13" x2="20.37" y2="-15.13"/>
    <line class="cls-3" x1="74.37" y1="2.87" x2="38.37" y2="2.87"/>
    <line class="cls-3" x1="74.37" y1="16.97" x2="38.37" y2="16.97"/>
    <line class="cls-3" x1="20.37" y1="70.97" x2="20.37" y2="34.97"/>
  </g>
  <g>
    <path class="cls-2" d="M18.23,3.06c.02-.36.03-.68.03-.97l-.93.95.9.03Z"/>
    <path class="cls-2" d="M16.39,3.98l-2.24,2.27,2.93.44c.58-.76.89-1.72,1.05-2.65l-1.73-.06Z"/>
    <path class="cls-2" d="M13.3,7.11l-.13.13c.16.14.32.28.42.47.11.19.19.39.24.6.8-.08,1.64-.3,2.36-.77l-2.89-.43Z"/>
    <path class="cls-2" d="M12.27,6.75l2-2.02.1-3.05c-.51.2-1,.48-1.4.89-1.03,1.04-1.36,2.7-1.45,4.02.3.06.57.12.75.17Z"/>
    <path class="cls-2" d="M15.36,1.41l-.07,2.3,2.37-2.4c-.61-.05-1.44-.06-2.3.1Z"/>
    <path class="cls-1" d="M17.67,7.53c2.02-2.33,1.54-6.47,1.51-6.65-.01-.11-.06-.2-.14-.28,0,0,0,0,0-.01-.01-.01-.03,0-.05-.02-.06-.05-.12-.09-.19-.11-.17-.04-4.25-.9-6.53,1.4-1.22,1.24-1.62,3.09-1.73,4.56-.35-.04-.73-.07-1.14-.09l-.02-1.28c0-.27-.19-.49-.5-.48-.27,0-.49.23-.48.5l.02,1.26c-1.02.05-1.97.24-2.56.36l-.14.03c-.69.14-1.27.61-1.57,1.25-.08.16-.13.34-.16.51-2.1,1.04-3.4,2.99-3.4,5.16,0,3.25,2.93,5.9,6.53,5.9h3.59c3.6,0,6.53-2.64,6.53-5.9,0-1.9-.78-3.53-2.14-4.59.85-.23,1.7-.63,2.38-1.32.05-.05.09-.1.13-.15.02-.02.04-.04.06-.07ZM7.12,18.58c-3.06,0-5.55-2.21-5.55-4.92,0-1.67.95-3.19,2.51-4.1.04.1.07.21.12.31.04.08.09.15.14.22.54.76,1.54,1.06,2.44.8.22.91.98,1.62,1.91,1.71.07,0,.14.01.21.01.54,0,1.07-.2,1.48-.57.34-.31.57-.71.67-1.15.9.26,1.89-.05,2.43-.8.15-.21.25-.45.31-.69,1.55.82,2.48,2.37,2.48,4.26,0,2.71-2.49,4.92-5.55,4.92h-3.59ZM6.06,7.67c.56-.12,1.45-.3,2.38-.34l.03,1.31c0,.27.22.48.49.48h0c.27,0,.49-.23.48-.5l-.02-1.29c1.19.05,2.14.25,2.62.37.31.08.56.26.7.49h0c.24.42.22.92-.06,1.32-.35.5-1.08.64-1.65.31l-.17-.1c-.15-.09-.34-.09-.49,0-.15.09-.25.25-.25.42v.27c0,.34-.14.67-.4.9-.26.23-.59.35-.93.31-.61-.06-1.09-.62-1.09-1.28v-.2c0-.17-.09-.34-.25-.42-.08-.04-.16-.07-.25-.07s-.17.02-.25.07l-.17.1c-.57.33-1.3.19-1.65-.31-.03-.04-.05-.08-.08-.12-.17-.3-.18-.67-.02-.99.17-.36.49-.62.88-.7l.14-.03ZM17.08,6.69l-2.93-.44,2.24-2.27,1.73.06c-.15.93-.47,1.89-1.05,2.65ZM18.23,3.06l-.9-.03.93-.95c0,.29,0,.62-.03.97ZM15.28,3.7l.07-2.3c.85-.16,1.69-.15,2.3-.1l-2.37,2.4ZM14.37,1.68l-.1,3.05-2,2.02c-.19-.05-.45-.11-.75-.17.09-1.32.42-2.98,1.45-4.02.4-.41.89-.69,1.4-.89ZM13.59,7.71c-.11-.18-.26-.33-.42-.47l.13-.13,2.89.43c-.72.47-1.56.68-2.36.77-.05-.21-.13-.41-.24-.6Z"/>
    <path class="cls-2" d="M16.26,13.66c0-1.89-.92-3.44-2.48-4.26-.07.24-.16.48-.31.69-.54.76-1.53,1.06-2.43.8-.1.44-.33.84-.67,1.15-.4.37-.93.57-1.48.57-.07,0-.14,0-.21-.01-.93-.09-1.69-.8-1.91-1.71-.9.26-1.9-.04-2.44-.8-.05-.07-.1-.14-.14-.22-.05-.1-.09-.2-.12-.31-1.56.91-2.51,2.43-2.51,4.1,0,2.71,2.49,4.92,5.55,4.92h3.59c3.06,0,5.55-2.21,5.55-4.92Z"/>
    <path class="cls-2" d="M5.04,8.4c-.15.33-.14.69.02.99.02.04.05.08.08.12.36.5,1.08.64,1.65.31l.17-.1c.08-.04.16-.07.25-.07s.17.02.25.07c.15.09.25.25.25.42v.2c0,.66.48,1.22,1.09,1.28.35.04.68-.08.93-.31.25-.23.4-.56.4-.9v-.27c0-.17.09-.34.25-.42.15-.09.34-.09.49,0l.17.1c.58.33,1.3.19,1.65-.31.28-.39.31-.9.06-1.32h0c-.14-.23-.39-.41-.7-.5-.48-.13-1.43-.32-2.62-.37l.02,1.29c0,.27-.21.49-.48.5h0c-.27,0-.49-.21-.49-.48l-.03-1.31c-.93.04-1.82.22-2.38.34l-.14.03c-.38.08-.71.34-.88.7Z"/>
  </g>
</svg>