<?xml version="1.0" encoding="UTF-8"?>
<svg id="Layer_1" data-name="Layer 1" xmlns="http://www.w3.org/2000/svg" version="1.1" viewBox="0 0 19.84 19.84">
  <defs>
    <style>
      .cls-1, .cls-2 {
        fill: none;
      }

      .cls-1, .cls-3 {
        stroke-width: 0px;
      }

      .cls-2 {
        stroke: #000;
        stroke-width: .3px;
      }

      .cls-3 {
        fill: #e4ac3a;
      }
    </style>
  </defs>
  <g>
    <line class="cls-2" x1="3.98" y1="-51.13" x2="3.98" y2="-15.13"/>
    <line class="cls-2" x1="-50.02" y1="2.87" x2="-14.02" y2="2.87"/>
    <line class="cls-2" x1="-50.02" y1="16.97" x2="-14.02" y2="16.97"/>
    <line class="cls-2" x1="3.98" y1="70.97" x2="3.98" y2="34.97"/>
    <line class="cls-2" x1="20.37" y1="-51.13" x2="20.37" y2="-15.13"/>
    <line class="cls-2" x1="74.37" y1="2.87" x2="38.37" y2="2.87"/>
    <line class="cls-2" x1="74.37" y1="16.97" x2="38.37" y2="16.97"/>
    <line class="cls-2" x1="20.37" y1="70.97" x2="20.37" y2="34.97"/>
  </g>
  <g>
    <path class="cls-1" d="M8.55,3.41c-.38-.11-.74-.21-1.08-.21-.11,0-.22.01-.33.04-.83.19-1.73.63-2.66,1.33-2.02,1.5-3.22,3.72-3.22,5.95,0,2.74,1.51,4.96,4.49,6.58,1.21.66,2.64,1.01,4.11,1.01,3.25,0,6.36-1.66,7.93-4.23.52-.86.78-1.99.78-3.36,0-.85-.24-1.91-.63-2.84-.81-1.89-2.43-3.34-4.58-4.1l-.13-.05c-.5-.18-.9-.31-1.32-.22-.16.04-.31.08-.46.11-.3.08-.63.15-.97.19v1.25c0,.11-.03.21-.07.3.37-.04.76-.13,1.12-.33.15-.08.33-.03.41.12.08.15.03.33-.12.41-.58.32-1.2.42-1.76.42-1.08,0-1.95-.39-2.01-.41-.15-.07-.22-.25-.15-.4.07-.15.25-.22.4-.15.02,0,.55.23,1.25.32-.04-.09-.06-.18-.06-.28v-1.25c-.32-.05-.63-.12-.93-.21ZM2.41,12.64c-.3,0-.54-.24-.54-.54s.24-.54.54-.54.54.24.54.54-.24.54-.54.54ZM5.06,15.33c-.3,0-.54-.24-.54-.54s.24-.54.54-.54.54.24.54.54-.24.54-.54.54ZM6.83,14.91c-.3,0-.54-.24-.54-.54s.24-.54.54-.54.54.24.54.54-.24.54-.54.54ZM16.09,9.33c.3,0,.54.24.54.54s-.24.54-.54.54-.54-.24-.54-.54.24-.54.54-.54ZM14.75,4.99c.3,0,.54.24.54.54s-.24.54-.54.54-.54-.24-.54-.54.24-.54.54-.54ZM13.67,6.91c.3,0,.54.24.54.54s-.24.54-.54.54-.54-.24-.54-.54.24-.54.54-.54ZM8.41,16.33c.3,0,.54.24.54.54s-.24.54-.54.54-.54-.24-.54-.54.24-.54.54-.54Z"/>
    <path class="cls-3" d="M18.84,7.29c-.91-2.14-2.75-3.79-5.16-4.64l-.13-.05c-.44-.16-.86-.31-1.35-.31-.18,0-.34.02-.52.06-.18.04-.34.08-.51.13-.24.06-.47.12-.7.16v-1.26c0-.34-.22-.62-.5-.62s-.5.28-.5.62v1.25c-.22-.04-.44-.1-.67-.16-.43-.12-.87-.25-1.35-.25-.19,0-.36.02-.54.06-.96.22-1.98.72-3.03,1.5C1.64,5.46.28,7.98.28,10.51c0,3.13,1.68,5.63,5,7.44,1.36.74,2.94,1.13,4.58,1.13,3.58,0,7.03-1.85,8.76-4.7.62-1.01.93-2.31.93-3.87,0-.98-.27-2.18-.71-3.23ZM9.54,5.15c-.71-.09-1.24-.31-1.25-.32-.15-.07-.33,0-.4.15-.07.15,0,.33.15.4.06.02.93.41,2.01.41.56,0,1.18-.11,1.76-.42.15-.08.2-.26.12-.41-.08-.14-.26-.2-.41-.12-.36.2-.75.29-1.12.33.04-.09.07-.19.07-.3v-1.25c.34-.05.67-.11.97-.19.15-.04.3-.08.46-.11.42-.09.82.04,1.32.22l.13.05c2.15.76,3.78,2.21,4.58,4.1.4.93.63,1.99.63,2.84,0,1.37-.26,2.5-.78,3.36-1.57,2.57-4.68,4.23-7.93,4.23-1.48,0-2.9-.35-4.11-1.01-2.98-1.63-4.49-3.84-4.49-6.58,0-2.23,1.21-4.45,3.22-5.95.93-.69,1.83-1.14,2.66-1.33.11-.02.21-.04.33-.04.34,0,.7.1,1.08.21.3.09.61.16.93.21v1.25c0,.1.03.2.06.28Z"/>
    <path class="cls-3" d="M13.67,7.99c.3,0,.54-.24.54-.54s-.24-.54-.54-.54-.54.24-.54.54.24.54.54.54Z"/>
    <circle class="cls-3" cx="14.75" cy="5.53" r=".54"/>
    <path class="cls-3" d="M16.09,10.41c.3,0,.54-.24.54-.54s-.24-.54-.54-.54-.54.24-.54.54.24.54.54.54Z"/>
    <path class="cls-3" d="M2.41,11.56c-.3,0-.54.24-.54.54s.24.54.54.54.54-.24.54-.54-.24-.54-.54-.54Z"/>
    <path class="cls-3" d="M6.83,13.83c-.3,0-.54.24-.54.54s.24.54.54.54.54-.24.54-.54-.24-.54-.54-.54Z"/>
    <path class="cls-3" d="M5.06,14.25c-.3,0-.54.24-.54.54s.24.54.54.54.54-.24.54-.54-.24-.54-.54-.54Z"/>
    <path class="cls-3" d="M8.41,17.41c.3,0,.54-.24.54-.54s-.24-.54-.54-.54-.54.24-.54.54.24.54.54.54Z"/>
  </g>
</svg>