<?xml version="1.0" encoding="UTF-8"?>
<svg id="Layer_1" data-name="Layer 1" xmlns="http://www.w3.org/2000/svg" version="1.1" viewBox="0 0 19.84 19.84">
  <defs>
    <style>
      .cls-1 {
        fill: none;
      }

      .cls-1, .cls-2 {
        stroke-width: 0px;
      }

      .cls-2 {
        fill: #f393bd;
      }
    </style>
  </defs>
  <path class="cls-1" d="M5.37,1.77c.07.4.23.96.63,1.3.23.19.52.29.88.29h.03c-.03-.28-.12-.68-.4-1-.26-.3-.64-.5-1.13-.58Z"/>
  <path class="cls-1" d="M11.75,13.67c.11,1.99,1.43,2.72,1.83,2.9.4-.17,1.72-.91,1.83-2.9.05-.97-.26-1.8-.93-2.48-.34-.34-.7-.56-.89-.66-.17.09-.47.29-.77.56l.21.23h0s.28.31.28.31l-.12.11c-.1.09-.32.37-.28.59l.02.16-.82.13-.02-.16c-.02-.15,0-.29.03-.43-.25.49-.38,1.04-.35,1.64ZM13.97,13.25c.22-.45.17-.73.16-.76l-.03-.15.79-.22.04.16c.03.09.13.59-.22,1.33l-.07.15-.75-.36.07-.15ZM13.73,15.04c.25-.26.23-.41.23-.41v-1.15l.26.9.43-.21.07.15c.03.06.26.61-.4,1.3l-.11.12-.6-.58.11-.12ZM12.41,13.3l.02-.16.82.12-.02.16c-.04.25.02.55.08.59l.14.08-.4.72-.14-.08c-.61-.34-.52-1.25-.49-1.43ZM13.13,15.02l.06.15s.11.25.48.44l.14.07-.38.74-.14-.07c-.62-.32-.83-.78-.86-.87l-.06-.15.77-.31Z"/>
  <path class="cls-1" d="M8.89,13.4c0,2.89,2.15,5.33,4.69,5.33s4.69-2.44,4.69-5.33-2.1-5.04-4.69-5.04-4.69,2.26-4.69,5.04ZM12.12,10.6c.63-.63,1.28-.9,1.31-.91l.16-.06.16.06c.12.05.72.32,1.31.91.59.58,1.27,1.6,1.19,3.12-.08,1.51-.76,2.43-1.31,2.94-.61.56-1.2.75-1.22.76l-.13.04-.13-.04s-.61-.2-1.22-.76c-.55-.51-1.22-1.43-1.31-2.94-.08-1.52.6-2.54,1.19-3.12Z"/>
  <path class="cls-1" d="M10.9,1.12c-.12,0-.25-.01-.36-.01-.94,0-1.66.24-2.13.7-.49.48-.62,1.11-.65,1.53,1.23-.08,2.14-.52,2.71-1.32.23-.32.36-.65.44-.9Z"/>
  <path class="cls-2" d="M14.11,7.59c-1.06-2.04-2.81-3.25-4.7-3.25h-.98v.83h.98c1.45,0,2.82.9,3.74,2.41-2.84.24-5.09,2.74-5.09,5.83,0,1.55.58,3.11,1.6,4.28.2.23.42.42.65.61-.29.07-.59.12-.89.12-2.3,0-4.31-2.23-4.76-5.31l-.02-.16-.82.12.02.16c.34,2.28,1.47,4.13,2.96,5.15-.12.01-.24.03-.36.03-2.68,0-4.86-2.97-4.86-6.62s2.18-6.62,4.86-6.62h.45v1.04h.83v-2.03c1.89-.1,2.9-.94,3.42-1.66.56-.78.66-1.56.68-1.72l.03-.4-.4-.05c-1.61-.19-2.84.1-3.63.88-.24.24-.42.51-.55.78-.04-.06-.08-.12-.13-.18-.49-.57-1.24-.89-2.21-.93l-.43-.02v.43c0,.06.01,1.58.97,2.39.38.32.86.49,1.41.49,0,0,0,0,.01,0v.15h-.45c-1.54,0-2.98.79-4.06,2.23-1.05,1.4-1.63,3.26-1.63,5.22s.58,3.82,1.63,5.22c1.08,1.44,2.52,2.23,4.06,2.23.52,0,1.03-.1,1.53-.28.47.16.96.28,1.46.28.59,0,1.17-.13,1.73-.36.75.43,1.58.68,2.44.68,1.47,0,2.86-.67,3.92-1.88,1.02-1.16,1.6-2.72,1.6-4.28,0-3.04-2.2-5.52-4.99-5.81ZM13.58,8.36c2.59,0,4.69,2.26,4.69,5.04s-2.15,5.33-4.69,5.33-4.69-2.44-4.69-5.33,2.1-5.04,4.69-5.04ZM6.9,3.36h-.03c-.35,0-.65-.1-.88-.29-.4-.33-.56-.89-.63-1.3.5.09.88.28,1.13.58.28.33.37.73.4,1ZM7.75,3.35c.03-.42.17-1.05.65-1.53.47-.47,1.19-.7,2.13-.7.12,0,.24,0,.36.01-.08.25-.21.58-.44.9-.57.8-1.48,1.25-2.71,1.32Z"/>
  <path class="cls-2" d="M13.45,17.41l.13.04.13-.04s.61-.2,1.22-.76c.55-.51,1.23-1.43,1.31-2.94.08-1.52-.6-2.54-1.19-3.12-.59-.59-1.19-.86-1.31-.91l-.16-.06-.16.06s-.68.28-1.31.91c-.59.58-1.27,1.6-1.19,3.12.08,1.51.76,2.43,1.31,2.94.61.56,1.2.75,1.22.76ZM12.1,12.61l.82-.13-.02-.16c-.03-.22.18-.49.28-.59l.12-.11-.28-.31h0s-.21-.23-.21-.23c.3-.28.61-.47.77-.56.19.1.55.32.89.66.67.67.99,1.51.93,2.48-.11,1.99-1.43,2.72-1.83,2.9-.4-.17-1.72-.9-1.83-2.9-.03-.6.09-1.15.35-1.64-.03.13-.05.27-.03.43l.02.16Z"/>
  <path class="cls-2" d="M14.72,13.61c.35-.74.24-1.24.22-1.33l-.04-.16-.79.22.03.15s.05.31-.16.76l-.07.15.75.36.07-.15Z"/>
  <path class="cls-2" d="M13.04,14.81l.4-.72-.14-.08c-.06-.04-.11-.33-.08-.59l.02-.16-.82-.12-.02.16c-.03.18-.12,1.08.49,1.43l.14.08Z"/>
  <path class="cls-2" d="M14.33,15.61c.66-.68.43-1.24.4-1.3l-.07-.15-.43.21-.26-.9v1.15s.02.15-.23.41l-.11.12.6.58.11-.12Z"/>
  <path class="cls-2" d="M13.28,16.35l.14.07.38-.74-.14-.07c-.36-.19-.48-.44-.48-.44l-.06-.15-.77.31.06.15c.04.09.24.55.86.87Z"/>
</svg>