<?xml version="1.0" encoding="UTF-8"?>
<svg id="Layer_1" data-name="Layer 1" xmlns="http://www.w3.org/2000/svg" version="1.1" viewBox="0 0 19.84 19.84">
  <defs>
    <style>
      .cls-1 {
        fill: #68923d;
        stroke-width: 0px;
      }
    </style>
  </defs>
  <path class="cls-1" d="M10.45,16.43c-.09-.14-.19-.28-.28-.42.36-.72.55-1.7.74-2.65.06-.31.12-.6.18-.87.02-.09-.04-.17-.12-.19-.09-.02-.17.04-.19.12-.06.28-.12.57-.18.88-.17.85-.35,1.72-.64,2.39-.04-.07-.09-.13-.13-.2.03-.45.12-.92.23-1.42.16-.74.33-1.5.25-2.25,0-.09-.09-.15-.18-.14-.09,0-.15.09-.14.18.07.7-.09,1.43-.24,2.15-.08.36-.15.71-.19,1.05-.16-.24-.33-.48-.49-.73.02-.06.03-.13.04-.19.26-.61.39-1.39.5-2.15.08-.52.15-1.07.28-1.52.02-.09-.03-.18-.11-.2-.09-.02-.18.03-.2.11-.1.36-.17.76-.23,1.16,0-.5-.02-1.04-.07-1.63,0-.09-.09-.16-.17-.15-.09,0-.16.09-.15.17.14,1.69.09,3.01-.13,4.03-.25-.37-.51-.75-.76-1.12v-.03c.43-.83.64-1.9.84-2.93.07-.35.14-.71.21-1.05.02-.09-.04-.17-.12-.19-.09-.02-.17.04-.19.12-.08.35-.15.71-.21,1.06-.17.89-.35,1.8-.67,2.55.04-.34.09-.66.14-1.01.17-1.03.34-2.1.17-3.45-.01-.09-.09-.15-.18-.14-.09.01-.15.09-.14.18.16,1.3,0,2.34-.17,3.36-.05.28-.09.58-.13.87-.07-.1-.14-.2-.2-.3l.02-.07c.08-.31.08-.61.08-.94,0-.17,0-.34,0-.52.02-.35.05-.69.08-1.03.06-.65.12-1.33.11-2.07,0-.09-.08-.16-.17-.16-.09,0-.16.08-.16.17.01.72-.05,1.39-.11,2.03-.03.34-.06.68-.08,1.04-.01.19-.01.37,0,.54,0,.22,0,.42-.02.62,0,0,0,0-.01,0-.04-.05-.07-.1-.11-.15l-.66-.97c.32-.62.45-1.48.57-2.31.08-.52.16-1.07.28-1.52.02-.09-.03-.18-.11-.2-.09-.02-.18.03-.2.11-.13.47-.21,1.02-.29,1.56-.08.57-.17,1.16-.32,1.66-.02-.57.03-1.14.08-1.73.06-.7.13-1.43.07-2.17,0-.09-.09-.16-.17-.15-.09,0-.16.09-.15.17.06.71,0,1.43-.07,2.12-.06.62-.1,1.26-.07,1.9l-.43-.64c.05-.25.08-.52.1-.79,0-.15.02-.29.04-.43.03-.31.08-.61.12-.91.08-.58.17-1.17.19-1.83,0-.09-.07-.16-.16-.17-.09,0-.16.07-.17.16-.02.63-.1,1.22-.18,1.79-.04.3-.09.6-.12.92-.02.15-.03.3-.04.45,0,.14-.03.28-.04.42l-.51-.75c0-.43.05-.87.12-1.34.1-.69.2-1.41.08-2.14-.01-.09-.1-.15-.19-.13-.09.01-.15.1-.13.19.11.68.01,1.37-.08,2.04-.04.31-.08.62-.11.93l-.44-.65c0-.28,0-.55,0-.82.01-.75.02-1.52-.08-2.36-.01-.09-.09-.15-.18-.14-.09.01-.15.09-.14.18.1.82.09,1.55.08,2.32,0,.07,0,.15,0,.23-.2-.61-.34-1.19-.46-1.79-.12-.58-.23-1.17-.44-1.8-.03-.09-.12-.13-.21-.1-.08.03-.13.12-.1.2.2.62.32,1.2.43,1.77.07.35.15.7.24,1.06l-.62-.91-.02-.08c-.11-.37-.18-.75-.25-1.12-.08-.46-.17-.94-.35-1.42-.03-.08-.12-.13-.21-.1-.09.03-.13.12-.1.21.16.46.25.9.33,1.37.02.12.05.25.07.38l-1.22-1.79c-.05-.07-.15-.09-.23-.04-.07.05-.09.15-.04.23l1.06,1.55c-.21-.13-.42-.25-.62-.36-.15-.08-.29-.16-.43-.24-.08-.05-.18-.02-.22.06-.05.08-.02.18.06.22.14.08.29.16.44.25.45.24.9.51,1.34.9l.75,1.11s-.06-.04-.09-.06l-.06-.04c-.26-.17-.52-.37-.78-.56-.4-.3-.81-.6-1.2-.83-.08-.04-.18-.02-.22.06-.04.08-.02.18.06.22.38.22.78.52,1.17.81.26.19.53.39.79.57l.07.04c.16.11.29.2.41.28-.57-.23-1.13-.28-1.6-.32-.12,0-.23-.02-.35-.03-.09,0-.17.05-.18.14,0,.09.06.17.14.18.11.01.23.02.35.03.72.06,1.54.13,2.34.79l.07.06.46.67c-.59-.18-1.14-.3-1.67-.4-.25-.05-.5-.1-.75-.15-.09-.02-.17.04-.19.12-.02.09.04.17.12.19.26.06.51.11.76.15.66.13,1.28.25,2,.5h.03s.41.61.41.61c-.66-.31-1.3-.37-1.91-.41-.39-.03-.77-.05-1.13-.14-.09-.02-.18.03-.2.12s.03.18.12.2c.39.1.8.13,1.19.15.72.05,1.46.1,2.22.6l.12.08.28.42c-.18-.07-.38-.14-.61-.21l-.09-.03c-.53-.17-1.01-.22-1.48-.27-.34-.04-.69-.07-1.07-.15-.09-.02-.17.04-.19.12s.04.17.12.19c.39.09.76.12,1.11.16.2.02.4.04.59.07-.11.05-.21.11-.3.16-.22.14-.42.26-.71.21-.09-.01-.17.05-.18.14-.01.09.05.17.14.18.4.06.68-.11.92-.26.19-.11.36-.22.59-.23.23,0,.5.11.83.24.21.08.44.17.69.24,0,0,0,.02,0,.02h.04s.45.66.45.66c-.61-.24-1.2-.28-1.78-.32-.46-.03-.89-.06-1.31-.19-.09-.03-.18.02-.2.11-.03.09.02.18.11.2.46.14.93.18,1.39.21.71.05,1.43.12,2.19.57.1.15.21.31.31.46-.02,0-.03-.01-.05-.02-.19-.06-.37-.11-.5-.16-.56-.21-1.02-.2-1.46-.2-.37,0-.75,0-1.19-.11-.09-.02-.18.03-.2.11-.02.09.03.18.11.2.49.13.89.13,1.28.12.43,0,.84-.01,1.35.18.14.05.32.11.52.17.02,0,.03.01.05.02-.07.01-.16.02-.22.04-.14.03-.27.07-.42.06-.3,0-.55.05-.79.11-.3.08-.58.15-.94.07-.09-.02-.17.04-.19.13-.02.09.04.17.13.19.44.09.77,0,1.09-.08.23-.06.44-.11.7-.11.2,0,.36-.03.51-.07.19-.05.38-.09.67-.04l.79,1.16c-.31-.17-.63-.34-.8-.39-.53-.17-1.01-.22-1.48-.27-.34-.04-.69-.07-1.07-.15-.09-.02-.17.04-.19.12-.02.09.04.17.12.19.39.09.76.12,1.11.16.42.04.83.1,1.26.22-.03,0-.06,0-.09,0-.28,0-.51.07-.73.13-.27.08-.53.15-.86.1-.09-.01-.17.05-.18.14-.01.09.05.17.14.18.4.06.7-.03,1-.11.21-.06.41-.12.64-.12.34,0,.69.06,1.14.17.13.07.25.14.34.19l.06.03c.15.22.3.44.45.65.03.04.05.08.07.11-.67-.16-1.3-.24-1.9-.31-.27-.03-.54-.06-.82-.1-.09-.01-.17.05-.18.14-.01.09.05.17.14.18.28.04.56.07.83.1.72.09,1.4.17,2.18.38h.01c-.2,0-.38.04-.52.09-.13.04-.25.08-.38.08-.34-.01-.63.04-.92.08-.2.03-.41.07-.64.08-.09,0-.16.08-.15.17s.08.16.17.15c.24-.02.46-.05.67-.08.28-.04.55-.09.86-.08.19,0,.34-.05.49-.09.19-.06.38-.1.64-.05.11.17.22.33.33.5.34.53.69,1.08,1.05,1.6.05.07.15.09.22.04,0,0,0,0,0,0,.07-.05.09-.15.04-.23-.36-.52-.71-1.06-1.04-1.59Z"/>
  <path class="cls-1" d="M18,3.94c.22-.23.45-.43.68-.62.29-.24.59-.5.85-.81.05-.06.04-.14-.02-.18-.06-.05-.14-.04-.18.02-.25.3-.53.53-.82.78-.08.07-.16.14-.24.2l.76-1.57c.03-.07,0-.14-.06-.17-.07-.03-.14,0-.17.06l-.66,1.36c0-.2,0-.39,0-.58,0-.13,0-.27,0-.4,0-.07-.06-.13-.13-.13-.07,0-.13.06-.13.13,0,.13,0,.27,0,.41,0,.41.01.83-.09,1.29l-.47.97s0-.05,0-.08v-.06c.02-.25.05-.51.08-.77.05-.39.09-.8.09-1.17,0-.07-.06-.13-.13-.13-.07,0-.13.06-.13.13,0,.35-.05.75-.09,1.14-.03.26-.06.52-.08.78v.06c-.01.15-.02.28-.04.4-.07-.49-.26-.9-.42-1.25-.04-.09-.08-.17-.12-.25-.03-.07-.11-.1-.17-.07-.07.03-.1.11-.07.17.04.08.08.17.12.26.25.53.53,1.12.39,1.95v.08s-.3.59-.3.59c-.11-.48-.25-.91-.39-1.32-.07-.19-.13-.38-.2-.59-.02-.07-.1-.11-.16-.08-.07.02-.11.1-.08.16.06.2.13.4.2.59.18.51.34.99.45,1.59v.02s-.25.52-.25.52c-.05-.59-.27-1.05-.48-1.5-.14-.28-.27-.55-.35-.85-.02-.07-.09-.11-.16-.09-.07.02-.11.09-.09.16.09.32.23.61.37.89.26.52.52,1.05.47,1.79v.12s-.18.36-.18.36c-.02-.15-.05-.32-.1-.51l-.02-.07c-.09-.43-.25-.79-.41-1.14-.11-.25-.23-.51-.32-.81-.02-.07-.1-.11-.16-.09-.07.02-.11.1-.08.16.1.31.22.58.33.83.07.15.13.29.19.44-.08-.06-.16-.1-.23-.14-.19-.1-.35-.19-.43-.41-.03-.07-.1-.1-.17-.07-.07.03-.1.1-.07.17.12.31.35.43.55.54.15.08.3.16.39.32.09.16.13.39.17.67.03.17.06.37.11.57,0,0,0,.02-.01.02l.02.02-.28.58c-.08-.52-.29-.95-.49-1.37-.16-.33-.32-.64-.4-.99-.02-.07-.09-.11-.16-.1-.07.02-.11.09-.1.16.08.38.25.72.42,1.05.25.51.5,1.05.48,1.75-.06.13-.13.27-.19.4,0-.01,0-.03,0-.04-.04-.16-.07-.3-.09-.41-.08-.47-.27-.79-.45-1.1-.15-.25-.31-.52-.4-.88-.02-.07-.09-.11-.16-.09-.07.02-.11.09-.09.16.1.39.27.67.43.94.18.3.35.58.42,1.01.02.12.05.27.09.43,0,.01,0,.03,0,.04-.04-.05-.08-.1-.12-.14-.08-.08-.15-.16-.21-.27-.12-.21-.26-.36-.4-.5-.17-.18-.33-.34-.43-.63-.02-.07-.1-.11-.17-.08-.07.02-.11.1-.08.17.12.34.31.54.49.73.13.14.26.26.36.45.08.14.17.24.26.33.11.11.22.23.29.45-.16.34-.33.67-.49,1.01,0-.28-.02-.58-.05-.71-.09-.43-.25-.79-.41-1.14-.11-.25-.23-.51-.32-.81-.02-.07-.1-.11-.16-.08-.07.02-.11.1-.08.16.1.31.22.58.33.83.14.31.27.62.36.97-.01-.02-.02-.05-.03-.07-.11-.19-.25-.32-.39-.45-.16-.16-.32-.31-.42-.56-.03-.07-.1-.1-.17-.07-.07.03-.1.1-.07.17.12.3.3.48.48.65.13.12.25.24.34.4.14.23.23.52.34.88,0,.11,0,.22,0,.3v.06c-.09.19-.18.38-.28.57-.02.03-.03.06-.05.1-.16-.53-.35-1-.55-1.45-.09-.2-.17-.4-.26-.61-.03-.07-.1-.1-.17-.07-.07.03-.1.1-.07.17.09.21.17.42.26.62.23.54.45,1.04.61,1.67h0c-.08-.13-.18-.24-.27-.32-.08-.08-.16-.14-.21-.23-.13-.24-.28-.43-.43-.61-.1-.13-.21-.26-.31-.42-.04-.06-.12-.08-.18-.04-.06.04-.08.12-.04.18.11.16.22.3.33.44.15.18.28.35.4.57.07.13.17.22.26.3.12.11.22.23.29.43-.07.14-.14.29-.22.43-.23.45-.47.91-.69,1.38-.03.07,0,.14.06.17,0,0,0,0,0,0,.07.03.14,0,.17-.06.22-.46.46-.92.69-1.37.06-.12.12-.24.18-.36.65-.04,1.41-.3,2.14-.55.24-.08.46-.16.68-.23.07-.02.11-.09.09-.16-.02-.07-.1-.11-.16-.09-.22.07-.45.15-.69.23-.66.22-1.34.45-1.92.52.03-.06.06-.11.09-.17.32-.16.69-.29,1.08-.41.58-.18,1.17-.37,1.67-.73.06-.04.07-.12.03-.18-.04-.06-.12-.07-.18-.03-.46.33-1.03.52-1.59.69-.29.09-.56.19-.82.3.1-.22.21-.43.31-.65.05-.01.1-.03.15-.05.53-.06,1.12-.29,1.7-.52.4-.16.8-.32,1.17-.42.07-.02.11-.09.09-.16-.02-.07-.09-.11-.16-.09-.29.07-.59.19-.9.31.35-.21.71-.43,1.1-.71.06-.04.07-.12.03-.18-.04-.06-.12-.07-.18-.03-1.12.78-2.06,1.27-2.86,1.53.16-.33.32-.65.47-.98h.02c.75-.04,1.57-.33,2.37-.61.27-.09.55-.19.82-.28.07-.02.11-.1.09-.16-.02-.07-.1-.11-.16-.09-.27.09-.55.18-.83.28-.69.24-1.4.48-2.04.56.25-.11.5-.21.76-.31.79-.3,1.6-.61,2.47-1.26.06-.04.07-.13.03-.18-.04-.06-.13-.07-.18-.03-.84.63-1.64.94-2.41,1.23-.22.08-.44.17-.66.26l.13-.26.06-.02c.25-.07.46-.19.68-.32.12-.07.23-.14.36-.2.25-.13.5-.24.75-.36.48-.22.97-.45,1.48-.76.06-.04.08-.12.05-.18-.04-.06-.12-.08-.18-.05-.5.3-.99.53-1.46.74-.25.11-.5.23-.76.36-.14.07-.26.14-.38.21-.15.09-.29.17-.44.23,0,0,0,0,0-.01.02-.05.04-.09.07-.14l.41-.85c.56-.03,1.21-.28,1.84-.53.4-.16.8-.32,1.17-.42.07-.02.11-.09.09-.16-.02-.07-.09-.11-.16-.09-.38.1-.8.27-1.2.43-.41.16-.83.33-1.23.43.38-.23.77-.43,1.18-.62.52-.24,1.05-.48,1.54-.82.06-.04.07-.12.03-.18-.04-.06-.12-.07-.18-.03-.47.33-1,.57-1.5.8-.45.21-.91.43-1.35.71l.27-.56c.2-.06.4-.15.59-.25.11-.05.21-.1.32-.15.23-.1.46-.19.68-.28.43-.18.88-.36,1.35-.6.06-.03.09-.11.05-.18-.03-.06-.11-.09-.18-.05-.45.24-.89.42-1.32.59-.22.09-.45.18-.69.29-.11.05-.22.1-.33.15-.1.05-.21.09-.31.14l.32-.65c.3-.18.63-.31.98-.45.52-.21,1.06-.43,1.52-.8.06-.05.06-.13.02-.18-.05-.06-.13-.06-.18-.02-.42.35-.95.56-1.45.76-.24.09-.47.2-.7.31l.28-.58c.19-.11.38-.22.57-.32.53-.29,1.07-.6,1.61-1,.06-.04.07-.13.03-.18-.04-.06-.13-.07-.18-.03-.53.4-1.04.68-1.58.98-.05.03-.11.06-.16.09.34-.39.69-.71,1.06-1.04.35-.31.72-.63,1.08-1.03.05-.05.04-.14,0-.18-.05-.05-.14-.04-.18,0-.35.39-.71.7-1.06,1.01-.21.19-.43.38-.64.59l.39-.8.05-.05Z"/>
</svg>