<?xml version="1.0" encoding="UTF-8"?>
<svg id="Layer_1" data-name="Layer 1" xmlns="http://www.w3.org/2000/svg" version="1.1" viewBox="0 0 19.84 19.84">
  <defs>
    <style>
      .cls-1, .cls-2 {
        fill: none;
      }

      .cls-1, .cls-3 {
        stroke-width: 0px;
      }

      .cls-2 {
        stroke: #000;
        stroke-width: .3px;
      }

      .cls-3 {
        fill: #eb2027;
      }
    </style>
  </defs>
  <g>
    <line class="cls-2" x1="3.98" y1="-51.13" x2="3.98" y2="-15.13"/>
    <line class="cls-2" x1="-50.02" y1="2.87" x2="-14.02" y2="2.87"/>
    <line class="cls-2" x1="-50.02" y1="16.97" x2="-14.02" y2="16.97"/>
    <line class="cls-2" x1="3.98" y1="70.97" x2="3.98" y2="34.97"/>
    <line class="cls-2" x1="20.37" y1="-51.13" x2="20.37" y2="-15.13"/>
    <line class="cls-2" x1="74.37" y1="2.87" x2="38.37" y2="2.87"/>
    <line class="cls-2" x1="74.37" y1="16.97" x2="38.37" y2="16.97"/>
    <line class="cls-2" x1="20.37" y1="70.97" x2="20.37" y2="34.97"/>
  </g>
  <g>
    <path class="cls-1" d="M13.23,5c-.22-.1-.44-.19-.67-.26-.8-.27-1.29-1.01-1.19-1.8,0-.06.02-.11.03-.16l-.5.36c-.13.09-.3.12-.46.07-.15-.05-.28-.17-.33-.32l-.19-.54-.19.54c-.05.15-.18.27-.33.32-.15.05-.33.02-.46-.07l-.5-.36c.08.36.04.72-.12,1.06-.2.43-.58.75-1.05.9-3.31,1.12-5.38,4.16-5.03,7.41.13,1.2.6,2.36,1.37,3.35,1.28,1.67,3.26,2.75,5.42,2.97,2.34.24,4.62-.49,6.28-1.98,1.49-1.35,2.32-3.15,2.32-5.08,0-2.72-1.73-5.24-4.4-6.41ZM6.89,7.21c-.1.04-2.48.92-2.71,4.24-.02.27-.25.48-.52.48-.01,0-.02,0-.04,0-.28-.02-.5-.27-.48-.55.27-4.03,3.28-5.11,3.4-5.15.27-.09.57.05.66.32.09.27-.05.56-.32.66Z"/>
    <path class="cls-3" d="M13.65,4.05h0c-.25-.11-.5-.21-.76-.3-.33-.11-.53-.4-.49-.69,0-.05.02-.09.03-.13l.49-1.35c.08-.21,0-.45-.17-.59-.18-.14-.43-.14-.61-.01l-1.28.91-.45-1.29c-.15-.42-.83-.41-.98,0l-.45,1.3-1.28-.91c-.18-.13-.43-.13-.61.01-.18.14-.25.38-.17.59l.49,1.35c.07.19.03.35-.02.45-.08.17-.24.3-.44.37C3.17,5.03.81,8.53,1.22,12.27c.15,1.38.7,2.72,1.58,3.87,1.45,1.89,3.69,3.12,6.13,3.37.33.03.65.05.98.05,2.28,0,4.46-.81,6.1-2.3,1.71-1.55,2.66-3.62,2.66-5.85,0-3.13-1.97-6.02-5.02-7.36ZM15.32,16.49c-1.66,1.5-3.94,2.22-6.28,1.98-2.16-.22-4.13-1.3-5.42-2.97-.77-1-1.24-2.16-1.37-3.35-.35-3.25,1.71-6.3,5.03-7.41.47-.16.84-.48,1.05-.9.16-.33.2-.7.12-1.06l.5.36c.13.09.3.12.46.07.15-.05.28-.17.33-.32l.19-.54.19.54c.05.15.18.27.33.32.15.05.32.02.46-.07l.5-.36c-.01.05-.02.1-.03.16-.1.79.39,1.54,1.19,1.8.23.08.45.17.67.26,2.67,1.17,4.4,3.69,4.4,6.41,0,1.93-.82,3.73-2.32,5.08Z"/>
    <path class="cls-3" d="M6.55,6.23c-.13.04-3.13,1.12-3.4,5.15-.02.28.2.53.48.55.01,0,.02,0,.04,0,.27,0,.5-.21.52-.48.23-3.32,2.61-4.21,2.71-4.24.27-.09.41-.39.32-.66-.09-.27-.39-.42-.66-.32Z"/>
  </g>
</svg>