<?xml version="1.0" encoding="UTF-8"?>
<svg id="Layer_1" data-name="Layer 1" xmlns="http://www.w3.org/2000/svg" version="1.1" viewBox="0 0 19.84 19.84">
  <defs>
    <style>
      .cls-1 {
        fill: none;
      }

      .cls-1, .cls-2 {
        stroke-width: 0px;
      }

      .cls-2 {
        fill: #f18550;
      }
    </style>
  </defs>
  <path class="cls-1" d="M14.78,11.43c0-2.48-.34-3.78-.34-3.79-.3-1.19-1.1-3.2-3.09-3.2h-2.85c-1.4,0-2.3.94-3.09,3.19,0,.02-.01.04-.02.05,0,0-.33.93-.33,3.74s.32,3.75.32,3.76c0,.01.01.03.01.04.41,1.46,1.27,3.21,3.09,3.21h2.85c1.42,0,2.46-1.08,3.1-3.23,0-.01.33-1.08.33-3.78Z"/>
  <path class="cls-1" d="M4.45,15.5s0,.03.01.04c-.04-.1-.39-1.1-.39-4.11s.35-3.99.38-4.08c.26-.74.57-1.48.98-2.12h-1.15c-1.74,0-2.45,1.77-2.72,2.83,0,.01-.3,1.17-.3,3.38,0,2.41.29,3.36.3,3.38.56,1.88,1.47,2.84,2.72,2.84h1.12c-.39-.59-.72-1.3-.96-2.15Z"/>
  <path class="cls-1" d="M15.55,5.23h-1.09c.4.59.72,1.31.93,2.17.01.05.37,1.41.37,4.04,0,2.9-.37,4.04-.38,4.07-.25.86-.58,1.57-.97,2.15h1.14c1.25,0,2.16-.96,2.72-2.85,0,0,.29-.96.29-3.37,0-2.21-.3-3.37-.3-3.38-.27-1.05-.97-2.82-2.71-2.82Z"/>
  <path class="cls-2" d="M19.22,7.8c-.57-2.26-1.91-3.56-3.67-3.56h-1.77c-.06,0-.13.01-.18.04-.52-.43-1.13-.7-1.8-.78.27-.18.43-.4.52-.58.3-.08.62-.21.89-.37.37.25.98.44,1.94.25.27-.05.44-.31.39-.58-.05-.27-.31-.44-.58-.39-.47.09-.78.06-.99,0,.16-.37.05-.76-.3-.99-.29-.19-.62-.18-.86.02-.23.2-.3.54-.2.89-.1.05-.21.1-.32.14-.11-.21-.29-.36-.5-.4-.29-.06-.64.08-.79.53-.1.31-.02.56.13.73-.17.08-.45.14-.85.17-.14-1.25.6-1.54.61-1.54.26-.09.39-.37.3-.63-.09-.26-.37-.39-.63-.3-.6.21-1.59,1.11-1.19,3.01h-.89c-.95,0-1.67.33-2.24.83-.06-.03-.13-.04-.2-.04h-1.77c-1.76,0-3.1,1.3-3.67,3.56-.01.04-.33,1.27-.33,3.62,0,2.6.33,3.63.34,3.67.68,2.3,1.95,3.53,3.66,3.53h1.77c.07,0,.14-.02.2-.04.64.54,1.39.83,2.24.83h2.85c.85,0,1.6-.29,2.24-.83.06.03.13.05.2.05h1.77c1.71,0,2.98-1.23,3.66-3.55,0-.03.34-1.06.34-3.66,0-2.35-.32-3.58-.34-3.63ZM1.57,14.81s-.3-.97-.3-3.38c0-2.21.3-3.37.3-3.38.27-1.06.97-2.83,2.72-2.83h1.15c-.41.64-.72,1.38-.98,2.12-.03.08-.38,1.07-.38,4.08s.35,4.01.39,4.11c0-.01-.01-.03-.01-.04.24.86.57,1.57.96,2.15h-1.12c-1.25,0-2.16-.96-2.72-2.84ZM11.35,18.44h-2.85c-1.82,0-2.69-1.74-3.09-3.21,0-.02,0-.03-.01-.04,0,0-.32-.94-.32-3.76s.32-3.73.33-3.74c0-.02.01-.04.02-.05.79-2.26,1.69-3.19,3.09-3.19h2.85c1.98,0,2.79,2,3.09,3.2,0,.02.34,1.32.34,3.79,0,2.71-.33,3.77-.33,3.78-.64,2.15-1.68,3.23-3.1,3.23ZM18.28,14.8c-.56,1.9-1.48,2.85-2.72,2.85h-1.14c.39-.58.72-1.29.97-2.15.01-.03.38-1.17.38-4.07,0-2.62-.36-3.99-.37-4.04-.22-.85-.54-1.57-.93-2.17h1.09c1.74,0,2.45,1.77,2.71,2.82,0,.02.3,1.18.3,3.38,0,2.41-.29,3.36-.29,3.37Z"/>
</svg>