<?xml version="1.0" encoding="UTF-8"?>
<svg id="Layer_1" data-name="Layer 1" xmlns="http://www.w3.org/2000/svg" version="1.1" viewBox="0 0 19.84 19.84">
  <defs>
    <style>
      .cls-1 {
        fill: #fbd205;
        fill-rule: evenodd;
        stroke-width: 0px;
      }
    </style>
  </defs>
  <path class="cls-1" d="M10.61,3.65c3.34,1.25,4.39-.1,5.83-2.42-3.41-1.07-4.91-1.76-5.83.96,1.47-.4,2-.5,3.54-.58-1.61.54-2.73.68-3.54,2.05h0ZM9.37,4.2c.69-1.51-.51-3.2.05-3.28,1.1.27,1.21,2.14.76,3.3.24.03.46.08.61.15,1.11.5,1.57,1.7,1.98,2.87.36,1.04.59,1.44,1.17,2.28.88,1.29,1.92,2.81,2.06,4.51.21,2.48-1.29,4.14-3.32,4.95-1.84.74-4.14.78-6,.09-1.97-.74-3.42-2.28-3.28-4.63.11-1.75,1.12-3.34,2.02-4.76.45-.7.65-1.09.93-1.87.47-1.29,1.07-2.88,2.33-3.45.17-.08.41-.12.68-.14h0ZM11.96,7.47c-.41-1.16-.83-2.37-2-2.52-.2-.03-.52,0-.7.03-1.07.29-1.64,1.84-2.09,3.06-.36.98-.47,1.18-1.01,2.02-.86,1.35-1.81,2.84-1.91,4.41-.12,1.96,1.1,3.24,2.75,3.86,1.65.62,3.7.57,5.33-.08,1.72-.69,2.98-2.08,2.81-4.17-.13-1.5-1.11-2.94-1.93-4.14-.61-.89-.88-1.38-1.26-2.46h0Z"/>
</svg>