<?xml version="1.0" encoding="UTF-8"?>
<svg id="Layer_1" data-name="Layer 1" xmlns="http://www.w3.org/2000/svg" version="1.1" viewBox="0 0 19.84 19.84">
  <defs>
    <style>
      .cls-1 {
        fill: #ec1e24;
        stroke-width: 0px;
      }
    </style>
  </defs>
  <path class="cls-1" d="M19.56,8.23c0-2.47-2.01-4.48-4.48-4.48-.16,0-.31.01-.46.03.49-1.05.63-1.95.64-1.99.03-.22-.08-.43-.29-.51-.2-.09-.43-.02-.57.15-.44.58-.93,1.1-1.47,1.57.22-1.17.13-2.11.12-2.17-.02-.22-.19-.39-.41-.42-.22-.03-.42.09-.51.29-.46,1.12-1.09,2.14-1.87,3.06-.08,0-.17-.01-.25-.01-.15,0-.31.01-.46.03-.79-.92-1.43-1.96-1.9-3.09-.08-.2-.29-.32-.51-.29-.22.03-.38.2-.41.42,0,.05-.1,1,.12,2.17-.53-.48-1.03-1-1.47-1.57-.13-.17-.36-.23-.57-.15-.2.08-.32.29-.29.51,0,.05.15.95.64,2-.14-.01-.29-.02-.44-.02C2.29,3.75.28,5.76.28,8.23c0,1.63.9,3.14,2.32,3.92.05,1.92,1.32,3.58,3.15,4.14.58,1.87,2.29,3.15,4.27,3.15s3.7-1.28,4.27-3.15c1.87-.58,3.15-2.29,3.15-4.27,0,0,0,0,0,0,1.3-.82,2.11-2.23,2.11-3.78ZM13.58,3.7c-.03.06-.06.11-.09.17-.06.02-.12.04-.17.07.09-.08.18-.15.27-.23ZM11.94,3.12c-.06.25-.14.52-.24.78-.08-.03-.16-.06-.24-.09.17-.22.33-.46.48-.69ZM8.42,3.87c-.09.03-.18.07-.27.11-.12-.3-.22-.6-.28-.89.17.27.36.52.55.78ZM7.71,5.58c.64-.56,1.47-.87,2.32-.87s1.59.27,2.23.79c0,0,0,0,0,0,.81.66,1.28,1.63,1.29,2.67,0,0,0,0,0,0,0,.01,0,.05,0,.06,0,1.06-.47,2.06-1.3,2.73,0,0,0,0,0,0-.1.08-.2.15-.33.24,0,0,0,0,0,0h0c-.3.19-.63.34-.97.43-.31.08-.62.13-.92.13s-.61-.04-.92-.13c-.35-.09-.67-.24-.97-.43h0c-.15-.09-.29-.2-.42-.32,0,0,0,0,0,0-.77-.67-1.21-1.64-1.21-2.65,0-.01,0-.03,0-.06.02-.99.45-1.94,1.2-2.59ZM6.51,3.93c-.06-.03-.12-.05-.19-.07-.03-.06-.07-.12-.1-.18.09.08.19.17.28.25ZM3.28,11.43c-1.24-.58-2.05-1.83-2.05-3.2,0-1.94,1.58-3.52,3.52-3.52.68,0,1.34.2,1.91.57-.7.79-1.1,1.81-1.12,2.88,0,0,0,0,0,0,0,0,0,.07,0,.08,0,1.09.41,2.14,1.12,2.95-.57.37-1.23.57-1.91.57-.51,0-1.01-.11-1.48-.33,0,0,0,0,0,0ZM6.25,15.44h0c-1.41-.34-2.45-1.5-2.66-2.9.38.1.77.16,1.17.16.95,0,1.87-.3,2.63-.86.07.05.15.11.22.15,0,0,0,0,0,0,.28.18.59.33.9.44.08.81.37,1.58.86,2.24-.64.55-1.46.86-2.3.86-.27,0-.55-.03-.83-.1ZM10.03,18.49c-1.38,0-2.6-.8-3.18-2.01.08,0,.15.01.23.01,1.09,0,2.14-.4,2.95-1.11.81.71,1.86,1.11,2.95,1.11.07,0,.15-.01.23-.01-.57,1.21-1.79,2.01-3.18,2.01ZM13.8,15.44h0c-.28.07-.56.1-.83.1-.98,0-1.93-.42-2.6-1.15-.45-.49-.74-1.09-.86-1.72.17.02.34.04.51.04.39,0,.78-.05,1.17-.16.44-.12.85-.3,1.23-.55h0s0,0,0,0c.04-.03.08-.05.11-.08.74.51,1.63.78,2.53.78.47,0,.94-.08,1.39-.23-.19,1.43-1.23,2.62-2.66,2.96ZM16.74,11.34s0,0,0,0h0c-.51.27-1.08.41-1.66.41-.62,0-1.24-.17-1.77-.48.77-.82,1.2-1.9,1.2-3.04,0-.01,0-.06,0-.07,0,0,0,0,0,0h0c-.02-1.11-.45-2.16-1.2-2.96.54-.31,1.15-.48,1.78-.48,1.94,0,3.52,1.58,3.52,3.52,0,1.3-.72,2.49-1.87,3.11ZM14.5,8.16s0,0,0,0h0s0,0,0,0Z"/>
</svg>