<?xml version="1.0" encoding="UTF-8"?>
<svg id="Layer_1" data-name="Layer 1" xmlns="http://www.w3.org/2000/svg" version="1.1" viewBox="0 0 19.84 19.84">
  <defs>
    <style>
      .cls-1, .cls-2 {
        fill: none;
      }

      .cls-1, .cls-3 {
        stroke-width: 0px;
      }

      .cls-2 {
        stroke: #000;
        stroke-width: .3px;
      }

      .cls-3 {
        fill: #231f20;
      }
    </style>
  </defs>
  <g>
    <line class="cls-2" x1="3.98" y1="-51.13" x2="3.98" y2="-15.13"/>
    <line class="cls-2" x1="-50.02" y1="2.87" x2="-14.02" y2="2.87"/>
    <line class="cls-2" x1="-50.02" y1="16.97" x2="-14.02" y2="16.97"/>
    <line class="cls-2" x1="3.98" y1="70.97" x2="3.98" y2="34.97"/>
    <line class="cls-2" x1="20.37" y1="-51.13" x2="20.37" y2="-15.13"/>
    <line class="cls-2" x1="74.37" y1="2.87" x2="38.37" y2="2.87"/>
    <line class="cls-2" x1="74.37" y1="16.97" x2="38.37" y2="16.97"/>
    <line class="cls-2" x1="20.37" y1="70.97" x2="20.37" y2="34.97"/>
  </g>
  <g>
    <path class="cls-1" d="M6.05,6.49c0-.29.24-.53.53-.53s.53.24.53.53-.24.53-.53.53h2.01c-.14-.41-.45-.74-.86-.92h0c-.4-.17-.78-.43-1.13-.76-.59-.56-1.57-.56-2.16,0-.35.33-.72.59-1.13.76-.41.17-.71.51-.86.92h4.12c-.29,0-.53-.24-.53-.53ZM5,6.49c-.29,0-.53-.24-.53-.53s.24-.53.53-.53.53.24.53.53-.24.53-.53.53Z"/>
    <path class="cls-1" d="M17.98,8.07H1.44c.47,1.84,2.13,3.16,4.08,3.16,1.41,0,2.72-.7,3.5-1.88.1-.15.26-.23.44-.23h8.51c.29,0,.53-.24.53-.53s-.24-.53-.53-.53Z"/>
    <path class="cls-3" d="M17.98,7.02h-8.3c-.17-.83-.73-1.54-1.53-1.89-.29-.12-.56-.31-.81-.55-.49-.47-1.13-.73-1.81-.73s-1.32.26-1.81.73c-.25.24-.53.43-.81.55-.8.34-1.36,1.05-1.53,1.89h-.56c-.15,0-.29.06-.39.18-.1.11-.15.26-.13.41.3,2.67,2.55,4.69,5.24,4.69,1.66,0,3.22-.78,4.21-2.11h8.24c.87,0,1.58-.71,1.58-1.58s-.71-1.58-1.58-1.58ZM3.32,6.1c.4-.17.78-.43,1.13-.76.59-.56,1.57-.56,2.16,0,.35.33.72.59,1.13.76h0c.41.17.71.51.86.92H2.46c.14-.41.45-.74.86-.92ZM17.98,9.13h-8.51c-.18,0-.34.09-.44.23-.79,1.17-2.1,1.88-3.5,1.88-1.95,0-3.61-1.32-4.08-3.16h16.54c.29,0,.53.24.53.53s-.24.53-.53.53Z"/>
    <path class="cls-3" d="M3.94,15.46c-.29,0-.53.24-.53.53s.24.53.53.53.53-.24.53-.53-.24-.53-.53-.53Z"/>
    <circle class="cls-3" cx="6.05" cy="14.93" r=".53"/>
    <path class="cls-3" d="M7.11,15.98c-.29,0-.53.24-.53.53s.24.53.53.53.53-.24.53-.53-.24-.53-.53-.53Z"/>
    <path class="cls-3" d="M8.16,13.35c-.29,0-.53.24-.53.53s.24.53.53.53.53-.24.53-.53-.24-.53-.53-.53Z"/>
    <path class="cls-3" d="M1.83,13.35c-.29,0-.53.24-.53.53s.24.53.53.53.53-.24.53-.53-.24-.53-.53-.53Z"/>
    <path class="cls-3" d="M7.11,6.49c0-.29-.24-.53-.53-.53s-.53.24-.53.53.24.53.53.53.53-.24.53-.53Z"/>
    <path class="cls-3" d="M9.22,4.91c.29,0,.53-.24.53-.53s-.24-.53-.53-.53-.53.24-.53.53.24.53.53.53Z"/>
    <circle class="cls-3" cx="5" cy="5.97" r=".53"/>
    <path class="cls-3" d="M3.42,3.86c.29,0,.53-.24.53-.53s-.24-.53-.53-.53-.53.24-.53.53.24.53.53.53Z"/>
  </g>
</svg>