<?xml version="1.0" encoding="UTF-8"?>
<svg id="Layer_1" data-name="Layer 1" xmlns="http://www.w3.org/2000/svg" version="1.1" viewBox="0 0 19.84 19.84">
  <defs>
    <style>
      .cls-1 {
        fill: #fff;
      }

      .cls-1, .cls-2 {
        stroke-width: 0px;
      }

      .cls-2 {
        fill: #231f20;
      }
    </style>
  </defs>
  <path class="cls-1" d="M17.14,13.58c-.06.03-.14.04-.2.07.04.08.08.15.13.23.02.04.05.09.07.13.06-.01.12,0,.18-.03.77-.31.94-.85.97-1.65-.19.51-.52.98-1.14,1.25Z"/>
  <path class="cls-2" d="M18.77,6.84l-.28-.88c-.47-1.53-2.42-3.53-4.26-4.36-1.01-.46-1.93-.53-2.65-.21-.89.4-1.51.94-1.87,1.59-.17-.12-.35-.26-.53-.41-.86-.7-2.16-1.74-3.63-.86-.43.25-.69.64-.83,1.1-.83-.29-1.58-.31-2.19-.04C.48,3.68-.21,5.36.64,7.37c.51,1.2,1.45,3.04,2.21,4.51l.6,1.17c.84,1.66,2.65,3.62,4.42,3.62.29,0,.58-.05.87-.17.25-.1.46-.22.64-.36.14.1.3.21.43.3l1.06.74c1.1.78,2.73,1.46,4.14,1.46.85,0,1.63-.25,2.16-.88.77-.92.76-1.82.51-2.6.04-.01.08-.02.11-.03,1.81-.74,1.76-2.39,1.74-3.48,0-.3-.02-.59.01-.84.14-1.14-.28-2.46-.77-3.98ZM17.31,13.98c-.06.02-.12.02-.18.03-.02-.04-.05-.09-.07-.13-.05-.08-.09-.16-.13-.23.07-.02.14-.04.2-.07.62-.26.95-.74,1.14-1.25-.02.79-.2,1.33-.97,1.65ZM16.21,16.97c-.32.38-.9.48-1.57.41.58-.1,1-.38,1.28-.73.38-.47.47-.99.42-1.47.31.66.37,1.19-.14,1.8ZM7.63,2.96c-.38-.07-.77-.05-1.15.17-.31.18-.51.45-.64.77-.03-.54.07-.97.35-1.13.47-.28.91-.16,1.44.19ZM16.66,13.08c-.2-.49-.51-.95-.9-1.42.03-.54,0-1.03-.09-1.42l-.19-.93c-.33-1.65-.6-2.95-1.19-3.91-.14-.22-.26-.49-.39-.77-.4-.86-.94-1.98-2.03-2.29.05-.02.09-.05.14-.06.09-.03.18-.04.28-.04,1.07,0,2.89,1.46,3.87,2.47.57.59.86,1.9,1.06,2.77.04.19.08.36.12.5.05.2.12.42.18.66.19.68.44,1.53.41,2.01v.13c-.04.69-.11,1.83-1.02,2.22-.08.03-.16.05-.24.07ZM15.44,16.26h0c-.37.46-.9.59-1.5.52.09-.09.18-.18.27-.29.5-.64.88-1.53,1.14-2.46.27.6.66,1.53.09,2.24ZM3.93,10.57c-.29-.66-.73-1.45-1.17-2.21-.49-.87-1-1.78-1.07-2.15-.1-.57.32-1.88,1.48-2.25.08-.03.17-.04.27-.04.34,0,.75.16,1.19.39.14,1.19.65,2.49,1.18,3.41l.13.22c-.27.16-.52.34-.7.57-.82,1.05-1.08,2.11-.81,3.09-.19-.37-.36-.73-.5-1.05ZM6.32,4.3c.07-.28.22-.49.47-.63.7-.4,1.65.26,2.21.66-.37,1.1-.47,2.44-.4,3.46l.08,1.3c.02.33.04.68.06,1.03-.22-.4-.44-.78-.65-1.1-1.37-2.13-2-3.8-1.77-4.71ZM11.13,3.49c.54-.04.88.27,1.2.81-.31-.23-.67-.39-1.1-.36-.36.02-.66.18-.92.41.22-.5.49-.83.81-.86ZM8.2,13.47c-.83-.53-1.69-1.07-1.91-1.36-.35-.44-.57-1.78.28-2.64.05-.05.11-.08.17-.12.74,1.29,1.58,2.74,2.22,3.74.03.34.06.65.1.93-.28-.18-.57-.37-.86-.55ZM10.4,15.05c-.12-.39-.15-1.47-.18-2.52-.03-.91-.05-1.85-.14-2.6-.28-2.51-.1-4.29.5-5.01.19-.22.41-.34.7-.36.02,0,.04,0,.06,0,.77,0,1.31.98,1.63,1.57l.06.11c.24.43.43,1.28.6,2.02.06.24.11.48.16.68.04.15.08.32.14.51.24.88.61,2.22.46,3.02-.3,1.58-1.09,3.87-1.88,4.01-.94.18-1.89-.76-2.11-1.44ZM5.73,13.49c.34.28.78.61,1.24.95-.57-.16-1.1-.65-1.57-1.27.11.11.21.22.34.32ZM6.7,15c.22.07.44.12.64.12.17,0,.32-.03.47-.06.14.1.29.21.44.31-.45.18-1,0-1.55-.36Z"/>
  <path class="cls-1" d="M17.92,10.79v-.13c.04-.48-.21-1.33-.4-2.01-.07-.23-.13-.46-.18-.66-.04-.14-.08-.32-.12-.5-.2-.87-.5-2.18-1.06-2.77-.98-1.01-2.79-2.47-3.87-2.47-.1,0-.2.01-.28.04-.05.02-.09.04-.14.06,1.1.32,1.63,1.43,2.03,2.29.13.28.25.55.39.77.59.96.86,2.26,1.19,3.91l.19.93c.08.4.11.89.09,1.42.39.47.71.93.9,1.42.08-.02.16-.04.24-.07.92-.39.98-1.54,1.02-2.22Z"/>
  <path class="cls-1" d="M7.82,15.05c-.15.04-.31.06-.47.06-.2,0-.42-.05-.64-.12.55.37,1.1.54,1.55.36-.15-.1-.29-.21-.44-.31Z"/>
  <path class="cls-1" d="M5.24,8.53c.18-.23.42-.41.7-.57l-.13-.22c-.53-.92-1.04-2.22-1.18-3.41-.44-.24-.85-.39-1.19-.39-.1,0-.19.01-.27.04-1.16.37-1.59,1.68-1.48,2.25.07.37.58,1.27,1.07,2.15.43.76.88,1.56,1.17,2.21.14.32.31.68.5,1.05-.27-.98-.01-2.04.81-3.09Z"/>
  <path class="cls-1" d="M6.96,14.43c-.46-.34-.9-.67-1.24-.95-.13-.1-.23-.21-.34-.32.47.62,1,1.11,1.57,1.27Z"/>
  <path class="cls-1" d="M15.92,16.65c-.29.35-.7.64-1.28.73.67.07,1.25-.03,1.57-.41.51-.61.45-1.13.14-1.8.04.49-.04,1-.42,1.47Z"/>
  <path class="cls-1" d="M15.35,14.02c-.26.93-.65,1.82-1.14,2.46-.09.11-.18.2-.27.29.59.07,1.12-.06,1.5-.52h0c.58-.71.19-1.64-.09-2.24Z"/>
  <path class="cls-1" d="M9.06,14.02c-.03-.29-.07-.6-.1-.93-.65-1-1.48-2.44-2.22-3.74-.06.04-.12.07-.17.12-.85.86-.63,2.19-.28,2.64.23.29,1.08.83,1.91,1.36.29.18.58.37.86.55Z"/>
  <path class="cls-1" d="M5.83,3.9c.14-.32.33-.59.64-.77.37-.21.77-.24,1.15-.17-.53-.35-.97-.47-1.44-.19-.28.17-.38.59-.35,1.13Z"/>
  <path class="cls-1" d="M8.1,9.01c.21.32.43.7.65,1.1-.02-.35-.04-.7-.06-1.03l-.08-1.3c-.07-1.02.03-2.35.4-3.46-.56-.4-1.51-1.06-2.21-.66-.24.14-.4.35-.47.63-.22.91.41,2.58,1.77,4.71Z"/>
  <path class="cls-1" d="M11.24,3.95c.42-.03.79.13,1.1.36-.32-.54-.66-.86-1.2-.81-.32.03-.6.36-.81.86.26-.23.56-.38.92-.41Z"/>
  <path class="cls-1" d="M12.51,16.49c.79-.14,1.57-2.43,1.88-4.01.15-.8-.21-2.13-.46-3.02-.05-.19-.1-.36-.14-.51-.05-.21-.11-.44-.16-.68-.17-.75-.37-1.59-.6-2.02l-.06-.11c-.32-.59-.86-1.57-1.63-1.57-.02,0-.04,0-.06,0-.28.02-.51.13-.7.36-.6.72-.78,2.49-.5,5.01.08.74.11,1.68.14,2.6.03,1.05.06,2.13.18,2.52.22.69,1.17,1.62,2.11,1.44Z"/>
</svg>