<?xml version="1.0" encoding="UTF-8"?>
<svg id="Layer_1" data-name="Layer 1" xmlns="http://www.w3.org/2000/svg" version="1.1" viewBox="0 0 19.84 19.84">
  <defs>
    <style>
      .cls-1 {
        fill: #be2227;
      }

      .cls-1, .cls-2 {
        stroke-width: 0px;
      }

      .cls-2 {
        fill: #fff;
      }
    </style>
  </defs>
  <path class="cls-2" d="M8.73,5.85l-2.11-2.71c-.1-.13-.08-.32.05-.42.13-.1.32-.08.42.05l2.28,2.93c-.49-.97-1.04-1.97-1.32-2.33-.46-.59-1.06-.91-1.44-.91-.08,0-.14.01-.2.04-.05.02-.12.07-.15.2-.05.22.02.65.42,1.16.28.36,1.17,1.2,2.04,1.99Z"/>
  <path class="cls-2" d="M12.51,3.37c-.28.36-.83,1.37-1.32,2.33l2.28-2.94c.1-.13.29-.16.42-.05.13.1.15.29.05.42l-2.11,2.71c.87-.79,1.76-1.63,2.04-1.99.39-.5.47-.94.42-1.16-.03-.13-.1-.17-.15-.2-.06-.03-.12-.04-.2-.04-.38,0-.98.32-1.44.91Z"/>
  <path class="cls-2" d="M9.98,4.94V1.43c0-.17.13-.3.3-.3s.3.13.3.3v3.51c.24-1.09.47-2.3.47-2.74,0-.71-.36-1.31-.77-1.31s-.77.6-.77,1.31c0,.44.23,1.65.47,2.74Z"/>
  <path class="cls-2" d="M7.81,15.42c.94.44,1.68,1.2,2.11,2.15.44-.94,1.19-1.71,2.11-2.15.99-.47,1.78-1.25,2.27-2.19h-2.65c-.25,0-.45-.2-.45-.45s.2-.45.45-.45h3.03c.06-.19.1-.38.13-.58h-4.62c-.25,0-.45-.2-.45-.45s.2-.45.45-.45h4.69c-.05-3.37-3.48-3.74-4.97-3.74-.82,0-2.24.12-3.36.79h1.35c.25,0,.45.2.45.45s-.2.45-.45.45h-2.34c-.38.53-.62,1.21-.62,2.11,0,1.92,1.12,3.68,2.86,4.5Z"/>
  <path class="cls-1" d="M15.76,11.31s0,0,0,0c0,0,0,0,0,0,0-.13.03-.25.03-.38,0-2.32-1.38-3.88-3.75-4.45,1.14-1.05,2.29-2.21,2.3-2.24.44-.57.64-1.19.53-1.67-.07-.27-.24-.49-.48-.6-.65-.3-1.66.15-2.36,1.04-.11.14-.37.58-.69,1.15.19-1.04.31-1.94.31-1.96,0-1.07-.6-1.91-1.37-1.91s-1.37.84-1.37,1.91c0,.02.12.92.31,1.96-.32-.57-.58-1.01-.69-1.15-.7-.9-1.71-1.34-2.36-1.04-.24.11-.42.33-.48.6-.11.47.08,1.1.53,1.67.02.02,1.07,1.1,2.17,2.12-1.46.23-2.59.8-3.33,1.67-.02.02-.04.04-.06.06-.62.75-.95,1.71-.95,2.85,0,2.27,1.33,4.35,3.38,5.31.94.44,1.66,1.34,1.92,2.4l.14.57c.05.2.23.35.44.35s.39-.14.44-.35l.14-.57c.26-1.06.97-1.96,1.92-2.4,1.39-.65,2.44-1.83,2.97-3.22.03-.05.05-.11.06-.17.17-.49.28-1.01.31-1.54ZM5.57,8.8h2.34c.25,0,.45-.2.45-.45s-.2-.45-.45-.45h-1.35c1.11-.67,2.53-.79,3.36-.79,1.49,0,4.92.37,4.97,3.74h-4.69c-.25,0-.45.2-.45.45s.2.45.45.45h4.62c-.03.19-.07.39-.13.58h-3.03c-.25,0-.45.2-.45.45s.2.45.45.45h2.65c-.5.94-1.28,1.72-2.27,2.19-.92.43-1.67,1.2-2.11,2.15-.44-.95-1.17-1.71-2.11-2.15-1.74-.81-2.86-2.58-2.86-4.5,0-.9.24-1.59.62-2.11ZM6.28,2.7c.03-.13.1-.17.15-.2.06-.03.12-.04.2-.04.38,0,.98.32,1.44.91.28.36.83,1.37,1.32,2.33l-2.28-2.93c-.1-.13-.29-.16-.42-.05-.13.1-.15.29-.05.42l2.11,2.71c-.87-.79-1.76-1.63-2.04-1.99-.39-.5-.47-.94-.42-1.16ZM10.28.88c.42,0,.77.6.77,1.31,0,.44-.23,1.65-.47,2.74V1.43c0-.17-.13-.3-.3-.3s-.3.13-.3.3v3.51c-.24-1.09-.47-2.3-.47-2.74,0-.71.35-1.31.77-1.31ZM14.14,2.51c.05.02.12.07.15.2.05.22-.02.65-.42,1.16-.28.36-1.17,1.2-2.04,1.99l2.11-2.71c.1-.13.08-.32-.05-.42-.13-.1-.32-.08-.42.05l-2.28,2.94c.49-.97,1.04-1.97,1.32-2.33.46-.59,1.06-.91,1.44-.91.07,0,.14.01.2.04Z"/>
</svg>