<?xml version="1.0" encoding="UTF-8"?>
<svg id="Layer_1" data-name="Layer 1" xmlns="http://www.w3.org/2000/svg" version="1.1" viewBox="0 0 19.84 19.84">
  <defs>
    <style>
      .cls-1 {
        fill: #7f1718;
        stroke-width: 0px;
      }
    </style>
  </defs>
  <path class="cls-1" d="M11.85,10.48c-.96,0-1.86.38-2.53,1.08-.44.36-.74.61-1.48.61-.79,0-1.03-.21-1.45-.58-.64-.69-1.59-1.11-2.56-1.11-1.95,0-3.54,1.59-3.54,3.54v.12c0,2.94,3.39,5.33,7.55,5.33s7.55-2.34,7.55-5.33v-.12c0-1.95-1.59-3.54-3.54-3.54ZM14.44,14.14c0,2.45-2.9,4.37-6.6,4.37s-6.6-1.96-6.6-4.37v-.12c0-1.42,1.16-2.58,2.58-2.58.72,0,1.39.29,1.89.83.01.01.02.02.04.03.49.43.94.82,2.09.82,1.09,0,1.61-.43,2.07-.81.02-.01.05-.05.07-.06.49-.52,1.16-.81,1.88-.81,1.42,0,2.58,1.16,2.58,2.58v.12Z"/>
  <path class="cls-1" d="M9.01,13.78h-.02c-.33.25-.57.42-1.16.42-.63,0-.81-.14-1.15-.4h0c-.21-.17-.51-.13-.67.08-.16.21-.12.51.09.67h0c.4.31.78.6,1.73.6s1.34-.31,1.72-.59h.02c.21-.17.26-.47.11-.68-.15-.21-.45-.26-.67-.11h0Z"/>
  <path class="cls-1" d="M16.02.37c-.97,0-1.86.38-2.54,1.08-.43.36-.74.6-1.48.6-.79,0-1.03-.21-1.45-.58-.64-.69-1.59-1.11-2.56-1.11-1.95,0-3.54,1.59-3.54,3.54v.12c0,2.94,3.39,5.33,7.55,5.33s7.55-2.34,7.55-5.33v-.12c0-1.95-1.59-3.54-3.54-3.54ZM18.6,4.03c0,2.45-2.9,4.37-6.6,4.37s-6.6-1.96-6.6-4.37v-.12c0-1.42,1.16-2.58,2.58-2.58.72,0,1.39.29,1.89.83.01.01.02.02.04.03.49.43.94.82,2.09.82s1.61-.43,2.07-.81c.02-.01.05-.05.07-.06.49-.52,1.16-.81,1.88-.81,1.42,0,2.58,1.16,2.58,2.58v.12Z"/>
  <path class="cls-1" d="M13.18,3.67s-.02.01-.02.01c-.33.24-.57.41-1.16.41-.63,0-.81-.14-1.15-.4h0c-.21-.17-.51-.13-.67.08-.16.21-.12.51.09.67h0c.4.31.78.6,1.73.6s1.34-.31,1.72-.59h.02c.21-.17.26-.47.11-.68-.15-.21-.45-.26-.67-.11h0Z"/>
</svg>