<?xml version="1.0" encoding="UTF-8"?>
<svg id="Layer_1" data-name="Layer 1" xmlns="http://www.w3.org/2000/svg" version="1.1" viewBox="0 0 19.84 19.84">
  <defs>
    <style>
      .cls-1 {
        fill: #962121;
        stroke-width: 0px;
      }

      .cls-2 {
        fill: none;
        stroke: #000;
        stroke-width: .3px;
      }
    </style>
  </defs>
  <g>
    <line class="cls-2" x1="3.98" y1="-51.13" x2="3.98" y2="-15.13"/>
    <line class="cls-2" x1="-50.02" y1="2.87" x2="-14.02" y2="2.87"/>
    <line class="cls-2" x1="-50.02" y1="16.97" x2="-14.02" y2="16.97"/>
    <line class="cls-2" x1="3.98" y1="70.97" x2="3.98" y2="34.97"/>
    <line class="cls-2" x1="20.37" y1="-51.13" x2="20.37" y2="-15.13"/>
    <line class="cls-2" x1="74.37" y1="2.87" x2="38.37" y2="2.87"/>
    <line class="cls-2" x1="74.37" y1="16.97" x2="38.37" y2="16.97"/>
    <line class="cls-2" x1="20.37" y1="70.97" x2="20.37" y2="34.97"/>
  </g>
  <g>
    <path class="cls-1" d="M19,3.83c-1.81-.49-3.85-.35-5.59.4-1.82.79-3.11,2.16-3.55,3.76-.06.22-.12.51-.18.82-.04-.48-.03-.96.04-1.44.27-1.85,1.05-3.28,2.33-4.23,1.59-1.19,3.93-1.59,6.77-1.17.35.05.68-.19.74-.55.05-.35-.19-.68-.55-.74-3.18-.47-5.85.02-7.73,1.41-1.54,1.15-2.52,2.9-2.84,5.08-.29,1.99.19,4,1.35,5.69v5.79c0,.36.29.65.65.65s.65-.29.65-.65v-5.89c.72-2.54,2.58-5.3,7.34-4.2.35.08.7-.14.78-.49s-.14-.7-.49-.78c-4.39-1.01-6.7.78-7.91,2.82.05-.62.16-1.26.31-1.81.33-1.22,1.36-2.28,2.81-2.91,1.47-.64,3.2-.76,4.73-.34.35.1.7-.11.8-.45.09-.34-.11-.7-.45-.8Z"/>
    <path class="cls-1" d="M6.96,3.72c-2.62.54-4.6,2.18-5.17,4.27-.06.22-.12.51-.18.82-.04-.48-.03-.96.04-1.44.53-3.65,3.14-5.64,7.2-5.55.35.03.65-.28.66-.64s-.28-.65-.64-.66C4.05.46.99,2.88.36,7.19c-.29,1.99.2,4,1.35,5.69v5.79c0,.36.29.65.65.65s.65-.29.65-.65v-5.89c.38-1.36,1.19-3.12,2.92-3.95.32-.16.46-.54.3-.87-.16-.32-.54-.45-.87-.3-1.07.52-1.96,1.36-2.63,2.48.05-.62.16-1.26.31-1.8.44-1.62,2.04-2.9,4.19-3.34.35-.07.58-.42.5-.77s-.42-.57-.77-.5Z"/>
  </g>
</svg>