<?xml version="1.0" encoding="UTF-8"?>
<svg id="Layer_1" data-name="Layer 1" xmlns="http://www.w3.org/2000/svg" version="1.1" viewBox="0 0 19.84 19.84">
  <defs>
    <style>
      .cls-1 {
        stroke: #793919;
        stroke-linecap: round;
        stroke-linejoin: round;
        stroke-width: .75px;
      }

      .cls-1, .cls-2 {
        fill: none;
      }

      .cls-2 {
        stroke: #000;
        stroke-width: .3px;
      }
    </style>
  </defs>
  <g>
    <line class="cls-2" x1="3.98" y1="-51.13" x2="3.98" y2="-15.13"/>
    <line class="cls-2" x1="-50.02" y1="2.87" x2="-14.02" y2="2.87"/>
    <line class="cls-2" x1="-50.02" y1="16.97" x2="-14.02" y2="16.97"/>
    <line class="cls-2" x1="3.98" y1="70.97" x2="3.98" y2="34.97"/>
    <line class="cls-2" x1="20.37" y1="-51.13" x2="20.37" y2="-15.13"/>
    <line class="cls-2" x1="74.37" y1="2.87" x2="38.37" y2="2.87"/>
    <line class="cls-2" x1="74.37" y1="16.97" x2="38.37" y2="16.97"/>
    <line class="cls-2" x1="20.37" y1="70.97" x2="20.37" y2="34.97"/>
  </g>
  <path class="cls-1" d="M19.1,11.82s-.02,0-.04,0c-.01,0-.03-.01-.05-.02-.07-.03-.17-.09-.28-.19-.05-.05-.11-.11-.17-.18-.06-.07-.12-.15-.19-.23,0-.01-.02-.02-.03-.03,0-.01-.02-.02-.03-.03-.02-.02-.04-.04-.06-.06-.02-.02-.04-.04-.06-.06-.02-.02-.04-.04-.07-.06-.05-.04-.09-.08-.15-.12-.03-.02-.05-.04-.08-.06-.03-.02-.05-.04-.08-.06-.22-.15-.48-.27-.76-.38-.28-.11-.58-.19-.88-.28-.3-.09-.61-.18-.91-.3-.15-.06-.29-.12-.43-.2-.02,0-.03-.02-.05-.03l-.05-.03-.05-.03s-.03-.02-.05-.03c-.03-.02-.07-.04-.09-.06l-.04-.03-.02-.02-.03-.02-.05-.04-.03-.02h0s0-.01,0,0h0s-.01-.01-.01-.01l-.08-.08s-.05-.06-.08-.08c-.01-.01-.03-.03-.04-.04l-.04-.04c-.05-.06-.1-.12-.15-.18-.05-.06-.09-.13-.14-.2-.04-.07-.09-.14-.13-.2-.04-.07-.08-.14-.12-.21-.08-.14-.16-.29-.24-.44-.08-.15-.16-.29-.24-.44-.02-.04-.04-.08-.06-.11-.01-.02-.02-.04-.03-.05,0-.02-.02-.03-.03-.05,0-.02-.02-.03-.03-.05.01,0,.02,0,.04,0,.07,0,.15,0,.23,0,.08,0,.16,0,.24,0,.08,0,.17.01.26.02.04,0,.09,0,.13.02.04,0,.09.01.13.02.02,0,.04,0,.07.01.02,0,.04,0,.07.01.04,0,.09.02.13.03.04.01.09.03.13.04.04.02.09.03.13.05.05.01.09.03.13.05.04.02.09.04.13.06.04.02.08.05.13.07.04.03.08.05.12.08.02.01.04.03.06.04l.03.02.03.02s.08.06.12.09c.08.06.16.13.24.2.08.07.16.14.24.21l.03.02h0s0,0,0,0h0s0,0,0,0h.02s.04.04.06.06l.03.02.03.02s.04.03.07.04c.17.11.35.2.52.27.17.07.34.12.49.16.15.03.3.06.42.07.06,0,.12,0,.18.01.05,0,.11,0,.15,0,.05,0,.09,0,.12,0,.04,0,.06,0,.09,0,.05,0,.07,0,.07,0,0,0-.03,0-.07,0-.02,0-.05,0-.09,0-.03,0-.07,0-.12-.01-.04,0-.09-.01-.15-.02-.05-.01-.11-.02-.17-.03-.12-.03-.26-.07-.4-.12-.14-.05-.29-.12-.45-.21-.15-.09-.3-.19-.45-.32-.02-.02-.04-.03-.05-.05,0,0-.02-.02-.03-.02l-.03-.03s-.04-.04-.06-.05h-.01s0-.02,0-.02h0s0,0,0,0h0s-.03-.03-.03-.03c-.07-.07-.14-.15-.21-.23-.07-.08-.14-.16-.22-.24-.04-.04-.08-.08-.12-.12l-.03-.03-.03-.03s-.04-.04-.07-.06c-.04-.04-.09-.07-.13-.11-.05-.03-.09-.07-.14-.1-.04-.03-.09-.06-.14-.09.03,0,.07-.02.1-.03.08-.02.17-.04.27-.05.1-.01.2-.02.3-.01.11,0,.21.02.33.04h.04s.01.01.01.01h0s0,0,0,0h0s0,0,0,0h.02s.04.02.04.02h.04c.05.03.11.04.17.06.22.07.45.17.66.25.05.02.11.04.16.06.05.02.1.03.16.05.1.03.2.05.29.06.09.01.17.02.25.02.07,0,.14,0,.19-.02.03,0,.05,0,.07-.01.02,0,.04,0,.05-.01.03,0,.04-.01.04-.01,0,0-.01,0-.04,0-.01,0-.03,0-.05,0-.02,0-.04,0-.07,0-.05,0-.12,0-.19,0-.07,0-.15-.02-.24-.04-.09-.02-.18-.05-.27-.09-.05-.02-.1-.04-.14-.06-.05-.02-.1-.05-.15-.07-.2-.1-.41-.23-.64-.33-.06-.03-.11-.05-.17-.08l-.04-.02-.04-.02h-.02s0,0,0,0h0s0,0,0,0h-.01s-.04-.02-.04-.02c-.12-.04-.24-.07-.36-.08-.12-.02-.23-.03-.34-.03-.11,0-.21,0-.31.02-.42.05-.67.1-1.08-.02-.1-.03-.19-.04-.28-.06-.09-.02-.18-.03-.27-.05-.09-.01-.17-.02-.25-.03-.16-.02-.31-.03-.43-.04-.06,0-.12,0-.18-.01-.03,0-.05,0-.08,0-.03-.03-.06-.06-.09-.09,0,0,0,0,0,0-.39-.39-.61-.92-.61-1.49v-2.56h-3.06c-.09.92.09,3.47-.82,3.8-.58.21-1.2.51-1.66.96-.03.03-.05.05-.08.08-.05.05-.1.11-.15.16l-.02.02v.02s-.02,0-.02,0l-.03.04-.03.04-.04.05-.04.05-.03.05s-.04.06-.07.09c-.04.06-.08.12-.12.19-.08.12-.16.25-.23.37-.08.12-.15.24-.24.35-.04.05-.08.11-.13.16l-.03.04h0s0,.01,0,.01c0,0,0,0,0,0h0s-.02.02-.02.02l-.08.08-.07.06s-.02.02-.04.03l-.04.03c-.05.04-.1.08-.16.12-.11.07-.22.14-.34.2-.24.12-.49.22-.73.29-.25.08-.49.14-.73.21-.23.06-.46.12-.66.19-.2.06-.39.13-.55.2-.16.07-.3.14-.41.2-.03.02-.05.03-.08.04-.02.01-.05.03-.07.04-.04.03-.08.05-.1.07-.05.04-.08.06-.08.06,0,0,.03-.02.09-.05.03-.02.07-.04.11-.06.02-.01.04-.02.07-.03.03-.01.05-.02.08-.04.11-.05.25-.1.42-.15.16-.05.35-.09.55-.14.2-.04.43-.08.67-.11.24-.04.49-.08.75-.13.26-.05.53-.12.81-.22.14-.05.27-.11.41-.19.07-.04.13-.08.2-.12.04-.02.07-.05.11-.07-.04.08-.08.17-.15.26-.06.08-.12.16-.2.24-.08.08-.16.16-.25.24-.04.04-.09.08-.13.12-.04.04-.09.08-.13.13-.09.08-.18.17-.26.26-.04.05-.08.09-.12.14-.02.02-.04.05-.06.07-.02.02-.04.05-.06.07-.04.04-.07.09-.11.14-.03.05-.06.09-.09.14-.06.09-.11.18-.15.27-.02.04-.04.08-.05.13-.02.04-.03.08-.04.12-.01.04-.02.07-.03.1,0,.03-.01.06-.02.09,0,.01,0,.03,0,.04,0,.01,0,.02,0,.03,0,.02,0,.04,0,.05,0,.03,0,.05,0,.05,0,0,0-.02.01-.04,0-.01,0-.03.01-.05,0-.01,0-.02,0-.03,0-.01,0-.02.01-.04,0-.03.02-.06.03-.09.01-.03.03-.06.04-.1.01-.04.03-.07.05-.11.02-.04.04-.08.06-.12.05-.08.1-.16.17-.24.03-.04.07-.08.1-.12.04-.04.07-.08.11-.12.02-.02.04-.04.06-.06.02-.02.04-.04.06-.06.04-.04.09-.08.13-.12.09-.08.18-.15.28-.23.05-.04.1-.07.14-.11.05-.04.1-.07.14-.11.1-.07.19-.15.28-.22.47-.41.54-.98.9-1.44.09-.12.18-.23.26-.34.04-.05.09-.11.13-.16.02-.03.04-.05.06-.07l.03-.04.03-.03.03-.03.04-.04.04-.04h0s0,0,0,0h0s0,0,0,0h.02c.04-.05.09-.09.13-.13.02-.02.05-.04.07-.05.02-.02.05-.03.07-.05.02-.02.05-.03.07-.05.02-.01.05-.03.07-.04.19-.12.38-.2.56-.28.18-.07.36-.13.51-.17.13-.04.25-.07.35-.09-.06.1-.12.2-.18.32-.02.05-.05.1-.07.15,0,0,0,0,0,0,0,.02-.02.04-.02.05-.03.07-.06.14-.09.22-.1.24-.17.5-.23.76-.07.31-.14.62-.34.87-.26.32-.62.53-.87.86-.13.17-.26.36-.37.57-.03.05-.06.1-.08.16-.03.05-.05.11-.08.16-.03.05-.05.11-.08.17l-.02.04h0s0,.01,0,.01h0s0,.01,0,.01v.02s-.03.05-.04.08c-.05.12-.09.23-.13.34-.04.11-.08.22-.12.34-.08.22-.16.44-.26.63-.1.2-.22.38-.35.53-.13.16-.28.3-.43.42-.15.12-.3.22-.44.31-.14.09-.28.16-.4.23-.12.06-.23.12-.32.16-.18.09-.28.14-.28.14,0,0,.11-.04.29-.1.09-.03.2-.07.33-.12.13-.05.27-.11.43-.18.15-.07.32-.16.49-.26.17-.11.34-.23.51-.39.02-.02.04-.04.06-.06.02-.02.04-.04.06-.06.02-.02.04-.04.06-.07.01-.01.02-.02.03-.03l.03-.03s.04-.04.05-.07v-.02s.03-.02.03-.02l.03-.04s.04-.05.05-.07c.02-.03.03-.05.05-.08.13-.21.24-.43.35-.64.05-.11.1-.21.15-.32.05-.1.1-.21.15-.3.01-.03.03-.05.04-.08v-.02s.02,0,.02,0h0s0,0,0,0h0s.02-.04.02-.04c.03-.05.05-.09.08-.14.03-.04.06-.09.09-.13.03-.04.06-.09.09-.13.12-.17.25-.32.38-.45.13-.13.26-.25.38-.35.06-.05.12-.09.18-.14.03-.02.07-.05.1-.07,0,.03,0,.07.01.1,0,.05.02.1.03.15v.08s.02.04.02.04v.02s0,.02,0,.02h0s0,.01,0,.01c.01.05.02.09.03.14l.02.07s.01.05.02.08c.01.05.03.1.04.15v.04s.02.04.02.04l.02.07c.09.2.6,1.15.41,1.29-.21.16-.55.36-.67.62-.04.05-.07.11-.11.17-.02.03-.03.06-.05.09-.02.03-.03.06-.05.09-.06.13-.12.26-.17.4-.05.14-.09.28-.13.43-.03.14-.06.29-.08.43-.02.14-.04.29-.06.42-.02.14-.03.27-.05.39-.01.12-.03.24-.04.35,0,.05-.02.11-.02.16,0,.05-.02.1-.02.14-.02.09-.03.16-.04.23-.01.06-.02.11-.03.14,0,.03-.01.05-.01.05,0,0,0-.02.02-.05.01-.03.03-.08.05-.14.02-.06.04-.14.06-.22.01-.04.02-.09.04-.14.01-.05.02-.1.04-.15.02-.11.05-.22.08-.35.03-.12.06-.25.08-.39.03-.13.06-.27.1-.41.04-.14.08-.27.12-.41.05-.13.1-.26.15-.38.06-.12.12-.24.19-.35.02-.03.03-.05.05-.08.02-.03.03-.05.05-.07.04-.05.07-.09.11-.14.07-.09.15-.16.22-.22.04-.03.07-.06.11-.08.03-.02.07-.04.1-.06.03-.02.06-.03.09-.05.01,0,.03-.01.04-.02.01,0,.02,0,.03-.01.01,0,.02,0,.03-.01h0s0,0,0,0c0,0,.01,0,.02,0,0,0,.02,0,.02,0,.06.15.12.3.17.45.01.04.03.09.04.13l.02.06.02.06s.02.09.04.13c.01.04.02.09.03.13,0,.04.02.09.03.13,0,.04.01.09.02.13v.06s.01,0,.01,0c0,0,0,0,0,0h0s0,.02,0,.02v.03s.01.07.01.07c0,.02,0,.05,0,.07,0,.04,0,.08,0,.12,0,.04,0,.09,0,.13,0,.04,0,.08,0,.13,0,.04,0,.08,0,.13,0,.17-.03.33-.05.49-.05.32-.13.62-.21.89-.08.27-.18.52-.26.74-.08.22-.14.42-.17.59-.03.17-.03.31-.02.4,0,.02,0,.04,0,.06,0,.02,0,.03,0,.04,0,.02,0,.04,0,.04,0,0,0-.01,0-.04,0-.01,0-.03,0-.04,0-.02,0-.04,0-.06,0-.09.01-.22.06-.38.04-.16.12-.35.22-.56.1-.21.22-.45.33-.71.11-.27.22-.57.31-.9.03-.11.06-.22.08-.34.28.15.46.4.52.74.05.26.03.52.05.78.04.56.27,1.11.62,1.53-.33-.39-.46-.93-.48-1.46,0-.27.01-.54-.01-.81-.02-.28-.19-.66-.37-.86-.18-.2-.26-.31-.25-.65,0-.03,0-.05,0-.07v-.07s0-.03,0-.03v-.02s0,0,0,0c0,0,0,0,0,0h0s0-.08,0-.08c0-.05,0-.1,0-.15,0-.05-.01-.1-.02-.15,0-.05-.01-.1-.02-.15,0-.05-.02-.1-.02-.15v-.07s-.03-.07-.03-.07c-.01-.05-.02-.1-.03-.15-.09-.39-.21-.76-.33-1.13-.12-.37-.23-.73-.31-1.07v-.07s-.02-.03-.02-.03v-.03s-.02-.08-.03-.12c0-.02,0-.04-.01-.06v-.07s-.02-.09-.03-.14c0-.08-.01-.16-.02-.24,0-.08,0-.16,0-.24,0-.32.06-.63.14-.91.06-.23.14-.44.23-.63,0,0,.02.02.03.02.01.01.02.02.04.04.73.72.4,1.89.99,2.67-.31-.56-.16-1.28-.26-1.93-.05-.3-.15-.59-.31-.84-.16-.26-.23-.47-.02-.71.02-.02.03-.04.05-.05.03-.03.06-.07.09-.1.03-.03.06-.06.08-.08.01-.01.03-.03.04-.04.01-.01.02-.03.04-.03.05-.04.09-.07.12-.11,0,0,0,0,.01-.01,0,0,.01,0,.02-.01.01,0,.02-.02.03-.03.02-.02.04-.03.06-.04.06.05.13.11.22.19.24.21.58.51.96.91l.02.02h0s-.01,0,0,0h0s0,.01,0,.01c.33.35.34.73.31,1.21,0,.13-.02.27-.05.42-.03.15-.07.31-.11.46-.01.04-.03.09-.04.12-.01.04-.03.08-.04.12-.02.04-.03.08-.05.12-.02.04-.03.08-.05.12-.07.16-.16.33-.24.5-.09.17-.18.33-.27.5-.04.08-.09.17-.13.25-.01.02-.02.04-.03.06l-.02.03-.02.03s-.04.08-.06.12c-.08.16-.15.33-.21.48-.06.16-.11.31-.15.45-.01.04-.02.07-.03.1,0,.03-.02.07-.02.1,0,.03-.01.07-.02.1,0,.03,0,.06-.01.09,0,.01,0,.03,0,.04,0,.01,0,.03,0,.04,0,.03,0,.05,0,.08,0,.05,0,.1,0,.14,0,.04,0,.08,0,.11,0,.03,0,.06,0,.08,0,.05,0,.07,0,.07,0,0,0-.02,0-.07,0-.02,0-.05,0-.08,0-.03,0-.07.01-.11,0-.04.02-.09.03-.14,0-.02.01-.05.02-.08,0-.01,0-.03,0-.04,0-.01,0-.03.01-.04,0-.03.02-.06.02-.09,0-.03.02-.06.03-.09,0-.03.02-.06.03-.09.01-.03.02-.06.04-.1.05-.13.12-.27.2-.41.08-.14.17-.28.26-.43.02-.04.05-.07.07-.11l.02-.03.02-.03s.03-.04.04-.05c.05-.07.11-.15.16-.22.11-.15.22-.3.33-.46.01-.01.02-.03.03-.05,0,.02,0,.03,0,.05,0,.02,0,.05.01.07.14.74-.03,1.38-.24,2.08-.19.63-.34,1.34-.04,1.92-.18-.38-.14-.85-.02-1.26.12-.41.32-.79.45-1.2.17-.53.22-1.1.16-1.65-.04-.3-.02-.45.11-.69.02-.04.05-.09.07-.13.02-.05.04-.08.06-.13.08-.18.15-.35.21-.52.01-.04.02-.08.04-.12.03,0,.03,0,.06,0,0,.04.02.09.02.13,0,.04.02.09.02.13,0,.04.01.08.02.11,0,.05,0,.1.01.14,0,.05,0,.09.01.14,0,.04,0,.08,0,.12,0,.05,0,.1,0,.15,0,.05,0,.09,0,.14,0,.05,0,.09,0,.14v.07s0,.07,0,.07v.15s0,.15,0,.15c0,.1,0,.2,0,.3,0,.4.02.8.06,1.19.04.39.11.78.2,1.14.05.18.1.36.16.53.06.17.12.33.19.49.07.16.15.3.22.44.08.14.16.26.25.38.09.12.17.23.26.32.02.02.04.05.06.07.02.02.04.05.06.07.04.04.09.09.13.13.17.16.31.29.42.41.11.12.19.22.25.29.03.04.04.06.06.08.01.02.02.03.02.03,0,0,0-.01-.02-.03-.01-.02-.03-.05-.05-.09-.05-.08-.12-.19-.22-.32-.1-.13-.24-.28-.39-.45-.04-.04-.08-.09-.11-.13-.02-.02-.04-.05-.06-.07-.02-.02-.04-.05-.06-.08-.08-.1-.15-.21-.23-.33-.07-.12-.14-.25-.21-.39-.06-.14-.13-.28-.18-.44-.05-.15-.1-.31-.15-.48-.04-.17-.08-.34-.11-.51-.06-.35-.09-.72-.1-1.1-.01-.38,0-.76.03-1.14,0-.1.02-.19.02-.29v-.14s.03-.15.03-.15v-.07s.02-.08.02-.08c0-.05.01-.1.01-.15,0-.05,0-.1.01-.15,0-.06,0-.11,0-.17,0-.04,0-.09,0-.13,0-.05,0-.1,0-.16,0-.05,0-.1,0-.15,0-.05,0-.1,0-.15,0-.05,0-.1-.01-.15,0-.05-.01-.1-.02-.15-.01-.07-.02-.15-.03-.22,0,0,0,0,0,0,0-.02-.01-.05-.02-.07-.08-.4-.22-.77-.4-1.09-.02-.04-.04-.08-.07-.12-.01-.02-.02-.04-.03-.06-.01-.02-.02-.04-.04-.06-.05-.07-.09-.15-.14-.22-.03-.04-.05-.07-.08-.11-.01-.02-.03-.04-.04-.05-.01-.01-.02-.03-.03-.04-.02-.03-.05-.06-.07-.09-.01-.01-.02-.03-.03-.04h0s0-.01,0-.01c0,0,0-.01,0-.01h0s-.02-.03-.02-.03c-.17-.21-.34-.4-.49-.57.05.01.11.03.17.05.14.05.3.14.47.27.17.13.35.3.52.51.02.03.04.05.06.08l.02.02s0,0,0,0h0s0,0,0,0h0s.02.04.03.06l.04.05.02.02.02.02s.04.06.06.09c.09.12.18.25.28.39.09.14.19.28.3.42.05.07.11.14.16.22.06.07.11.14.18.21.06.07.12.14.19.21.07.07.13.14.21.2l.05.05s.04.03.06.05c.04.03.07.06.11.09.32.23.5.68.59,1.06.12.47,0,.93.12,1.39.06.23.15.45.24.68.04.11.09.22.13.34.04.11.07.22.1.33.03.11.05.22.06.32.01.1.02.2.01.29,0,.09-.01.17-.03.24,0,.02,0,.04-.01.05,0,.02,0,.03-.01.05,0,.02,0,.03-.01.04,0,.01,0,.03-.01.04,0,.02-.02.05-.02.07,0,.02-.02.03-.02.05-.01.03-.02.04-.02.04,0,0,0-.01.02-.04,0-.01.02-.03.03-.05,0-.02.02-.04.03-.06,0-.01.01-.02.02-.04,0-.01.01-.03.02-.04,0-.02.01-.03.02-.05,0-.02,0-.03.01-.05.02-.07.03-.16.04-.25,0-.09.01-.19,0-.3,0-.11-.02-.22-.04-.33-.02-.11-.05-.23-.08-.35-.03-.12-.07-.23-.1-.35-.07-.23-.14-.46-.19-.68-.02-.11-.04-.21-.05-.31,0-.02,0-.05,0-.07,0-.03,0-.05,0-.08,0,0,0-.02,0-.02,0-.01,0-.02,0-.04,0-.01,0-.02,0-.04v-.02s0,0,0,0h0s0,0,0,0c0,0,0,0,0,0h0c0-.07.01-.14.02-.2,0,0,.01.01.02.02.05.06.1.12.16.18.01.02.03.03.04.05.01.01.03.03.04.04.03.03.06.06.09.09.12.11.24.22.36.33.12.11.24.22.35.34.05.06.11.12.15.19l.04.05h0s0,.02,0,.02h0s0,0,0,0h0s.02.03.02.03l.03.05s.02.04.03.05c.02.03.04.07.06.1.02.04.04.07.05.11.02.04.03.07.05.11,0,.02.02.04.02.06,0,.02.01.04.02.06.03.07.05.15.07.22.02.07.04.15.05.22.02.07.03.14.04.21,0,.07.02.14.03.2,0,.03,0,.06.01.1,0,.03,0,.06,0,.09,0,.06,0,.12.01.17,0,.05,0,.1,0,.15,0,.05,0,.09,0,.13,0,.08,0,.14,0,.18,0,.04,0,.06,0,.06,0,0,0-.02,0-.06,0-.04.01-.1.02-.18,0-.04,0-.08.01-.13,0-.05,0-.1,0-.15,0-.05,0-.11,0-.17,0-.03,0-.06,0-.09,0-.03,0-.06,0-.1,0-.07,0-.14,0-.21,0-.07,0-.15-.02-.22,0-.04,0-.08-.01-.12,0-.04-.01-.08-.02-.12-.02-.08-.03-.16-.05-.24,0-.02-.01-.04-.02-.06,0-.02-.01-.04-.02-.06-.01-.04-.02-.08-.04-.12-.02-.04-.03-.08-.05-.12-.02-.04-.04-.08-.06-.13,0-.02-.02-.04-.03-.06l-.03-.06v-.03s-.02,0-.02,0h0s0-.03,0-.03l-.03-.06c-.05-.08-.1-.15-.15-.22-.1-.14-.22-.28-.33-.41-.11-.13-.22-.25-.32-.37-.02-.03-.05-.06-.07-.09-.01-.02-.02-.03-.04-.05,0-.01-.02-.03-.03-.04-.04-.06-.08-.12-.12-.17-.07-.11-.13-.23-.17-.33-.04-.11-.07-.2-.09-.29-.02-.09-.02-.16-.02-.22,0-.01,0-.03,0-.04.11.04.21.07.32.09.34.08.66.13.97.18.31.05.61.09.88.16.27.06.53.15.75.25.03.01.05.03.08.04.03.01.05.03.08.04.05.03.1.06.15.09.02.02.05.03.07.05.02.02.05.03.07.05.02.02.04.03.06.05,0,0,.02.02.03.02,0,0,.02.02.03.03.08.07.15.14.21.2.07.06.13.12.19.17.12.09.23.14.31.16.02,0,.04,0,.05,0,.01,0,.03,0,.04,0,.02,0,.03,0,.03,0,0,0-.01,0-.03,0Z"/>
</svg>