<?xml version="1.0" encoding="UTF-8"?>
<svg id="Layer_1" data-name="Layer 1" xmlns="http://www.w3.org/2000/svg" version="1.1" viewBox="0 0 19.84 19.84">
  <defs>
    <style>
      .cls-1 {
        fill: none;
      }

      .cls-1, .cls-2, .cls-3 {
        stroke-width: 0px;
      }

      .cls-2 {
        fill: #8b6226;
      }

      .cls-3 {
        fill: #fff;
      }
    </style>
  </defs>
  <path class="cls-1" d="M5.48,8.11c0,.98-.24,5.63-.54,7.57l.39-.03c.26-.04.92-.19,1.49-.47-.42-1.25-.73-2.79-.36-4.09.14-.48.41-1.09.75-1.76h0s0,0,0,0c.35-.7.78-1.46,1.22-2.2-.09-.15-.19-.32-.28-.45-.58-.86-.92-1.71-1.12-2.48-.18.46-.45,1-.78,1.69-.4.82-.76,1.86-.76,2.23Z"/>
  <path class="cls-1" d="M9.79,9.64c-.47.85-.85,1.62-.99,2.12-.09.31-.12.79.03,1.48.76-.75,1.53-1.43,1.83-1.69-.25-.6-.55-1.25-.87-1.91Z"/>
  <path class="cls-3" d="M11.31,13.4c-.07-.32-.21-.75-.41-1.26-.2.17-.47.42-.79.71l.39.39-.42.43-.41-.4c-.22.21-.44.42-.66.65.12.37.28.78.5,1.25.56-.61,1.27-1.28,1.8-1.75Z"/>
  <path class="cls-3" d="M7.5,16.87c-.14-.29-.31-.68-.48-1.12-.78.37-1.61.5-1.63.5l-.57.04c-.1.4-.16.83-.19,1.22l.87-.06v-.61h.6v.5c.37-.09.88-.24,1.41-.48Z"/>
  <path class="cls-3" d="M13.33,9.62l.42-.43.35.34c.5-1.1.86-2.13,1.03-2.66l-.58-.57.42-.43.4.39.94-1.85-.54-.53.42-.43.4.39.46-.9c.07-.14.08-.3.03-.45-.05-.15-.16-.28-.31-.35-.31-.15-.68-.03-.83.27l-1.88,3.72c-.04.14-.09.31-.16.5l.57.56-.42.43-.37-.36c-.26.71-.61,1.57-1.03,2.39.24.47.46.93.66,1.37.18-.3.34-.61.5-.93l-.5-.49Z"/>
  <path class="cls-2" d="M17.59,3.24c.15-.29.17-.61.07-.92-.1-.31-.32-.56-.62-.7-.6-.3-1.33-.05-1.63.54l-1.88,3.69-.04.13c-.18.6-.6,1.83-1.16,3.02-.35-.65-.71-1.3-1.05-1.88.65-1.05,1.27-1.99,1.65-2.55l.17-.25c.14-.2.18-.44.14-.68-.05-.24-.19-.44-.39-.58l-.51-.33h0c-.42-.27-.98-.16-1.26.25l-.17.25c-.12.17-.52.77-1.04,1.58-.54-1.02-.67-2-.69-2.73v-.29h0c0-.11,0-.21,0-.3v-.3c0-.5-.41-.9-.91-.9h-.61c-.5,0-.91.41-.91.9v.3s0,.04,0,.06c-.09-.03-.19-.06-.29-.06h-.32c-.33,0-.64.12-.87.35-.23.23-.35.53-.35.84v.28c-.02.13-.24.5-.37.73-.12.22-.34.38-.58.44l-.53.13-.41,1.62.22.11c.11.06.17.18.13.3-.2.67-.3,1.27-.3,1.84,0,.77-.13,3.2-.29,5.12h-.02v.2c-.09,1.02-.18,1.87-.27,2.22-.25.99-.32,2.1-.34,2.68,0,.06.01.12.03.18,0,.05-.04.09-.04.14,0,.51.54.9,1.22.9s1.22-.4,1.22-.9c0-.04-.02-.08-.03-.12.02-.05.04-.1.04-.16,0-.07,0-.17.01-.25l1.07-.08c.17-.02,1.13-.18,2.12-.65,0,.01.02.03.02.04l.87,1.31s.06.05.09.08c.03.12.08.23.17.31.12.1.27.15.44.15.34,0,.76-.21,1.11-.59.33-.35.51-.77.49-1.1,0-.19-.08-.35-.21-.46-.05-.04-.11-.05-.16-.07l-.72-1.21s-.04-.09-.07-.13c.48-.55,1.14-1.18,1.68-1.67.45,1.57,1.46,3.83,1.74,4.42,0,.02.03.02.04.03.01.03.01.07.03.1.15.27.45.42.8.42.22,0,.46-.06.7-.18.2-.1.86-.47,1-.93.05-.15.04-.3-.03-.43-.01-.03-.04-.05-.06-.07,0-.03,0-.06-.02-.09-.55-1.13-1.44-3.32-1.64-4.33-.07-.34-.23-.79-.42-1.27,1.22-1.91,2-4.34,2.19-4.97l1.79-3.52ZM13.82,18.33s-.01-.09,0-.13c.04-.12.16-.29.4-.41.16-.08.36-.11.54-.11.2,0,.38.04.45.09-.04.1-.29.34-.69.55-.33.17-.64.12-.69.01ZM13.12,13.68l.14.59.47-.11c.32.96.79,2.12,1.16,2.93-.34-.02-.7.04-.95.17-.18.09-.34.22-.46.36-.48-1.08-1.33-3.1-1.56-4.26-.12-.61-.55-1.7-1.07-2.87l.58-.55-.41-.44-.43.41c-.14-.3-.29-.61-.44-.9.25-.43.51-.87.77-1.3,1.11,1.93,2.28,4.26,2.52,5.42.03.14.07.29.11.46l-.44.11ZM10.35,17.6c.03.06-.01.36-.33.71-.33.36-.64.42-.69.39-.03-.05,0-.36.33-.71.28-.31.56-.4.66-.4.02,0,.03,0,.04,0ZM9.9,17.1c-.23.09-.47.25-.69.48-.13.14-.23.29-.31.44l-.59-.89c-.06-.1-.23-.43-.44-.89h.38v-.6h-.63c-.14-.36-.29-.77-.41-1.2h.43v-.6h-.58c-.19-.87-.25-1.78-.02-2.57.12-.41.34-.93.62-1.5l.3.28.41-.44-.43-.41c.71-1.35,1.67-2.89,2.4-4.03l.37.35.41-.44-.45-.43c.36-.56.63-.96.73-1.09l.17-.25c.06-.09.16-.14.26-.14.06,0,.12.02.17.05l.51.33c.07.04.12.11.13.19.02.08,0,.16-.05.22l-.17.25c-.43.63-1.17,1.77-1.91,2.98l-.45-.43-.41.44.54.52c-.89,1.48-1.73,3.01-1.97,3.85-.01.04,0,.09-.02.14h-.57v.6h.5c0,.59.14,1.3.44,2.11h-.33v.6h.57c.16.36.32.72.52,1.12l.56.94ZM5.49,16.85v.61l-.87.06c.04-.39.1-.82.19-1.22l.57-.04s.85-.13,1.63-.5c.17.44.34.82.48,1.12-.52.25-1.04.4-1.41.48v-.5h-.6ZM3.64,8.11c0-.51.09-1.05.28-1.66.01-.05.02-.1.02-.15h.63v-.6h-.79s-.06-.09-.1-.12l.21-.83.18-.04c.4-.1.75-.36.96-.72.26-.46.43-.75.45-.98v-.33c0-.16.06-.3.18-.42.12-.12.26-.17.44-.18h.32c.16,0,.3.13.3.29v.62c0,.3-.13.7-.35,1.2h-.87v.6h.6c-.12.25-.25.52-.4.82-.4.82-.82,1.98-.82,2.5,0,.22-.01.66-.04,1.2h-.57v.6h.55c0,.19-.02.39-.03.6h-.51v.6h.48c-.06,1.01-.14,2.09-.23,3.01h-.56v.6h.5c-.07.58-.14,1.07-.21,1.35-.15.6-.23,1.3-.26,1.81-.19-.09-.4-.15-.64-.15-.22,0-.41.05-.59.12.01-.22.03-.46.06-.73h.53v-.6h-.45c.04-.25.09-.5.15-.75.08-.33.17-1.07.25-1.96h.35v-.6h-.3c.16-1.94.29-4.33.29-5.12ZM8.24.88c.17,0,.31.13.31.3v.3c0,.09,0,.19,0,.3h-.31v.6h.34c.06.82.27,1.9.92,2.99-.23.37-.48.76-.72,1.17-.04-.07-.09-.15-.13-.21-.22-.33-.39-.65-.55-.97l.58-.55-.41-.44-.42.4c-.52-1.37-.52-2.6-.52-3.29v-.3c0-.17.14-.3.31-.3h.61ZM8.14,6.67c.09.13.19.29.28.45-.44.74-.87,1.5-1.22,2.2h0s0,0,0,0c-.34.67-.61,1.28-.75,1.76-.38,1.3-.06,2.85.36,4.09-.56.28-1.22.43-1.49.47l-.39.03c.31-1.95.54-6.59.54-7.57,0-.37.35-1.41.76-2.23.34-.69.6-1.23.78-1.69.2.78.54,1.62,1.12,2.48ZM3.34,18.35c.37,0,.62.18.62.3s-.25.3-.62.3-.62-.18-.62-.3.25-.3.62-.3ZM8.83,13.23c-.15-.69-.12-1.16-.03-1.48.15-.5.53-1.27.99-2.12.32.65.62,1.31.87,1.91-.3.26-1.07.93-1.83,1.69ZM9.01,13.9c.22-.22.44-.44.66-.65l.41.4.42-.43-.39-.39c.32-.29.59-.53.79-.71.2.51.34.94.41,1.26-.53.47-1.24,1.14-1.8,1.75-.22-.47-.38-.88-.5-1.25ZM12.67,9.67c.42-.83.77-1.69,1.03-2.39l.37.36.42-.43-.57-.56c.06-.19.12-.36.16-.5l1.88-3.72c.15-.3.53-.42.83-.27.15.07.26.2.31.35.05.15.04.31-.03.45l-.46.9-.4-.39-.42.43.54.53-.94,1.85-.4-.39-.42.43.58.57c-.17.53-.53,1.56-1.03,2.66l-.35-.34-.42.43.5.49c-.16.31-.32.62-.5.93-.2-.44-.42-.9-.66-1.37Z"/>
  <path class="cls-3" d="M3.65,13.23v.6h-.35c-.08.9-.17,1.63-.25,1.96-.06.24-.11.5-.15.75h.45v.6h-.53c-.03.26-.05.51-.06.73.18-.07.37-.12.59-.12.24,0,.46.06.64.15.04-.52.11-1.21.26-1.81.07-.28.14-.77.21-1.35h-.5v-.6h.56c.09-.92.17-2.01.23-3.01h-.48v-.6h.51c.01-.21.02-.41.03-.6h-.55v-.6h.57c.02-.55.04-.98.04-1.2,0-.52.42-1.68.82-2.5.15-.3.28-.57.4-.82h-.6v-.6h.87c.22-.51.35-.91.35-1.2v-.62c0-.16-.13-.29-.3-.29h-.32c-.17,0-.32.06-.44.17-.11.11-.17.26-.17.42v.33c-.02.22-.19.52-.45.98-.21.36-.56.62-.96.72l-.18.04-.21.83s.07.08.1.12h.79v.6h-.63s0,.1-.02.15c-.19.61-.28,1.15-.28,1.66,0,.79-.13,3.18-.29,5.12h.3Z"/>
  <path class="cls-3" d="M7.32,1.19v.3c0,.69,0,1.91.52,3.29l.42-.4.41.44-.58.55c.15.32.33.65.55.97.04.06.09.14.13.21.25-.41.49-.8.72-1.17-.65-1.09-.86-2.17-.92-2.99h-.34v-.6h.31c0-.11,0-.21,0-.3v-.3c0-.17-.14-.3-.31-.3h-.61c-.17,0-.31.13-.31.3Z"/>
  <path class="cls-3" d="M10.92,7.7c-.27.44-.53.87-.77,1.3.15.3.3.6.44.9l.43-.41.41.44-.58.55c.53,1.17.95,2.26,1.07,2.87.24,1.16,1.08,3.18,1.56,4.26.12-.14.28-.26.46-.36.25-.13.61-.19.95-.17-.36-.81-.84-1.97-1.16-2.93l-.47.11-.14-.59.44-.11c-.05-.17-.09-.32-.11-.46-.24-1.16-1.4-3.49-2.52-5.42Z"/>
  <path class="cls-3" d="M9.34,16.16c-.21-.39-.37-.76-.52-1.12h-.57v-.6h.33c-.3-.81-.45-1.51-.44-2.11h-.5v-.6h.57s0-.1.02-.14c.25-.85,1.08-2.37,1.97-3.85l-.54-.52.41-.44.45.43c.74-1.22,1.48-2.35,1.91-2.98l.17-.25c.04-.07.06-.14.05-.22-.02-.08-.06-.15-.13-.19l-.51-.33c-.05-.03-.11-.05-.17-.05-.1,0-.2.05-.26.14l-.17.25c-.09.14-.36.54-.73,1.09l.45.43-.41.44-.37-.35c-.73,1.14-1.68,2.68-2.4,4.03l.43.41-.41.44-.3-.28c-.28.57-.5,1.09-.62,1.5-.23.8-.17,1.71.02,2.57h.58v.6h-.43c.12.43.27.84.41,1.2h.63v.6h-.38c.21.46.38.79.44.89l.59.89c.08-.15.18-.3.31-.44.22-.24.46-.39.69-.48l-.56-.94Z"/>
  <path class="cls-3" d="M3.34,18.96c.37,0,.62-.18.62-.3s-.25-.3-.62-.3-.62.18-.62.3.25.3.62.3Z"/>
  <path class="cls-3" d="M14.51,18.32c.41-.21.65-.45.69-.55-.07-.05-.25-.09-.45-.09-.18,0-.38.03-.54.11-.24.12-.37.29-.4.41-.01.04-.02.09,0,.13.06.11.36.16.69-.01Z"/>
  <path class="cls-3" d="M9.65,17.99c-.32.35-.36.66-.33.71.05.03.36-.04.69-.39.32-.34.36-.65.33-.71,0,0-.02,0-.04,0-.11,0-.38.09-.66.4Z"/>
</svg>