<?xml version="1.0" encoding="UTF-8"?>
<svg id="Layer_1" data-name="Layer 1" xmlns="http://www.w3.org/2000/svg" version="1.1" viewBox="0 0 19.84 19.84">
  <defs>
    <style>
      .cls-1 {
        fill: none;
      }

      .cls-1, .cls-2, .cls-3 {
        stroke-width: 0px;
      }

      .cls-2 {
        fill: #87cdb4;
      }

      .cls-3 {
        fill: #fff;
      }
    </style>
  </defs>
  <path class="cls-1" d="M2.65,10.81c.07.03.14.06.22.1.14.06.3.11.47.17.07.02.14.05.22.07.24.07.5.12.76.16.07,0,.14,0,.21.01.16.02.33.02.49.01.09-.72.28-1.25.49-1.66-.14-.03-.28-.07-.41-.11-.07-.02-.13-.03-.2-.05-.27-.08-.52-.18-.76-.29-.05-.02-.1-.05-.15-.07-.18-.09-.35-.18-.5-.27-.05-.03-.1-.06-.15-.09-.03-.02-.08-.04-.11-.07-.35.81-.6,1.48-.76,2,.06.03.11.05.18.08ZM3.45,9.69l.6.13-.13.6-.6-.13.13-.6Z"/>
  <path class="cls-1" d="M4.52,6.37c.06.04.12.08.19.12.13.08.28.16.44.24.07.03.13.07.2.1.24.11.49.21.77.29.05.01.1.02.15.03.2.05.41.09.62.12,0-.01,0-.03.01-.04.14-.4.24-.87.31-1.39-.16,0-.31-.04-.47-.06-.06,0-.11-.01-.17-.02-.26-.05-.51-.11-.74-.18,0,0-.01,0-.02,0l-.23.57-.57-.23.22-.54s-.04-.02-.06-.02c-.07-.03-.12-.05-.19-.08-.04-.02-.1-.04-.14-.06-.16.33-.33.68-.5,1.04.05.04.1.07.16.11Z"/>
  <path class="cls-1" d="M5.93,7.71c-.3-.09-.57-.19-.82-.31-.03-.01-.05-.02-.08-.04l-.21.51-.57-.23.23-.57h.03s-.07-.03-.11-.05c-.06-.04-.12-.07-.18-.11-.04-.03-.09-.06-.13-.08-.22.47-.42.91-.6,1.33.05.03.09.06.14.09.06.04.12.07.18.11.12.07.26.14.4.22.07.03.13.07.19.1.22.1.46.2.72.27.03,0,.06.01.09.02.2.06.41.1.63.13.08-.12.15-.23.23-.35.19-.27.38-.55.55-.88-.17-.03-.33-.08-.49-.12-.07-.02-.14-.03-.21-.05Z"/>
  <path class="cls-1" d="M4.23,17.02c.05-.06.11-.12.17-.18.12-.13.25-.28.38-.43.05-.06.1-.11.15-.17.18-.21.36-.43.53-.66.03-.03.05-.07.07-.1.12-.16.22-.32.32-.47l-.48-.8s-.03.01-.05.02c-.19.1-.38.19-.58.26-.04.02-.09.03-.13.05-.17.06-.33.11-.5.15-.05.01-.09.03-.14.04-.19.05-.38.09-.56.12-.03,0-.06,0-.09.01-.15.03-.3.04-.43.06-.02,0-.04,0-.06,0,.32.85.75,1.61,1.27,2.24.04-.05.09-.09.13-.14ZM4.18,15.25l.24.56-.57.24-.24-.57.57-.24Z"/>
  <path class="cls-1" d="M5.23,4.71c.07.03.15.06.23.1.09.04.19.07.3.11.1.03.2.07.3.1.19.06.4.11.61.15.08.01.16.02.24.03.12.02.24.02.37.03.03-.55.02-1.05,0-1.43-.11.03-.21.05-.32.05s-.21-.03-.31-.06l-.2.49-.57-.23.22-.53s0,0,0,0l-.09-.08v-.04s-.04,0-.05-.02c-.03-.04-.06-.08-.09-.12-.19.36-.43.85-.71,1.42.03.01.06.03.09.04Z"/>
  <path class="cls-1" d="M4.98,11.97s0,0,0,0c0,0,0,0-.01,0-.03,0-.05,0-.08,0-.27,0-.52-.03-.77-.07-.08-.01-.16-.03-.24-.05-.19-.04-.37-.08-.55-.13-.09-.03-.17-.05-.25-.08-.16-.05-.3-.11-.44-.16-.07-.03-.14-.06-.21-.09-.03-.01-.07-.03-.1-.04-.13.8-.02,1.9.31,2.99,0,0,0,0,0,0,.13-.01.29-.03.46-.06.04,0,.07-.01.11-.02.18-.03.37-.06.56-.11.03,0,.06-.02.1-.02.19-.05.38-.1.57-.17.03,0,.05-.02.08-.03.2-.07.39-.17.58-.27.02-.01.04-.03.07-.04-.12-.44-.18-.9-.18-1.39,0-.09,0-.17,0-.26ZM3.67,13.45h-.61v-.61h.61v.61Z"/>
  <path class="cls-1" d="M13.94,16.43c0,.07,0,.14.02.21.01.15.03.3.04.47,0,.07.01.14.02.22.03.24.07.48.11.73,0,.03.01.06.02.09.03.18.08.35.12.52.06,0,.11,0,.17.01.03-.03.06-.05.09-.08.13-.15.28-.27.43-.38.04-.03.09-.07.13-.1.18-.11.37-.2.56-.28.07-.03.14-.05.22-.07.15-.04.29-.08.43-.11.06-.01.12-.03.19-.04.2-.03.39-.04.57-.04.02,0,.04,0,.06,0-.07-.09-.14-.18-.22-.27-.53-.61-1.5-.94-2.96-1.02,0,.05,0,.08,0,.13ZM14.73,16.96h.61v.61h-.61v-.61Z"/>
  <path class="cls-1" d="M6.28,15.48c-.07.11-.15.21-.23.32-.05.07-.09.13-.14.2-.16.21-.32.41-.48.61l.34.3-.4.46c-.41-.36-.1-.08-.34-.3-.06.07-.12.14-.18.21-.06.07-.11.12-.17.18-.05.06-.11.12-.16.18.39.39.82.7,1.27.92l1.32-2.51c-.3-.15-.57-.34-.82-.55Z"/>
  <path class="cls-1" d="M13.52,18.11c-.05-.26-.09-.51-.11-.75,0-.01,0-.02,0-.03-.03-.24-.05-.46-.07-.67,0-.06,0-.11-.01-.17,0-.07-.01-.14-.01-.2-.6,0-1.2.03-1.7.06,0,.07,0,.14-.01.21,0,.06,0,.12,0,.18,0,.18,0,.37,0,.56,0,.05,0,.09,0,.13,0,.24.01.48.03.72,0,.07.01.13.02.2.01.12.03.24.05.36.66-.04,1.38-.08,1.95-.07-.02-.11-.04-.21-.06-.32-.01-.07-.03-.14-.04-.22ZM12.78,17.88h-.61v-.61h.61v.61Z"/>
  <path class="cls-1" d="M11.01,18.22c-.02-.25-.03-.5-.03-.75,0-.05,0-.09,0-.14,0-.2,0-.4,0-.58,0-.07,0-.13,0-.2,0-.05,0-.11,0-.16-.09,0-.17.01-.26.02-.55.04-1.03.08-1.43.09,0,0,0,.02,0,.02-.02.11-.05.25-.07.39,0,.04-.01.07-.02.11-.03.16-.05.34-.08.53,0,.02,0,.05,0,.07-.02.17-.04.34-.06.52,0,.04,0,.08-.01.12-.02.2-.03.39-.04.59,0,.01,0,.03,0,.04.53-.03,1.08-.07,1.62-.11l.42-.03c-.02-.12-.02-.24-.04-.36,0-.06-.01-.12-.02-.18ZM10.54,17.88h-.61v-.61h.61v.61Z"/>
  <path class="cls-1" d="M17.37,18.21c-.15,0-.31,0-.48,0-.09,0-.18.02-.27.03-.13.02-.25.04-.38.07-.1.02-.2.05-.3.09-.12.04-.24.1-.36.16-.09.05-.18.09-.26.15-.02.02-.04.04-.07.06.23.03.43.07.6.1.26.05.46.08.61.08.55,0,.94-.11,1.05-.29.07-.12.03-.29-.04-.45-.04,0-.08,0-.12,0Z"/>
  <path class="cls-1" d="M8.43,18.47c0-.06,0-.11,0-.16.02-.26.05-.52.08-.77,0-.07.02-.13.03-.19.03-.18.05-.36.08-.52.01-.07.02-.13.03-.2,0-.05.02-.1.03-.15-.35-.03-.69-.1-1.02-.21l-.5.95-.03.07.23.04-.11.6c-.52-.09-.15-.03-.42-.08l-.48.92c.38.12.77.18,1.16.18.26,0,.55,0,.89-.02,0-.15.01-.3.02-.45Z"/>
  <path class="cls-2" d="M17.96,17.77l-.08-.15h-.03s0-.04-.02-.06c-.13-.2-.29-.42-.49-.65-.65-.75-1.79-1.14-3.45-1.22v-.02s-.29,0-.29,0h-.33s0,0,0,0c-.58,0-1.15.02-1.64.06h0s-.35.02-.35.02l-.26.02h0c-.12.01-.24.02-.35.03-.6.05-1.12.09-1.55.09h-.08c-.5,0-.98-.1-1.42-.29-.47-.19-.86-.47-1.18-.82h0c-.28-.31-.5-.69-.65-1.13-.15-.44-.23-.92-.23-1.44,0-.18,0-.35.02-.55.08-1.02.37-1.62.65-2.07.11-.17.22-.34.33-.51.23-.34.47-.71.67-1.15h.02s.09-.2.09-.2l.16-.39h-.02c.15-.44.25-.95.31-1.5h.01s.02-.28.02-.28l.03-.34h0c.04-.71.02-1.34-.01-1.75.29-.23.41-.49.45-.69.08-.41-.07-.87-.43-1.34l-.06-.07-.05-.02s-.01-.05-.03-.07c-.49-.56-1.42-1.22-1.97-.96-.29.14-.48.42-.55.81-.08.46.03,1,.24,1.49-.19.36-.51.99-.89,1.76h0s-.14.28-.14.28l-.13.27h0c-.15.3-.3.62-.45.94h0s-.16.34-.16.34l-.11.22h0c-.22.47-.42.92-.61,1.34h0s-.15.35-.15.35c0,0,0,0,0,.01l-.09.21h0c-.36.84-.63,1.54-.81,2.09h0s-.1.35-.1.35c0,0,0,0,0,0l-.02.07v.04s-.01,0-.01,0l-.03.12h.01c-.2.89-.1,2.09.26,3.32h-.02s.12.38.12.38c0,0,0,0,0,0l.07.22h.01c.36,1,.86,1.9,1.47,2.63h-.01s.19.23.19.23l.22.24.02-.02c.43.43.91.77,1.41,1.02l-.02.04.31.13.26.1v-.02c.48.16.96.25,1.45.25.26,0,.56,0,.89-.02h0s.32-.01.32-.01h.29s0-.02,0-.02c.55-.03,1.11-.07,1.66-.11l.81-.06c.63-.04,1.33-.09,1.91-.09.22,0,.43,0,.62.01.19,0,.37.02.53.04h0c.51.04.9.11,1.21.17.29.05.51.09.72.09.81,0,1.34-.2,1.58-.59.19-.32.16-.72-.09-1.2ZM17.11,17.58s-.04,0-.06,0c-.18,0-.37.02-.57.04-.06,0-.12.02-.19.04-.14.03-.29.06-.43.11-.07.02-.14.04-.22.07-.19.07-.38.16-.56.28-.05.03-.09.07-.13.1-.15.11-.29.24-.43.38-.03.03-.06.05-.09.08-.05,0-.11,0-.17-.01-.04-.17-.09-.34-.12-.52,0-.03-.01-.06-.02-.09-.05-.25-.08-.49-.11-.73,0-.07-.02-.14-.02-.22-.02-.16-.03-.32-.04-.47,0-.07-.01-.14-.02-.21,0-.05,0-.09,0-.13,1.46.08,2.42.41,2.96,1.02.08.09.15.18.22.27ZM5.09,13.66c-.19.1-.38.19-.58.27-.03,0-.05.02-.08.03-.19.07-.38.12-.57.17-.03,0-.06.02-.1.02-.2.05-.39.08-.56.11-.04,0-.07.01-.11.02-.17.02-.33.04-.46.06,0,0,0,0,0,0-.33-1.09-.44-2.19-.31-2.99.03.01.07.03.1.04.07.03.14.06.21.09.14.06.28.11.44.16.08.03.16.05.25.08.17.05.36.09.55.13.08.02.16.04.24.05.25.04.51.07.77.07.03,0,.05,0,.08,0,0,0,0,0,.01,0,0,0,0,0,0,0,0,.09,0,.17,0,.26,0,.49.06.96.18,1.39-.02.01-.04.03-.07.04ZM3.35,8.8c.05.03.1.06.15.09.15.09.32.18.5.27.05.02.09.05.15.07.23.11.48.2.76.29.06.02.13.03.2.05.14.04.27.08.41.11-.21.41-.4.94-.49,1.66-.17,0-.33,0-.49-.01-.07,0-.14,0-.21-.01-.27-.04-.52-.09-.76-.16-.08-.02-.14-.05-.22-.07-.16-.05-.33-.11-.47-.17-.08-.03-.15-.06-.22-.1-.06-.03-.12-.05-.18-.08.16-.52.42-1.19.76-2,.03.02.07.04.11.07ZM6.08,8.75c-.08.12-.16.23-.23.35-.22-.03-.43-.07-.63-.13-.03,0-.06-.01-.09-.02-.26-.08-.5-.17-.72-.27-.07-.03-.13-.07-.19-.1-.14-.07-.28-.14-.4-.22-.06-.04-.12-.07-.18-.11-.05-.03-.09-.06-.14-.09.18-.41.38-.86.6-1.33.04.03.09.06.13.08.06.04.11.07.18.11.04.02.07.04.11.07h-.03s-.23.55-.23.55l.57.23.21-.51s.05.02.08.04c.25.12.53.22.82.31.07.02.14.03.21.05.16.04.32.09.49.12-.17.32-.36.6-.55.88ZM5,5.28c.06.03.12.05.19.08.02,0,.04.02.06.02l-.22.54.57.23.23-.57s.01,0,.02,0c.23.07.48.13.74.18.06,0,.11.01.17.02.15.02.31.05.47.06-.06.52-.17.99-.31,1.39,0,.01,0,.03-.01.04-.22-.03-.43-.06-.62-.12-.05-.01-.1-.02-.15-.03-.28-.08-.54-.18-.77-.29-.07-.03-.13-.07-.2-.1-.16-.08-.31-.16-.44-.24-.07-.04-.13-.08-.19-.12-.06-.04-.11-.07-.16-.11.17-.36.34-.71.5-1.04.04.02.09.04.14.06ZM7.46,1.91c.21.29.3.56.26.77-.03.16-.15.3-.35.42-.29.16-.55.16-.79,0-.05-.56.04-1,.24-1.16.14-.11.35-.12.65-.04ZM6.05.9s.02,0,.03,0c.12,0,.43.13.76.38-.02,0-.03.02-.04.02-.13.04-.26.09-.37.18,0,0,0,0,0,0,0,0,0,0-.01,0-.12.11-.21.24-.28.38-.01.03-.01.06-.03.08-.05.12-.09.24-.11.37-.14-.35-.2-.74-.15-1.06.02-.13.08-.3.21-.36ZM5.94,3.37s.03,0,.05.02v.04s.1.08.1.08c0,0,0,0,0,0l-.22.53.57.23.2-.49c.1.03.21.06.31.06s.21-.02.32-.05c.02.38.03.88,0,1.43-.12,0-.25-.01-.37-.03-.08-.01-.16-.02-.24-.03-.21-.04-.42-.09-.61-.15-.11-.03-.2-.07-.3-.1-.1-.04-.2-.07-.3-.11-.08-.03-.16-.06-.23-.1-.03-.01-.06-.03-.09-.04.28-.57.53-1.05.71-1.42.03.04.06.09.09.12ZM2.89,14.92c.13-.01.27-.03.43-.06.03,0,.06,0,.09-.01.18-.03.37-.07.56-.12.05-.01.09-.02.14-.04.17-.04.33-.09.5-.15.05-.02.09-.03.13-.05.2-.07.39-.16.58-.26.02,0,.03-.01.05-.02l.48.8c-.1.16-.21.31-.32.47-.03.03-.05.07-.07.1-.17.23-.35.45-.53.66-.05.06-.1.11-.15.17-.13.15-.26.29-.38.43-.06.06-.11.12-.17.18-.05.05-.09.09-.13.14-.51-.63-.94-1.39-1.27-2.24.02,0,.04,0,.06,0ZM4.51,17.62c.05-.05.11-.12.16-.18.06-.06.11-.11.17-.18.06-.07.12-.13.18-.21.24.21-.07-.06.34.3l.4-.46-.34-.3c.16-.2.33-.4.48-.61.05-.07.09-.13.14-.2.08-.11.16-.21.23-.32.24.22.52.4.82.55l-1.32,2.51c-.45-.22-.88-.53-1.27-.92ZM6.36,18.77l.48-.92c.27.05-.1-.02.42.08l.11-.6-.23-.04.03-.07.5-.95c.33.11.67.18,1.02.21,0,.04-.02.1-.03.15-.01.07-.02.13-.03.2-.03.16-.05.34-.08.52,0,.07-.02.13-.03.19-.03.25-.06.5-.08.77,0,.06,0,.11,0,.16,0,.15-.02.3-.02.45-.33.01-.63.02-.89.02-.4,0-.78-.06-1.16-.18ZM10.64,18.79c-.54.04-1.09.08-1.62.11,0-.01,0-.03,0-.04,0-.2.02-.39.04-.59,0-.04,0-.08.01-.12.02-.18.04-.35.06-.52,0-.02,0-.05,0-.07.02-.19.05-.36.08-.53,0-.04.01-.07.02-.11.02-.14.05-.28.07-.39,0,0,0-.02,0-.02.4-.01.88-.05,1.43-.09.09,0,.17-.01.26-.02,0,.05,0,.11,0,.16,0,.07,0,.13,0,.2,0,.18,0,.38,0,.58,0,.05,0,.09,0,.14,0,.25.01.5.03.75,0,.06.01.12.02.18.01.12.02.24.04.36l-.42.03ZM11.68,18.71c-.02-.12-.03-.24-.05-.36,0-.07-.02-.13-.02-.2-.02-.24-.03-.48-.03-.72,0-.05,0-.09,0-.13,0-.2,0-.39,0-.56,0-.06,0-.12,0-.18,0-.08,0-.14.01-.21.5-.03,1.1-.07,1.7-.06,0,.06,0,.14.01.2,0,.06,0,.11.01.17.02.21.04.43.07.67,0,.01,0,.02,0,.03.03.24.07.5.11.75.01.07.03.14.04.22.02.11.04.21.06.32-.57,0-1.29.03-1.95.07ZM17.53,18.66c-.11.18-.5.29-1.05.29-.15,0-.35-.04-.61-.08-.17-.03-.37-.06-.6-.1.02-.02.04-.05.07-.06.08-.06.17-.1.26-.15.12-.06.24-.12.36-.16.1-.03.2-.06.3-.09.13-.03.25-.05.38-.07.09-.01.18-.03.27-.03.17,0,.33-.01.48,0,.04,0,.09,0,.12,0,.07.16.11.33.04.45Z"/>
  <path class="cls-2" d="M3.05,13.45h.61v-.61h-.61v.61Z"/>
  <path class="cls-2" d="M4.05,9.82l-.6-.13-.13.6.6.13.13-.6Z"/>
  <path class="cls-2" d="M4.41,15.81l-.24-.56-.57.24.24.57.57-.24Z"/>
  <path class="cls-2" d="M9.93,17.88h.61v-.61h-.61v.61Z"/>
  <path class="cls-2" d="M12.17,17.88h.61v-.61h-.61v.61Z"/>
  <path class="cls-2" d="M15.34,16.96h-.61v.61h.61v-.61Z"/>
  <path class="cls-3" d="M5.99,2.32c.02-.13.07-.25.11-.37.01-.03.01-.06.03-.08.07-.15.16-.28.28-.38,0,0,0,0,.01,0,0,0,0,0,0,0,.11-.09.23-.14.37-.18.02,0,.03-.02.04-.02-.33-.25-.64-.38-.76-.38-.01,0-.02,0-.03,0-.13.06-.18.23-.21.36-.06.31,0,.71.15,1.06Z"/>
  <path class="cls-3" d="M6.57,3.11c.25.16.51.16.79,0,.21-.12.32-.25.35-.42.04-.21-.05-.48-.26-.77-.3-.09-.52-.07-.65.04-.2.16-.29.6-.24,1.16Z"/>
</svg>