<?xml version="1.0" encoding="UTF-8"?>
<svg id="Layer_1" data-name="Layer 1" xmlns="http://www.w3.org/2000/svg" version="1.1" viewBox="0 0 19.84 19.84">
  <defs>
    <style>
      .cls-1 {
        fill: none;
      }

      .cls-1, .cls-2 {
        stroke-width: 0px;
      }

      .cls-2 {
        fill: #710f11;
      }
    </style>
  </defs>
  <path class="cls-1" d="M17.4,9.92s0,0,0,0c-.75-.41-1.6-.88-2.85-.89-1.35,0-2.59.5-3.3.88v.02s0,.01,0,.02c.71.38,1.91.88,3.24.88.02,0,.04,0,.06,0,1.24-.01,2.09-.48,2.84-.89,0,0,0,0,.01,0Z"/>
  <path class="cls-1" d="M10.66,11.09s-.06.04-.09.05c.04.81.21,2.08.89,3.22.64,1.07,1.46,1.57,2.2,2.02,0,0,0,0,0,0-.02-.88-.04-1.84-.65-2.92-.65-1.15-1.66-1.94-2.35-2.38Z"/>
  <path class="cls-1" d="M8.54,9.87c-.72-.37-1.93-.87-3.25-.85-1.25.01-2.1.48-2.85.89,0,0,0,0,0,0,0,0,0,0,0,0,.75.41,1.6.88,2.85.89.03,0,.06,0,.09,0,1.31-.02,2.46-.48,3.17-.85v-.03s0-.04-.01-.07Z"/>
  <path class="cls-1" d="M9.24,11.05c-.7.44-1.75,1.24-2.41,2.42-.61,1.09-.63,2.06-.65,2.91,0,0,0,0,0,0h0c.74-.45,1.57-.95,2.2-2.02.69-1.17.86-2.48.89-3.3-.01,0-.02-.01-.03-.02Z"/>
  <path class="cls-1" d="M13.01,6.36c.61-1.08.63-2.05.65-2.91h0s0-.01,0,0c-.18.11-.37.23-.56.35-.57.38-1.16.86-1.63,1.67-.27.46-.45.94-.58,1.41-.2.7-.29,1.36-.31,1.85.02,0,.05.02.07.04.69-.44,1.72-1.23,2.37-2.4Z"/>
  <path class="cls-1" d="M9.23,8.78s.03-.02.05-.03c-.03-.81-.2-2.11-.89-3.28-.63-1.07-1.46-1.57-2.2-2.02,0,0,0,0,0,0,.02.87.04,1.84.65,2.92.66,1.18,1.71,1.98,2.4,2.41Z"/>
  <path class="cls-2" d="M18.98,9.35c-.25,0-.61-.2-1.04-.44-.78-.43-1.85-1.02-3.39-1.03-.42,0-.85.03-1.28.11.28-.34.53-.69.73-1.06.75-1.34.78-2.56.8-3.46,0-.48.02-.9.14-1.11l.08-.18v-.11c0-.2-.11-.39-.29-.5-.13-.08-.29-.1-.44-.06-.15.04-.27.14-.34.27-.12.21-.48.43-.9.68-.76.46-1.81,1.09-2.59,2.42-.21.36-.4.75-.55,1.16-.15-.41-.33-.8-.55-1.16-.78-1.32-1.83-1.95-2.59-2.42-.41-.25-.77-.47-.9-.68-.16-.27-.51-.37-.78-.21-.18.1-.29.29-.29.5l.02.19.06.1c.12.22.13.64.14,1.12.02.89.05,2.11.8,3.45.21.37.45.72.73,1.05-.43-.08-.86-.1-1.28-.11-1.53.02-2.6.6-3.39,1.04-.42.23-.79.43-1.04.43-.32,0-.57.26-.57.57s.26.57.57.57c.25,0,.62.2,1.04.44.78.43,1.85,1.02,3.46,1.03.4,0,.8-.04,1.21-.11-.28.34-.53.69-.73,1.06-.75,1.33-.78,2.56-.8,3.45,0,.49-.02.9-.14,1.12l-.08.17v.11c0,.21.11.4.28.49l.18.08h.12c.2,0,.39-.11.5-.29.12-.21.48-.43.9-.68.76-.46,1.81-1.09,2.59-2.42.21-.36.4-.75.55-1.16.15.41.33.8.55,1.16.78,1.32,1.83,1.95,2.6,2.42.41.25.77.46.89.68.1.18.29.29.5.29l.19-.02.09-.05c.18-.1.29-.29.29-.5l-.02-.19-.06-.1c-.12-.21-.13-.63-.14-1.12-.02-.89-.04-2.11-.8-3.45-.21-.37-.45-.72-.74-1.06.42.07.85.11,1.28.11,1.53-.02,2.6-.6,3.39-1.03.42-.23.79-.44,1.04-.44.32,0,.57-.26.57-.57s-.26-.57-.57-.57ZM14.49,10.82c-1.34,0-2.53-.5-3.24-.88,0,0,0-.01,0-.02v-.02c.71-.38,1.95-.89,3.3-.88,1.25.01,2.1.48,2.85.89,0,0,0,0,0,0,0,0,0,0-.01,0-.75.41-1.6.88-2.84.89-.02,0-.04,0-.06,0ZM13.65,16.39c-.73-.44-1.56-.94-2.2-2.02-.67-1.14-.85-2.41-.89-3.22.03-.02.06-.04.09-.05.69.44,1.7,1.23,2.35,2.38.61,1.08.63,2.04.65,2.92,0,0,0,0,0,0ZM6.18,16.4h0s0,0,0,0c.02-.86.04-1.83.65-2.91.67-1.18,1.72-1.98,2.41-2.42,0,0,.02.01.03.02-.03.82-.2,2.13-.89,3.3-.64,1.07-1.46,1.57-2.2,2.02ZM5.39,10.81s-.06,0-.09,0c-1.25-.01-2.1-.48-2.85-.89,0,0,0,0,0,0,0,0,0,0,0,0,.75-.41,1.6-.88,2.85-.89,1.32-.02,2.53.48,3.25.85,0,.03,0,.05.01.07v.03c-.7.37-1.85.83-3.17.85ZM6.19,3.45c.73.44,1.56.95,2.2,2.02.69,1.16.86,2.46.89,3.28-.02.01-.04.02-.05.03-.68-.43-1.73-1.23-2.4-2.41-.61-1.08-.63-2.05-.65-2.92,0,0,0,0,0,0ZM10.87,6.88c.13-.47.31-.95.58-1.41.48-.81,1.06-1.29,1.63-1.67.19-.13.38-.24.56-.35,0,0,0,0,0,0h0c-.02.87-.04,1.84-.65,2.92-.66,1.16-1.68,1.96-2.37,2.4-.02-.01-.05-.03-.07-.04.02-.49.11-1.15.31-1.85Z"/>
</svg>