<?xml version="1.0" encoding="UTF-8"?>
<svg id="Layer_1" data-name="Layer 1" xmlns="http://www.w3.org/2000/svg" version="1.1" viewBox="0 0 19.84 19.84">
  <defs>
    <style>
      .cls-1, .cls-2 {
        fill: none;
      }

      .cls-1, .cls-3 {
        stroke-width: 0px;
      }

      .cls-2 {
        stroke: #000;
        stroke-width: .3px;
      }

      .cls-3 {
        fill: #6bbe5e;
      }
    </style>
  </defs>
  <g>
    <line class="cls-2" x1="3.98" y1="-51.13" x2="3.98" y2="-15.13"/>
    <line class="cls-2" x1="-50.02" y1="2.87" x2="-14.02" y2="2.87"/>
    <line class="cls-2" x1="-50.02" y1="16.97" x2="-14.02" y2="16.97"/>
    <line class="cls-2" x1="3.98" y1="70.97" x2="3.98" y2="34.97"/>
    <line class="cls-2" x1="20.37" y1="-51.13" x2="20.37" y2="-15.13"/>
    <line class="cls-2" x1="74.37" y1="2.87" x2="38.37" y2="2.87"/>
    <line class="cls-2" x1="74.37" y1="16.97" x2="38.37" y2="16.97"/>
    <line class="cls-2" x1="20.37" y1="70.97" x2="20.37" y2="34.97"/>
  </g>
  <g>
    <path class="cls-1" d="M14.79,15.71s-.05.01-.07.03c-.04.04-.05.11,0,.15l.16-.15s-.05-.03-.08-.03Z"/>
    <path class="cls-1" d="M10.43,3.07s.02.07.05.09c.03.02.06.03.1.02.03,0,.06-.02.08-.05.02-.03.03-.06.02-.09-.01-.08-.07-.13-.15-.11-.03,0-.07.02-.09.05-.02.03-.03.06-.02.1Z"/>
    <path class="cls-1" d="M14.86,15.9s.05-.11,0-.15c0,0,0,0,0,0l-.16.15s.06.03.07.03c.03,0,.06-.01.08-.03Z"/>
    <path class="cls-1" d="M13.67,13.81s.02-.06,0-.08c-.01-.01-.02-.02-.04-.02l-.06.06c.03.06.07.06.1.04Z"/>
    <path class="cls-1" d="M16.21,17.35s.05-.11,0-.16l-.17.16s.12.05.16,0Z"/>
    <path class="cls-1" d="M16.21,17.18s-.06-.04-.08-.04h0s-.05,0-.08.03-.04.06-.04.08,0,.05.03.08l.17-.16Z"/>
    <path class="cls-1" d="M13.18,11.29s.02-.06,0-.08c-.01-.01-.02-.02-.04-.02-.06.04-.07.07-.04.1.02.02.06.02.08,0Z"/>
    <path class="cls-1" d="M13.92,6.53s.01-.03,0-.04v.03s0,0,0,0Z"/>
    <path class="cls-1" d="M13.17,8.68s-.03.05-.03.08c0,.02.01.06.03.08.04.04.11.05.15,0,.05-.04.05-.11,0-.15-.04-.04-.11-.05-.16,0Z"/>
    <path class="cls-1" d="M13.88,6.46s0,0,0,0c-.01,0-.03,0-.05.02-.03.03-.03.07,0,.09l.05-.04v-.07Z"/>
    <path class="cls-1" d="M13.9,6.5l.02-.02s0,0,0,0c-.02-.02-.03-.02-.05-.02l.03.04Z"/>
    <path class="cls-1" d="M16.58,16.22c-.71-1.35-1.6-3.04-1.89-4.91-.3-1.9.08-3.84.35-5.25.09-.46.24-1.23.25-1.59-2.81.99-4.08,3.57-3.77,7.69.11,1.47,1.21,3.86,2.79,5.14.94.76,1.95,1.08,2.99.94.12-.02.16-.04.16-.04.05-.21-.51-1.27-.88-1.98ZM13.25,5.88c.17-.17.41-.24.64-.25.24,0,.46.11.63.28.16.17.25.4.25.64,0,.24-.11.46-.28.63-.17.16-.39.25-.62.25h-.02c-.24,0-.46-.11-.63-.28-.17-.17-.25-.4-.25-.64,0-.24.11-.46.28-.63ZM12.54,8.02c.41-.39,1.06-.37,1.45.04.19.2.29.46.28.73,0,.28-.12.53-.32.72-.2.19-.45.28-.7.28-.27,0-.54-.11-.74-.32-.39-.41-.37-1.06.04-1.45ZM12.32,10.39c.23-.22.51-.32.85-.33.32,0,.61.14.83.37.45.48.43,1.23-.04,1.68-.23.22-.53.33-.82.33-.32,0-.63-.12-.86-.37-.45-.48-.43-1.23.05-1.68ZM13.63,14.96s-.02,0-.03,0c-.32,0-.61-.14-.83-.37-.22-.23-.34-.53-.33-.85,0-.32.14-.61.37-.83.23-.22.53-.32.85-.33.32,0,.62.14.83.37.45.48.43,1.23-.05,1.68-.22.21-.51.33-.82.33ZM14.04,16.52c-.39-.41-.37-1.06.04-1.45h0c.19-.18.44-.28.7-.28h.03c.28,0,.53.12.72.32.39.41.37,1.06-.04,1.45-.2.19-.45.28-.7.28-.27,0-.54-.11-.74-.32ZM16.62,17.78c-.14.13-.31.19-.49.19-.19,0-.38-.08-.52-.22-.13-.14-.2-.32-.2-.51,0-.19.08-.37.22-.5s.35-.2.51-.2c.19,0,.37.08.5.22.27.29.26.74-.03,1.01Z"/>
    <path class="cls-1" d="M4.93,16.3h0s.01,0,.02,0h-.02Z"/>
    <path class="cls-1" d="M7.99,8.87c1.1-2.24,2.95-4.02,4.3-5.33.55-.53,1.45-1.4,1.59-1.74-.04-.02-.1-.05-.2-.08-.71-.2-1.41-.3-2.09-.3-2.99,0-5.65,1.94-7.95,5.78h0c-.87,1.46-1.73,4.84-.9,7.76.45,1.57,1.32,2.7,2.59,3.37.19.1.29.1.32.09.33-.17.53-1.7.69-2.93.26-1.98.58-4.44,1.65-6.63ZM9.76,2.45c.16-.22.4-.36.66-.39.27-.04.53.03.74.19.22.16.36.4.39.66.04.26-.03.53-.19.74-.16.22-.4.36-.66.4-.05,0-.1.01-.15.01-.49,0-.92-.36-.99-.86-.04-.26.03-.53.19-.74ZM7.27,4.28c.18-.25.46-.41.77-.46.64-.09,1.23.35,1.32.98.05.31-.03.61-.22.87-.19.25-.46.41-.77.46-.06,0-.11.01-.17.01-.25,0-.49-.08-.69-.23-.25-.18-.41-.46-.46-.77-.05-.31.03-.61.22-.86ZM5,17.01s-.08,0-.11,0c-.16,0-.32-.05-.45-.15-.16-.12-.27-.3-.3-.5-.03-.2.02-.4.14-.57.12-.17.3-.27.5-.3.2-.03.4.02.56.14.16.12.27.3.3.5.06.42-.23.8-.64.86ZM5.48,14.39c-.19.25-.46.41-.77.46-.06,0-.11.01-.17.01-.57,0-1.07-.42-1.15-1-.05-.31.03-.62.22-.87.19-.25.46-.41.76-.46h0c.63-.09,1.23.35,1.32.98.04.31-.03.61-.22.86ZM5.96,11.45c-.22.3-.55.49-.91.54-.07.01-.14.02-.2.02-.67,0-1.27-.5-1.37-1.18-.11-.75.41-1.46,1.17-1.57h0c.75-.11,1.46.41,1.57,1.17.05.37-.04.73-.26,1.03ZM5.4,8.67c-.3-.22-.49-.54-.54-.91-.05-.37.04-.73.26-1.03s.54-.49.91-.54c.37-.05.73.04,1.03.26.3.22.49.54.54.91.11.76-.41,1.46-1.17,1.57-.07,0-.14.01-.2.01-.3,0-.58-.09-.82-.27Z"/>
    <path class="cls-1" d="M6.47,7.53h0c0-.07-.04-.12-.1-.17-.04-.03-.09-.05-.15-.05-.01,0-.02,0-.04,0-.07,0-.12.04-.17.1-.04.05-.06.12-.05.19.02.14.14.23.28.21.07,0,.12-.04.16-.1.04-.05.06-.12.05-.19Z"/>
    <path class="cls-1" d="M5.1,10.59h0c0-.07-.04-.13-.1-.17-.04-.03-.1-.05-.15-.05-.01,0-.02,0-.04,0-.07,0-.12.04-.16.1-.04.05-.06.12-.05.19.02.14.14.22.29.21.07,0,.12-.04.16-.1.04-.06.06-.12.05-.19Z"/>
    <path class="cls-1" d="M4.93,16.29h.02s0,.01,0,.01c0,0,0-.02,0-.02h-.02Z"/>
    <path class="cls-3" d="M10.56,4.05s.1,0,.15-.01c.26-.04.5-.18.66-.4.16-.21.23-.48.19-.74-.04-.26-.18-.5-.39-.66-.21-.16-.48-.23-.74-.19-.26.04-.5.18-.66.39-.16.22-.23.48-.19.74.07.5.5.86.99.86ZM10.69,3.04s0,.07-.02.09c-.02.03-.05.05-.08.05-.04,0-.07,0-.1-.02-.03-.02-.05-.05-.05-.09s0-.07.02-.1c.02-.03.05-.05.09-.05.08-.01.14.04.15.11Z"/>
    <path class="cls-3" d="M8.2,6.14c.06,0,.11,0,.17-.01.31-.05.58-.21.77-.46.19-.25.26-.56.22-.87-.09-.63-.68-1.08-1.32-.98-.31.05-.58.21-.77.46-.19.25-.26.56-.22.86.04.31.21.58.46.77.2.15.44.23.69.23Z"/>
    <path class="cls-3" d="M7.59,7.36c-.05-.37-.25-.69-.54-.91-.3-.22-.66-.31-1.03-.26-.36.05-.69.25-.91.54s-.31.66-.26,1.03c.05.37.25.69.54.91.24.18.53.27.82.27.07,0,.14,0,.2-.01.75-.11,1.28-.82,1.17-1.57ZM5.97,7.6c0-.07,0-.13.05-.19.04-.05.1-.09.17-.1.01,0,.02,0,.04,0,.05,0,.1.02.15.05.06.04.09.1.1.16h0c0,.07,0,.13-.05.19-.04.05-.1.09-.16.1-.14.02-.26-.08-.28-.21Z"/>
    <path class="cls-3" d="M4.65,9.26h0c-.75.11-1.28.82-1.17,1.57.1.69.69,1.18,1.37,1.18.07,0,.13,0,.2-.02.37-.05.69-.24.91-.54.22-.3.31-.66.26-1.03-.11-.75-.82-1.28-1.57-1.17ZM4.6,10.66c0-.07,0-.13.05-.19.04-.05.1-.09.16-.1.01,0,.02,0,.04,0,.05,0,.11.02.15.05.05.04.09.1.1.16h0c0,.07,0,.13-.05.19-.04.05-.1.09-.16.1-.14.01-.27-.08-.29-.21Z"/>
    <path class="cls-3" d="M4.37,12.54h0c-.31.05-.58.21-.76.46-.19.25-.26.56-.22.87.09.58.58,1,1.15,1,.06,0,.11,0,.17-.01.31-.05.58-.21.77-.46.19-.25.26-.56.22-.86-.09-.64-.69-1.08-1.32-.98Z"/>
    <path class="cls-3" d="M4.78,15.5c-.2.03-.38.13-.5.3-.12.16-.17.36-.14.57.03.2.14.38.3.5.13.1.29.15.45.15.04,0,.07,0,.11,0,.41-.06.7-.45.64-.86-.03-.2-.14-.38-.3-.5-.16-.12-.36-.17-.56-.14ZM4.93,16.3h.02s-.01,0-.02.01h0ZM4.95,16.3h0s-.02-.01-.02-.01h.02s0,0,0,.01Z"/>
    <path class="cls-3" d="M17.58,15.69c-.67-1.28-1.51-2.88-1.78-4.56-.27-1.71.08-3.53.34-4.87.18-.92.29-1.58.22-2.08.01-.03.03-.05.04-.08.26-.92.76-.9.82-.9.14.02.29-.01.41-.09.12-.09.21-.22.23-.37.06-.31-.15-.6-.46-.66-.01,0-1.24-.19-1.9,1.21-.18-.01-.38.02-.6.09-.72.25-1.34.61-1.89,1.03.02-.02.04-.04.06-.06,1.01-.97,1.74-1.69,1.91-2.34,0,0,0,0,0,0,.65-.62,1.01-.41,1.02-.41.12.09.26.12.41.1.15-.02.28-.1.37-.22.09-.12.13-.27.11-.42s-.1-.28-.22-.38c-.04-.03-.93-.66-2.12.21-.16-.11-.34-.2-.57-.27C9.6-.6,5.79,1.41,2.67,6.63c-1.16,1.94-1.85,5.7-1.02,8.65.53,1.88,1.6,3.25,3.15,4.06h0c.32.16.59.22.81.22s.42-.06.55-.13c.86-.44,1.04-1.84,1.29-3.78.25-1.89.55-4.25,1.55-6.28.71-1.45,1.8-2.72,2.84-3.79-1.18,1.57-1.67,3.79-1.46,6.66.13,1.75,1.36,4.45,3.21,5.94,1,.81,2.08,1.22,3.21,1.22.21,0,.42-.01.64-.04.6-.08.87-.38.99-.61.37-.72-.14-1.7-.85-3.05ZM14.3,17.3c-1.58-1.28-2.68-3.67-2.79-5.14-.31-4.11.96-6.7,3.77-7.69,0,.36-.16,1.14-.25,1.59-.27,1.41-.65,3.35-.35,5.25.29,1.87,1.18,3.55,1.89,4.91.37.7.93,1.76.88,1.98,0,0-.04.02-.16.04-1.04.14-2.05-.17-2.99-.94ZM5.64,18.42s-.12.01-.32-.09c-1.27-.66-2.14-1.79-2.59-3.37-.83-2.92.03-6.29.9-7.75h0C5.94,3.36,8.6,1.43,11.59,1.43c.68,0,1.38.1,2.09.3.1.03.16.06.2.08-.14.34-1.04,1.2-1.59,1.74-1.35,1.3-3.2,3.09-4.3,5.33-1.08,2.19-1.4,4.65-1.65,6.63-.16,1.23-.36,2.75-.69,2.93Z"/>
    <path class="cls-3" d="M13.85,7.43h.02c.23,0,.45-.09.62-.25.17-.17.27-.39.28-.63,0-.24-.08-.47-.25-.64-.17-.17-.39-.27-.63-.28-.23,0-.47.08-.64.25-.17.16-.27.39-.28.63,0,.24.08.47.25.64.17.17.39.27.63.28ZM13.92,6.53h0s0-.04,0-.04c.01.01,0,.03,0,.04ZM13.92,6.48l-.02.02-.03-.04s.03,0,.05.02c0,0,0,0,0,0ZM13.83,6.48s.03-.02.05-.02c0,0,0,0,0,0v.07s-.05.04-.05.04c-.02-.03-.02-.07,0-.09Z"/>
    <path class="cls-3" d="M13.24,9.79c.25,0,.51-.09.7-.28.2-.19.31-.44.32-.72,0-.27-.09-.53-.28-.73-.39-.41-1.04-.43-1.45-.04-.41.39-.43,1.04-.04,1.45.2.21.47.32.74.32ZM13.32,8.84s-.11.04-.15,0c-.02-.02-.03-.05-.03-.08,0-.03.01-.06.03-.08.04-.04.11-.04.16,0,.04.04.04.11,0,.15Z"/>
    <path class="cls-3" d="M13.96,12.11c.47-.45.49-1.21.04-1.68-.22-.23-.51-.36-.83-.37-.35,0-.62.11-.85.33-.48.45-.5,1.21-.05,1.68.23.25.55.37.86.37.3,0,.59-.11.82-.33ZM13.15,11.19s.03,0,.04.02c.02.02.02.06,0,.08-.02.02-.06.02-.08,0-.02-.02-.02-.06.04-.1Z"/>
    <path class="cls-3" d="M14.5,12.95c-.22-.23-.52-.36-.83-.37-.32,0-.62.11-.85.33-.23.22-.36.51-.37.83,0,.32.11.62.33.85.22.23.51.36.83.37.01,0,.02,0,.03,0,.31,0,.59-.11.82-.33.48-.45.5-1.21.05-1.68ZM13.63,13.71s.03,0,.04.02c.02.02.02.06,0,.08-.02.02-.06.02-.1-.04l.06-.06Z"/>
    <path class="cls-3" d="M15.53,15.11c-.19-.2-.44-.31-.72-.32h-.03c-.26,0-.51.1-.7.28h0c-.41.39-.43,1.04-.04,1.45.2.21.47.32.74.32.25,0,.51-.09.7-.28.41-.39.43-1.04.04-1.45ZM14.71,15.73s.05-.03.07-.03.06.01.08.03l-.16.15s-.04-.11,0-.15ZM14.87,15.74s0,0,0,0c.04.04.04.11,0,.15-.02.02-.05.03-.08.03-.01,0-.05-.01-.07-.03l.16-.15Z"/>
    <path class="cls-3" d="M16.15,16.55c-.16,0-.37.06-.51.2s-.22.31-.22.5c0,.19.06.37.2.51.14.15.33.22.52.22.18,0,.35-.06.49-.19.29-.27.3-.72.03-1.01-.13-.14-.31-.22-.5-.22ZM16.05,17.18s.06-.03.08-.03h0s.05,0,.08.04l-.17.16.17-.16s.04.12,0,.16c-.04.04-.12.04-.16,0-.03-.03-.03-.06-.03-.08s0-.05.04-.08Z"/>
  </g>
</svg>