<?xml version="1.0" encoding="UTF-8"?>
<svg id="Layer_1" data-name="Layer 1" xmlns="http://www.w3.org/2000/svg" version="1.1" viewBox="0 0 19.84 19.84">
  <defs>
    <style>
      .cls-1 {
        fill: #4788c8;
        stroke-width: 0px;
      }
    </style>
  </defs>
  <path class="cls-1" d="M6.81,19.56c-3.22,0-5.85-2.62-5.85-5.85,0-.31.02-.6.07-.9,0-.04.02-.09.03-.13l.07-.32c.01-.07.03-.14.06-.23.08-.28.19-.56.31-.84,1.23-3.02,4.64-7.77,4.78-7.97.09-.13.24-.2.39-.2h0c.16,0,.3.08.39.2.14.19,3.39,4.7,4.46,6.69.28.53.49.97.65,1.37.03.04.06.13.09.21.05.12.1.25.14.38.2.58.21.89.21.94,0,.04,0,.08-.01.11.03.23.05.45.05.69,0,3.22-2.62,5.85-5.85,5.85ZM2.02,12.85c0,.08-.03.15-.05.19-.02.17-.04.41-.04.67,0,2.69,2.19,4.87,4.87,4.87s4.87-2.19,4.87-4.87c0-.24-.02-.48-.06-.71-.01-.07,0-.14,0-.21-.02-.1-.06-.28-.15-.53-.04-.12-.08-.22-.13-.34-.01-.02-.07-.16-.08-.18-.15-.36-.35-.78-.61-1.28-.82-1.53-3.07-4.74-3.99-6.02-.94,1.35-3.33,4.89-4.28,7.22-.11.25-.2.5-.28.75-.02.06-.03.1-.04.14l-.06.29Z"/>
  <path class="cls-1" d="M16,8.14c-1.59,0-2.88-1.29-2.88-2.88,0-.15.01-.29.04-.45l.04-.22s.01-.04.02-.05c0-.01,0-.02,0-.04.05-.16.09-.31.16-.45.55-1.33,2.08-3.48,2.15-3.57.09-.13.24-.2.39-.2h0c.16,0,.3.08.39.2.06.09,1.53,2.11,2.01,3.01.13.25.23.46.3.62,0,.02.02.06.03.09h0c.03.06.07.18.07.18.1.29.12.46.12.52,0,0,0,.02,0,.02.02.11.02.21.02.33,0,1.59-1.29,2.88-2.88,2.88ZM14.13,4.92s0,.05,0,.06c-.02.1-.03.18-.03.28,0,1.05.86,1.91,1.91,1.91s1.91-.86,1.91-1.91c0-.09,0-.17-.02-.25,0-.04-.01-.08,0-.13,0-.04-.02-.09-.05-.16l-.05-.14s-.01-.03-.02-.05c-.09-.2-.17-.37-.28-.57-.3-.56-1.07-1.66-1.54-2.34-.49.72-1.31,1.99-1.67,2.85-.05.1-.07.19-.09.27,0,.05-.02.1-.04.14v.05Z"/>
  <path class="cls-1" d="M9.57,15.66c-.13,0-.26-.05-.35-.15-.19-.19-.18-.5.02-.69,1.27-1.21-.28-3.74-.29-3.77-.14-.23-.07-.53.16-.67.23-.14.53-.07.67.16.08.13,1.98,3.23.14,4.99-.09.09-.21.13-.33.13Z"/>
</svg>