<?xml version="1.0" encoding="UTF-8"?>
<svg id="Layer_1" data-name="Layer 1" xmlns="http://www.w3.org/2000/svg" version="1.1" viewBox="0 0 19.84 19.84">
  <defs>
    <style>
      .cls-1 {
        fill: #a9892f;
      }

      .cls-1, .cls-2 {
        stroke-width: 0px;
      }

      .cls-2 {
        fill: none;
      }
    </style>
  </defs>
  <path class="cls-2" d="M18.75,14.72c.02-.36-.05-.64-.23-.83-.23-.24-.55-.27-.68-.27-.07,0-.15,0-.22.03-.15.04-.46.1-.8.1-.49,0-.81-.14-.96-.43-.06-.11-.08-.23-.07-.35h-.42c-.22,0-.4-.18-.4-.4s.18-.4.4-.4h.42c0-.13.02-.24.07-.35.15-.28.47-.43.96-.43.33,0,.64.06.8.1.07.02.14.03.22.03.13,0,.46-.03.68-.27.17-.18.25-.46.23-.83-.02-.37-.22-.44-.88-.47-.18,0-.36-.01-.52-.05-.1.17-.24.36-.44.55-.07.07-.17.11-.27.11-.11,0-.22-.04-.29-.13-.15-.16-.14-.42.02-.57.39-.37.45-.71.45-.72,0,0,0,0,0,0,0,0,0,0,0,0,.01-.06.02-.13.03-.19.13-.75.11-.91-.34-1.06-.15-.05-.29-.07-.42-.07-.33,0-.51.18-.59.29.09.34.09.68-.07.95-.18.32-.5.56-.81.8-.36.28-.65.52-.61.67.01.04.02.07.4.05.31-.02.88-.06,1.07.49.07.21-.05.44-.26.51-.03.01-.08.02-.12.02-.16,0-.29-.09-.36-.23-.04,0-.11,0-.27,0-.35.02-1.01.07-1.22-.61-.21-.68.39-1.16.88-1.53.25-.2.51-.39.61-.57.07-.11.06-.29-.02-.48,0,0,0,0,0,0,0,0,0,0,0,0,0-.01-.62-1.39-1.83-1.39-.02,0-.05,0-.07,0-.69.03-.77.38-.88.87-.01.06-.03.12-.05.19,0,0,0,0,0,0-.15.72-.05.89-.04.89.04.04.1.1.16.15.31.29.74.69.69,1.22-.02.21-.19.36-.4.36,0,0-.03,0-.04,0-.22-.02-.38-.21-.36-.43.01-.14-.26-.4-.44-.57-.07-.06-.13-.12-.19-.18-.16-.16-.24-.4-.25-.72-.3-.03-.48-.21-.61-.33-.13-.14-.21-.22-.45-.22-.1,0-.21.02-.35.05-.33.08-.57.22-.64.37-.02.05-.03.09,0,.13.01.03.04.05.11.1.24.18.47.43.37.99.06,0,.13,0,.18,0,0-.02.02-.05.04-.09.09-.24.32-.78,1.16-.59.21.05.35.26.3.48-.02.11-.09.19-.18.25-.09.06-.2.07-.3.05-.14-.03-.18-.03-.19-.02,0,0-.03.07-.05.12-.07.18-.22.56-.68.59-.39.03-.91.04-1.18.04,0,0,0,0-.01,0-.02,0-.03,0-.05,0-.11,0-.22,0-.33-.02-.12-.01-.23-.02-.34-.02-.21,0-.34.04-.44.12-.06.05-.11.2-.09.38.02.12.1.43.46.59.27.11.74-.09,1.15-.27.39-.17.77-.34,1.13-.34.25,0,.47.08.65.24.09.08.15.17.2.25.28-.13.63-.26,1.06-.35.22-.04.43.1.47.31.04.22-.1.43-.31.47-.37.07-.68.19-.91.3h2.92c.22,0,.4.18.4.4s-.18.4-.4.4h-2.91c.36.17.91.36,1.61.38.11,0,.21.05.28.13.07.08.11.18.11.29,0,.22-.18.39-.4.39h0c-.82-.03-1.47-.24-1.9-.44-.05.08-.11.17-.2.25-.18.16-.4.24-.65.24-.36,0-.74-.16-1.13-.34-.42-.18-.89-.39-1.16-.27-.36.16-.44.46-.46.59-.03.18.03.33.09.38.1.08.23.12.44.12.11,0,.22,0,.32-.02.14-.01.24-.02.35-.02.02,0,.03,0,.05,0,0,0,0,0,.01,0,.34,0,.82.01,1.18.04.47.04.61.41.68.59.02.05.04.12.06.13,0,0,.04,0,.18-.03.11-.03.21,0,.3.05s.15.15.18.25c.05.22-.09.43-.3.48-.12.03-.23.04-.33.04-.58,0-.76-.44-.83-.63-.02-.04-.03-.07-.04-.09-.06,0-.12,0-.18-.01.1.56-.13.82-.37.99-.08.06-.1.08-.11.1-.02.04-.02.08,0,.13.07.15.31.29.64.37.13.03.25.05.35.05.23,0,.31-.08.45-.22.12-.13.31-.31.61-.33.01-.31.09-.55.25-.71.06-.06.12-.11.18-.17.19-.18.46-.44.45-.58,0-.11.02-.21.09-.29s.16-.13.27-.14c.1,0,.21.02.29.09.08.07.13.16.14.27.05.53-.38.93-.69,1.22-.06.05-.12.11-.16.16,0,0-.1.17.05.88,0,0,0,0,0,0,.02.07.03.13.05.19.11.49.19.85.88.87.02,0,.05,0,.07,0,1.21,0,1.82-1.37,1.83-1.39,0,0,0,0,0,0,.08-.19.09-.36.02-.47-.1-.18-.35-.37-.6-.56-.5-.39-1.1-.86-.89-1.54.21-.68.87-.64,1.22-.61.16.01.24.01.27,0,.04-.08.1-.14.18-.18.09-.05.2-.06.31-.02.21.07.32.29.25.5-.18.55-.75.51-1.06.49-.38-.03-.39,0-.4.05-.04.15.26.4.61.67.31.24.63.49.81.8.16.27.16.61.07.95.08.11.25.29.59.29.13,0,.27-.03.42-.07.45-.15.47-.31.34-1.06-.01-.06-.02-.12-.03-.18,0,0,0,0,0,0,0,0,0-.01,0-.02,0-.01-.06-.35-.45-.72-.16-.15-.17-.4-.02-.56.15-.16.4-.17.57-.02.21.19.34.38.44.55.16-.04.34-.05.52-.05.66-.03.85-.09.88-.47Z"/>
  <path class="cls-2" d="M17.6,7.11h0Z"/>
  <polygon class="cls-2" points="12.82 13.98 12.82 13.98 12.82 13.98 12.82 13.98"/>
  <polygon class="cls-2" points="12.31 10.33 12.31 10.33 12.31 10.33 12.31 10.33"/>
  <path class="cls-1" d="M7.72,16.73c-.06-.01-.13-.03-.19-.04-.2-.05-.43-.1-.65-.13-.23-.03-.46-.04-.7-.06-.43-.03-.83-.05-1.13-.2-.37-.18-.65-.53-.94-.87-.12-.15-.25-.3-.38-.44-.2-.21-.39-.43-.57-.65-.13-.15-.26-.28-.39-.42l1.1-.52c.2-.09.29-.33.19-.53-.05-.1-.13-.17-.23-.21-.1-.04-.21-.03-.31.01l-1.4.66c-.11-.06-.24-.11-.41-.16l4.34-2.02c.1-.05.17-.13.21-.23.04-.1.03-.21-.01-.31-.09-.2-.33-.29-.53-.19l-4.31,2.01c.06-.16.1-.29.12-.4l.79-.37c.1-.04.17-.12.21-.22.04-.1.03-.21-.01-.31-.04-.1-.12-.17-.22-.21-.1-.04-.21-.03-.31.01l-.47.22c-.03-.19-.06-.39-.09-.58-.05-.27-.09-.55-.12-.84-.02-.19-.06-.39-.09-.58-.08-.43-.16-.87-.06-1.27.08-.33.32-.65.58-1,.14-.18.27-.37.4-.57.12-.19.23-.4.32-.58.18-.36.37-.74.67-1.02.21-.19.52-.34.85-.49.27-.12.55-.25.82-.43.23-.15.44-.33.66-.52.27-.24.56-.49.89-.64.33-.15.7-.21,1.06-.27.27-.04.55-.08.82-.17.31-.1.6-.24.85-.36.33-.16.64-.3.93-.34.41-.05.82.04,1.21.14.21.05.43.1.65.13.22.03.44.04.7.06.43.02.84.05,1.14.2.37.18.66.53.95.89.12.14.24.29.37.43.19.2.37.41.56.63.13.15.27.29.41.44l-.43.2c-.2.09-.28.33-.19.53.07.14.21.23.36.23.06,0,.12-.01.17-.04l.73-.34c.1.06.23.11.39.17l-1.94.9c-.1.05-.17.13-.21.23h0s0,.04,0,.06c-.02.08-.03.16.01.24.04.1.12.17.22.21.1.04.21.03.31-.01l1.94-.9c-.11.29-.16.52-.16.69,0,.1.01.21.02.33.02.21.19.36.4.36,0,0,.04,0,.04,0,.22-.02.38-.22.36-.44-.01-.1-.02-.19-.02-.28,0,0,0-.11.13-.45.12-.29.04-.62-.19-.83-.03-.02-.06-.03-.09-.05,0-.03.03-.06.02-.1-.02-.31-.22-.58-.52-.68-.35-.12-.43-.19-.43-.19-.25-.22-.48-.5-.75-.81-.18-.21-.37-.43-.57-.64-.12-.12-.23-.26-.35-.4-.31-.38-.67-.82-1.2-1.08-.45-.22-.93-.25-1.45-.28-.21-.01-.43-.02-.64-.05-.18-.02-.36-.07-.58-.12-.44-.1-.94-.22-1.49-.15-.41.05-.77.22-1.17.41-.24.11-.49.23-.76.32-.21.07-.45.1-.7.14-.42.07-.85.13-1.28.33-.43.2-.76.49-1.09.78-.19.16-.37.32-.54.43-.23.15-.5.27-.73.38-.39.18-.76.35-1.06.63-.41.38-.64.84-.84,1.25-.09.18-.18.36-.28.51-.11.18-.24.35-.37.52-.31.41-.6.8-.72,1.29-.14.57-.04,1.12.05,1.61.03.18.07.36.09.52.03.3.08.59.13.89.06.38.12.73.13,1.06,0,0,0,.11-.13.45-.12.29-.04.62.19.83.03.02.06.04.09.06,0,.03-.02.06-.02.09.02.31.22.58.52.68.34.11.42.18.43.19.24.22.48.5.73.79.19.22.38.45.59.67.12.12.23.26.35.41.31.38.67.81,1.19,1.07.45.22.93.25,1.47.28.2.01.42.02.62.05.18.02.37.07.57.11l.2.05s.06.01.09.01c.19,0,.35-.13.39-.31.05-.22-.09-.43-.3-.48ZM17.6,7.11h0Z"/>
  <path class="cls-1" d="M3.1,7.18c.21-.2.49-.34.8-.5.25-.13.52-.27.76-.45.24-.18.45-.4.65-.61.23-.24.45-.47.69-.62.19-.11.25-.36.14-.55-.06-.09-.14-.16-.25-.18-.1-.03-.21,0-.3.05-.34.21-.61.49-.86.76-.18.19-.36.38-.55.52-.19.14-.41.26-.65.38-.33.17-.67.35-.97.62-.08.07-.12.17-.13.28,0,.11.03.21.11.29.08.08.18.13.29.13.1,0,.2-.04.27-.11Z"/>
  <path class="cls-1" d="M8.34,3.9c.27-.09.59-.11.93-.13.29-.02.58-.04.88-.1.3-.07.58-.19.85-.3.31-.13.59-.25.88-.28.11-.01.2-.07.27-.15s.09-.19.08-.29c-.01-.11-.07-.2-.15-.27-.08-.06-.18-.09-.29-.08-.39.05-.75.2-1.1.34-.25.1-.48.2-.71.25-.23.05-.48.07-.76.08-.37.02-.76.04-1.13.17-.21.07-.32.3-.25.51.06.16.21.27.38.27.04,0,.09,0,.13-.02Z"/>
  <path class="cls-1" d="M8.99,6c.3-.2.58-.39.88-.51.3-.12.64-.17,1-.22.32-.05.65-.1.97-.2.32-.1.62-.26.91-.4.32-.16.62-.32.94-.4.21-.05.34-.27.29-.49-.06-.21-.28-.34-.48-.29-.4.1-.76.28-1.1.46-.27.14-.53.27-.8.36-.26.09-.55.13-.85.18-.37.06-.78.12-1.17.27-.38.15-.71.37-1.04.59-.25.17-.49.34-.75.45-.25.12-.53.2-.83.28-.37.11-.76.22-1.12.41-.36.2-.66.46-.96.72-.23.2-.45.39-.68.54-.23.15-.5.26-.78.38-.36.15-.72.31-1.06.55-.18.13-.22.38-.09.56.08.1.2.17.32.17.08,0,.17-.03.23-.08.26-.19.57-.32.91-.46.3-.13.61-.26.9-.44.28-.18.53-.39.79-.62.27-.24.53-.46.81-.62.28-.15.61-.25.96-.35.31-.09.64-.18.94-.33.31-.14.58-.33.86-.52Z"/>
  <path class="cls-1" d="M7.75,8.85c.1-.04.17-.12.21-.23.04-.1.03-.21-.01-.31-.09-.2-.33-.29-.53-.19-.18.08-.39.14-.6.2-.25.07-.54.14-.81.28-.27.14-.5.33-.7.49-.17.14-.34.28-.51.37-.17.1-.37.17-.6.25-.26.09-.52.18-.78.34-.19.11-.25.36-.13.55.07.12.2.19.34.19.07,0,.14-.02.21-.06.18-.11.4-.19.64-.27.22-.08.48-.17.71-.3.23-.13.43-.29.63-.45.19-.15.37-.3.56-.4.19-.1.41-.16.67-.23.24-.06.48-.13.72-.24Z"/>
  <path class="cls-1" d="M5.71,13.82c-.2.09-.43.2-.67.26-.1.03-.19.09-.25.18-.06.09-.07.2-.04.3.04.18.2.3.39.3.03,0,.07,0,.1-.01.31-.08.59-.21.82-.32.1-.05.17-.13.2-.23.04-.1.03-.21-.02-.31-.1-.2-.33-.28-.53-.18Z"/>
  <path class="cls-1" d="M6.59,12.15c.04-.1.03-.21-.02-.31-.09-.2-.33-.29-.53-.19-.17.08-.33.17-.48.27-.21.13-.41.24-.62.31-.1.03-.18.11-.23.2-.05.1-.05.21-.02.31.06.16.21.27.38.27.04,0,.09,0,.13-.02.28-.09.52-.24.77-.38.14-.09.28-.17.42-.23.1-.05.17-.13.2-.23Z"/>
  <path class="cls-1" d="M17.84,12.82c-.14,0-.28.02-.41.05-.3.07-.67.09-.81.06.02-.03.04-.08.08-.13.05-.06.07-.14.07-.22,0,0,0,0,0-.01s0,0,0-.01c0-.08-.02-.15-.07-.21-.04-.06-.07-.1-.08-.14.13-.02.51-.01.81.06.13.03.27.05.41.05.5,0,.96-.19,1.27-.52.33-.35.48-.83.44-1.42-.07-1.15-1.13-1.19-1.65-1.21-.06,0-.18,0-.27-.02,0-.02,0-.04.01-.05.11-.66.27-1.58-.88-1.95-.23-.08-.46-.11-.67-.11-.42,0-.73.15-.94.31-.39-.58-1.16-1.39-2.36-1.34-1.3.05-1.52.99-1.63,1.5-.02.08-.05.22-.08.3-.03-.02-.07-.07-.09-.09-.17-.17-.45-.46-1.02-.46-.16,0-.34.02-.53.07-.57.14-.99.42-1.17.79-.13.26-.13.55-.02.81.1.22.26.34.37.42.11.08.11.08.05.3-.01.04-.02.05-.02.05,0,0-.03.02-.15.02-.08,0-.18,0-.28-.02-.12-.01-.25-.02-.38-.02-.25,0-.62.03-.95.3-.29.24-.43.66-.37,1.11.07.54.42.99.93,1.21.15.07.32.1.51.1.44,0,.87-.19,1.29-.38.3-.13.61-.27.81-.27.07,0,.09.02.12.04.04.03.05.05.05.05-.01.07-.22.26-.45.38-.03.01-.04.04-.06.06-.02.02-.04.03-.05.05-.06.07-.1.15-.1.25s.04.18.1.25c.02.02.03.03.05.05.02.02.04.04.06.06.22.11.44.31.45.37,0,0,0,.02-.05.06-.02.02-.04.03-.11.03-.2,0-.51-.14-.81-.27-.42-.18-.85-.38-1.29-.38-.18,0-.35.03-.51.1-.51.22-.86.67-.93,1.21-.06.45.08.87.37,1.11.33.27.7.3.95.3.13,0,.25-.01.39-.02.1,0,.19-.02.28-.02.13,0,.15.02.15.02,0,0,0,.01.02.05.06.22.06.22-.05.3-.11.08-.27.2-.37.42-.12.26-.11.55.02.81.18.37.6.65,1.17.79.19.05.37.07.53.07.57,0,.85-.29,1.02-.46.02-.02.06-.06.09-.08.03.07.06.22.08.29.11.5.33,1.44,1.63,1.49h.1c1.15,0,1.88-.77,2.26-1.34.21.16.52.31.94.31.21,0,.44-.04.67-.11,1.14-.37.99-1.28.88-1.95,0-.02,0-.03,0-.05.09,0,.21-.01.28-.02.51-.02,1.57-.06,1.64-1.22.04-.59-.11-1.07-.44-1.43-.31-.33-.77-.52-1.27-.52ZM16.91,14.68c-.16-.15-.42-.14-.57.02-.15.16-.14.41.02.56.39.37.45.71.45.72,0,0,0,.01,0,.02,0,0,0,0,0,0,0,.06.02.12.03.18.13.75.11.91-.34,1.06-.15.05-.29.07-.42.07-.33,0-.51-.18-.59-.29.09-.34.09-.68-.07-.95-.18-.31-.5-.56-.81-.8-.35-.27-.65-.52-.61-.67.02-.05.03-.08.4-.05.31.02.88.06,1.06-.49.07-.21-.05-.44-.25-.5-.1-.04-.21-.03-.31.02-.08.04-.14.1-.18.18-.03,0-.11,0-.27,0-.35-.02-1.01-.07-1.22.61-.21.68.39,1.15.89,1.54.24.19.5.39.6.56.07.12.06.29-.02.47,0,0,0,0,0,0,0,.01-.62,1.39-1.83,1.39-.02,0-.05,0-.07,0-.69-.03-.77-.38-.88-.87-.01-.06-.03-.13-.05-.19,0,0,0,0,0,0-.15-.71-.05-.88-.05-.88.05-.05.11-.11.16-.16.31-.29.74-.69.69-1.22-.01-.11-.06-.2-.14-.27-.08-.07-.19-.09-.29-.09-.11.01-.2.06-.27.14s-.1.18-.09.29c.01.14-.26.4-.45.58-.06.06-.12.11-.18.17-.16.16-.23.4-.25.71-.3.03-.48.21-.61.33-.13.14-.21.22-.45.22-.1,0-.21-.02-.35-.05-.33-.08-.57-.22-.64-.37-.02-.05-.03-.09,0-.13.01-.03.03-.05.11-.1.24-.18.47-.43.37-.99.06,0,.12,0,.18.01,0,.02.02.05.04.09.07.19.24.63.83.63.1,0,.21-.01.33-.04.21-.05.35-.26.3-.48-.02-.11-.09-.19-.18-.25s-.19-.08-.3-.05c-.14.03-.18.03-.18.03-.01-.01-.04-.08-.06-.13-.07-.18-.22-.55-.68-.59-.36-.03-.84-.04-1.18-.04,0,0,0,0-.01,0-.02,0-.03,0-.05,0-.1,0-.21,0-.35.02-.11,0-.22.02-.32.02-.21,0-.34-.04-.44-.12-.06-.05-.11-.2-.09-.38.02-.12.1-.43.46-.59.26-.12.74.09,1.16.27.39.17.76.34,1.13.34.25,0,.47-.08.65-.24.09-.08.15-.17.2-.25.44.2,1.08.41,1.9.44h0c.22,0,.39-.17.4-.39,0-.11-.04-.21-.11-.29-.07-.08-.17-.12-.28-.13-.7-.02-1.25-.21-1.61-.38h2.91c.22,0,.4-.18.4-.4s-.18-.4-.4-.4h-2.92c.23-.11.53-.23.91-.3.22-.04.36-.25.31-.47-.04-.22-.25-.35-.47-.31-.44.09-.78.22-1.06.35-.05-.08-.11-.17-.2-.25-.18-.16-.39-.24-.65-.24-.37,0-.74.16-1.13.34-.41.18-.89.39-1.15.27-.36-.16-.44-.47-.46-.59-.03-.18.03-.33.09-.38.1-.08.23-.12.44-.12.11,0,.22,0,.34.02.11,0,.23.02.33.02.02,0,.03,0,.05,0,0,0,0,0,.01,0,.27,0,.79,0,1.18-.04.47-.04.61-.41.68-.59.02-.05.04-.11.05-.12,0,0,.05,0,.19.02.1.02.21,0,.3-.05.09-.06.15-.15.18-.25.05-.21-.09-.43-.3-.48-.84-.19-1.07.36-1.16.59-.02.04-.03.07-.04.09-.05,0-.12,0-.18,0,.1-.56-.13-.81-.37-.99-.07-.05-.1-.08-.11-.1-.02-.04-.02-.08,0-.13.07-.15.31-.29.64-.37.13-.03.25-.05.35-.05.23,0,.31.08.45.22.12.13.31.31.61.33.01.32.09.55.25.72.06.06.12.12.19.18.18.17.45.43.44.57-.02.22.14.41.36.43,0,0,.03,0,.04,0,.21,0,.38-.16.4-.36.05-.53-.38-.93-.69-1.22-.06-.05-.11-.11-.16-.15,0,0-.11-.17.04-.89,0,0,0,0,0,0,.02-.06.03-.13.05-.19.11-.49.19-.85.88-.87.02,0,.05,0,.07,0,1.2,0,1.82,1.38,1.83,1.39,0,0,0,0,0,0,0,0,0,0,0,0,.08.18.09.36.02.48-.1.18-.35.37-.61.57-.48.38-1.09.85-.88,1.53.21.68.86.64,1.22.61.16-.01.24,0,.27,0,.07.14.21.23.36.23.05,0,.09,0,.12-.02.21-.07.32-.29.26-.51-.18-.55-.75-.51-1.07-.49-.38.03-.39,0-.4-.05-.05-.15.25-.39.61-.67.31-.24.63-.49.81-.8.16-.27.16-.61.07-.95.08-.11.26-.29.59-.29.13,0,.27.02.42.07.45.15.47.31.34,1.06-.01.06-.02.13-.03.19,0,0,0,0,0,0,0,0,0,0,0,0,0,.01-.06.35-.45.72-.16.15-.17.4-.02.57.08.08.18.13.29.13.1,0,.2-.04.27-.11.21-.19.34-.38.44-.55.16.04.34.04.52.05.66.03.85.09.88.47.02.36-.05.64-.23.83-.23.24-.55.27-.68.27-.08,0-.15,0-.22-.03-.15-.04-.46-.1-.8-.1-.49,0-.81.14-.96.43-.06.11-.08.23-.07.35h-.42c-.22,0-.4.18-.4.4s.18.4.4.4h.42c0,.13.02.24.07.35.15.28.47.43.96.43.33,0,.64-.06.8-.1.07-.02.15-.03.22-.03.13,0,.46.03.68.27.17.18.25.46.23.83-.02.37-.22.44-.88.47-.18,0-.36.02-.52.05-.1-.17-.24-.36-.44-.55ZM12.82,13.98h0s0,0,0,0h0ZM12.31,10.33h0s0,0,0,0h0Z"/>
</svg>