<?xml version="1.0" encoding="UTF-8"?>
<svg id="Layer_1" data-name="Layer 1" xmlns="http://www.w3.org/2000/svg" version="1.1" viewBox="0 0 19.84 19.84">
  <defs>
    <style>
      .cls-1 {
        fill: #f47e20;
      }

      .cls-1, .cls-2 {
        stroke-width: 0px;
      }

      .cls-2 {
        fill: #fff;
      }
    </style>
  </defs>
  <path class="cls-2" d="M17.9,12.4c-.16.11-.34.19-.55.19-.57,0-1.03-.46-1.03-1.03,0-.67.46-1.13,1.03-1.13.19,0,.36.07.51.15-.57-3.39-3.91-6.01-7.94-6.01-.41,0-.81.04-1.2.09.03.11.06.22.08.33,0,0,.02,0,.03,0,.76,0,1.36.47,1.36,1.06s-.6,1.06-1.36,1.06c-.57,0-1.05-.27-1.26-.65-.79-.06-1.55-.26-2.27-.59-2.06,1.27-3.42,3.37-3.42,5.75,0,3.88,3.61,7.04,8.04,7.04,4.13,0,7.53-2.74,7.99-6.24ZM11.48,4.85c.57,0,1.03.46,1.03,1.03,0,.67-.46,1.13-1.03,1.13s-1.03-.46-1.03-1.03c0-.67.46-1.13,1.03-1.13ZM4.37,11.12c-.59-.03-1.03-.51-1-1.08v-.29c.04-.57.52-1.02,1.09-.98.28.01.53.13.72.33.19.2.28.47.27.74v.29c-.04.55-.49.99-1.04.99h-.03ZM5.6,15.04c-.57,0-1.03-.46-1.03-1.03,0-.67.46-1.13,1.03-1.13s1.03.46,1.03,1.03c0,.67-.46,1.13-1.03,1.13ZM8.69,11.95c0,.57-.46,1.03-1.03,1.03s-1.03-.46-1.03-1.03v-.29c0-.57.46-1.03,1.03-1.03s1.03.46,1.03,1.03v.29ZM9.95,9.55c-.19.19-.45.3-.73.3s-.53-.11-.73-.3c-.4-.4-.4-1.06,0-1.46l.1-.1c.39-.39,1.07-.39,1.46,0,.4.4.4,1.06,0,1.46l-.1.1ZM11.09,17.78c-.57,0-1.03-.46-1.03-1.03,0-.63.46-1.09,1.03-1.09s1.03.46,1.03,1.03c0,.63-.46,1.09-1.03,1.09ZM12.88,12.88c-.57,0-1.03-.46-1.03-1.03,0-.67.46-1.13,1.03-1.13s1.03.46,1.03,1.03c0,.67-.46,1.13-1.03,1.13ZM13.87,8.62c0-.67.46-1.13,1.03-1.13s1.03.46,1.03,1.03c0,.67-.46,1.13-1.03,1.13s-1.03-.46-1.03-1.03ZM15.49,14.94c-.57,0-1.03-.46-1.03-1.03s.46-1.03,1.03-1.03c.67,0,1.13.46,1.13,1.03s-.46,1.03-1.03,1.03h-.1Z"/>
  <path class="cls-1" d="M9.92,3.66c-.51,0-1.01.05-1.5.12-.34-.76-.84-1.47-1.49-2.06C5.69.59,3.37.15,1.83.32l-.48.05.08.48c.27,1.62,1.15,3.14,2.44,4.17.17.13.35.24.53.36-2.08,1.46-3.43,3.71-3.43,6.24,0,4.38,4.02,7.95,8.95,7.95s8.95-3.56,8.95-7.95S14.85,3.66,9.92,3.66ZM1.88,11.61c0-2.37,1.35-4.47,3.42-5.75.72.33,1.49.53,2.27.59.2.39.68.65,1.26.65.76,0,1.36-.47,1.36-1.06s-.6-1.06-1.36-1.06c0,0-.02,0-.03,0-.02-.11-.05-.22-.08-.33.39-.05.79-.09,1.2-.09,4.03,0,7.37,2.62,7.94,6.01-.15-.09-.32-.15-.51-.15-.57,0-1.03.46-1.03,1.13,0,.57.46,1.03,1.03,1.03.21,0,.39-.08.55-.19-.45,3.51-3.86,6.24-7.99,6.24-4.43,0-8.04-3.16-8.04-7.04ZM8.82,6.2c-.27,0-.43-.12-.45-.14.02-.05.18-.16.45-.16.25,0,.4.1.44.15-.04.05-.19.15-.44.15ZM7.9,5.27c-.11.08-.2.18-.27.28-1.16-.1-2.29-.52-3.2-1.25-.98-.78-1.69-1.9-2-3.11,1.3,0,3,.39,3.88,1.2.86.79,1.42,1.83,1.59,2.87ZM17.47,11.56c0,.13-.24.23-.24-.1,0-.06.05-.12.12-.12s.12.05.12.22Z"/>
  <path class="cls-2" d="M4.52,10.1v-.29c.02-.06-.05-.12-.1-.12h0c-.06,0-.12.05-.12.11v.29c-.02.07.04.12.1.12v.46s0-.46,0-.46c.06,0,.12-.05.12-.11Z"/>
  <path class="cls-1" d="M5.43,10.13v-.29c.02-.28-.07-.54-.26-.74-.19-.2-.44-.32-.72-.33-.56-.04-1.05.42-1.07.98v.29c-.04.57.4,1.05.99,1.08h.03c.55,0,1.01-.43,1.03-.99ZM4.4,10.67v-.46c-.07,0-.12-.06-.12-.12v-.29c.02-.07.07-.11.13-.11h0c.06,0,.12.07.11.12v.29c-.02.06-.07.11-.13.11v.46Z"/>
  <path class="cls-2" d="M7.66,11.54c-.07,0-.12.05-.12.12v.29c0,.13.24.13.24,0v-.29c0-.07-.05-.12-.12-.12Z"/>
  <path class="cls-1" d="M7.66,10.63c-.57,0-1.03.46-1.03,1.03v.29c0,.57.46,1.03,1.03,1.03s1.03-.46,1.03-1.03v-.29c0-.57-.46-1.03-1.03-1.03ZM7.78,11.95c0,.13-.24.13-.24,0v-.29c0-.07.05-.12.12-.12s.12.05.12.12v.29Z"/>
  <path class="cls-2" d="M5.6,13.79c-.07,0-.12.05-.12.12,0,.33.24.23.24.1,0-.16-.05-.22-.12-.22Z"/>
  <path class="cls-1" d="M5.6,12.88c-.57,0-1.03.46-1.03,1.13,0,.57.46,1.03,1.03,1.03s1.03-.46,1.03-1.13c0-.57-.46-1.03-1.03-1.03ZM5.48,13.91c0-.07.05-.12.12-.12s.12.05.12.22c0,.13-.24.23-.24-.1Z"/>
  <path class="cls-2" d="M15.03,8.62c0-.16-.05-.22-.12-.22s-.12.05-.12.12c0,.33.24.23.24.1Z"/>
  <path class="cls-1" d="M15.94,8.52c0-.57-.46-1.03-1.03-1.03s-1.03.46-1.03,1.13c0,.57.46,1.03,1.03,1.03s1.03-.46,1.03-1.13ZM14.79,8.52c0-.07.05-.12.12-.12s.12.05.12.22c0,.13-.24.23-.24-.1Z"/>
  <path class="cls-2" d="M12.88,11.64c-.07,0-.12.05-.12.12,0,.33.24.23.24.1,0-.16-.05-.22-.12-.22Z"/>
  <path class="cls-1" d="M12.88,10.72c-.57,0-1.03.46-1.03,1.13,0,.57.46,1.03,1.03,1.03s1.03-.46,1.03-1.13c0-.57-.46-1.03-1.03-1.03ZM12.76,11.76c0-.07.05-.12.12-.12s.12.05.12.22c0,.13-.24.23-.24-.1Z"/>
  <path class="cls-2" d="M17.23,11.46c0,.33.24.23.24.1,0-.16-.05-.22-.12-.22s-.12.05-.12.12Z"/>
  <path class="cls-2" d="M15.59,13.79c-.16,0-.22.05-.22.12s.05.12.12.12h.1c.07,0,.12-.05.12-.12s-.05-.12-.12-.12Z"/>
  <path class="cls-1" d="M16.62,13.91c0-.57-.46-1.03-1.13-1.03-.57,0-1.03.46-1.03,1.03s.46,1.03,1.03,1.03h.1c.57,0,1.03-.46,1.03-1.03ZM15.59,14.03h-.1c-.07,0-.12-.05-.12-.12s.05-.12.22-.12c.07,0,.12.05.12.12s-.05.12-.12.12Z"/>
  <path class="cls-2" d="M9.24,8.64l-.1.1s-.05.12,0,.17l.08.04s.05,0,.08-.03l.1-.1s.05-.12,0-.17h-.17Z"/>
  <path class="cls-1" d="M10.05,7.99c-.39-.39-1.07-.39-1.46,0l-.1.1c-.4.4-.4,1.06,0,1.46.2.19.45.3.73.3s.54-.11.73-.3l.1-.1c.4-.4.4-1.06,0-1.46ZM9.41,8.8l-.1.1s-.06.03-.08.03l-.08-.04s-.05-.12,0-.17l.1-.1h.17s.05.12,0,.17Z"/>
  <path class="cls-2" d="M11.09,16.57c-.07,0-.12.05-.12.12,0,.25.24.19.24.06s-.05-.18-.12-.18Z"/>
  <path class="cls-1" d="M11.09,15.66c-.57,0-1.03.46-1.03,1.09,0,.57.46,1.03,1.03,1.03s1.03-.46,1.03-1.09c0-.57-.46-1.03-1.03-1.03ZM10.97,16.69c0-.07.05-.12.12-.12s.12.05.12.18-.24.19-.24-.06Z"/>
  <path class="cls-2" d="M11.6,5.98c0-.16-.05-.22-.12-.22s-.12.05-.12.12c0,.33.24.23.24.1Z"/>
  <path class="cls-1" d="M11.48,7.01c.57,0,1.03-.46,1.03-1.13,0-.57-.46-1.03-1.03-1.03s-1.03.46-1.03,1.13c0,.57.46,1.03,1.03,1.03ZM11.48,5.76c.07,0,.12.05.12.22,0,.13-.24.23-.24-.1,0-.07.05-.12.12-.12Z"/>
  <path class="cls-2" d="M6.31,2.39c-.89-.81-2.58-1.21-3.88-1.2.31,1.21,1.03,2.33,2,3.11.91.73,2.04,1.15,3.2,1.25.07-.11.16-.2.27-.28-.18-1.05-.73-2.08-1.59-2.87Z"/>
  <path class="cls-2" d="M8.82,5.9c-.27,0-.43.12-.45.16.02.02.18.14.45.14.25,0,.4-.1.44-.15-.04-.05-.19-.15-.44-.15Z"/>
</svg>