<?xml version="1.0" encoding="UTF-8"?>
<svg id="Layer_1" data-name="Layer 1" xmlns="http://www.w3.org/2000/svg" version="1.1" viewBox="0 0 622.41 182.83">
  <defs>
    <style>
      .cls-1 {
        fill: #30383b;
      }

      .cls-1, .cls-2, .cls-3 {
        stroke-width: 0px;
      }

      .cls-2 {
        fill: #005564;
      }

      .cls-3 {
        fill: #1d1d1b;
      }
    </style>
  </defs>
  <path class="cls-3" d="M187.03,81.05c-4.76,2.73-10.15,4.12-16.03,4.12-5.33,0-9.77-1.19-13.22-3.54-2.64-1.8-4.39-4.02-5.3-6.74.85.03,1.7.06,2.55.08,1.66.04,3.13.06,4.36.06,13.03,0,22.35-1.67,28.49-5.12,6.41-3.6,9.67-9.08,9.67-16.29s-2.76-12.65-8.21-16.72c-5.27-3.94-12.2-5.94-20.58-5.94-6.88,0-13.1,1.53-18.49,4.56-5.4,3.03-9.7,7.26-12.78,12.58-3.07,5.31-4.63,11.5-4.63,18.39s1.52,12.87,4.51,18.02c3,5.16,7.22,9.25,12.55,12.15,5.3,2.89,11.47,4.36,18.35,4.36,3.09,0,6.3-.28,9.57-.84,3.27-.56,6.36-1.37,9.2-2.4,2.87-1.04,5.31-2.2,7.25-3.43l1.5-.95-7-13.33-1.74,1ZM151.44,61.27c.45-4.39,2.06-7.91,4.87-10.73,3.19-3.19,7.18-4.74,12.19-4.74,3.49,0,6.34.75,8.45,2.22,1.95,1.36,2.86,3.06,2.86,5.35,0,5.27-6.62,7.94-19.68,7.94h-6.25c-.84,0-1.66-.01-2.45-.04Z"/>
  <path class="cls-3" d="M288.26,4.97c-.94-.52-2.1-.91-3.55-1.2-1.37-.27-2.71-.41-4-.41-2.68,0-4.94.71-6.69,2.1-1.89,1.5-2.85,3.67-2.85,6.44v25.79c-1.82-1.58-3.89-2.91-6.18-3.99-3.87-1.82-8.28-2.74-13.12-2.74-6.32,0-12.11,1.54-17.22,4.58-5.1,3.03-9.2,7.22-12.18,12.44-2.99,5.23-4.5,11.28-4.5,18.01s1.56,12.81,4.63,18.08c3.08,5.28,7.41,9.47,12.85,12.46,5.43,2.98,11.79,4.48,18.91,4.48s13.27-1.54,18.46-4.57c5.22-3.05,9.32-7.5,12.18-13.23,2.83-5.66,4.26-12.46,4.26-20.22V5.52l-.99-.55ZM271.29,65.86c0,5.61-1.6,9.99-4.89,13.4-3.27,3.39-7.38,5.03-12.54,5.03s-9.14-1.65-12.42-5.03c-3.29-3.41-4.89-7.79-4.89-13.4s1.6-9.99,4.89-13.4c3.27-3.39,7.34-5.03,12.42-5.03s9.27,1.65,12.54,5.03c3.29,3.4,4.89,7.79,4.89,13.4Z"/>
  <g>
    <path class="cls-3" d="M323.69,25.94c3.03,0,5.57-1.04,7.56-3.08,1.98-2.03,2.98-4.58,2.98-7.59s-1-5.56-2.98-7.59c-1.99-2.04-4.54-3.08-7.56-3.08s-5.57,1.04-7.56,3.08c-1.98,2.03-2.98,4.58-2.98,7.59s1,5.56,2.98,7.59c1.99,2.04,4.54,3.08,7.56,3.08Z"/>
    <path class="cls-3" d="M328.19,33.12c-1.37-.27-2.71-.41-4-.41-2.68,0-4.94.71-6.69,2.1-1.89,1.5-2.85,3.67-2.85,6.44v58.01h18.09V34.87l-.99-.55c-.94-.52-2.1-.91-3.55-1.2Z"/>
  </g>
  <path class="cls-1" d="M383.06,10.41h26.68c4.03,0,7.87.39,11.54,1.17,3.66.78,6.91,2.1,9.75,3.95,2.84,1.85,5.1,4.32,6.79,7.4,1.68,3.08,2.53,6.89,2.53,11.41,0,4.77-.91,8.72-2.71,11.84-1.81,3.13-4.13,5.59-6.97,7.4-2.84,1.81-5.94,3.08-9.31,3.82-3.37.74-6.58,1.11-9.62,1.11h-17.52v39.23h-11.13V10.41ZM394.2,48.9h17.52c5.18,0,9.4-1.17,12.65-3.52,3.25-2.34,4.87-5.98,4.87-10.92s-1.63-8.57-4.87-10.92c-3.25-2.34-7.46-3.52-12.65-3.52h-17.52v28.87Z"/>
  <path class="cls-1" d="M500.9,100.34c-6.48,0-12.42-1.12-17.83-3.36s-10.08-5.34-14.04-9.3c-3.96-3.96-7.04-8.68-9.24-14.17-2.2-5.48-3.3-11.42-3.3-17.83s1.1-12.34,3.3-17.83c2.2-5.48,5.28-10.2,9.24-14.16,3.96-3.96,8.64-7.06,14.04-9.3,5.4-2.24,11.34-3.36,17.83-3.36s12.42,1.12,17.83,3.36c5.4,2.24,10.08,5.34,14.04,9.3,3.96,3.96,7.04,8.68,9.24,14.16,2.2,5.48,3.3,11.42,3.3,17.83s-1.1,12.34-3.3,17.83c-2.2,5.48-5.28,10.2-9.24,14.17-3.96,3.96-8.64,7.06-14.04,9.3s-11.34,3.36-17.83,3.36ZM500.9,90.98c4.96,0,9.5-.92,13.62-2.76,4.12-1.84,7.66-4.36,10.62-7.56,2.96-3.2,5.26-6.94,6.9-11.22,1.64-4.28,2.46-8.86,2.46-13.74s-.82-9.46-2.46-13.74c-1.64-4.28-3.94-8.02-6.9-11.22-2.96-3.2-6.5-5.72-10.62-7.56-4.12-1.84-8.66-2.76-13.62-2.76s-9.5.92-13.62,2.76c-4.12,1.84-7.66,4.36-10.62,7.56-2.96,3.2-5.26,6.94-6.9,11.22-1.64,4.28-2.46,8.86-2.46,13.74s.82,9.46,2.46,13.74c1.64,4.28,3.94,8.02,6.9,11.22,2.96,3.2,6.5,5.72,10.62,7.56,4.12,1.84,8.66,2.76,13.62,2.76Z"/>
  <path class="cls-1" d="M618.53,22.38h-24.06v75.38h-11.13V22.38h-25.83v-9.62h61.02v9.62Z"/>
  <path class="cls-3" d="M111.14,94.83c-.41-7.45-4.04-72.84-4.38-75.38-.65-4.84-4.42-9.72-11.4-9.72-6.13,0-10.78,3.35-13.08,9.44-.39,1.04-1.48,3.96-2.97,7.97-4.28,11.51-13.3,35.78-17.14,45.57-3.69-8.59-8.83-22.86-13.08-34.67-4.75-13.2-7.5-20.75-8.61-22.45l-.17-.26c-1.49-2.3-3.75-5.79-11.57-5.79-9.13,0-11.24,7.03-11.73,10.06-.59,3.68-11.9,76.71-12.02,77.45l-.34,2.22h18.61l10.14-58.51c4.45,11.52,13.87,36.79,20.56,54.83l.47,1.26h14.92l20.36-54.25,3.22,56.67h14.03c1.15,0,2.26-.48,3.05-1.32.79-.84,1.21-1.97,1.14-3.12Z"/>
  <path class="cls-1" d="M526.12,50.72h-20.25v-19.42c0-.46-.37-.83-.83-.83h-8.27c-.46,0-.83.37-.83.83v19.42h-20.25v9.93h20.25v19.42c0,.46.37.83.83.83h8.27c.46,0,.83-.37.83-.83v-19.42h20.25v-9.93Z"/>
  <g>
    <path class="cls-2" d="M221.99,143.46c-.14-.64-.07-1.06.71-.99,3.83.21,9.08-.57,12.34-.57,3.55,0,4.9,1.63,5.32,3.69.14.64,0,1.06-.78.99-5.18-.43-9.15.78-12.42.64-3.33-.14-4.75-1.63-5.18-3.76Z"/>
    <path class="cls-2" d="M263.09,161.55c-.28.71-.64.78-1.13.28-.99-1.06-1.7-3.19-.64-7.02,1.77-6.46,8.44-19.94,14.69-29.73-2.41-.21-3.69-1.28-4.54-2.84-.35-.71-.14-1.06.78-1.2,5.96-.71,11.28-3.62,16.03-3.83,3.62-.14,6.74.92,8.44,5.75,1.49,4.26.5,8.58-2.2,12.2-3.83,5.11-11.49,9.58-19.37,11.42,2.7,3.33,5.25,6.74,6.74,9.72.99,1.92,1.28,4.33.35,5.75-.35.57-.71.78-1.13.14-4.68-6.39-8.37-11-11.71-14.69-1.92,3.76-3.97,8.23-6.31,14.05ZM277.64,132.68c-1.92,3.41-3.69,6.39-5.6,9.86,15.68-3.48,23.7-13.83,21.64-18.87-1.56-3.97-8.66-.28-13.34.99,0,1.99-.78,4.47-2.7,8.02Z"/>
    <path class="cls-2" d="M300.34,160.42c5.89.28,11.07-5.39,14.12-10.07.35-.57.92-.57,1.21.07.28.57.07,2.55-1.21,4.4-2.98,4.33-8.44,7.59-13.91,7.66-9.01.14-12.13-8.73-7.52-17.88,4.61-9.15,11.85-12.84,15.4-10.78,1.77,1.06,3.05,2.13,4.19,3.69,1.28,1.7.71,6.03-2.27,9.65-3.48,4.26-8.23,6.1-13.2,2.06-2.27,6.53-.57,11,3.19,11.21ZM306.23,144.1c2.27-2.98,3.83-6.67,2.84-7.45-1.49-1.21-7.38,3.05-10.71,9.79-.21.43-.43.85-.57,1.2,3.48,2.2,6.39-.85,8.44-3.55Z"/>
    <path class="cls-2" d="M334.74,137.86c1.49,2.98-1.35,6.74-2.77,10.57-.28.85-.57,1.06-1.49.57-1.7-.85-2.7-2.98-1.7-6.17.78-2.55,2.91-5.61,1.92-6.39-1.21-.99-6.53,3.55-9.72,10-3.9,8.02-2.41,13.9,1.77,13.97,5.96.07,11.07-5.6,13.98-10.07.35-.57.99-.64,1.28.07.21.57-.07,2.34-1.28,4.26-2.7,4.19-8.3,7.66-13.69,7.73-9.01.14-12.06-8.66-7.45-17.81,4.54-8.94,11.71-12.77,15.25-10.64,1.92,1.13,3.05,2.27,3.9,3.9Z"/>
    <path class="cls-2" d="M335.52,152.04c1.77-5.18,6.46-13.55,9.08-17.24.64-.85,1.14-1.06,1.7-.43,1.06,1.14,1.63,4.19-.07,7.73-1.49,3.12-4.47,7.95-5.96,11.49-1.7,4.12-1.56,6.88.71,6.74,3.19-.14,7.09-4.82,9.22-9.72.35-.64.85-.57,1.13,0,.57,1.13.35,2.62-.5,4.4-2.13,4.4-6.6,7.38-10.57,7.38-5.39,0-6.74-4.54-4.75-10.36ZM351.34,133.53c-.92.99-2.91.78-3.97-1.06-1.13-1.92-.78-4.04.35-5.25,1.14-1.21,3.19-.35,4.11,1.56.92,1.84.43,3.76-.5,4.75Z"/>
    <path class="cls-2" d="M377.24,150.7c.43-.99,1.21-.71,1.35,0,.14.64.28,2.48-.92,4.68-2.7,4.9-7.52,7.24-12.63,7.59-4.54.28-7.52-.35-10-2.62-1.49-1.35-2.2-2.98-2.41-4.75-3.33,6.1-6.95,13.34-10.36,21.21-.28.64-.78.78-1.21.14-1.06-1.49-1.42-3.48-.07-7.8,2.13-6.88,14.05-29.37,18.52-35.33.71-.92,1.35-.78,1.7.07.35.92.5,1.99.43,3.19,3.12-2.7,7.31-4.68,10.36-1.49,3.41,3.62,1.84,9.93-.78,15.75-2.13,4.68-4.75,8.09-7.45,9.72,6.95-.43,11.21-5.53,13.48-10.36ZM356.45,158.86c2.27,1.84,6.88-3.33,10.22-10.15,2.77-5.68,3.55-11.56,1.77-12.42-1.7-.85-6.1,2.7-9.44,8.16-.78,1.28-1.56,2.55-2.41,4.04-1.77,4.47-2.13,8.73-.14,10.36Z"/>
    <path class="cls-2" d="M386.24,160.42c5.89.28,11.07-5.39,14.12-10.07.35-.57.92-.57,1.21.07.28.57.07,2.55-1.21,4.4-2.98,4.33-8.44,7.59-13.91,7.66-9.01.14-12.13-8.73-7.52-17.88,4.61-9.15,11.85-12.84,15.4-10.78,1.77,1.06,3.05,2.13,4.19,3.69,1.28,1.7.71,6.03-2.27,9.65-3.48,4.26-8.23,6.1-13.2,2.06-2.27,6.53-.57,11,3.19,11.21ZM392.13,144.1c2.27-2.98,3.83-6.67,2.84-7.45-1.49-1.21-7.38,3.05-10.71,9.79-.21.43-.43.85-.57,1.2,3.48,2.2,6.39-.85,8.44-3.55Z"/>
    <path class="cls-2" d="M418.02,143.46c-.14-.64-.07-1.06.71-.99,3.83.21,9.08-.57,12.34-.57,3.55,0,4.9,1.63,5.32,3.69.14.64,0,1.06-.78.99-5.18-.43-9.15.78-12.42.64-3.33-.14-4.75-1.63-5.18-3.76Z"/>
  </g>
</svg>